<svg width="24" height="24" viewBox="0 0 24 24" fill="none" xmlns="http://www.w3.org/2000/svg">
<path d="M2 5.33333C2 3.49239 3.49239 2 5.33333 2C7.17428 2 8.66667 3.49239 8.66667 5.33333C8.66667 6.78469 7.7391 8.0194 6.44444 8.47699V11.4834C7.09817 11.1053 7.85714 10.8889 8.66667 10.8889H15.3333C16.5607 10.8889 17.5556 9.894 17.5556 8.66667V8.47699C16.2609 8.0194 15.3333 6.78469 15.3333 5.33333C15.3333 3.49239 16.8257 2 18.6667 2C20.5077 2 22 3.49239 22 5.33333C22 6.78469 21.0724 8.0194 19.7778 8.47699V8.66667C19.7778 11.1212 17.7879 13.1111 15.3333 13.1111H8.66667C7.43937 13.1111 6.44444 14.106 6.44444 15.3333V15.523C7.7391 15.9806 8.66667 17.2153 8.66667 18.6667C8.66667 20.5077 7.17428 22 5.33333 22C3.49239 22 2 20.5077 2 18.6667C2 17.2153 2.92757 15.9806 4.22222 15.523V8.47699C2.92757 8.0194 2 6.78469 2 5.33333Z" fill="#09244B"/>
</svg>
