<svg width="20" height="20" viewBox="0 0 20 20" fill="none" xmlns="http://www.w3.org/2000/svg">
<g id="Frame 634">
<g id="Vector">
<path d="M5.98291 0H6.45959C7.6817 0.0887737 8.70156 0.562349 9.51918 1.42073C10.9907 2.96529 11.1798 5.35389 9.9741 7.11244C9.18291 8.26684 7.89741 9.01969 6.48653 9.08653C6.4817 9.08687 6.47928 9.08947 6.47928 9.0943V9.09482C6.47893 9.09896 6.48083 9.10104 6.48498 9.10104C7.91987 9.18705 9.17013 9.68014 10.2358 10.5803C11.3461 11.5181 12.0767 12.8088 12.3383 14.2373C12.3389 14.2398 12.3389 14.2424 12.3383 14.2448C12.3377 14.2473 12.3366 14.2496 12.335 14.2516C12.3334 14.2536 12.3314 14.2552 12.3291 14.2563C12.3268 14.2574 12.3243 14.258 12.3218 14.258C11.7833 14.2663 11.2786 14.2665 10.8078 14.2585C10.3525 14.2506 10.0121 14.2777 9.78653 14.3399C8.95182 14.5694 8.2969 15.2321 8.10933 16.0663C8.06201 16.277 8.04007 16.6219 8.04353 17.101C8.05113 18.0617 8.05216 19.0136 8.04664 19.957C8.0465 19.9627 8.04415 19.9681 8.04008 19.972C8.03602 19.976 8.03056 19.9782 8.02487 19.9782H0.0207302C0.0153709 19.9782 0.0102313 19.9761 0.00644169 19.9723C0.0026521 19.9685 0.000522982 19.9634 0.000522982 19.958C0.00155925 18.4945 0.00138663 17.0147 4.93463e-06 15.5187C-0.000340489 15.1826 0.0174487 14.8727 0.0533727 14.5891C0.236792 13.1321 0.926948 11.7679 2.01814 10.7591C3.11002 9.75009 4.42021 9.19775 5.94871 9.10207C5.95389 9.10173 5.95648 9.09914 5.95648 9.0943V9.09378C5.95648 9.08687 5.95285 9.08342 5.9456 9.08342C5.80709 9.08169 5.67168 9.07064 5.53938 9.05026C4.26218 8.85181 3.10829 8.12435 2.40104 7.02591C1.1798 5.12746 1.50622 2.63523 3.21918 1.13212C3.99189 0.454059 4.91313 0.0766839 5.98291 0Z" fill="#252526"/>
<path d="M15.8076 15.7992L15.808 14.0959C15.808 14.0731 15.7995 14.0617 15.7825 14.0617C15.2328 14.0589 14.6397 14.0598 14.0033 14.0643C13.7219 14.0664 13.4953 13.9445 13.3803 13.5993C13.3406 13.4808 13.3216 13.3298 13.3231 13.1463C13.3311 12.1355 13.3307 11.154 13.322 10.202C13.3196 9.94489 13.3392 9.75518 13.3806 9.63284C13.4961 9.29384 13.7188 9.17047 13.9898 9.17099C15.5249 9.17582 17.1282 9.17634 18.7998 9.17254C19.2132 9.1715 19.4522 9.50429 19.4498 10.0563C19.445 11.1273 19.4446 12.1861 19.4487 13.2328C19.4506 13.746 19.1819 14.0648 18.8094 14.0627C18.1591 14.0593 17.5504 14.0589 16.9835 14.0617C16.9716 14.0617 16.9657 14.0696 16.9657 14.0855L16.9661 15.8189C16.9661 15.8286 16.9697 15.8336 16.9769 15.834C17.5192 15.8398 18.0705 15.8391 18.6311 15.8319C18.8645 15.8288 19.0185 15.8511 19.0931 15.8988C19.3765 16.0791 19.4522 16.371 19.4502 16.7763C19.4461 17.7844 19.4455 18.8522 19.4483 19.9798C19.4483 19.9851 19.4467 19.9903 19.4439 19.9941C19.4411 19.9979 19.4372 20 19.4332 20H9.62917C9.61631 20 9.60974 19.9914 9.60949 19.9741C9.60588 18.9526 9.60485 17.949 9.6064 16.9635C9.60666 16.6756 9.60846 16.5204 9.6118 16.498C9.66739 16.1123 9.89631 15.8381 10.192 15.8376C12.1283 15.8359 13.991 15.8357 15.7798 15.8371C15.7984 15.8371 15.8076 15.8245 15.8076 15.7992Z" fill="#252526"/>
</g>
</g>
</svg>
