<svg width="45" height="50" viewBox="0 0 45 50" fill="none" xmlns="http://www.w3.org/2000/svg">
<path fill-rule="evenodd" clip-rule="evenodd" d="M20.0487 0.642131C21.5707 -0.214044 23.4293 -0.214044 24.9513 0.642131L42.4512 10.4859C44.0257 11.3715 45 13.0374 45 14.8438V34.2054C45 35.7966 44.1585 37.2691 42.7878 38.0771L24.7167 48.7269C23.349 49.5331 21.651 49.5331 20.2833 48.7269L2.21237 38.0771C0.841475 37.2691 0 35.7966 0 34.2054V14.8438C0 13.0374 0.974301 11.3715 2.5487 10.4859L20.0487 0.642131ZM5.3215 14.9683C5.99843 13.765 7.5227 13.3382 8.7261 14.0151L22.5005 21.7631L36.2747 14.0151C37.4782 13.3382 39.0025 13.765 39.6795 14.9683C40.3562 16.1717 39.9295 17.696 38.726 18.3729L25.0005 26.0936V42.1314C25.0005 43.5121 23.8813 44.6314 22.5005 44.6314C21.1198 44.6314 20.0005 43.5121 20.0005 42.1314V26.0936L6.2748 18.3729C5.0714 17.696 4.6446 16.1717 5.3215 14.9683Z" fill="#323232"/>
</svg>
