<svg width="21" height="20" viewBox="0 0 21 20" fill="none" xmlns="http://www.w3.org/2000/svg">
<rect x="0.883789" width="20" height="20" rx="10" fill="#4763FF"/>
<path d="M2.55078 9.99996C2.55078 5.39746 6.28161 1.66663 10.8841 1.66663C12.0779 1.66552 13.2579 1.92141 14.344 2.41692C15.43 2.91243 16.3967 3.63595 17.1783 4.5383L19.2174 2.49996V7.49996H14.8716C15.2399 7.87496 15.4674 8.3908 15.4674 8.9583V11.0416C15.4674 11.5942 15.248 12.1241 14.8573 12.5148C14.4666 12.9055 13.9366 13.125 13.3841 13.125C12.8316 13.125 12.3017 12.9055 11.911 12.5148C11.5203 12.1241 11.3008 11.5942 11.3008 11.0416V8.9583C11.3007 8.58401 11.4014 8.21661 11.5924 7.89471C11.7833 7.57281 12.0575 7.3083 12.386 7.12898C12.7145 6.94967 13.0853 6.86217 13.4594 6.87568C13.8334 6.8892 14.1969 7.00323 14.5116 7.2058L15.9966 5.7208C14.9905 4.51857 13.5928 3.70937 12.0493 3.43538C10.5057 3.16139 8.91494 3.44014 7.5565 4.22264C6.19805 5.00515 5.15883 6.24135 4.62141 7.71406C4.08399 9.18676 4.08276 10.8018 4.61793 12.2753C5.15311 13.7488 6.19045 14.9866 7.5477 15.7712C8.90495 16.5557 10.4953 16.8369 12.0393 16.5653C13.5832 16.2936 14.9821 15.4866 15.9901 14.2859C16.9981 13.0852 17.5507 11.5677 17.5508 9.99996H19.2174C19.2174 14.6025 15.4866 18.3333 10.8841 18.3333C6.28161 18.3333 2.55078 14.6025 2.55078 9.99996ZM13.3841 8.12496C13.1631 8.12496 12.9511 8.21276 12.7949 8.36904C12.6386 8.52532 12.5508 8.73728 12.5508 8.9583V11.0416C12.5508 11.2626 12.6386 11.4746 12.7949 11.6309C12.9511 11.7872 13.1631 11.875 13.3841 11.875C13.6051 11.875 13.8171 11.7872 13.9734 11.6309C14.1297 11.4746 14.2174 11.2626 14.2174 11.0416V8.9583C14.2174 8.73728 14.1297 8.52532 13.9734 8.36904C13.8171 8.21276 13.6051 8.12496 13.3841 8.12496ZM9.21745 11.1458C9.21745 11.0077 9.16257 10.8752 9.0649 10.7775C8.96722 10.6798 8.83475 10.625 8.69661 10.625H7.13411V9.37496H8.69661C8.83475 9.37496 8.96722 9.32009 9.0649 9.22241C9.16257 9.12474 9.21745 8.99226 9.21745 8.85413C9.21745 8.716 9.16257 8.58352 9.0649 8.48584C8.96722 8.38817 8.83475 8.3333 8.69661 8.3333H6.50911V7.0833H8.69661C9.03453 7.08333 9.36538 7.18004 9.65011 7.36202C9.93484 7.544 10.1616 7.80364 10.3035 8.1103C10.4454 8.41696 10.4967 8.75783 10.4512 9.09267C10.4056 9.4275 10.2653 9.74232 10.0466 9.99996C10.2653 10.2576 10.4056 10.5724 10.4512 10.9073C10.4967 11.2421 10.4454 11.583 10.3035 11.8896C10.1616 12.1963 9.93484 12.4559 9.65011 12.6379C9.36538 12.8199 9.03453 12.9166 8.69661 12.9166H6.50911V11.6666H8.69661C8.98411 11.6666 9.21745 11.4333 9.21745 11.1458Z" fill="white"/>
</svg>
