<svg width="21" height="20" viewBox="0 0 21 20" fill="none" xmlns="http://www.w3.org/2000/svg">
<g id="Frame 633">
<path id="Vector" d="M10.1899 3.29424C11.3231 2.66585 12.7645 3.07872 13.3977 4.20174L19.455 14.7143C19.5883 15.0281 19.6467 15.2833 19.6633 15.5484C19.6966 16.1677 19.48 16.7696 19.0551 17.2329C18.6302 17.6945 18.0553 17.967 17.4304 18H5.23242C4.97413 17.9843 4.71584 17.9257 4.47421 17.8349C3.26608 17.3477 2.68285 15.9769 3.17443 14.7887L9.27341 4.19431C9.4817 3.8219 9.79832 3.50068 10.1899 3.29424ZM11.3314 13.2272C10.9315 13.2272 10.5982 13.5575 10.5982 13.9547C10.5982 14.3502 10.9315 14.6813 11.3314 14.6813C11.7313 14.6813 12.0563 14.3502 12.0563 13.9456C12.0563 13.55 11.7313 13.2272 11.3314 13.2272ZM11.3314 8.07533C10.9315 8.07533 10.5982 8.39654 10.5982 8.79373V11.1298C10.5982 11.5261 10.9315 11.8573 11.3314 11.8573C11.7313 11.8573 12.0563 11.5261 12.0563 11.1298V8.79373C12.0563 8.39654 11.7313 8.07533 11.3314 8.07533Z" fill="#FF6B00"/>
</g>
</svg>
