<svg width="25" height="24" viewBox="0 0 25 24" fill="none" xmlns="http://www.w3.org/2000/svg">
<path fill-rule="evenodd" clip-rule="evenodd" d="M20.1088 18.7478H13.7318C13.3178 18.7478 12.9818 19.0838 12.9818 19.4978C12.9818 19.9118 13.3178 20.2478 13.7318 20.2478H20.1088C20.5228 20.2478 20.8588 19.9118 20.8588 19.4978C20.8588 19.0838 20.5228 18.7478 20.1088 18.7478Z" fill="#252526"/>
<path fill-rule="evenodd" clip-rule="evenodd" d="M9.86691 7.73936C9.96636 7.6071 10.1541 7.58033 10.2866 7.67955L15.4665 11.5599C15.5992 11.6594 15.6261 11.8476 15.5266 11.9802L10.7069 18.4C9.54688 19.95 7.79688 20.26 6.58688 20.26C5.83688 20.26 5.29688 20.14 5.23688 20.13C5.10688 20.1 4.98688 20.01 4.91688 19.89C4.84688 19.76 3.12688 16.7 5.04688 14.15L9.86691 7.73936Z" fill="#252526"/>
<path fill-rule="evenodd" clip-rule="evenodd" d="M17.4569 9.40999L16.7869 10.3007C16.6874 10.4329 16.4997 10.4597 16.3673 10.3605L11.1864 6.47945C11.0541 6.38027 11.0269 6.19264 11.1258 6.06002L11.7969 5.15999C12.4869 4.22999 13.5569 3.73999 14.6369 3.73999C15.3769 3.73999 16.1169 3.96999 16.7569 4.44999C17.5069 5.01999 17.9969 5.84999 18.1369 6.77999C18.2669 7.71999 18.0269 8.64999 17.4569 9.40999Z" fill="#252526"/>
</svg>
