<svg width="21" height="20" viewBox="0 0 21 20" fill="none" xmlns="http://www.w3.org/2000/svg">
<g id="Vector">
<path d="M17.5081 -0.000152588L20.668 3.15974L18.2591 5.56968L15.0992 2.40979L17.5081 -0.000152588ZM5.93445 14.7334H9.09434L16.7697 7.05799L13.6098 3.8981L5.93445 11.5735V14.7334Z" fill="#0F3B4D"/>
<path d="M17.5207 17.8935H6.10087C6.07349 17.8935 6.04505 17.9041 6.01766 17.9041C5.98291 17.9041 5.94815 17.8946 5.91233 17.8935H2.77456V3.14739H9.98649L12.0931 1.0408H2.77456C1.61278 1.0408 0.667969 1.98456 0.667969 3.14739V17.8935C0.667969 19.0564 1.61278 20.0001 2.77456 20.0001H17.5207C18.0794 20.0001 18.6152 19.7782 19.0103 19.3831C19.4054 18.9881 19.6273 18.4523 19.6273 17.8935V8.76357L17.5207 10.8702V17.8935Z" fill="#0F3B4D"/>
</g>
</svg>
