<svg width="21" height="20" viewBox="0 0 21 20" fill="none" xmlns="http://www.w3.org/2000/svg">
<g id="Frame 7494">
<path id="Vector" d="M15.2265 8.29412H13.8235V3.88235C13.8235 3.39706 13.4265 3 12.9412 3H9.41176C8.92647 3 8.52941 3.39706 8.52941 3.88235V8.29412H7.12647C6.34118 8.29412 5.94412 9.24706 6.5 9.80294L10.55 13.8529C10.8941 14.1971 11.45 14.1971 11.7941 13.8529L15.8441 9.80294C16.4 9.24706 16.0118 8.29412 15.2265 8.29412ZM5 17.1176C5 17.6029 5.39706 18 5.88235 18H16.4706C16.9559 18 17.3529 17.6029 17.3529 17.1176C17.3529 16.6324 16.9559 16.2353 16.4706 16.2353H5.88235C5.39706 16.2353 5 16.6324 5 17.1176Z" fill="#252526"/>
</g>
</svg>
