<svg width="19" height="13" viewBox="0 0 19 13" fill="none" xmlns="http://www.w3.org/2000/svg">
<path d="M18.8742 5.98558C16.8084 2.00383 13.6859 0 9.5 0C5.31191 0 2.19154 2.00383 0.125828 5.98758C0.0429718 6.14812 0 6.32345 0 6.501C0 6.67854 0.0429718 6.85388 0.125828 7.01442C2.19154 10.9962 5.31409 13 9.5 13C13.6881 13 16.8084 10.9962 18.8742 7.01242C19.0419 6.68942 19.0419 6.31457 18.8742 5.98558ZM9.5 11.5644C5.98523 11.5644 3.4118 9.93344 1.59667 6.5C3.4118 3.06656 5.98523 1.43558 9.5 1.43558C13.0148 1.43558 15.5882 3.06656 17.4033 6.5C15.5904 9.93344 13.0169 11.5644 9.5 11.5644ZM9.41283 2.9908C7.29482 2.9908 5.57775 4.56196 5.57775 6.5C5.57775 8.43804 7.29482 10.0092 9.41283 10.0092C11.5308 10.0092 13.2479 8.43804 13.2479 6.5C13.2479 4.56196 11.5308 2.9908 9.41283 2.9908ZM9.41283 8.73313C8.06402 8.73313 6.97233 7.7342 6.97233 6.5C6.97233 5.2658 8.06402 4.26687 9.41283 4.26687C10.7617 4.26687 11.8533 5.2658 11.8533 6.5C11.8533 7.7342 10.7617 8.73313 9.41283 8.73313Z" fill="#252526"/>
</svg>
