<svg width="18" height="14" viewBox="0 0 18 14" fill="none" xmlns="http://www.w3.org/2000/svg">
<path d="M2.25 14C1.76875 14 1.35692 13.8288 1.0145 13.4864C0.672083 13.144 0.500583 12.7318 0.5 12.25V1.75C0.5 1.26875 0.6715 0.856916 1.0145 0.5145C1.3575 0.172083 1.76933 0.000583333 2.25 0H7.5L9.25 1.75H16.25C16.7312 1.75 17.1434 1.9215 17.4864 2.2645C17.8294 2.6075 18.0006 3.01933 18 3.5V12.25C18 12.7312 17.8288 13.1434 17.4864 13.4864C17.144 13.8294 16.7318 14.0006 16.25 14H2.25Z" fill="#CCCCCC"/>
<path d="M7.29297 0.5L9.04297 2.25H16.25C16.5539 2.25 16.8103 2.34029 17.0371 2.53027L17.1328 2.61816C17.3515 2.83688 17.4685 3.08216 17.4941 3.37207L17.5 3.49902V12.25C17.5 12.5544 17.4097 12.8111 17.2197 13.0381L17.1328 13.1328C16.9148 13.3512 16.6691 13.4685 16.3779 13.4941L16.251 13.5H2.25C1.94555 13.5 1.68931 13.4096 1.46289 13.2197L1.36816 13.1328C1.14994 12.9146 1.03215 12.6687 1.00586 12.377L1 12.249V1.75C1 1.44606 1.09043 1.19016 1.28027 0.963867L1.36816 0.868164C1.58703 0.64979 1.83264 0.532187 2.12305 0.505859L2.25098 0.5H7.29297Z" stroke="#132144" stroke-opacity="0.101961"/>
</svg>
