<svg width="18" height="18" viewBox="0 0 18 18" fill="none" xmlns="http://www.w3.org/2000/svg">
<path id="Vector" d="M15.2398 1H3.51926C2.43999 1 1.54044 1.88881 1.80708 2.93389C2.09094 4.04138 2.61385 5.07329 3.33908 5.95712C4.0643 6.84096 4.97425 7.55528 6.005 8.04992C6.80883 8.43474 7.42612 9.19072 7.42612 10.0815V16.0238C7.4262 16.1902 7.46882 16.3539 7.54991 16.4992C7.631 16.6445 7.74788 16.7667 7.88946 16.8542C8.03104 16.9417 8.19263 16.9915 8.35888 16.999C8.52514 17.0065 8.69055 16.9714 8.83942 16.897L10.7928 15.9203C10.9551 15.8392 11.0915 15.7146 11.1869 15.5604C11.2823 15.4062 11.3329 15.2284 11.333 15.0471V10.0815C11.333 9.19072 11.9503 8.43474 12.7531 8.04992C13.7843 7.55556 14.6946 6.84136 15.4202 5.9575C16.1458 5.07364 16.669 4.04159 16.953 2.93389C17.2177 1.88881 16.3171 1 15.2398 1Z" stroke="white" stroke-width="2"/>
</svg>
