<svg width="10" height="10" viewBox="0 0 10 10" fill="none" xmlns="http://www.w3.org/2000/svg">
<path fill-rule="evenodd" clip-rule="evenodd" d="M4.99905 3.4444e-06C3.77735 -9.98602e-06 2.59728 0.440697 1.67853 1.24007C0.759789 2.03945 0.164991 3.14301 0.00487921 4.34531C-0.00499154 4.42046 0.000146519 4.49681 0.0199999 4.56999C0.0398534 4.64318 0.0740334 4.71176 0.120588 4.77184C0.167144 4.83191 0.225162 4.88229 0.291331 4.9201C0.3575 4.95791 0.430524 4.98242 0.506234 4.99222C0.581944 5.00202 0.658856 4.99692 0.73258 4.97721C0.806304 4.9575 0.875395 4.92357 0.93591 4.87736C0.996424 4.83114 1.04718 4.77355 1.08527 4.70786C1.12336 4.64218 1.14805 4.56969 1.15792 4.49453C1.25365 3.78017 1.54961 3.10686 2.01207 2.55133C2.47453 1.99581 3.08488 1.58041 3.77359 1.35247C4.4623 1.12452 5.20166 1.09321 5.90742 1.26209C6.61319 1.43097 7.25697 1.79325 7.76542 2.30765H6.74256C6.58842 2.30765 6.4406 2.36843 6.33161 2.47663C6.22262 2.58482 6.16139 2.73156 6.16139 2.88456C6.16139 3.03757 6.22262 3.18431 6.33161 3.2925C6.4406 3.4007 6.58842 3.46148 6.74256 3.46148H9.06723C9.22137 3.46148 9.36919 3.4007 9.47818 3.2925C9.58717 3.18431 9.6484 3.03757 9.6484 2.88456V0.576916C9.6484 0.423909 9.58717 0.277169 9.47818 0.168977C9.36919 0.0607851 9.22137 3.4444e-06 9.06723 3.4444e-06C8.9131 3.4444e-06 8.76528 0.0607851 8.65629 0.168977C8.5473 0.277169 8.48607 0.423909 8.48607 0.576916V1.39229C7.54913 0.497581 6.29913 -0.00151274 4.99905 3.4444e-06ZM0.930875 9.99982C0.776739 9.99982 0.628916 9.93903 0.519926 9.83084C0.410936 9.72265 0.349706 9.57591 0.349706 9.4229V7.11525C0.349706 6.96225 0.410936 6.81551 0.519926 6.70732C0.628916 6.59912 0.776739 6.53834 0.930875 6.53834H3.25555C3.40968 6.53834 3.55751 6.59912 3.6665 6.70732C3.77549 6.81551 3.83672 6.96225 3.83672 7.11525C3.83672 7.26826 3.77549 7.415 3.6665 7.52319C3.55751 7.63139 3.40968 7.69217 3.25555 7.69217H2.23269C2.74111 8.2068 3.38495 8.56928 4.09083 8.73829C4.79671 8.9073 5.53622 8.87605 6.22507 8.64809C6.91392 8.42013 7.52439 8.00463 7.9869 7.44896C8.44941 6.89329 8.74534 6.21981 8.84097 5.50528C8.84921 5.42884 8.87277 5.35481 8.91025 5.28753C8.94773 5.22025 8.99837 5.16109 9.05921 5.11351C9.12005 5.06594 9.18986 5.03092 9.26453 5.01051C9.33919 4.9901 9.41722 4.9847 9.49402 4.99465C9.57081 5.0046 9.64483 5.02968 9.71172 5.06842C9.77862 5.10717 9.83703 5.1588 9.88354 5.22027C9.93005 5.28175 9.96371 5.35183 9.98255 5.4264C10.0014 5.50097 10.005 5.57853 9.99323 5.65451C9.87124 6.57083 9.4958 7.43566 8.9086 8.15297C8.3214 8.87028 7.54543 9.41201 6.66683 9.71801C5.78823 10.024 4.84139 10.0823 3.93143 9.8864C3.02148 9.69051 2.18402 9.2481 1.51204 8.6083V9.4229C1.51204 9.57591 1.45081 9.72265 1.34182 9.83084C1.23283 9.93903 1.08501 9.99982 0.930875 9.99982Z" fill="#F2A444"/>
</svg>
