<svg width="50" height="50" viewBox="0 0 50 50" fill="none" xmlns="http://www.w3.org/2000/svg">
<rect width="50" height="50" rx="25" fill="#ECF5FF"/>
<path d="M13.2914 19.883L24.3874 13.1723C24.7674 12.9425 25.2423 12.9426 25.6222 13.1725L36.7088 19.883C36.8895 19.9923 37 20.1892 37 20.4017V35.7899C37 36.4583 36.4628 37 35.8 37H14.2C13.5373 37 13 36.4583 13 35.7899V20.4019C13 20.1893 13.1106 19.9923 13.2914 19.883ZM15.4 21.4298V34.5799H34.6V21.4292L25.0044 15.6212L15.4 21.4298ZM25.0716 28.1645L31.4267 22.7641L32.9733 24.6147L25.0888 31.3148L17.0368 24.6232L18.5632 22.7556L25.0716 28.1645Z" fill="#0A84FF"/>
</svg>
