<svg width="24" height="21" viewBox="0 0 24 21" fill="none" xmlns="http://www.w3.org/2000/svg">
<path d="M13.5382 0.877242L23.762 18.3683C23.9179 18.635 24 18.9375 24 19.2455C24 19.5535 23.9179 19.856 23.762 20.1227C23.6062 20.3895 23.3819 20.6109 23.1119 20.7649C22.8419 20.9189 22.5356 21 22.2238 21H1.77616C1.46437 21 1.15808 20.9189 0.888073 20.7649C0.618062 20.6109 0.393844 20.3895 0.237955 20.1227C0.0820658 19.856 -1.98017e-06 19.5535 0 19.2455C1.98024e-06 18.9375 0.0820737 18.635 0.237966 18.3683L10.4618 0.877242C11.1451 -0.292414 12.8538 -0.292414 13.5382 0.877242ZM12 2.92414L2.80162 18.6607H21.1984L12 2.92414ZM12 14.74C12.3141 14.74 12.6152 14.8632 12.8373 15.0826C13.0594 15.3019 13.1841 15.5994 13.1841 15.9097C13.1841 16.2199 13.0594 16.5174 12.8373 16.7367C12.6152 16.9561 12.3141 17.0793 12 17.0793C11.6859 17.0793 11.3848 16.9561 11.1627 16.7367C10.9406 16.5174 10.8159 16.2199 10.8159 15.9097C10.8159 15.5994 10.9406 15.3019 11.1627 15.0826C11.3848 14.8632 11.6859 14.74 12 14.74ZM12 6.55241C12.3141 6.55241 12.6152 6.67564 12.8373 6.895C13.0594 7.11435 13.1841 7.41186 13.1841 7.72207V12.4007C13.1841 12.7109 13.0594 13.0084 12.8373 13.2278C12.6152 13.4471 12.3141 13.5703 12 13.5703C11.6859 13.5703 11.3848 13.4471 11.1627 13.2278C10.9406 13.0084 10.8159 12.7109 10.8159 12.4007V7.72207C10.8159 7.41186 10.9406 7.11435 11.1627 6.895C11.3848 6.67564 11.6859 6.55241 12 6.55241Z" fill="#F34150"/>
</svg>
