<svg width="50" height="50" viewBox="0 0 50 50" fill="none" xmlns="http://www.w3.org/2000/svg">
<rect width="50" height="50" rx="25" fill="#FFDDDD"/>
<path d="M26.5382 14.8772L36.762 32.3683C36.9179 32.635 37 32.9375 37 33.2455C37 33.5535 36.9179 33.856 36.762 34.1227C36.6062 34.3895 36.3819 34.6109 36.1119 34.7649C35.8419 34.9189 35.5356 35 35.2238 35H14.7762C14.4644 35 14.1581 34.9189 13.8881 34.7649C13.6181 34.6109 13.3938 34.3895 13.238 34.1227C13.0821 33.856 13 33.5535 13 33.2455C13 32.9375 13.0821 32.635 13.238 32.3683L23.4618 14.8772C24.1451 13.7076 25.8538 13.7076 26.5382 14.8772ZM25 16.9241L15.8016 32.6607H34.1984L25 16.9241ZM25 28.74C25.3141 28.74 25.6152 28.8632 25.8373 29.0826C26.0594 29.3019 26.1841 29.5994 26.1841 29.9097C26.1841 30.2199 26.0594 30.5174 25.8373 30.7367C25.6152 30.9561 25.3141 31.0793 25 31.0793C24.6859 31.0793 24.3848 30.9561 24.1627 30.7367C23.9406 30.5174 23.8159 30.2199 23.8159 29.9097C23.8159 29.5994 23.9406 29.3019 24.1627 29.0826C24.3848 28.8632 24.6859 28.74 25 28.74ZM25 20.5524C25.3141 20.5524 25.6152 20.6756 25.8373 20.895C26.0594 21.1144 26.1841 21.4119 26.1841 21.7221V26.4007C26.1841 26.7109 26.0594 27.0084 25.8373 27.2278C25.6152 27.4471 25.3141 27.5703 25 27.5703C24.6859 27.5703 24.3848 27.4471 24.1627 27.2278C23.9406 27.0084 23.8159 26.7109 23.8159 26.4007V21.7221C23.8159 21.4119 23.9406 21.1144 24.1627 20.895C24.3848 20.6756 24.6859 20.5524 25 20.5524Z" fill="#F34150"/>
</svg>
