<svg width="21" height="20" viewBox="0 0 21 20" fill="none" xmlns="http://www.w3.org/2000/svg">
<g id="Frame 7495">
<path id="Vector" d="M9.52013 14.3839H13.1362C13.6334 14.3839 14.0403 13.9771 14.0403 13.4799V8.95974H15.4777C16.2822 8.95974 16.6891 7.98339 16.1195 7.41386L11.97 3.26438C11.8864 3.18057 11.7871 3.11408 11.6777 3.06872C11.5683 3.02335 11.4511 3 11.3327 3C11.2143 3 11.0971 3.02335 10.9877 3.06872C10.8783 3.11408 10.779 3.18057 10.6954 3.26438L6.54588 7.41386C5.97635 7.98339 6.37412 8.95974 7.1787 8.95974H8.6161V13.4799C8.6161 13.9771 9.02292 14.3839 9.52013 14.3839ZM5.90403 16.1919H16.7523C17.2496 16.1919 17.6564 16.5988 17.6564 17.096C17.6564 17.5932 17.2496 18 16.7523 18H5.90403C5.40681 18 5 17.5932 5 17.096C5 16.5988 5.40681 16.1919 5.90403 16.1919Z" fill="#252526"/>
</g>
</svg>
