<svg width="28" height="28" viewBox="0 0 28 28" fill="none" xmlns="http://www.w3.org/2000/svg">
<g id="Frame 7445">
<rect width="28" height="28" rx="4" fill="#FFF0E7"/>
<g id="Vector">
<path fill-rule="evenodd" clip-rule="evenodd" d="M8.46154 9.11535V12.5769H11.9231V9.11535H8.46154ZM7.88462 7.9615C7.73161 7.9615 7.58486 8.02228 7.47667 8.13048C7.36848 8.23867 7.30769 8.38541 7.30769 8.53842V13.1538C7.30769 13.3068 7.36848 13.4536 7.47667 13.5618C7.58486 13.6699 7.73161 13.7307 7.88462 13.7307H12.5C12.653 13.7307 12.7998 13.6699 12.9079 13.5618C13.0161 13.4536 13.0769 13.3068 13.0769 13.1538V8.53842C13.0769 8.38541 13.0161 8.23867 12.9079 8.13048C12.7998 8.02228 12.653 7.9615 12.5 7.9615H7.88462ZM15.3846 9.11535V12.5769H18.8462V9.11535H15.3846ZM14.8077 7.9615C14.6547 7.9615 14.5079 8.02228 14.3997 8.13048C14.2916 8.23867 14.2308 8.38541 14.2308 8.53842V13.1538C14.2308 13.3068 14.2916 13.4536 14.3997 13.5618C14.5079 13.6699 14.6547 13.7307 14.8077 13.7307H19.4231C19.5761 13.7307 19.7228 13.6699 19.831 13.5618C19.9392 13.4536 20 13.3068 20 13.1538V8.53842C20 8.38541 19.9392 8.23867 19.831 8.13048C19.7228 8.02228 19.5761 7.9615 19.4231 7.9615H14.8077ZM8.46154 16.0384V19.5H11.9231V16.0384H8.46154ZM7.88462 14.8846C7.73161 14.8846 7.58486 14.9454 7.47667 15.0536C7.36848 15.1617 7.30769 15.3085 7.30769 15.4615V20.0769C7.30769 20.2299 7.36848 20.3766 7.47667 20.4848C7.58486 20.593 7.73161 20.6538 7.88462 20.6538H12.5C12.653 20.6538 12.7998 20.593 12.9079 20.4848C13.0161 20.3766 13.0769 20.2299 13.0769 20.0769V15.4615C13.0769 15.3085 13.0161 15.1617 12.9079 15.0536C12.7998 14.9454 12.653 14.8846 12.5 14.8846H7.88462Z" fill="#F2A444"/>
<path d="M14.2308 15.4615C14.2308 15.3085 14.2916 15.1617 14.3997 15.0536C14.5079 14.9454 14.6547 14.8846 14.8077 14.8846H19.4231C19.5761 14.8846 19.7228 14.9454 19.831 15.0536C19.9392 15.1617 20 15.3085 20 15.4615V20.0769C20 20.2299 19.9392 20.3766 19.831 20.4848C19.7228 20.593 19.5761 20.6538 19.4231 20.6538H14.8077C14.6547 20.6538 14.5079 20.593 14.3997 20.4848C14.2916 20.3766 14.2308 20.2299 14.2308 20.0769V15.4615Z" fill="#F2A444"/>
<path fill-rule="evenodd" clip-rule="evenodd" d="M15.3846 16.0384V19.5H18.8462V16.0384H15.3846ZM14.8077 14.8846C14.6547 14.8846 14.5079 14.9454 14.3997 15.0536C14.2916 15.1617 14.2308 15.3085 14.2308 15.4615V20.0769C14.2308 20.2299 14.2916 20.3766 14.3997 20.4848C14.5079 20.593 14.6547 20.6538 14.8077 20.6538H19.4231C19.5761 20.6538 19.7228 20.593 19.831 20.4848C19.9392 20.3766 20 20.2299 20 20.0769V15.4615C20 15.3085 19.9392 15.1617 19.831 15.0536C19.7228 14.9454 19.5761 14.8846 19.4231 14.8846H14.8077ZM5 6.23073C5 6.07772 5.06078 5.93098 5.16898 5.82279C5.27717 5.71459 5.42391 5.65381 5.57692 5.65381H9.61538C9.76839 5.65381 9.91514 5.71459 10.0233 5.82279C10.1315 5.93098 10.1923 6.07772 10.1923 6.23073C10.1923 6.38374 10.1315 6.53048 10.0233 6.63868C9.91514 6.74687 9.76839 6.80765 9.61538 6.80765H5.57692C5.42391 6.80765 5.27717 6.74687 5.16898 6.63868C5.06078 6.53048 5 6.38374 5 6.23073Z" fill="#F2A444"/>
<path fill-rule="evenodd" clip-rule="evenodd" d="M5.57692 5.65381C5.72993 5.65381 5.87668 5.71459 5.98487 5.82279C6.09306 5.93098 6.15385 6.07772 6.15385 6.23073V10.2692C6.15385 10.4222 6.09306 10.5689 5.98487 10.6771C5.87668 10.7853 5.72993 10.8461 5.57692 10.8461C5.42391 10.8461 5.27717 10.7853 5.16898 10.6771C5.06078 10.5689 5 10.4222 5 10.2692V6.23073C5 6.07772 5.06078 5.93098 5.16898 5.82279C5.27717 5.71459 5.42391 5.65381 5.57692 5.65381ZM5.57692 22.9615C5.42391 22.9615 5.27717 22.9007 5.16898 22.7925C5.06078 22.6843 5 22.5376 5 22.3846V18.3461C5 18.1931 5.06078 18.0464 5.16898 17.9382C5.27717 17.83 5.42391 17.7692 5.57692 17.7692C5.72993 17.7692 5.87668 17.83 5.98487 17.9382C6.09306 18.0464 6.15385 18.1931 6.15385 18.3461V22.3846C6.15385 22.5376 6.09306 22.6843 5.98487 22.7925C5.87668 22.9007 5.72993 22.9615 5.57692 22.9615Z" fill="#F2A444"/>
<path fill-rule="evenodd" clip-rule="evenodd" d="M5 22.3846C5 22.2316 5.06078 22.0848 5.16898 21.9766C5.27717 21.8684 5.42391 21.8077 5.57692 21.8077H9.61538C9.76839 21.8077 9.91514 21.8684 10.0233 21.9766C10.1315 22.0848 10.1923 22.2316 10.1923 22.3846C10.1923 22.5376 10.1315 22.6843 10.0233 22.7925C9.91514 22.9007 9.76839 22.9615 9.61538 22.9615L5.57692 22.9615C5.42391 22.9615 5.27717 22.9007 5.16898 22.7925C5.06078 22.6843 5 22.5376 5 22.3846ZM22.3077 22.3846C22.3077 22.5376 22.2469 22.6843 22.1387 22.7925C22.0305 22.9007 21.8838 22.9615 21.7308 22.9615H17.6923C17.5393 22.9615 17.3926 22.9007 17.2844 22.7925C17.1762 22.6843 17.1154 22.5376 17.1154 22.3846C17.1154 22.2316 17.1762 22.0848 17.2844 21.9766C17.3926 21.8684 17.5393 21.8077 17.6923 21.8077H21.7308C21.8838 21.8077 22.0305 21.8684 22.1387 21.9766C22.2469 22.0848 22.3077 22.2316 22.3077 22.3846Z" fill="#F2A444"/>
<path fill-rule="evenodd" clip-rule="evenodd" d="M21.7308 22.9615C21.5778 22.9615 21.431 22.9007 21.3228 22.7925C21.2146 22.6843 21.1538 22.5376 21.1538 22.3846V18.3461C21.1538 18.1931 21.2146 18.0464 21.3228 17.9382C21.431 17.83 21.5778 17.7692 21.7308 17.7692C21.8838 17.7692 22.0305 17.83 22.1387 17.9382C22.2469 18.0464 22.3077 18.1931 22.3077 18.3461L22.3077 22.3846C22.3077 22.5376 22.2469 22.6843 22.1387 22.7925C22.0305 22.9007 21.8838 22.9615 21.7308 22.9615ZM21.7308 5.65381C21.8838 5.65381 22.0305 5.71459 22.1387 5.82279C22.2469 5.93098 22.3077 6.07772 22.3077 6.23073V10.2692C22.3077 10.4222 22.2469 10.5689 22.1387 10.6771C22.0305 10.7853 21.8838 10.8461 21.7308 10.8461C21.5778 10.8461 21.431 10.7853 21.3228 10.6771C21.2146 10.5689 21.1538 10.4222 21.1538 10.2692V6.23073C21.1538 6.07772 21.2146 5.93098 21.3228 5.82279C21.431 5.71459 21.5778 5.65381 21.7308 5.65381Z" fill="#F2A444"/>
<path fill-rule="evenodd" clip-rule="evenodd" d="M22.3077 6.23073C22.3077 6.38374 22.2469 6.53048 22.1387 6.63868C22.0305 6.74687 21.8838 6.80765 21.7308 6.80765H17.6923C17.5393 6.80765 17.3926 6.74687 17.2844 6.63868C17.1762 6.53048 17.1154 6.38374 17.1154 6.23073C17.1154 6.07772 17.1762 5.93098 17.2844 5.82279C17.3926 5.71459 17.5393 5.65381 17.6923 5.65381H21.7308C21.8838 5.65381 22.0305 5.71459 22.1387 5.82279C22.2469 5.93098 22.3077 6.07772 22.3077 6.23073Z" fill="#F2A444"/>
</g>
</g>
</svg>
