<svg width="42" height="42" viewBox="0 0 42 42" fill="none" xmlns="http://www.w3.org/2000/svg">
<path fill-rule="evenodd" clip-rule="evenodd" d="M6 0C4.4087 0 2.88258 0.632141 1.75736 1.75736C0.632141 2.88258 0 4.4087 0 6V24C0 25.5913 0.632141 27.1174 1.75736 28.2426C2.88258 29.3679 4.4087 30 6 30H12C12.7956 30 13.5587 30.3161 14.1213 30.8787C14.6839 31.4413 15 32.2044 15 33C15 33.7956 14.6839 34.5587 14.1213 35.1213C13.5587 35.6839 12.7956 36 12 36H9C8.20435 36 7.44129 36.3161 6.87868 36.8787C6.31607 37.4413 6 38.2044 6 39C6 39.7956 6.31607 40.5587 6.87868 41.1213C7.44129 41.6839 8.20435 42 9 42H33C33.7956 42 34.5587 41.6839 35.1213 41.1213C35.6839 40.5587 36 39.7956 36 39C36 38.2044 35.6839 37.4413 35.1213 36.8787C34.5587 36.3161 33.7956 36 33 36H30C29.2044 36 28.4413 35.6839 27.8787 35.1213C27.3161 34.5587 27 33.7956 27 33C27 32.2044 27.3161 31.4413 27.8787 30.8787C28.4413 30.3161 29.2044 30 30 30H36C37.5913 30 39.1174 29.3679 40.2426 28.2426C41.3679 27.1174 42 25.5913 42 24V6C42 4.4087 41.3679 2.88258 40.2426 1.75736C39.1174 0.632141 37.5913 0 36 0H6ZM11.958 11.508C11.8084 10.741 11.3654 10.0626 10.7233 9.61717C10.0812 9.17176 9.29061 8.9945 8.51978 9.1231C7.74895 9.2517 7.05873 9.67601 6.59598 10.3058C6.13322 10.9355 5.93447 11.721 6.042 12.495C6.711 16.512 10.737 24 21 24C31.26 24 35.289 16.512 35.958 12.495C36.0335 12.1021 36.0297 11.6982 35.9467 11.3068C35.8638 10.9155 35.7034 10.5447 35.475 10.2162C35.2467 9.88776 34.9549 9.6083 34.617 9.39427C34.279 9.18024 33.9016 9.03597 33.5071 8.96995C33.1125 8.90392 32.7087 8.91747 32.3195 9.0098C31.9302 9.10214 31.5634 9.27139 31.2405 9.50759C30.9177 9.7438 30.6453 10.0422 30.4395 10.3852C30.2337 10.7282 30.0985 11.109 30.042 11.505C29.712 13.491 27.537 18 21 18C14.46 18 12.291 13.488 11.958 11.508Z" fill="white"/>
</svg>
