<svg width="20" height="20" viewBox="0 0 20 20" fill="none" xmlns="http://www.w3.org/2000/svg">
<path d="M0 1.84046C0 1.37471 0.374705 1 0.840461 1H2.43383C3.20426 1 3.88713 1.44825 4.2058 2.12061H18.5987C19.5197 2.12061 20.1921 2.99609 19.9504 3.88558L18.5146 9.219C18.217 10.3186 17.2189 11.0855 16.0808 11.0855H5.97778L6.16688 12.0836C6.24392 12.4793 6.59061 12.7664 6.99333 12.7664H17.0894C17.5551 12.7664 17.9298 13.1412 17.9298 13.6069C17.9298 14.0727 17.5551 14.4474 17.0894 14.4474H6.99333C5.78167 14.4474 4.7416 13.5859 4.51748 12.3987L2.71049 2.90855C2.68597 2.77547 2.57041 2.68092 2.43383 2.68092H0.840461C0.374705 2.68092 0 2.30622 0 1.84046ZM4.48246 17.2489C4.48246 17.0282 4.52593 16.8096 4.61041 16.6056C4.69488 16.4017 4.8187 16.2164 4.97479 16.0603C5.13087 15.9042 5.31618 15.7804 5.52012 15.6959C5.72406 15.6115 5.94264 15.568 6.16338 15.568C6.38412 15.568 6.6027 15.6115 6.80664 15.6959C7.01058 15.7804 7.19588 15.9042 7.35197 16.0603C7.50806 16.2164 7.63187 16.4017 7.71635 16.6056C7.80082 16.8096 7.8443 17.0282 7.8443 17.2489C7.8443 17.4696 7.80082 17.6882 7.71635 17.8922C7.63187 18.0961 7.50806 18.2814 7.35197 18.4375C7.19588 18.5936 7.01058 18.7174 6.80664 18.8019C6.6027 18.8863 6.38412 18.9298 6.16338 18.9298C5.94264 18.9298 5.72406 18.8863 5.52012 18.8019C5.31618 18.7174 5.13087 18.5936 4.97479 18.4375C4.8187 18.2814 4.69488 18.0961 4.61041 17.8922C4.52593 17.6882 4.48246 17.4696 4.48246 17.2489ZM16.2489 15.568C16.6947 15.568 17.1223 15.7451 17.4375 16.0603C17.7527 16.3755 17.9298 16.8031 17.9298 17.2489C17.9298 17.6947 17.7527 18.1223 17.4375 18.4375C17.1223 18.7527 16.6947 18.9298 16.2489 18.9298C15.8031 18.9298 15.3755 18.7527 15.0603 18.4375C14.7451 18.1223 14.568 17.6947 14.568 17.2489C14.568 16.8031 14.7451 16.3755 15.0603 16.0603C15.3755 15.7451 15.8031 15.568 16.2489 15.568Z" fill="#252526"/>
</svg>
