<svg width="50" height="50" viewBox="0 0 50 50" fill="none" xmlns="http://www.w3.org/2000/svg">
<rect width="50" height="50" rx="25" fill="#E6FFEA"/>
<path d="M25 37C18.3726 37 13 31.6275 13 25C13 18.3726 18.3726 13 25 13C31.6274 13 37 18.3726 37 25C37 31.6275 31.6274 37 25 37ZM25 34.6C30.302 34.6 34.6 30.3019 34.6 25C34.6 19.6981 30.302 15.4 25 15.4C19.6981 15.4 15.4 19.6981 15.4 25C15.4 30.3019 19.6981 34.6 25 34.6ZM20.8 27.4H27.4C27.7313 27.4 28 27.1314 28 26.8C28 26.4687 27.7313 26.2 27.4 26.2H22.6C20.9431 26.2 19.6 24.8569 19.6 23.2C19.6 21.5432 20.9431 20.2 22.6 20.2H23.8V17.8H26.2V20.2H29.2V22.6H22.6C22.2686 22.6 22 22.8686 22 23.2C22 23.5314 22.2686 23.8 22.6 23.8H27.4C29.0568 23.8 30.4 25.1431 30.4 26.8C30.4 28.4569 29.0568 29.8 27.4 29.8H26.2V32.2H23.8V29.8H20.8V27.4Z" fill="#32D74B"/>
</svg>
