<svg xmlns="http://www.w3.org/2000/svg" fill="none" viewBox="12 6 16 16">
<g filter="url(#filter0_d_212_544)">
<path d="M13 14C13 11.1911 13 9.78661 13.6741 8.77772C13.966 8.34096 14.341 7.96596 14.7777 7.67412C15.7866 7 17.1911 7 20 7C22.8089 7 24.2134 7 25.2223 7.67412C25.659 7.96596 26.034 8.34096 26.3259 8.77772C27 9.78661 27 11.1911 27 14C27 16.8089 27 18.2134 26.3259 19.2223C26.034 19.659 25.659 20.034 25.2223 20.3259C24.2134 21 22.8089 21 20 21C17.1911 21 15.7866 21 14.7777 20.3259C14.341 20.034 13.966 19.659 13.6741 19.2223C13 18.2134 13 16.8089 13 14Z" fill="white"/>
<path fill-rule="evenodd" clip-rule="evenodd" d="M20.2488 10C20.418 10 20.5803 10.0671 20.7 10.1867C20.8197 10.3062 20.887 10.4683 20.887 10.6373V13.6054H23.8593C24.0286 13.6054 24.1909 13.6725 24.3106 13.792C24.4303 13.9115 24.4975 14.0736 24.4975 14.2427C24.4975 14.4117 24.4303 14.5738 24.3106 14.6933C24.1909 14.8128 24.0286 14.8799 23.8593 14.8799H20.887V17.848C20.887 18.017 20.8197 18.1791 20.7 18.2987C20.5803 18.4182 20.418 18.4853 20.2488 18.4853C20.0795 18.4853 19.9172 18.4182 19.7975 18.2987C19.6778 18.1791 19.6105 18.017 19.6105 17.848V14.8799H16.6382C16.4689 14.8799 16.3066 14.8128 16.1869 14.6933C16.0672 14.5738 16 14.4117 16 14.2427C16 14.0736 16.0672 13.9115 16.1869 13.792C16.3066 13.6725 16.4689 13.6054 16.6382 13.6054H19.6105V10.6373C19.6105 10.4683 19.6778 10.3062 19.7975 10.1867C19.9172 10.0671 20.0795 10 20.2488 10Z" fill="#252526"/>
<path d="M20 6.5C21.3941 6.5 22.4774 6.49948 23.3369 6.58691C24.2047 6.67521 24.8997 6.85771 25.5 7.25879L25.6807 7.38574C26.0951 7.69316 26.4539 8.07003 26.7412 8.5L26.8818 8.72949C27.1867 9.27657 27.3358 9.90368 27.4131 10.6631C27.5005 11.5226 27.5 12.6059 27.5 14C27.5 15.3941 27.5005 16.4774 27.4131 17.3369C27.3358 18.0963 27.1867 18.7234 26.8818 19.2705L26.7412 19.5C26.4539 19.93 26.0951 20.3068 25.6807 20.6143L25.5 20.7412C24.8997 21.1423 24.2047 21.3248 23.3369 21.4131C22.4774 21.5005 21.3941 21.5 20 21.5C18.6059 21.5 17.5226 21.5005 16.6631 21.4131C15.9037 21.3358 15.2766 21.1867 14.7295 20.8818L14.5 20.7412C14.07 20.4539 13.6932 20.0951 13.3857 19.6807L13.2588 19.5C12.8577 18.8997 12.6752 18.2047 12.5869 17.3369C12.4995 16.4774 12.5 15.3941 12.5 14C12.5 12.6059 12.4995 11.5226 12.5869 10.6631C12.6752 9.79529 12.8577 9.10026 13.2588 8.5L13.3857 8.31934C13.6932 7.90485 14.07 7.54611 14.5 7.25879L14.7295 7.11816C15.2766 6.81333 15.9037 6.66418 16.6631 6.58691C17.5226 6.49948 18.6059 6.5 20 6.5Z" stroke="#252526"/>
</g>
<defs>
<filter id="filter0_d_212_544" x="0" y="0" width="40" height="40" filterUnits="userSpaceOnUse" color-interpolation-filters="sRGB">
<feFlood flood-opacity="0" result="BackgroundImageFix"/>
<feColorMatrix in="SourceAlpha" type="matrix" values="0 0 0 0 0 0 0 0 0 0 0 0 0 0 0 0 0 0 127 0" result="hardAlpha"/>
<feOffset dy="6"/>
<feGaussianBlur stdDeviation="6"/>
<feComposite in2="hardAlpha" operator="out"/>
<feColorMatrix type="matrix" values="0 0 0 0 0.788235 0 0 0 0 0.796078 0 0 0 0 0.815686 0 0 0 0.25 0"/>
<feBlend mode="normal" in2="BackgroundImageFix" result="effect1_dropShadow_212_544"/>
<feBlend mode="normal" in="SourceGraphic" in2="effect1_dropShadow_212_544" result="shape"/>
</filter>
</defs>
</svg>