<svg width="20" height="24" viewBox="0 0 20 24" fill="none" xmlns="http://www.w3.org/2000/svg">
<path id="Vector" d="M14.4444 6.48649H3.33333V0H14.4444V6.48649ZM8.88889 18.8108C8.88889 19.0314 8.88889 19.2389 8.92222 19.4595H0V10.3784C0 9.69025 0.234126 9.0303 0.650874 8.54372C1.06762 8.05714 1.63285 7.78378 2.22222 7.78378H15.5556C16.1449 7.78378 16.7102 8.05714 17.1269 8.54372C17.5437 9.0303 17.7778 9.69025 17.7778 10.3784V11.6757C13.2269 10.5067 8.88889 12.4218 8.88889 18.8108ZM6.66667 10.3784H2.22222V12.973H6.66667V10.3784ZM20 18.8108V13.6216L18.7 15.1395C18.2873 14.6571 17.7971 14.2748 17.2575 14.0143C16.7178 13.7538 16.1395 13.6204 15.5556 13.6216C13.1 13.6216 11.1111 15.9438 11.1111 18.8108C11.1111 21.6778 13.1 24 15.5556 24C17.4222 24 19.0222 22.6638 19.6778 20.7568H17.7778C17.4376 21.285 16.9673 21.6792 16.4298 21.8867C15.8924 22.0942 15.3135 22.1051 14.7706 21.9178C14.2278 21.7306 13.7469 21.3541 13.3923 20.8389C13.0377 20.3237 12.8265 19.6943 12.7868 19.0351C12.747 18.3758 12.8808 17.7181 13.1701 17.15C13.4594 16.5819 13.8904 16.1306 14.4055 15.8564C14.9205 15.5823 15.495 15.4984 16.0521 15.616C16.6091 15.7337 17.122 16.0472 17.5222 16.5146L15.5556 18.8108H20Z" fill="#252526"/>
</svg>
