<svg width="21" height="20" viewBox="0 0 21 20" fill="none" xmlns="http://www.w3.org/2000/svg">
<g id="Frame 7492">
<g id="Vector">
<path d="M19.4781 9.28571C19.0833 9.28571 18.7638 9.60554 18.7638 10C18.7638 14.7262 14.9189 18.5714 10.1924 18.5714C8.50611 18.5714 6.86065 18.0658 5.46512 17.1429H5.90667C6.30148 17.1429 6.62095 16.823 6.62095 16.4286C6.62095 16.0341 6.30148 15.7143 5.90667 15.7143H3.76381C3.369 15.7143 3.04953 16.0341 3.04953 16.4286V18.5714C3.04953 18.9659 3.369 19.2857 3.76381 19.2857C4.15862 19.2857 4.4781 18.9659 4.4781 18.5714V18.206C6.14706 19.3673 8.14605 20 10.1924 20C15.7065 20 20.1924 15.5141 20.1924 10C20.1924 9.60554 19.8729 9.28571 19.4781 9.28571Z" fill="#FF6B00"/>
<path d="M10.1924 1.42857C11.902 1.42857 13.5258 1.92169 14.9293 2.85714H14.4781C14.0833 2.85714 13.7638 3.17697 13.7638 3.57143C13.7638 3.96589 14.0833 4.28571 14.4781 4.28571H16.621C17.0158 4.28571 17.3352 3.96589 17.3352 3.57143V1.42857C17.3352 1.03411 17.0158 0.714286 16.621 0.714286C16.2261 0.714286 15.9067 1.03411 15.9067 1.42857V1.80189C14.2264 0.625959 12.2644 0 10.1924 0C4.67829 0 0.192383 4.48591 0.192383 10C0.192383 10.3945 0.511858 10.7143 0.906669 10.7143C1.30148 10.7143 1.62095 10.3945 1.62095 10C1.62095 5.27379 5.46582 1.42857 10.1924 1.42857Z" fill="#FF6B00"/>
<path d="M15.9067 12.8573V7.14303C15.9067 7.14111 15.9058 7.13941 15.9058 7.1375L10.5495 9.51808V15.7145L15.4735 13.5137C15.7365 13.4014 15.9067 13.143 15.9067 12.8573Z" fill="#FF6B00"/>
<path d="M15.5312 6.52213C15.5112 6.51119 10.4735 4.34378 10.4735 4.34378C10.2949 4.26636 10.0898 4.26636 9.91127 4.34378C9.91127 4.34378 4.87356 6.51119 4.85355 6.52213L10.1924 8.89492L15.5312 6.52213Z" fill="#FF6B00"/>
<path d="M4.4781 7.14303V12.8573C4.4781 13.143 4.6483 13.4014 4.91127 13.5137L9.83524 15.7145V9.51808L4.47893 7.1375C4.47893 7.13941 4.4781 7.14111 4.4781 7.14303Z" fill="#FF6B00"/>
</g>
</g>
</svg>
