<svg width="50" height="50" viewBox="0 0 50 50" fill="none" xmlns="http://www.w3.org/2000/svg">
<path d="M35.475 0H14.525C5.425 0 0 5.425 0 14.525V35.45C0 44.575 5.425 50 14.525 50H35.45C44.55 50 49.975 44.575 49.975 35.475V14.525C50 5.425 44.575 0 35.475 0ZM14.175 8.75C14.175 7.725 15.025 6.875 16.05 6.875C17.075 6.875 17.925 7.725 17.925 8.75V18.5C17.925 19.525 17.075 20.375 16.05 20.375C15.025 20.375 14.175 19.525 14.175 18.5V8.75ZM18.8071 36.0782C18.2985 36.304 17.925 36.783 17.925 37.3395V41.25C17.925 42.275 17.075 43.125 16.05 43.125C15.025 43.125 14.175 42.275 14.175 41.25V37.3395C14.175 36.783 13.8015 36.304 13.2931 36.0778C10.9069 35.016 9.25 32.645 9.25 29.875C9.25 26.125 12.3 23.05 16.05 23.05C19.8 23.05 22.875 26.1 22.875 29.875C22.875 32.6455 21.1978 35.0165 18.8071 36.0782ZM35.825 41.25C35.825 42.275 34.975 43.125 33.95 43.125C32.925 43.125 32.075 42.275 32.075 41.25V31.5C32.075 30.475 32.925 29.625 33.95 29.625C34.975 29.625 35.825 30.475 35.825 31.5V41.25ZM33.95 26.925C30.2 26.925 27.125 23.875 27.125 20.1C27.125 17.3296 28.8022 14.9586 31.193 13.8968C31.7015 13.671 32.075 13.192 32.075 12.6355V8.75C32.075 7.725 32.925 6.875 33.95 6.875C34.975 6.875 35.825 7.725 35.825 8.75V12.6605C35.825 13.217 36.1985 13.6959 36.707 13.9221C39.093 14.984 40.75 17.3549 40.75 20.125C40.75 23.875 37.7 26.925 33.95 26.925Z" fill="#292D32"/>
</svg>
