<svg width="8" height="7" viewBox="0 0 8 7" fill="none" xmlns="http://www.w3.org/2000/svg">
<path d="M7.35282 0.500001L0.648084 0.500001C0.136816 0.500001 -0.173828 1.01453 0.104457 1.41077L3.45683 6.22486C3.51519 6.30914 3.59594 6.37856 3.69155 6.42667C3.78717 6.47477 3.89454 6.5 4.00369 6.5C4.11284 6.5 4.22021 6.47477 4.31582 6.42667C4.41144 6.37856 4.49218 6.30914 4.55055 6.22486L7.89645 1.41077C7.95958 1.32157 7.9952 1.21845 7.99955 1.11229C8.00389 1.00613 7.9768 0.90086 7.92114 0.807596C7.86547 0.714332 7.78329 0.636527 7.68326 0.582389C7.58324 0.528252 7.46907 0.499788 7.35282 0.500001Z" fill="#B5CCC6"/>
</svg>
