<svg width="18" height="20" viewBox="0 0 18 20" fill="none" xmlns="http://www.w3.org/2000/svg">
<path id="Vector" d="M5.78109 2.22434C5.48649 2.22434 5.20395 2.34137 4.99563 2.54969C4.78732 2.758 4.67029 3.04054 4.67029 3.33515C4.67029 3.62975 4.78732 3.91229 4.99563 4.12061C5.20395 4.32893 5.48649 4.44596 5.78109 4.44596C6.0757 4.44596 6.35824 4.32893 6.56655 4.12061C6.77487 3.91229 6.8919 3.62975 6.8919 3.33515C6.8919 3.04054 6.77487 2.758 6.56655 2.54969C6.35824 2.34137 6.0757 2.22434 5.78109 2.22434ZM2.63751 2.22434C2.867 1.57392 3.29259 1.01071 3.85562 0.612322C4.41864 0.213937 5.09138 0 5.78109 0C6.47081 0 7.14354 0.213937 7.70657 0.612322C8.2696 1.01071 8.69519 1.57392 8.92468 2.22434H16.8892C17.1838 2.22434 17.4663 2.34137 17.6746 2.54969C17.883 2.758 18 3.04054 18 3.33515C18 3.62975 17.883 3.91229 17.6746 4.12061C17.4663 4.32893 17.1838 4.44596 16.8892 4.44596H8.92468C8.69519 5.09637 8.2696 5.65959 7.70657 6.05797C7.14354 6.45636 6.47081 6.6703 5.78109 6.6703C5.09138 6.6703 4.41864 6.45636 3.85562 6.05797C3.29259 5.65959 2.867 5.09637 2.63751 4.44596H1.33786C1.04325 4.44596 0.760716 4.32893 0.552399 4.12061C0.344082 3.91229 0.227051 3.62975 0.227051 3.33515C0.227051 3.04054 0.344082 2.758 0.552399 2.54969C0.760716 2.34137 1.04325 2.22434 1.33786 2.22434H2.63751ZM12.4459 8.88919C12.1513 8.88919 11.8688 9.00622 11.6605 9.21454C11.4522 9.42286 11.3351 9.7054 11.3351 10C11.3351 10.2946 11.4522 10.5771 11.6605 10.7855C11.8688 10.9938 12.1513 11.1108 12.4459 11.1108C12.7406 11.1108 13.0231 10.9938 13.2314 10.7855C13.4397 10.5771 13.5568 10.2946 13.5568 10C13.5568 9.7054 13.4397 9.42286 13.2314 9.21454C13.0231 9.00622 12.7406 8.88919 12.4459 8.88919ZM9.30236 8.88919C9.53185 8.23878 9.95744 7.67556 10.5205 7.27717C11.0835 6.87879 11.7562 6.66485 12.4459 6.66485C13.1357 6.66485 13.8084 6.87879 14.3714 7.27717C14.9344 7.67556 15.36 8.23878 15.5895 8.88919H16.8892C17.1838 8.88919 17.4663 9.00622 17.6746 9.21454C17.883 9.42286 18 9.7054 18 10C18 10.2946 17.883 10.5771 17.6746 10.7855C17.4663 10.9938 17.1838 11.1108 16.8892 11.1108H15.5895C15.36 11.7612 14.9344 12.3244 14.3714 12.7228C13.8084 13.1212 13.1357 13.3351 12.4459 13.3351C11.7562 13.3351 11.0835 13.1212 10.5205 12.7228C9.95744 12.3244 9.53185 11.7612 9.30236 11.1108H1.33786C1.04325 11.1108 0.760716 10.9938 0.552399 10.7855C0.344082 10.5771 0.227051 10.2946 0.227051 10C0.227051 9.7054 0.344082 9.42286 0.552399 9.21454C0.760716 9.00622 1.04325 8.88919 1.33786 8.88919H9.30236ZM5.78109 15.554C5.48649 15.554 5.20395 15.6711 4.99563 15.8794C4.78732 16.0877 4.67029 16.3702 4.67029 16.6649C4.67029 16.9595 4.78732 17.242 4.99563 17.4503C5.20395 17.6586 5.48649 17.7757 5.78109 17.7757C6.0757 17.7757 6.35824 17.6586 6.56655 17.4503C6.77487 17.242 6.8919 16.9595 6.8919 16.6649C6.8919 16.3702 6.77487 16.0877 6.56655 15.8794C6.35824 15.6711 6.0757 15.554 5.78109 15.554ZM2.63751 15.554C2.867 14.9036 3.29259 14.3404 3.85562 13.942C4.41864 13.5436 5.09138 13.3297 5.78109 13.3297C6.47081 13.3297 7.14354 13.5436 7.70657 13.942C8.2696 14.3404 8.69519 14.9036 8.92468 15.554H16.8892C17.1838 15.554 17.4663 15.6711 17.6746 15.8794C17.883 16.0877 18 16.3702 18 16.6649C18 16.9595 17.883 17.242 17.6746 17.4503C17.4663 17.6586 17.1838 17.7757 16.8892 17.7757H8.92468C8.69519 18.4261 8.2696 18.9893 7.70657 19.3877C7.14354 19.7861 6.47081 20 5.78109 20C5.09138 20 4.41864 19.7861 3.85562 19.3877C3.29259 18.9893 2.867 18.4261 2.63751 17.7757H1.33786C1.04325 17.7757 0.760716 17.6586 0.552399 17.4503C0.344082 17.242 0.227051 16.9595 0.227051 16.6649C0.227051 16.3702 0.344082 16.0877 0.552399 15.8794C0.760716 15.6711 1.04325 15.554 1.33786 15.554H2.63751Z" fill="#252526"/>
</svg>
