<svg width="8" height="7" viewBox="0 0 8 7" fill="none" xmlns="http://www.w3.org/2000/svg">
<path d="M0.647178 6.5L7.35192 6.5C7.86318 6.5 8.17383 5.98547 7.89554 5.58923L4.54317 0.775144C4.48481 0.690861 4.40406 0.621438 4.30845 0.573332C4.21283 0.525226 4.10546 0.5 3.99631 0.5C3.88716 0.5 3.77979 0.525226 3.68418 0.573332C3.58856 0.621438 3.50782 0.690861 3.44945 0.775144L0.103551 5.58923C0.040415 5.67843 0.00479607 5.78155 0.000451321 5.88771C-0.00389342 5.99388 0.0231971 6.09914 0.078865 6.1924C0.134533 6.28567 0.216714 6.36347 0.316739 6.41761C0.416765 6.47175 0.530925 6.50021 0.647178 6.5Z" fill="#B5CCC6"/>
</svg>
