<svg width="20" height="20" viewBox="0 0 20 20" fill="none" xmlns="http://www.w3.org/2000/svg">
<g id="Frame 633">
<g id="Vector">
<path d="M10.0049 0C12.6849 0 14.8882 2.10591 15 4.77432H14.9739C14.977 4.85189 14.9621 4.92913 14.9303 5H15.0865C17.2619 5 17 6.5 17.5 8.32929L18.9133 14.3147C19.4666 18.2657 17.305 19.9273 14.3562 19.9977L14.1585 20H5.86853C2.87178 20 0.562544 18.908 1.07028 14.5836L1.1049 14.3147L3 8.32929C3.3835 6.1364 3.55361 5.06225 4.79412 5.00326L4.93171 5H5.00989C4.9967 4.92535 4.9967 4.84898 5.00989 4.77432C5.12172 2.10591 7.325 0 10.0049 0ZM9.96575 1.30238C8.04164 1.30238 6.48184 2.85682 6.48184 4.77432C6.49502 4.84898 6.49502 4.92535 6.48184 5H13.4932C13.4654 4.92794 13.4506 4.85153 13.4497 4.77432C13.4497 2.85682 11.8899 1.30238 9.96575 1.30238Z" fill="#252526"/>
<path d="M6.22747 12.5494C6.53077 12.2461 7.02251 12.2461 7.3258 12.5494L8.81973 14.0819L7.73795 15.1637L6.22747 13.6477C5.92418 13.3444 5.92418 12.8526 6.22747 12.5494Z" fill="white"/>
<path d="M7.73795 15.1637L12.6742 10.2275C12.9775 9.92418 13.4692 9.92418 13.7725 10.2275C14.0758 10.5308 14.0758 11.0225 13.7725 11.3258L9.38545 15.7129C9.08216 16.0162 8.59042 16.0162 8.28712 15.7129L7.73795 15.1637Z" fill="white"/>
</g>
</g>
</svg>
