<?xml version="1.0" encoding="iso-8859-1"?>
<!-- Uploaded to: SVG Repo, www.svgrepo.com, Generator: SVG Repo Mixer Tools -->
<svg version="1.1" id="Layer_1" xmlns="http://www.w3.org/2000/svg" xmlns:xlink="http://www.w3.org/1999/xlink" 
	 viewBox="0 0 512 512" xml:space="preserve">
<path style="fill:#666666;" d="M504.026,192.374C475.738,81.771,375.42,0,256,0C114.615,0,0,114.615,0,256
	c0,110.071,69.467,203.916,166.952,240.088L504.026,192.374z"/>
<path style="fill:#383838;" d="M504.026,192.374l-58.809-58.809L256,322.69l89.047,173.39C442.528,459.908,512,366.069,512,256
	C512,234.035,509.23,212.718,504.026,192.374z"/>
<polygon style="fill:#F2F2F2;" points="78.52,233.739 433.48,233.739 400.696,378.435 111.304,378.435 "/>
<polygon style="fill:#FFFFFF;" points="78.52,256 433.48,256 400.696,133.565 111.304,133.565 "/>
<polygon style="fill:#85DC79;" points="133.565,356.174 378.435,356.174 378.435,256 256,211.478 133.565,256 "/>
<polygon style="fill:#AFF078;" points="133.565,256 378.435,256 378.435,233.739 356.174,205.913 378.435,178.087 378.435,155.826 
	133.565,155.826 133.565,178.087 155.826,205.913 133.565,233.739 "/>
<rect x="133.565" y="178.087" style="fill:#85DC79;" width="244.87" height="55.652"/>
<polygon style="fill:#B2B2B2;" points="66.783,378.435 111.304,378.435 111.304,256 89.043,221.99 66.783,256 "/>
<rect x="66.783" y="133.565" style="fill:#CCCCCC;" width="44.522" height="122.435"/>
<polygon style="fill:#B2B2B2;" points="400.696,378.435 445.217,378.435 445.217,256 422.957,221.99 400.696,256 "/>
<rect x="400.696" y="133.565" style="fill:#CCCCCC;" width="44.522" height="122.435"/>
<g>
	<path style="fill:#DDEFFB;" d="M300.522,322.691v18.618l44.522-18.618c0-12.295-9.966-22.261-22.261-22.261
		S300.522,310.397,300.522,322.691z"/>
	<path style="fill:#DDEFFB;" d="M256,311.561l-16.189,26.713h60.711v-26.713c0-12.295-9.966-22.261-22.261-22.261
		C265.966,289.3,256,299.266,256,311.561z"/>
</g>
<g>
	<path style="fill:#FFFFFF;" d="M211.478,300.43l-16.189,34.808H256V300.43c0-12.295-9.966-22.261-22.261-22.261
		S211.478,288.136,211.478,300.43z"/>
	<path style="fill:#FFFFFF;" d="M211.478,209.16c0-12.291-9.97-22.261-22.261-22.261c-12.291,0-22.261,9.97-22.261,22.261v113.53
		l44.522,20.677V209.16z"/>
</g>
<path style="fill:#BCDEF7;" d="M178.087,209.161v14.47l11.13-3.634l11.13,3.634v-14.47c0-6.006-4.993-11.13-11.13-11.13
	S178.087,203.148,178.087,209.161z"/>
<path style="fill:#DDEFFB;" d="M178.087,223.63l22.261-0.007c0-6.131-4.993-11.124-11.13-11.124S178.087,217.492,178.087,223.63z"/>
<polygon style="fill:#BCDEF7;" points="345.043,437.335 345.043,322.691 256,322.691 205.609,470.726 "/>
<polygon style="fill:#DDEFFB;" points="166.957,437.335 256,470.726 256,322.691 166.957,322.691 "/>
<path style="fill:#4A75C3;" d="M239.811,450.695L256,512c31.314,0,61.313-5.63,89.047-15.92l-0.003-36.486L239.811,450.695z"/>
<g>
	<path style="fill:#458FDE;" d="M166.957,459.595v36.482C194.69,506.368,224.686,512,256,512v-61.305L166.957,459.595z"/>
	<polygon style="fill:#458FDE;" points="256,459.596 345.043,459.596 345.043,437.335 256,437.335 239,448.465 	"/>
</g>
<rect x="166.957" y="437.337" style="fill:#6FAEE8;" width="89.043" height="22.261"/>
<g>
	<rect x="339.478" y="194.783" style="fill:#AFF078;" width="22.261" height="22.261"/>
	<rect x="300.522" y="194.783" style="fill:#AFF078;" width="22.261" height="22.261"/>
</g>
</svg>