<svg width="68" height="56" viewBox="0 0 68 56" fill="none" xmlns="http://www.w3.org/2000/svg">
<g filter="url(#filter0_dd_75_579)">
<path d="M53.217 4.02991C53.1319 4.09859 53.0829 4.15758 53.07 4.2069C52.3074 7.16848 51.5446 10.1339 50.7814 13.1031C50.4327 13.0159 50.2056 12.9314 49.7961 12.9789C49.5002 12.9695 49.2038 13.0092 48.9067 13.0978L45.5316 4.5098C45.5299 4.50546 45.529 4.50082 45.5291 4.49616C45.5292 4.49151 45.5303 4.48694 45.5322 4.48274C45.5341 4.47854 45.5368 4.47479 45.5402 4.47172C45.5436 4.46865 45.5475 4.46633 45.5519 4.4649C45.5648 4.4602 45.5818 4.45991 45.6029 4.46402C47.3769 5.24183 48.6367 6.53008 49.3822 8.32875C49.4421 8.47316 49.5064 8.61816 49.5751 8.76374C49.588 8.79133 49.5989 8.79075 49.6077 8.76198C49.6499 8.61992 49.6937 8.45907 49.7389 8.27944C49.9238 7.55269 50.2748 6.81538 50.792 6.0675C51.399 5.22628 52.1586 4.54297 53.0709 4.01758C53.1172 3.99057 53.166 3.99468 53.217 4.02991Z" fill="#569932"/>
<path d="M53.217 4.02991L53.6828 5.1482C54.0932 6.54475 54.1768 7.98357 53.9338 9.46466C53.9297 9.49225 53.9121 9.56416 53.881 9.68039C53.8616 9.75436 53.8513 9.82832 53.8502 9.90229C52.8146 10.8421 51.9476 11.9595 51.249 13.2545L50.7814 13.1031C51.5446 10.1339 52.3074 7.16848 53.07 4.2069C53.0829 4.15758 53.1319 4.09859 53.217 4.02991Z" fill="#9DC530"/>
<path d="M45.6029 4.46402C45.5818 4.45991 45.5648 4.4602 45.5519 4.4649C45.5475 4.46633 45.5436 4.46865 45.5402 4.47172C45.5368 4.47479 45.5341 4.47854 45.5322 4.48274C45.5303 4.48694 45.5292 4.49151 45.5291 4.49616C45.529 4.50082 45.5299 4.50546 45.5316 4.5098L48.9067 13.0978C48.8122 13.1295 48.7148 13.1577 48.6144 13.1823C48.2393 13.2739 47.858 13.4835 47.5031 13.671C47.0147 13.1721 46.5976 12.6123 46.2519 11.9918C46.1333 11.7787 46.0226 11.5665 45.9199 11.3552C44.9501 9.3634 44.7165 7.2809 45.219 5.1077C45.2689 4.89167 45.3382 4.68239 45.4268 4.47987C45.4391 4.45169 45.4608 4.43701 45.492 4.43584C45.526 4.43525 45.563 4.44464 45.6029 4.46402Z" fill="#9DC530"/>
<path d="M59.5535 8.17201C59.486 8.1362 59.4261 8.14031 59.3738 8.18434C57.0762 10.0992 54.7756 12.0162 52.4721 13.9352C52.0735 13.6364 51.6658 13.4095 51.249 13.2545C51.9476 11.9595 52.8146 10.8421 53.8502 9.90229C54.0468 9.73968 54.2397 9.58735 54.4287 9.44529C55.9203 8.32523 57.6054 7.85413 59.4839 8.03201C59.5139 8.03435 59.5356 8.04903 59.5491 8.07603C59.5626 8.10362 59.564 8.13562 59.5535 8.17201Z" fill="#569932"/>
<path d="M59.5535 8.17201C59.574 8.21545 59.5761 8.27356 59.5597 8.34635C59.3316 9.37396 58.9521 10.3461 58.385 11.239C57.2332 13.0552 55.6139 14.3458 53.527 15.1107C53.3943 14.9317 53.274 14.7706 53.166 14.6273C53.0415 14.4618 52.8102 14.2311 52.4721 13.9352C54.7756 12.0162 57.0762 10.0992 59.3738 8.18434C59.4261 8.14031 59.486 8.1362 59.5535 8.17201Z" fill="#9DC530"/>
<path d="M25.212 15.2111C25.3512 16.4222 25.642 17.6326 26.0847 18.8425C26.094 18.8678 26.0946 18.9091 26.0864 18.9667L25.0412 19.7028C24.6849 18.8223 24.4504 17.9643 24.3376 17.129C24.1786 15.9467 23.9511 14.9517 23.6552 14.1439C23.1331 12.7156 22.1944 11.7109 20.7036 11.3816C20.2334 11.2777 19.8812 11.2255 19.647 11.2249L19.4955 11.2046L19.418 11.1703C19.3916 11.1585 19.374 11.1389 19.3652 11.1113C19.3487 11.059 19.3068 11.0071 19.2393 10.9554C18.4937 10.3866 17.6933 9.97068 16.838 9.70769C18.1888 9.31937 19.9754 9.31761 21.2663 9.67071C22.6693 10.0546 23.6881 10.9226 24.3227 12.2745C24.7709 13.2281 24.9637 14.0972 25.212 15.2111Z" fill="#478C31"/>
<path d="M16.838 9.70769C17.6933 9.97068 18.4937 10.3866 19.2393 10.9554C19.3068 11.0071 19.3487 11.059 19.3652 11.1113C19.374 11.1389 19.3916 11.1585 19.418 11.1703L19.4955 11.2046C18.7462 11.1879 17.9625 11.2178 17.251 11.4591L16.3229 11.7849C15.9941 11.846 15.6933 11.9775 15.4203 12.1794C14.4834 12.8733 13.9806 13.8454 13.6654 14.9443C13.3413 16.0732 13.1987 17.1492 12.9997 18.2772C12.828 19.252 12.4282 19.9476 11.9263 20.8493C11.5952 21.4445 11.3005 22.1657 11.0422 23.0128C11.0117 23.1132 10.9867 23.2153 10.9674 23.3192C10.9451 23.4384 11.0211 23.5291 11.1954 23.5913C11.2075 23.5957 11.2185 23.6025 11.2278 23.6113C11.2371 23.6201 11.2445 23.6307 11.2495 23.6425C11.2545 23.6542 11.2569 23.6669 11.2567 23.6796C11.2565 23.6923 11.2536 23.7048 11.2483 23.7164C10.5156 25.2937 10.0669 27.0255 9.9019 28.9116C9.80563 30.0129 9.77569 31.0237 9.81209 31.9442C9.8432 32.7308 9.99231 33.5301 10.2594 34.342C10.1226 34.2932 10.017 34.2269 9.94241 34.1429C9.40527 33.536 8.87782 32.9844 8.36006 32.4884C8.31016 32.4408 8.26408 32.3915 8.22181 32.3405C8.14609 32.2501 8.07271 32.2427 8.00168 32.3184C7.98994 31.3992 8.03983 30.3425 8.15137 29.1485C8.35566 26.96 8.97615 24.8998 10.0129 22.9679C10.2559 22.5165 10.501 22.0662 10.7481 21.6171C11.3739 20.4824 11.8239 19.2825 12.098 18.0174C12.3299 17.0817 12.5527 16.1477 12.7663 15.2155C12.9853 14.2616 13.27 13.3893 13.6205 12.5985C13.8013 12.19 14.0575 11.7708 14.3892 11.3411C15.0414 10.4975 15.8577 9.95307 16.838 9.70769Z" fill="#569932"/>
<path d="M34.7088 10.7881C34.6677 10.8151 34.6539 10.8794 34.6674 10.981C34.6774 11.0596 34.6803 11.1227 34.6762 11.1703C34.5635 12.4553 34.461 13.4019 34.3689 14.0101C34.3102 14.3957 34.2453 14.7157 34.1743 14.9699C34.061 15.379 33.9339 15.8005 33.793 16.2343C33.7534 16.3576 33.6636 16.4483 33.668 16.5848C33.6689 16.6061 33.6776 16.6263 33.6923 16.6416C33.7071 16.657 33.7269 16.6665 33.7481 16.6684C34.0146 16.6943 34.2905 16.6998 34.5758 16.6852C34.6069 16.6834 34.626 16.6673 34.633 16.6367L34.6718 16.4694C34.6647 16.5487 34.6753 16.6133 34.7035 16.6632C34.7182 16.6896 34.7408 16.7042 34.7713 16.7072C35.7968 16.7894 36.7831 16.9843 37.7299 17.2919C37.7476 17.3611 37.7986 17.4263 37.8832 17.4873C37.9618 17.5437 38.0182 17.5983 38.0522 17.6511C38.2747 17.9928 38.4564 18.3403 38.5973 18.6937C38.602 18.7053 38.6037 18.7179 38.6023 18.7303C38.6009 18.7428 38.5964 18.7546 38.5893 18.7649C38.5821 18.7751 38.5724 18.7834 38.5612 18.789C38.55 18.7945 38.5376 18.7972 38.5251 18.7967C38.4359 18.7932 38.3531 18.7718 38.2768 18.7324C37.9375 18.5563 37.587 18.4207 37.2254 18.3256C37.1362 18.3022 37.0769 18.3344 37.0475 18.4225C37.0252 18.4894 37.0132 18.5584 37.0114 18.6294C36.9985 19.173 36.9821 19.7451 36.9621 20.3456C36.9612 20.3729 36.9496 20.3988 36.9299 20.4177C36.9101 20.4367 36.8838 20.4471 36.8564 20.4469C36.5518 20.446 35.9433 19.8525 35.7434 19.6288C35.3372 19.1733 34.8963 18.7697 34.4208 18.4181C34.1138 18.1909 33.8071 18.1709 33.5007 18.3582C32.835 18.7656 32.1766 19.1977 31.5256 19.6544C31.5165 19.6608 31.506 19.6648 31.4949 19.666C31.4839 19.6673 31.4727 19.6656 31.4625 19.6613C31.4522 19.657 31.4433 19.6501 31.4365 19.6413C31.4296 19.6326 31.4251 19.6222 31.4234 19.6112L31.2385 18.4251C31.2362 18.4103 31.2309 18.3962 31.223 18.3834C31.215 18.3707 31.2046 18.3597 31.1923 18.3511C31.18 18.3425 31.166 18.3364 31.1513 18.3332C31.1365 18.3301 31.1213 18.3299 31.1064 18.3327C30.3586 18.4783 29.6591 18.6098 29.0081 18.7272C28.947 18.7383 28.8831 18.7451 28.8161 18.7474C28.8058 18.7477 28.7955 18.7457 28.786 18.7415C28.7765 18.7373 28.768 18.7311 28.7612 18.7233C28.7544 18.7154 28.7494 18.7062 28.7465 18.6962C28.7437 18.6862 28.7431 18.6758 28.7448 18.6655L28.928 17.5904C30.2905 17.0339 31.7563 16.7312 33.3254 16.6825C33.3428 16.682 33.3599 16.6779 33.3756 16.6705C33.3913 16.6631 33.4054 16.6526 33.4168 16.6395C33.4283 16.6265 33.437 16.6112 33.4423 16.5947C33.4476 16.5781 33.4495 16.5607 33.4478 16.5434C33.4302 16.3602 33.4329 16.1674 33.4047 15.9851C33.1869 14.5704 32.8499 13.1459 32.3938 11.7118C32.3836 11.6802 32.3837 11.6462 32.3941 11.6147C32.4046 11.5832 32.4248 11.5558 32.4519 11.5366C33.1276 11.0587 33.8799 10.8093 34.7088 10.7881Z" fill="#9DC530"/>
<path d="M34.7088 10.7881C35.1085 10.7881 35.4901 10.8539 35.8534 10.9854C35.8609 10.988 35.8676 10.9922 35.8732 10.9978C35.8788 11.0034 35.8831 11.0102 35.8858 11.0176C35.8885 11.0251 35.8895 11.0331 35.8888 11.0411C35.8881 11.0491 35.8856 11.0568 35.8816 11.0637C35.5306 11.666 35.267 12.3088 35.0909 12.9921C34.7956 14.1339 34.6559 15.293 34.6718 16.4694L34.633 16.6367C34.626 16.6673 34.6069 16.6834 34.5758 16.6852C34.2905 16.6998 34.0146 16.6943 33.7481 16.6684C33.7269 16.6665 33.7071 16.657 33.6923 16.6416C33.6776 16.6263 33.6689 16.6061 33.668 16.5848C33.6636 16.4483 33.7534 16.3576 33.793 16.2343C33.9339 15.8005 34.061 15.379 34.1743 14.9699C34.2453 14.7157 34.3102 14.3957 34.3689 14.0101C34.461 13.4019 34.5635 12.4553 34.6762 11.1703C34.6803 11.1227 34.6774 11.0596 34.6674 10.981C34.6539 10.8794 34.6677 10.8151 34.7088 10.7881Z" fill="#83B12B"/>
<path d="M19.4955 11.2046L19.647 11.2249C19.6969 11.2601 19.7265 11.3053 19.7359 11.3605C19.7435 11.4016 19.7614 11.4374 19.7896 11.4679C20.6913 12.4471 21.1668 13.7028 21.4001 15.0385C21.5293 15.78 21.6678 16.6417 21.8157 17.6238C21.8536 17.873 21.9232 18.1222 21.9751 18.3705C22.0139 18.5549 22.0655 18.738 22.1301 18.92C22.4324 19.7736 22.846 20.5837 23.3708 21.3503C22.9646 21.8387 22.6173 22.3835 22.3291 22.9846C21.9898 22.7498 21.74 22.5901 21.5798 22.5056C18.5621 20.9162 15.4564 22.5373 14.0282 25.3586C12.5013 28.3754 12.7522 32.2815 14.9307 34.946C16.7904 37.2214 19.8037 37.7629 22.1829 36.0441C22.1953 36.0353 22.2226 36.0291 22.2648 36.0256C22.573 36.6654 22.9467 37.2724 23.3858 37.8465C22.5663 38.2622 21.7383 38.5278 20.9017 38.6434C19.4391 38.846 17.9334 38.6998 16.4682 38.3537C15.0669 38.0227 13.7813 37.4157 12.6114 36.5328C11.9192 36.0103 11.2794 35.4347 10.6918 34.806C10.6436 34.7543 10.5309 34.6757 10.3536 34.57L10.2594 34.342C9.99231 33.5301 9.8432 32.7308 9.81209 31.9442C9.77569 31.0237 9.80563 30.0129 9.9019 28.9116C10.0669 27.0255 10.5156 25.2937 11.2483 23.7164C11.2536 23.7048 11.2565 23.6923 11.2567 23.6796C11.2569 23.6669 11.2545 23.6542 11.2495 23.6425C11.2445 23.6307 11.2371 23.6201 11.2278 23.6113C11.2185 23.6025 11.2075 23.5957 11.1954 23.5913C11.0211 23.5291 10.9451 23.4384 10.9674 23.3192C10.9867 23.2153 11.0117 23.1132 11.0422 23.0128C11.3005 22.1657 11.5952 21.4445 11.9263 20.8493C12.4282 19.9476 12.828 19.252 12.9997 18.2772C13.1987 17.1492 13.3413 16.0732 13.6654 14.9443C13.9806 13.8454 14.4834 12.8733 15.4203 12.1794C15.6933 11.9775 15.9941 11.846 16.3229 11.7849C15.585 12.2898 15.0361 12.9205 14.6762 13.6772C14.314 14.438 14.0147 15.3588 13.7781 16.4395C13.6096 17.2073 13.4262 18.0342 13.2277 18.92C12.9677 20.0812 12.5932 21.1261 12.1042 22.0548C11.8588 22.5209 11.609 23.004 11.3548 23.5042C11.347 23.5195 11.343 23.5365 11.3433 23.5537C11.3435 23.5709 11.3479 23.5878 11.3562 23.6029C11.3644 23.618 11.3762 23.6308 11.3906 23.6403C11.4049 23.6498 11.4213 23.6557 11.4385 23.6574C12.7003 23.785 13.9295 22.908 14.5697 21.9007C15.1004 21.0671 15.4699 20.0823 15.6783 18.9464C15.8339 18.0976 15.9325 17.2795 15.9742 16.4923C16.0305 15.4204 16.2061 14.3866 16.5007 13.391C16.688 12.7559 16.9698 12.1474 17.3461 11.5657C17.3607 11.5428 17.3599 11.5207 17.3434 11.4996C17.3211 11.4708 17.2903 11.4573 17.251 11.4591C17.9625 11.2178 18.7462 11.1879 19.4955 11.2046Z" fill="#9DC530"/>
<path d="M19.647 11.2249C19.8812 11.2255 20.2334 11.2777 20.7036 11.3816C22.1944 11.7109 23.1331 12.7156 23.6552 14.1439C23.9511 14.9517 24.1786 15.9467 24.3376 17.129C24.4504 17.9643 24.6849 18.8223 25.0412 19.7028C24.4248 20.1707 23.868 20.7199 23.3708 21.3503C22.846 20.5837 22.4324 19.7736 22.1301 18.92C22.0655 18.738 22.0139 18.5549 21.9751 18.3705C21.9232 18.1222 21.8536 17.873 21.8157 17.6238C21.6678 16.6417 21.5293 15.78 21.4001 15.0385C21.1668 13.7028 20.6913 12.4471 19.7896 11.4679C19.7614 11.4374 19.7435 11.4016 19.7359 11.3605C19.7265 11.3053 19.6969 11.2601 19.647 11.2249Z" fill="#83B12B"/>
<path d="M17.251 11.4591C17.2903 11.4573 17.3211 11.4708 17.3434 11.4996C17.3599 11.5207 17.3607 11.5428 17.3461 11.5657C16.9698 12.1474 16.688 12.7559 16.5007 13.391C16.2061 14.3866 16.0305 15.4204 15.9742 16.4923C15.9325 17.2795 15.8339 18.0976 15.6783 18.9464C15.4699 20.0823 15.1004 21.0671 14.5697 21.9007C13.9295 22.908 12.7003 23.785 11.4385 23.6574C11.4213 23.6557 11.4049 23.6498 11.3906 23.6403C11.3762 23.6308 11.3644 23.618 11.3562 23.6029C11.3479 23.5878 11.3435 23.5709 11.3433 23.5537C11.343 23.5365 11.347 23.5195 11.3548 23.5042C11.609 23.004 11.8588 22.5209 12.1042 22.0548C12.5932 21.1261 12.9677 20.0812 13.2277 18.92C13.4262 18.0342 13.6096 17.2073 13.7781 16.4395C14.0147 15.3588 14.314 14.438 14.6762 13.6772C15.0361 12.9205 15.585 12.2898 16.3229 11.7849L17.251 11.4591Z" fill="#CDD84E"/>
<path d="M49.7961 12.9789C50.3432 13.3887 50.6969 13.6878 50.8572 13.8762C51.1971 14.2754 51.4028 14.5325 51.4744 14.6476C52.1313 15.7016 52.5011 16.8851 52.5381 18.1249C52.5493 18.4865 52.5634 18.8152 52.5804 19.1111C52.5807 19.1169 52.5797 19.1226 52.5776 19.128C52.5754 19.1334 52.5722 19.1382 52.568 19.1422C52.5638 19.1462 52.5588 19.1493 52.5534 19.1512C52.5479 19.1531 52.5421 19.1539 52.5364 19.1534C52.1618 19.1181 51.7947 19.112 51.4348 19.1349C51.3726 19.139 51.3526 19.1663 51.3749 19.2168C51.3782 19.2247 51.3834 19.2318 51.3899 19.2374C51.3965 19.2431 51.4043 19.2472 51.4128 19.2493L52.48 19.5338C52.4975 19.5384 52.5128 19.5491 52.5233 19.5639C52.5337 19.5787 52.5387 19.5967 52.5373 19.6148C52.4967 20.1343 52.4518 20.6409 52.4025 21.1346C52.3462 21.6973 52.2308 22.2362 52.1657 22.805C52.1645 22.8173 52.1587 22.8287 52.1493 22.8367C52.1399 22.8448 52.1278 22.8489 52.1155 22.8481C52.0397 22.844 51.9596 22.8311 51.8751 22.8094C51.2229 22.6439 50.5845 22.5778 49.9599 22.6113C49.9429 22.6124 49.9285 22.6195 49.9167 22.6324C49.9044 22.6459 49.9009 22.6615 49.9062 22.6791C49.908 22.6855 49.9114 22.6913 49.9161 22.6959C49.9207 22.7006 49.9264 22.7038 49.9326 22.7055L52.0072 23.2514C52.0553 23.2638 52.0732 23.2943 52.0609 23.343L51.3855 26.1044C51.3556 26.2271 51.2845 26.2594 51.1724 26.2013C49.9684 25.5737 48.691 25.252 47.3402 25.2362C47.2745 25.2356 47.2302 25.2603 47.2073 25.3102C47.2056 25.3137 47.2047 25.3176 47.2047 25.3215C47.2047 25.3254 47.2056 25.3293 47.2073 25.3328C47.209 25.3364 47.2114 25.3395 47.2145 25.342C47.2175 25.3444 47.2211 25.3462 47.2249 25.3471C48.345 25.6448 49.5633 25.9621 50.8801 26.299C50.9787 26.3243 51.0849 26.3574 51.1988 26.3985C51.2179 26.4055 51.2335 26.4195 51.2425 26.4377C51.2515 26.4559 51.2532 26.4769 51.2472 26.4963C50.7189 28.2251 50.0984 29.9181 49.3858 31.5753C49.3805 31.5876 49.3781 31.6005 49.3787 31.614C49.3793 31.6281 49.3787 31.6422 49.377 31.6563C49.3761 31.6651 49.3732 31.6736 49.3686 31.6812C49.364 31.6888 49.3578 31.6952 49.3503 31.7001C49.3429 31.7049 49.3344 31.708 49.3256 31.7091C49.3168 31.7102 49.3079 31.7093 49.2995 31.7065C48.342 31.3813 47.4224 31.2195 46.5407 31.2213C46.5306 31.2214 46.5207 31.2241 46.5119 31.2291C46.5032 31.2341 46.4958 31.2413 46.4905 31.2499C46.4853 31.2585 46.4823 31.2683 46.4818 31.2784C46.4813 31.2885 46.4834 31.2985 46.4879 31.3076C46.5031 31.3381 46.5275 31.3581 46.561 31.3675C47.4169 31.5982 48.2675 31.8259 49.1128 32.0508C49.1468 32.0602 49.1568 32.0813 49.1427 32.1142C48.3855 33.8031 47.5668 35.4233 46.6869 36.9748C46.5724 37.1773 46.4386 37.3596 46.3118 37.5533C46.2953 37.5786 46.2721 37.5918 46.2422 37.593C46.1917 37.5959 46.1635 37.5786 46.1577 37.541C46.2123 36.789 46.1453 36.0552 45.9569 35.3396C46.3156 35.4564 46.62 35.5401 46.87 35.5906C47.1477 35.6469 47.17 35.5947 46.937 35.4338C46.6399 35.2296 46.2789 35.0693 45.8539 34.9531L45.7077 34.5383C45.7758 34.4268 45.8292 34.3032 45.868 34.1676C46.2143 32.9436 46.4057 31.7179 46.4421 30.4904C46.4562 30.0173 46.4638 29.5365 46.465 29.0481C46.5566 29.1332 46.6214 29.1808 46.6596 29.1907C47.4926 29.4162 48.3288 29.629 49.1683 29.8291C49.2199 29.8415 49.256 29.8456 49.2766 29.8415C49.347 29.828 49.3523 29.8016 49.2924 29.7622C48.4359 29.1951 47.4929 28.906 46.4632 28.8949C46.4045 28.022 46.3294 27.299 46.2378 26.7261C46.1086 25.9183 45.8747 25.0566 45.536 24.1408L45.9534 22.1939C45.9628 22.1493 45.9452 22.1214 45.9005 22.1102L44.2028 21.6797L43.9123 21.2834C44.639 21.3515 45.3109 21.5655 45.9278 21.9253C45.9352 21.9295 45.9435 21.9319 45.952 21.9324C45.9605 21.9328 45.969 21.9312 45.9767 21.9278C45.9845 21.9244 45.9914 21.9192 45.9968 21.9127C46.0022 21.9061 46.0061 21.8984 46.008 21.8901L46.3558 20.3447C46.3646 20.3048 46.3487 20.2816 46.3082 20.2752L46.0229 20.2303C46.0175 20.2293 46.0124 20.2266 46.0085 20.2227C46.0046 20.2188 46.0019 20.2137 46.0009 20.2083L45.9956 20.1713C45.9915 20.1478 46.0015 20.1343 46.0256 20.1308L46.354 20.085C46.3922 20.0797 46.4151 20.058 46.4227 20.0198C46.5777 19.2405 46.804 18.441 47.1809 17.7321C47.1848 17.7248 47.1869 17.7167 47.1872 17.7084C47.1875 17.7 47.1858 17.6918 47.1824 17.6843C47.179 17.6768 47.1739 17.6702 47.1675 17.6651C47.1612 17.6599 47.1537 17.6564 47.1456 17.6547C46.6032 17.5367 46.0544 17.397 45.499 17.2355C45.4268 17.2144 45.3502 17.2205 45.2762 17.2047C45.2404 17.1971 45.2108 17.207 45.1873 17.2346C45.1245 17.3074 45.0672 17.3852 45.0156 17.468C44.3546 18.5264 43.8723 19.6694 43.5689 20.8968L43.0273 20.3333C43.3778 19.178 43.855 18.0747 44.4591 17.0233C44.637 16.7134 44.8274 16.411 45.0306 16.1163C45.7139 15.1237 46.5381 14.3086 47.5031 13.671C47.858 13.4835 48.2393 13.2739 48.6144 13.1823C48.7148 13.1577 48.8122 13.1295 48.9067 13.0978C49.2038 13.0092 49.5002 12.9695 49.7961 12.9789ZM45.4788 16.9044C46.1189 16.9529 46.6561 17.1281 47.2522 17.3623C47.2851 17.3754 47.3213 17.3778 47.3559 17.3693C47.3904 17.3608 47.4216 17.3417 47.445 17.3148C48.138 16.5117 49.0441 15.8143 50.0999 15.8108C50.2038 15.8102 50.2135 15.78 50.1289 15.7201C49.6332 15.367 48.964 15.1099 48.3379 15.1257C47.2029 15.1539 46.1471 15.9878 45.4567 16.8542C45.4532 16.8586 45.4509 16.8639 45.4501 16.8695C45.4494 16.8752 45.4502 16.8809 45.4524 16.886C45.4547 16.8912 45.4584 16.8957 45.463 16.8989C45.4677 16.9022 45.4731 16.9041 45.4788 16.9044ZM46.3206 20.2047C46.3177 20.2138 46.3177 20.2235 46.3205 20.2326C46.3233 20.2417 46.3289 20.2498 46.3364 20.2558C46.3975 20.3022 46.4638 20.3348 46.5354 20.3535C47.3091 20.5614 48.2231 20.7988 49.2775 21.0659C49.3549 21.0853 49.4289 21.095 49.4994 21.095C49.5974 21.0944 49.605 21.068 49.5222 21.0157C48.6006 20.4369 47.5815 20.1325 46.465 20.1026C46.3916 20.1008 46.3435 20.1349 46.3206 20.2047Z" fill="#F1853D"/>
<path d="M49.7961 12.9789C50.2056 12.9314 50.4327 13.0159 50.7814 13.1031L51.249 13.2545C51.6658 13.4095 52.0735 13.6364 52.4721 13.9352C52.8102 14.2311 53.0415 14.4618 53.166 14.6273C53.274 14.7706 53.3943 14.9317 53.527 15.1107C53.6139 15.2786 53.7093 15.4703 53.8132 15.6857C54.1002 16.281 54.294 16.8862 54.3943 17.5014C54.5704 18.5816 54.6027 19.6767 54.4912 20.7868C54.3309 22.3853 54.0128 23.9344 53.5367 25.4343C53.2385 26.3736 52.8763 27.3592 52.4501 28.3912C51.6341 30.3648 50.647 32.4347 49.4888 34.6008C48.5807 36.3003 47.6203 37.8967 46.6076 39.3901C46.158 40.0459 45.5932 40.7615 44.9135 41.5369C44.5695 41.9297 44.1808 42.2085 43.7476 42.3735C43.909 42.1962 44.0693 42.0245 44.2284 41.8583C44.4421 41.6364 44.5991 41.4615 44.6995 41.3335C45.5659 40.2299 46.052 38.9657 46.1577 37.541C46.1635 37.5786 46.1917 37.5959 46.2422 37.593C46.2721 37.5918 46.2953 37.5786 46.3118 37.5533C46.4386 37.3596 46.5724 37.1773 46.6869 36.9748C47.5668 35.4233 48.3855 33.8031 49.1427 32.1142C49.1568 32.0813 49.1468 32.0602 49.1128 32.0508C48.2675 31.8259 47.4169 31.5982 46.561 31.3675C46.5275 31.3581 46.5031 31.3381 46.4879 31.3076C46.4834 31.2985 46.4813 31.2885 46.4818 31.2784C46.4823 31.2683 46.4853 31.2585 46.4905 31.2499C46.4958 31.2413 46.5032 31.2341 46.5119 31.2291C46.5207 31.2241 46.5306 31.2214 46.5407 31.2213C47.4224 31.2195 48.342 31.3813 49.2995 31.7065C49.3079 31.7093 49.3168 31.7102 49.3256 31.7091C49.3344 31.708 49.3429 31.7049 49.3503 31.7001C49.3578 31.6952 49.364 31.6888 49.3686 31.6812C49.3732 31.6736 49.3761 31.6651 49.377 31.6563C49.3787 31.6422 49.3793 31.6281 49.3787 31.614C49.3781 31.6005 49.3805 31.5876 49.3858 31.5753C50.0984 29.9181 50.7189 28.2251 51.2472 26.4963C51.2532 26.4769 51.2515 26.4559 51.2425 26.4377C51.2335 26.4195 51.2179 26.4055 51.1988 26.3985C51.0849 26.3574 50.9787 26.3243 50.8801 26.299C49.5633 25.9621 48.345 25.6448 47.2249 25.3471C47.2211 25.3462 47.2175 25.3444 47.2145 25.342C47.2114 25.3395 47.209 25.3364 47.2073 25.3328C47.2056 25.3293 47.2047 25.3254 47.2047 25.3215C47.2047 25.3176 47.2056 25.3137 47.2073 25.3102C47.2302 25.2603 47.2745 25.2356 47.3402 25.2362C48.691 25.252 49.9684 25.5737 51.1724 26.2013C51.2845 26.2594 51.3556 26.2271 51.3855 26.1044L52.0609 23.343C52.0732 23.2943 52.0553 23.2638 52.0072 23.2514L49.9326 22.7055C49.9264 22.7038 49.9207 22.7006 49.9161 22.6959C49.9114 22.6913 49.908 22.6855 49.9062 22.6791C49.9009 22.6615 49.9044 22.6459 49.9167 22.6324C49.9285 22.6195 49.9429 22.6124 49.9599 22.6113C50.5845 22.5778 51.2229 22.6439 51.8751 22.8094C51.9596 22.8311 52.0397 22.844 52.1155 22.8481C52.1278 22.8489 52.1399 22.8448 52.1493 22.8367C52.1587 22.8287 52.1645 22.8173 52.1657 22.805C52.2308 22.2362 52.3462 21.6973 52.4025 21.1346C52.4518 20.6409 52.4967 20.1343 52.5373 19.6148C52.5387 19.5967 52.5337 19.5787 52.5233 19.5639C52.5128 19.5491 52.4975 19.5384 52.48 19.5338L51.4128 19.2493C51.4043 19.2472 51.3965 19.2431 51.3899 19.2374C51.3834 19.2318 51.3782 19.2247 51.3749 19.2168C51.3526 19.1663 51.3726 19.139 51.4348 19.1349C51.7947 19.112 52.1618 19.1181 52.5364 19.1534C52.5421 19.1539 52.5479 19.1531 52.5534 19.1512C52.5588 19.1493 52.5638 19.1462 52.568 19.1422C52.5722 19.1382 52.5754 19.1334 52.5776 19.128C52.5797 19.1226 52.5807 19.1169 52.5804 19.1111C52.5634 18.8152 52.5493 18.4865 52.5381 18.1249C52.5011 16.8851 52.1313 15.7016 51.4744 14.6476C51.4028 14.5325 51.1971 14.2754 50.8572 13.8762C50.6969 13.6878 50.3432 13.3887 49.7961 12.9789Z" fill="#ED6C28"/>
<path d="M47.2522 17.3623C46.6561 17.1281 46.1189 16.9529 45.4788 16.9044C45.4731 16.9041 45.4677 16.9022 45.463 16.8989C45.4584 16.8957 45.4547 16.8912 45.4524 16.886C45.4502 16.8809 45.4494 16.8752 45.4501 16.8695C45.4509 16.8639 45.4532 16.8586 45.4567 16.8542C46.1471 15.9878 47.2029 15.1539 48.3379 15.1257C48.964 15.1099 49.6332 15.367 50.1289 15.7201C50.2135 15.78 50.2038 15.8102 50.0999 15.8108C49.0441 15.8143 48.138 16.5117 47.445 17.3148C47.4216 17.3417 47.3904 17.3608 47.3559 17.3693C47.3213 17.3778 47.2851 17.3754 47.2522 17.3623Z" fill="#F8B67A"/>
<path d="M43.9123 21.2834L43.5689 20.8968C43.8723 19.6694 44.3546 18.5264 45.0156 17.468C45.0672 17.3852 45.1245 17.3074 45.1873 17.2346C45.2108 17.207 45.2404 17.1971 45.2762 17.2047C45.3502 17.2205 45.4268 17.2144 45.499 17.2355C46.0544 17.397 46.6032 17.5367 47.1456 17.6547C47.1537 17.6564 47.1612 17.6599 47.1675 17.6651C47.1739 17.6702 47.179 17.6768 47.1824 17.6843C47.1858 17.6918 47.1875 17.7 47.1872 17.7084C47.1869 17.7167 47.1848 17.7248 47.1809 17.7321C46.804 18.441 46.5777 19.2405 46.4227 20.0198C46.4151 20.058 46.3922 20.0797 46.354 20.085L46.0256 20.1308C46.0015 20.1343 45.9915 20.1478 45.9956 20.1713L46.0009 20.2083C46.0019 20.2137 46.0046 20.2188 46.0085 20.2227C46.0124 20.2266 46.0175 20.2293 46.0229 20.2303L46.3082 20.2752C46.3487 20.2816 46.3646 20.3048 46.3558 20.3447L46.008 21.8901C46.0061 21.8984 46.0022 21.9061 45.9968 21.9127C45.9914 21.9192 45.9845 21.9244 45.9767 21.9278C45.969 21.9312 45.9605 21.9328 45.952 21.9324C45.9435 21.9319 45.9352 21.9295 45.9278 21.9253C45.3109 21.5655 44.639 21.3515 43.9123 21.2834Z" fill="#F8B67A"/>
<path d="M37.7299 17.2919L38.4898 17.5419C38.4329 17.5607 38.4476 17.5974 38.5338 17.652C38.7405 17.7823 38.9527 17.9441 39.1705 18.1372C39.963 18.8416 40.5168 20.0136 40.7854 21.0166C40.787 21.0225 40.787 21.0286 40.7855 21.0344C40.7839 21.0401 40.7809 21.0452 40.7766 21.0492C40.7596 21.0644 40.7452 21.0633 40.7335 21.0456C40.4834 20.8003 40.2104 20.5754 39.9146 20.3711C39.2348 19.9009 38.5441 19.4645 37.8426 19.0618C37.8358 19.0578 37.828 19.0559 37.8201 19.0563C37.8122 19.0567 37.8046 19.0595 37.7982 19.0641C37.7919 19.0688 37.787 19.0752 37.7843 19.0827C37.7815 19.0901 37.781 19.0981 37.7827 19.1058C37.9747 20.0269 37.6057 21.198 37.176 22.0248C37.1722 22.0321 37.1664 22.0383 37.1594 22.0427C37.1524 22.0471 37.1444 22.0496 37.1361 22.05C37.1278 22.0504 37.1196 22.0485 37.1122 22.0447C37.1049 22.0409 37.0987 22.0353 37.0942 22.0283C36.358 20.8977 35.3709 19.7239 34.2473 18.9482C34.2152 18.9259 34.1778 18.9124 34.1388 18.909C34.0999 18.9056 34.0608 18.9124 34.0254 18.9288C33.6327 19.1076 33.2356 19.3118 32.8851 19.5593C31.9465 20.2256 31.1014 20.9805 30.35 21.8241C30.286 21.8963 30.2558 21.8839 30.2593 21.7871C30.291 20.8995 30.4093 19.9808 30.6142 19.031C30.6247 18.9816 30.6051 18.9596 30.5552 18.9649C29.6071 19.0659 28.7474 19.2851 27.9761 19.6227C27.5011 19.8299 27.0835 20.0844 26.723 20.3861C26.6262 20.4671 26.6003 20.4486 26.6455 20.3306C27.0447 19.284 27.7066 18.4345 28.6312 17.7823C28.6535 17.7665 28.6517 17.7424 28.6259 17.7101L28.928 17.5904L28.7448 18.6655C28.7431 18.6758 28.7437 18.6862 28.7465 18.6962C28.7494 18.7062 28.7544 18.7154 28.7612 18.7233C28.768 18.7311 28.7765 18.7373 28.786 18.7415C28.7955 18.7457 28.8058 18.7477 28.8161 18.7474C28.8831 18.7451 28.947 18.7383 29.0081 18.7272C29.6591 18.6098 30.3586 18.4783 31.1064 18.3327C31.1213 18.3299 31.1365 18.3301 31.1513 18.3332C31.166 18.3364 31.18 18.3425 31.1923 18.3511C31.2046 18.3597 31.215 18.3707 31.223 18.3834C31.2309 18.3962 31.2362 18.4103 31.2385 18.4251L31.4234 19.6112C31.4251 19.6222 31.4296 19.6326 31.4365 19.6413C31.4433 19.6501 31.4522 19.657 31.4625 19.6613C31.4727 19.6656 31.4839 19.6673 31.4949 19.666C31.506 19.6648 31.5165 19.6608 31.5256 19.6544C32.1766 19.1977 32.835 18.7656 33.5007 18.3582C33.8071 18.1709 34.1138 18.1909 34.4208 18.4181C34.8963 18.7697 35.3372 19.1733 35.7434 19.6288C35.9433 19.8525 36.5518 20.446 36.8564 20.4469C36.8838 20.4471 36.9101 20.4367 36.9299 20.4177C36.9496 20.3988 36.9612 20.3729 36.9621 20.3456C36.9821 19.7451 36.9985 19.173 37.0114 18.6294C37.0132 18.5584 37.0252 18.4894 37.0475 18.4225C37.0769 18.3344 37.1362 18.3022 37.2254 18.3256C37.587 18.4207 37.9375 18.5563 38.2768 18.7324C38.3531 18.7718 38.4359 18.7932 38.5251 18.7967C38.5376 18.7972 38.55 18.7945 38.5612 18.789C38.5724 18.7834 38.5821 18.7751 38.5893 18.7649C38.5964 18.7546 38.6009 18.7428 38.6023 18.7303C38.6037 18.7179 38.602 18.7053 38.5973 18.6937C38.4564 18.3403 38.2747 17.9928 38.0522 17.6511C38.0182 17.5983 37.9618 17.5437 37.8832 17.4873C37.7986 17.4263 37.7476 17.3611 37.7299 17.2919Z" fill="#83B12B"/>
<path d="M38.4898 17.5419C40.2075 18.1906 41.72 19.1211 43.0273 20.3333L43.5689 20.8968L43.9123 21.2834L44.2028 21.6797C44.7453 22.4522 45.1896 23.2726 45.536 24.1408C45.8747 25.0566 46.1086 25.9183 46.2378 26.7261C46.3294 27.299 46.4045 28.022 46.4632 28.8949C46.4767 28.9964 46.4773 29.0475 46.465 29.0481C46.4638 29.5365 46.4562 30.0173 46.4421 30.4904C46.4057 31.7179 46.2143 32.9436 45.868 34.1676C45.8292 34.3032 45.7758 34.4268 45.7077 34.5383C45.1635 33.1835 44.2912 32.0998 43.0907 31.2873C42.9739 31.2081 42.8618 31.1447 42.7543 31.0971C42.8723 31.0361 42.9422 30.9002 42.9639 30.6894C43.0687 29.6768 43.0863 28.6527 42.9895 27.6357C42.9396 27.1097 42.8955 26.6873 42.8574 26.3686C42.6469 24.5995 41.9971 22.7944 40.9008 21.3327C40.8632 21.2828 40.8318 21.2285 40.8066 21.1698C40.789 21.1293 40.7646 21.0879 40.7335 21.0456C40.7452 21.0633 40.7596 21.0644 40.7766 21.0492C40.7809 21.0452 40.7839 21.0401 40.7855 21.0344C40.787 21.0286 40.787 21.0225 40.7854 21.0166C40.5168 20.0136 39.963 18.8416 39.1705 18.1372C38.9527 17.9441 38.7405 17.7823 38.5338 17.652C38.4476 17.5974 38.4329 17.5607 38.4898 17.5419Z" fill="#CD2536"/>
<path d="M28.6259 17.7101C28.6517 17.7424 28.6535 17.7665 28.6312 17.7823C27.7066 18.4345 27.0447 19.284 26.6455 20.3306C26.6003 20.4486 26.6262 20.4671 26.723 20.3861C27.0835 20.0844 27.5011 19.8299 27.9761 19.6227C28.7474 19.2851 29.6071 19.0659 30.5552 18.9649C30.6051 18.9596 30.6247 18.9816 30.6142 19.031C30.4093 19.9808 30.291 20.8995 30.2593 21.7871C30.2558 21.8839 30.286 21.8963 30.35 21.8241C31.1014 20.9805 31.9465 20.2256 32.8851 19.5593C33.2356 19.3118 33.6327 19.1076 34.0254 18.9288C34.0608 18.9124 34.0999 18.9056 34.1388 18.909C34.1778 18.9124 34.2152 18.9259 34.2473 18.9482C35.3709 19.7239 36.358 20.8977 37.0942 22.0283C37.0987 22.0353 37.1049 22.0409 37.1122 22.0447C37.1196 22.0485 37.1278 22.0504 37.1361 22.05C37.1444 22.0496 37.1524 22.0471 37.1594 22.0427C37.1664 22.0383 37.1722 22.0321 37.176 22.0248C37.6057 21.198 37.9747 20.0269 37.7827 19.1058C37.781 19.0981 37.7815 19.0901 37.7843 19.0827C37.787 19.0752 37.7919 19.0688 37.7982 19.0641C37.8046 19.0595 37.8122 19.0567 37.8201 19.0563C37.828 19.0559 37.8358 19.0578 37.8426 19.0618C38.5441 19.4645 39.2348 19.9009 39.9146 20.3711C40.2104 20.5754 40.4834 20.8003 40.7335 21.0456C40.7646 21.0879 40.789 21.1293 40.8066 21.1698C40.8318 21.2285 40.8632 21.2828 40.9008 21.3327C41.9971 22.7944 42.6469 24.5995 42.8574 26.3686C42.8955 26.6873 42.9396 27.1097 42.9895 27.6357C43.0863 28.6527 43.0687 29.6768 42.9639 30.6894C42.9422 30.9002 42.8723 31.0361 42.7543 31.0971L42.189 30.766C40.4643 30.0011 38.7417 29.9054 37.0211 30.479C35.5118 30.9827 34.1963 32.0279 33.3712 33.339C32.422 34.8483 32.1015 36.5219 32.4097 38.3599C32.4502 38.6038 32.5338 38.8354 32.5999 39.0758L32.5726 39.1383C32.5608 39.1671 32.5403 39.1759 32.5109 39.1647C32.4475 39.1409 32.4044 39.1048 32.3313 39.1022C31.9315 39.0899 31.5332 39.0802 31.1364 39.0732C29.7216 39.0485 28.3535 38.7987 27.0321 38.3238C25.8566 37.902 24.7947 37.246 23.8014 36.4245C23.1504 35.8856 22.5607 35.3352 22.0324 34.7734C21.9625 34.6995 21.8436 34.6446 21.6758 34.6088C21.2378 33.2868 20.9954 31.9216 20.9484 30.5133C20.8877 28.68 21.0294 26.8291 21.512 25.0539C21.7121 24.3189 21.9845 23.6292 22.3291 22.9846C22.6173 22.3835 22.9646 21.8387 23.3708 21.3503C23.868 20.7199 24.4248 20.1707 25.0412 19.7028L26.0864 18.9667C26.8971 18.4747 27.7436 18.0559 28.6259 17.7101ZM23.3215 24.67C22.551 26.4505 22.389 28.6501 22.5704 30.6137C22.5716 30.627 22.5775 30.6394 22.587 30.6488C22.5965 30.6581 22.609 30.6638 22.6223 30.6648C25.0527 30.8374 27.6529 30.3381 27.5499 27.2597C27.5164 26.2796 27.4257 25.267 27.4953 24.2922C27.5569 23.4311 27.8176 22.6365 28.2772 21.9086C28.6083 21.3844 28.9007 20.8819 29.1543 20.4011C29.2241 20.2696 29.2787 20.134 29.318 19.9943C29.3201 19.9871 29.3202 19.9795 29.3183 19.9723C29.3164 19.965 29.3126 19.9585 29.3073 19.9532C29.302 19.948 29.2953 19.9443 29.2881 19.9425C29.2808 19.9408 29.2732 19.941 29.2661 19.9432C28.1372 20.2743 27.1008 20.7436 26.1569 21.3512C24.8648 22.183 23.9197 23.2893 23.3215 24.67Z" fill="#E42E3D"/>
<path d="M23.3215 24.67C23.9197 23.2893 24.8648 22.183 26.1569 21.3512C27.1008 20.7436 28.1372 20.2743 29.2661 19.9432C29.2732 19.941 29.2808 19.9408 29.2881 19.9425C29.2953 19.9443 29.302 19.948 29.3073 19.9532C29.3126 19.9585 29.3164 19.965 29.3183 19.9723C29.3202 19.9795 29.3201 19.9871 29.318 19.9943C29.2787 20.134 29.2241 20.2696 29.1543 20.4011C28.9007 20.8819 28.6083 21.3844 28.2772 21.9086C27.8176 22.6365 27.5569 23.4311 27.4953 24.2922C27.4257 25.267 27.5164 26.2796 27.5499 27.2597C27.6529 30.3381 25.0527 30.8374 22.6223 30.6648C22.609 30.6638 22.5965 30.6581 22.587 30.6488C22.5775 30.6394 22.5716 30.627 22.5704 30.6137C22.389 28.6501 22.551 26.4505 23.3215 24.67Z" fill="#EA646B"/>
<path d="M46.3206 20.2047C46.3435 20.1349 46.3916 20.1008 46.465 20.1026C47.5815 20.1325 48.6006 20.4369 49.5222 21.0157C49.605 21.068 49.5974 21.0944 49.4994 21.095C49.4289 21.095 49.3549 21.0853 49.2775 21.0659C48.2231 20.7988 47.3091 20.5614 46.5354 20.3535C46.4638 20.3348 46.3975 20.3022 46.3364 20.2558C46.3289 20.2498 46.3233 20.2417 46.3205 20.2326C46.3177 20.2235 46.3177 20.2138 46.3206 20.2047Z" fill="#ED6C28"/>
<path d="M45.536 24.1408C45.1896 23.2726 44.7453 22.4522 44.2028 21.6797L45.9005 22.1102C45.9452 22.1214 45.9628 22.1493 45.9534 22.1939L45.536 24.1408Z" fill="#F8B67A"/>
<path d="M22.3291 22.9846C21.9845 23.6292 21.7121 24.3189 21.512 25.0539C21.0294 26.8291 20.8877 28.68 20.9484 30.5133C20.9954 31.9216 21.2378 33.2868 21.6758 34.6088L22.2648 36.0256C22.2226 36.0291 22.1953 36.0353 22.1829 36.0441C19.8037 37.7629 16.7904 37.2214 14.9307 34.946C12.7522 32.2815 12.5013 28.3754 14.0282 25.3586C15.4564 22.5373 18.5621 20.9162 21.5798 22.5056C21.74 22.5901 21.9898 22.7498 22.3291 22.9846ZM17.5037 23.6397C15.3208 24.545 14.1682 26.9603 14.0282 29.1995C14.0259 29.2319 14.0353 29.264 14.0546 29.2901C14.074 29.3163 14.1021 29.3347 14.1338 29.3422C14.8553 29.5083 15.5952 29.4813 16.3537 29.2612C16.8621 29.1138 17.229 28.8682 17.4544 28.5242C17.8594 27.906 18.0813 26.9982 18.1491 26.2127C18.2028 25.5981 18.2786 24.9289 18.5172 24.3627C18.6992 23.933 19.0168 23.6089 19.47 23.3906C19.5433 23.3553 19.5395 23.3336 19.4585 23.3254C18.8163 23.2614 18.1647 23.3662 17.5037 23.6397Z" fill="#683D13"/>
<path d="M17.5037 23.6397C18.1647 23.3662 18.8163 23.2614 19.4585 23.3254C19.5395 23.3336 19.5433 23.3553 19.47 23.3906C19.0168 23.6089 18.6992 23.933 18.5172 24.3627C18.2786 24.9289 18.2028 25.5981 18.1491 26.2127C18.0813 26.9982 17.8594 27.906 17.4544 28.5242C17.229 28.8682 16.8621 29.1138 16.3537 29.2612C15.5952 29.4813 14.8553 29.5083 14.1338 29.3422C14.1021 29.3347 14.074 29.3163 14.0546 29.2901C14.0353 29.264 14.0259 29.2319 14.0282 29.1995C14.1682 26.9603 15.3208 24.545 17.5037 23.6397Z" fill="#9F732A"/>
<path d="M46.465 29.0481C46.4773 29.0475 46.4767 28.9964 46.4632 28.8949C47.4929 28.906 48.4359 29.1951 49.2924 29.7622C49.3523 29.8016 49.347 29.828 49.2766 29.8415C49.256 29.8456 49.2199 29.8415 49.1683 29.8291C48.3288 29.629 47.4926 29.4162 46.6596 29.1907C46.6214 29.1808 46.5566 29.1332 46.465 29.0481Z" fill="#ED6C28"/>
<path d="M42.189 30.766C42.1491 30.7701 42.1265 30.7754 42.1212 30.7819C42.1041 30.8042 42.0943 30.8317 42.0932 30.8607C42.0921 30.8898 42.0997 30.9191 42.1151 30.9448C42.4291 31.4684 42.7047 31.985 42.9419 32.4946C43.0291 32.6812 43.1823 32.8204 43.2818 33.0053C43.285 33.0112 43.2867 33.0179 43.2867 33.0247C43.2867 33.0314 43.285 33.0381 43.2818 33.044L43.2695 33.0669C43.2554 33.0922 43.2533 33.1186 43.2633 33.1462L43.347 33.3769C43.2219 33.2483 43.1277 33.1118 42.9939 32.9921C41.7282 31.8614 40.2395 31.3836 38.5277 31.5585C38.4802 31.5632 38.4555 31.5415 38.4537 31.4934C38.4526 31.4417 38.4306 31.4015 38.3877 31.3727C38.2574 31.2838 37.9034 31.3225 37.7669 31.3393C36.2447 31.5324 35.0548 32.2559 34.1972 33.5098C33.5731 34.4227 33.3237 35.4922 33.4487 36.7186C33.461 36.8424 33.4854 36.9628 33.5218 37.0796C33.5315 37.111 33.5513 37.1382 33.5781 37.1571C33.6468 37.2058 33.6859 37.2803 33.6952 37.3807C33.8948 39.4964 34.9286 41.05 36.7965 42.0415C36.4995 42.0738 36.2066 42.05 35.9178 41.9702C35.3445 41.8134 34.7008 41.5959 34.2623 41.2279C33.9958 41.0042 33.7581 40.7617 33.5491 40.5005C33.3559 40.2598 33.2033 40.0362 33.0912 39.8295C32.9615 39.59 32.8279 39.4054 32.6905 39.2757C32.6618 39.2551 32.6316 39.1885 32.5999 39.0758C32.5338 38.8354 32.4502 38.6038 32.4097 38.3599C32.1015 36.5219 32.422 34.8483 33.3712 33.339C34.1963 32.0279 35.5118 30.9827 37.0211 30.479C38.7417 29.9054 40.4643 30.0011 42.189 30.766Z" fill="#569932"/>
<path d="M42.189 30.766L42.7543 31.0971C42.8618 31.1447 42.9739 31.2081 43.0907 31.2873C44.2912 32.0998 45.1635 33.1835 45.7077 34.5383L45.8539 34.9531L45.9569 35.3396C46.1453 36.0552 46.2123 36.789 46.1577 37.541C46.052 38.9657 45.5659 40.2299 44.6995 41.3335C44.5991 41.4615 44.4421 41.6364 44.2284 41.8583C44.0693 42.0245 43.909 42.1962 43.7476 42.3735C43.3279 42.6769 42.9891 42.9033 42.7314 43.0524C40.1602 44.5361 37.0272 44.257 34.7484 42.3594C34.7325 42.3465 34.6991 42.3288 34.648 42.3065C34.6227 42.2502 34.6004 42.2135 34.5811 42.1965C33.7991 41.5102 33.1989 40.6643 32.7803 39.6587C32.7281 39.5331 32.6982 39.4054 32.6905 39.2757C32.8279 39.4054 32.9615 39.59 33.0912 39.8295C33.2033 40.0362 33.3559 40.2598 33.5491 40.5005C33.7581 40.7617 33.9958 41.0042 34.2623 41.2279C34.7008 41.5959 35.3445 41.8134 35.9178 41.9702C36.2066 42.05 36.4995 42.0738 36.7965 42.0415L37.0581 42.1401C37.8793 42.4994 38.7384 42.6458 39.6354 42.5795C42.1608 42.3937 44.2706 40.5005 44.6863 37.9848C44.9487 36.4004 44.5782 34.9448 43.575 33.6181C43.5433 33.5765 43.479 33.5154 43.3822 33.435C43.3563 33.4139 43.3446 33.3945 43.347 33.3769L43.2633 33.1462C43.2533 33.1186 43.2554 33.0922 43.2695 33.0669L43.2818 33.044C43.285 33.0381 43.2867 33.0314 43.2867 33.0247C43.2867 33.0179 43.285 33.0112 43.2818 33.0053C43.1823 32.8204 43.0291 32.6812 42.9419 32.4946C42.7047 31.985 42.4291 31.4684 42.1151 30.9448C42.0997 30.9191 42.0921 30.8898 42.0932 30.8607C42.0943 30.8317 42.1041 30.8042 42.1212 30.7819C42.1265 30.7754 42.1491 30.7701 42.189 30.766Z" fill="#478C31"/>
<path d="M43.347 33.3769C43.3446 33.3945 43.3563 33.4139 43.3822 33.435C43.324 33.5759 43.3302 33.7611 43.4007 33.9906C43.437 34.1104 43.4673 34.3971 43.4913 34.8509C43.5407 35.789 43.4752 36.7183 43.295 37.6387C43.2357 37.9405 43.1473 38.2284 43.0299 38.5026C42.7376 38.091 42.3619 37.8237 41.9028 37.7004C41.3155 37.5428 41.0373 38.263 41.5665 38.5598C41.9504 38.7752 42.4115 38.8254 42.9498 38.7104C42.7056 39.3473 42.3927 39.8645 42.0111 40.2619C40.8077 41.5146 39.3023 42.1466 37.4948 42.1577C37.493 42.1577 37.4379 42.1633 37.3293 42.1744C37.2494 42.1827 37.159 42.1712 37.0581 42.1401L36.7965 42.0415C34.9286 41.05 33.8948 39.4964 33.6952 37.3807C33.6859 37.2803 33.6468 37.2058 33.5781 37.1571C33.5513 37.1382 33.5315 37.111 33.5218 37.0796C33.4854 36.9628 33.461 36.8424 33.4487 36.7186C33.3237 35.4922 33.5731 34.4227 34.1972 33.5098C35.0548 32.2559 36.2447 31.5324 37.7669 31.3393C37.9034 31.3225 38.2574 31.2838 38.3877 31.3727C38.4306 31.4015 38.4526 31.4417 38.4537 31.4934C38.4555 31.5415 38.4802 31.5632 38.5277 31.5585C40.2395 31.3836 41.7282 31.8614 42.9939 32.9921C43.1277 33.1118 43.2219 33.2483 43.347 33.3769ZM36.2876 37.2143C36.3674 37.2307 36.5074 37.2936 36.7076 37.4027C36.9483 37.5342 37.262 37.5794 37.6489 37.5384C37.965 37.5049 38.1852 37.2795 38.0848 36.9413C37.958 36.5134 37.309 36.5865 36.9656 36.686L36.9242 36.3866C37.0956 36.1665 37.1335 35.9208 37.0378 35.6496C36.9838 34.9856 37.1496 34.4159 37.5353 33.9404C37.5705 34.2152 37.6272 34.4591 37.7052 34.6722C37.8365 35.0305 38.1755 35.3995 38.5603 35.0984C38.6278 35.0455 38.6744 34.9733 38.7003 34.8817C38.8262 34.4344 38.2195 33.7819 37.8426 33.5327C38.201 32.9463 38.5127 32.3484 38.496 31.6545C38.4956 31.6429 38.4928 31.6314 38.4877 31.6209C38.4825 31.6104 38.4752 31.6012 38.4662 31.5938C38.4572 31.5863 38.4467 31.5809 38.4355 31.5779C38.4242 31.5749 38.4124 31.5743 38.4009 31.5762C37.3419 31.7528 36.4199 32.1808 35.6351 32.86C34.417 33.9155 33.7686 35.2786 33.6899 36.9493C33.6858 37.0326 33.7076 37.1095 33.7551 37.18C33.771 37.204 33.7927 37.2199 33.8203 37.2275C34.6703 37.4594 35.4927 37.455 36.2876 37.2143ZM39.8917 34.2398C39.5861 35.0561 40.5424 35.3493 40.7881 34.5568C40.9119 34.1582 40.9278 33.7725 40.8356 33.3998C40.83 33.3769 40.8191 33.3556 40.8038 33.3377C40.7884 33.3198 40.7691 33.3057 40.7473 33.2966C40.7256 33.2875 40.702 33.2837 40.6785 33.2854C40.655 33.2871 40.6322 33.2943 40.6119 33.3064C40.2932 33.4978 40.0531 33.8089 39.8917 34.2398ZM39.1476 34.2416C38.7769 34.5621 38.459 36.015 39.2436 36.0115C39.5482 36.0106 39.6935 35.7227 39.6997 35.4523C39.7091 35.0261 39.6011 34.634 39.3757 34.2759C39.364 34.2574 39.3485 34.2416 39.3301 34.2297C39.3118 34.2177 39.2911 34.2098 39.2695 34.2065C39.2478 34.2033 39.2258 34.2047 39.2047 34.2108C39.1837 34.2168 39.1642 34.2273 39.1476 34.2416ZM37.1549 35.1098C37.0853 35.6029 37.9624 36.9475 38.4977 36.2545C38.6721 36.0291 38.5585 35.757 38.3815 35.5783C38.0927 35.2871 37.7411 35.0919 37.3266 34.9927C37.2268 34.9686 37.1696 35.0077 37.1549 35.1098ZM39.9057 35.8222C39.8277 35.9859 39.8338 36.1345 39.9242 36.2677C40.1153 36.5486 40.4534 36.509 40.6815 36.3117C41.0261 36.0141 41.2357 35.6528 41.3102 35.2278C41.3319 35.1069 41.2815 35.0429 41.1588 35.0358C41.1089 35.0329 41.0593 35.0396 41.01 35.0561C40.5723 35.1996 40.0836 35.4532 39.9057 35.8222ZM42.9498 35.7095C42.9594 35.6928 42.9655 35.6742 42.9676 35.6551C42.9696 35.6359 42.9677 35.6165 42.9619 35.5982C42.9561 35.5798 42.9466 35.5628 42.9339 35.5483C42.9212 35.5338 42.9056 35.5221 42.8882 35.514C42.6143 35.3863 42.0226 35.5228 41.754 35.617C41.4185 35.735 41.083 36.0951 41.3771 36.4474C41.4907 36.5821 41.6959 36.6235 41.8606 36.5803C42.3202 36.4606 42.6833 36.1703 42.9498 35.7095ZM42.071 37.0576C41.7884 36.715 40.5706 36.3998 40.3381 36.9158C40.2624 37.084 40.2967 37.3675 40.4807 37.4706C40.9501 37.7312 41.6343 37.5454 42.0464 37.2513C42.0612 37.2406 42.0737 37.2269 42.083 37.2112C42.0923 37.1954 42.0983 37.1779 42.1007 37.1598C42.103 37.1416 42.1015 37.1232 42.0964 37.1056C42.0913 37.088 42.0827 37.0717 42.071 37.0576ZM37.1347 37.9645C37.1047 37.7532 36.9797 37.6346 36.7595 37.6088C36.2576 37.5507 35.643 38.1495 35.4449 38.5299C35.434 38.5507 35.4314 38.575 35.4376 38.5978C35.4438 38.6206 35.4583 38.6403 35.4783 38.6531C35.9063 38.9243 37.2254 38.6029 37.1347 37.9645ZM37.2474 39.192C37.7082 39.131 38.0924 38.9138 38.4 38.5404C38.6263 38.2666 38.6052 37.9038 38.2424 37.755C38.0425 37.6731 37.7871 37.8307 37.6507 37.9689C37.4737 38.1495 36.9665 38.8592 37.1347 39.1383C37.1462 39.1572 37.163 39.1724 37.183 39.1819C37.203 39.1914 37.2254 39.1949 37.2474 39.192ZM40.862 38.1151C40.722 37.9179 40.3733 37.6361 40.1144 37.7752C39.668 38.0138 39.8608 38.4744 40.1453 38.7324C40.4323 38.9919 40.7493 39.1524 41.0962 39.214C41.1206 39.2183 41.1456 39.2168 41.1692 39.2095C41.1928 39.2022 41.2144 39.1894 41.2321 39.1722C41.2499 39.1549 41.2634 39.1337 41.2714 39.1102C41.2795 39.0867 41.2819 39.0616 41.2785 39.037C41.2301 38.698 41.0575 38.3898 40.862 38.1151ZM39.2189 38.1996C38.4361 38.153 38.7152 39.8304 39.1696 40.0004C39.1865 40.0066 39.2048 40.0077 39.2224 40.0035C39.2399 39.9993 39.2559 39.9899 39.2682 39.9766C39.5755 39.6429 39.6997 39.0547 39.6583 38.639C39.6313 38.362 39.4848 38.2155 39.2189 38.1996ZM40.2536 39.0221C39.9859 38.9772 39.7393 39.1947 39.7516 39.4756C39.7728 39.9757 40.2139 40.4803 40.6155 40.6881C40.6371 40.6993 40.6611 40.7054 40.6855 40.7059C40.7099 40.7064 40.734 40.7012 40.7561 40.6908C40.7782 40.6804 40.7975 40.6651 40.8127 40.646C40.8279 40.6269 40.8384 40.6045 40.8435 40.5807C40.9351 40.1448 40.803 39.1145 40.2536 39.0221ZM37.8048 40.7999C38.142 40.5666 38.9565 39.5865 38.4238 39.1779C38.2072 39.0124 37.9113 39.0732 37.7704 39.3021C37.5045 39.7347 37.4423 40.2073 37.5837 40.7198C37.5899 40.7419 37.6013 40.7623 37.6169 40.7792C37.6326 40.796 37.652 40.8089 37.6736 40.8167C37.6952 40.8246 37.7184 40.8271 37.7412 40.8242C37.764 40.8213 37.7858 40.813 37.8048 40.7999Z" fill="#9DC530"/>
<path d="M37.8426 33.5327C37.7146 33.4646 37.6231 33.4975 37.5679 33.6313C37.5526 33.6683 37.545 33.7194 37.545 33.7846C37.5444 33.8497 37.5412 33.9017 37.5353 33.9404C37.1496 34.4159 36.9838 34.9856 37.0378 35.6496C36.5887 35.3349 36.1062 35.1949 35.5902 35.2295C35.5699 35.231 35.5501 35.2365 35.532 35.2457C35.5139 35.255 35.4979 35.2678 35.4849 35.2835C35.4719 35.2991 35.4622 35.3172 35.4564 35.3367C35.4506 35.3562 35.4488 35.3767 35.4511 35.3969C35.496 35.7966 36.0683 36.2166 36.4065 36.3505C36.5738 36.4174 36.7446 36.384 36.9242 36.3866L36.9656 36.686C36.8764 36.7106 36.783 36.7376 36.6856 36.767C36.3938 36.855 36.2612 37.0042 36.2876 37.2143C35.4927 37.455 34.6703 37.4594 33.8203 37.2275C33.7927 37.2199 33.771 37.204 33.7551 37.18C33.7076 37.1095 33.6858 37.0326 33.6899 36.9493C33.7686 35.2786 34.417 33.9155 35.6351 32.86C36.4199 32.1808 37.3419 31.7528 38.4009 31.5762C38.4124 31.5743 38.4242 31.5749 38.4355 31.5779C38.4467 31.5809 38.4572 31.5863 38.4662 31.5938C38.4752 31.6012 38.4825 31.6104 38.4877 31.6209C38.4928 31.6314 38.4956 31.6429 38.496 31.6545C38.5127 32.3484 38.201 32.9463 37.8426 33.5327Z" fill="#CDD84E"/>
<path d="M10.2594 34.342L10.3536 34.57C10.9624 36.175 12.027 37.3846 13.5474 38.1988C14.3745 38.642 15.2187 38.9493 16.0798 39.1207C18.2806 39.5592 20.4899 39.5064 22.7077 38.9622C22.986 38.8941 23.4119 38.7594 23.9854 38.558C24.4286 39.0441 24.9103 39.4756 25.4304 39.8524C25.448 39.8654 25.4592 39.8794 25.4639 39.8947C25.4691 39.9147 25.4688 39.934 25.463 39.9528C25.4172 39.9828 25.3688 40.0086 25.3177 40.0303C24.3144 40.463 23.2728 40.7659 22.1926 40.939C20.8753 41.1498 19.5498 41.2314 18.2161 41.1838C16.6199 41.1269 15.1121 40.8574 13.6927 40.3755C13.2536 40.2 12.8691 40.0294 12.5392 39.8639C9.52591 38.3511 8.06067 35.6628 8.00168 32.3184C8.07271 32.2427 8.14609 32.2501 8.22181 32.3405C8.26408 32.3915 8.31016 32.4408 8.36006 32.4884C8.87782 32.9844 9.40527 33.536 9.94241 34.1429C10.017 34.2269 10.1226 34.2932 10.2594 34.342Z" fill="#478C31"/>
<path d="M39.8917 34.2398C40.0531 33.8089 40.2932 33.4978 40.6119 33.3064C40.6322 33.2943 40.655 33.2871 40.6785 33.2854C40.702 33.2837 40.7256 33.2875 40.7473 33.2966C40.7691 33.3057 40.7884 33.3198 40.8038 33.3377C40.8191 33.3556 40.83 33.3769 40.8356 33.3998C40.9278 33.7725 40.9119 34.1582 40.7881 34.5568C40.5424 35.3493 39.5861 35.0561 39.8917 34.2398Z" fill="#FFE692"/>
<path d="M43.3822 33.435C43.479 33.5154 43.5433 33.5765 43.575 33.6181C44.5782 34.9448 44.9487 36.4004 44.6863 37.9848C44.2706 40.5005 42.1608 42.3937 39.6354 42.5795C38.7384 42.6458 37.8793 42.4994 37.0581 42.1401C37.159 42.1712 37.2494 42.1827 37.3293 42.1744C37.4379 42.1633 37.493 42.1577 37.4948 42.1577C39.3023 42.1466 40.8077 41.5146 42.0111 40.2619C42.3927 39.8645 42.7056 39.3473 42.9498 38.7104C42.9886 38.6499 43.0153 38.5806 43.0299 38.5026C43.1473 38.2284 43.2357 37.9405 43.295 37.6387C43.4752 36.7183 43.5407 35.789 43.4913 34.8509C43.4673 34.3971 43.437 34.1104 43.4007 33.9906C43.3302 33.7611 43.324 33.5759 43.3822 33.435Z" fill="#83B12B"/>
<path d="M37.8426 33.5327C38.2195 33.7819 38.8262 34.4344 38.7003 34.8817C38.6744 34.9733 38.6278 35.0455 38.5603 35.0984C38.1755 35.3995 37.8365 35.0305 37.7052 34.6722C37.6272 34.4591 37.5705 34.2152 37.5353 33.9404C37.5412 33.9017 37.5444 33.8497 37.545 33.7846C37.545 33.7194 37.5526 33.6683 37.5679 33.6313C37.6231 33.4975 37.7146 33.4646 37.8426 33.5327Z" fill="#FFE692"/>
<path d="M39.2436 36.0115C38.459 36.015 38.7769 34.5621 39.1476 34.2416C39.1642 34.2273 39.1837 34.2168 39.2047 34.2108C39.2258 34.2047 39.2478 34.2033 39.2695 34.2065C39.2911 34.2098 39.3118 34.2177 39.3301 34.2297C39.3485 34.2416 39.364 34.2574 39.3757 34.2759C39.6011 34.634 39.7091 35.0261 39.6997 35.4523C39.6935 35.7227 39.5482 36.0106 39.2436 36.0115Z" fill="#FFE692"/>
<path d="M10.3536 34.57C10.5309 34.6757 10.6436 34.7543 10.6918 34.806C11.2794 35.4347 11.9192 36.0103 12.6114 36.5328C13.7813 37.4157 15.0669 38.0227 16.4682 38.3537C17.9334 38.6998 19.4391 38.846 20.9017 38.6434C21.7383 38.5278 22.5663 38.2622 23.3858 37.8465L23.9854 38.558C23.4119 38.7594 22.986 38.8941 22.7077 38.9622C20.4899 39.5064 18.2806 39.5592 16.0798 39.1207C15.2187 38.9493 14.3745 38.642 13.5474 38.1988C12.027 37.3846 10.9624 36.175 10.3536 34.57Z" fill="#83B12B"/>
<path d="M21.6758 34.6088C21.8436 34.6446 21.9625 34.6995 22.0324 34.7734C22.5607 35.3352 23.1504 35.8856 23.8014 36.4245C24.7947 37.246 25.8566 37.902 27.0321 38.3238C28.3535 38.7987 29.7216 39.0485 31.1364 39.0732C31.5332 39.0802 31.9315 39.0899 32.3313 39.1022C32.4044 39.1048 32.4475 39.1409 32.5109 39.1647C32.5403 39.1759 32.5608 39.1671 32.5726 39.1383L32.5999 39.0758C32.6316 39.1885 32.6618 39.2551 32.6905 39.2757C32.6982 39.4054 32.7281 39.5331 32.7803 39.6587C33.1989 40.6643 33.7991 41.5102 34.5811 42.1965C34.6004 42.2135 34.6227 42.2502 34.648 42.3065C32.4636 42.4486 30.385 42.1706 28.4119 41.4726C27.4357 41.1275 26.485 40.6253 25.5598 39.966C25.5328 39.9467 25.5005 39.9423 25.463 39.9528C25.4688 39.934 25.4691 39.9147 25.4639 39.8947C25.4592 39.8794 25.448 39.8654 25.4304 39.8524C24.9103 39.4756 24.4286 39.0441 23.9854 38.558L23.3858 37.8465C22.9467 37.2724 22.573 36.6654 22.2648 36.0256L21.6758 34.6088Z" fill="#CD2536"/>
<path d="M45.9569 35.3396L45.8539 34.9531C46.2789 35.0693 46.6399 35.2296 46.937 35.4338C47.17 35.5947 47.1477 35.6469 46.87 35.5906C46.62 35.5401 46.3156 35.4564 45.9569 35.3396Z" fill="#ED6C28"/>
<path d="M38.4977 36.2545C37.9624 36.9475 37.0853 35.6029 37.1549 35.1098C37.1696 35.0077 37.2268 34.9686 37.3266 34.9927C37.7411 35.0919 38.0927 35.2871 38.3815 35.5783C38.5585 35.757 38.6721 36.0291 38.4977 36.2545Z" fill="#FFE692"/>
<path d="M39.9057 35.8222C40.0836 35.4532 40.5723 35.1996 41.01 35.0561C41.0593 35.0396 41.1089 35.0329 41.1588 35.0358C41.2815 35.0429 41.3319 35.1069 41.3102 35.2278C41.2357 35.6528 41.0261 36.0141 40.6815 36.3117C40.4534 36.509 40.1153 36.5486 39.9242 36.2677C39.8338 36.1345 39.8277 35.9859 39.9057 35.8222Z" fill="#FFE692"/>
<path d="M37.0378 35.6496C37.1335 35.9208 37.0956 36.1665 36.9242 36.3866C36.7446 36.384 36.5738 36.4174 36.4065 36.3505C36.0683 36.2166 35.496 35.7966 35.4511 35.3969C35.4488 35.3767 35.4506 35.3562 35.4564 35.3367C35.4622 35.3172 35.4719 35.2991 35.4849 35.2835C35.4979 35.2678 35.5139 35.255 35.532 35.2457C35.5501 35.2365 35.5699 35.231 35.5902 35.2295C36.1062 35.1949 36.5887 35.3349 37.0378 35.6496Z" fill="#FFE692"/>
<path d="M42.9498 35.7095C42.6833 36.1703 42.3202 36.4606 41.8606 36.5803C41.6959 36.6235 41.4907 36.5821 41.3771 36.4474C41.083 36.0951 41.4185 35.735 41.754 35.617C42.0226 35.5228 42.6143 35.3863 42.8882 35.514C42.9056 35.5221 42.9212 35.5338 42.9339 35.5483C42.9466 35.5628 42.9561 35.5798 42.9619 35.5982C42.9677 35.6165 42.9696 35.6359 42.9676 35.6551C42.9655 35.6742 42.9594 35.6928 42.9498 35.7095Z" fill="#FFE692"/>
<path d="M36.2876 37.2143C36.2612 37.0042 36.3938 36.855 36.6856 36.767C36.783 36.7376 36.8764 36.7106 36.9656 36.686C37.309 36.5865 37.958 36.5134 38.0848 36.9413C38.1852 37.2795 37.965 37.5049 37.6489 37.5384C37.262 37.5794 36.9483 37.5342 36.7076 37.4027C36.5074 37.2936 36.3674 37.2307 36.2876 37.2143Z" fill="#FFE692"/>
<path d="M40.3381 36.9158C40.5706 36.3998 41.7884 36.715 42.071 37.0576C42.0827 37.0717 42.0913 37.088 42.0964 37.1056C42.1015 37.1232 42.103 37.1416 42.1007 37.1598C42.0983 37.1779 42.0923 37.1954 42.083 37.2112C42.0737 37.2269 42.0612 37.2406 42.0464 37.2513C41.6343 37.5454 40.9501 37.7312 40.4807 37.4706C40.2967 37.3675 40.2624 37.084 40.3381 36.9158Z" fill="#FFE692"/>
<path d="M37.1347 37.9645C37.2254 38.6029 35.9063 38.9243 35.4783 38.6531C35.4583 38.6403 35.4438 38.6206 35.4376 38.5978C35.4314 38.575 35.434 38.5507 35.4449 38.5299C35.643 38.1495 36.2576 37.5507 36.7595 37.6088C36.9797 37.6346 37.1047 37.7532 37.1347 37.9645Z" fill="#FFE692"/>
<path d="M43.0299 38.5026C43.0153 38.5806 42.9886 38.6499 42.9498 38.7104C42.4115 38.8254 41.9504 38.7752 41.5665 38.5598C41.0373 38.263 41.3155 37.5428 41.9028 37.7004C42.3619 37.8237 42.7376 38.091 43.0299 38.5026Z" fill="#FFE692"/>
<path d="M37.2474 39.192C37.2254 39.1949 37.203 39.1914 37.183 39.1819C37.163 39.1724 37.1462 39.1572 37.1347 39.1383C36.9665 38.8592 37.4737 38.1495 37.6507 37.9689C37.7871 37.8307 38.0425 37.6731 38.2424 37.755C38.6052 37.9038 38.6263 38.2666 38.4 38.5404C38.0924 38.9138 37.7082 39.131 37.2474 39.192Z" fill="#FFE692"/>
<path d="M40.862 38.1151C41.0575 38.3898 41.2301 38.698 41.2785 39.037C41.2819 39.0616 41.2795 39.0867 41.2714 39.1102C41.2634 39.1337 41.2499 39.1549 41.2321 39.1722C41.2144 39.1894 41.1928 39.2022 41.1692 39.2095C41.1456 39.2168 41.1206 39.2183 41.0962 39.214C40.7493 39.1524 40.4323 38.9919 40.1453 38.7324C39.8608 38.4744 39.668 38.0138 40.1144 37.7752C40.3733 37.6361 40.722 37.9179 40.862 38.1151Z" fill="#FFE692"/>
<path d="M39.1696 40.0004C38.7152 39.8304 38.4361 38.153 39.2189 38.1996C39.4848 38.2155 39.6313 38.362 39.6583 38.639C39.6997 39.0547 39.5755 39.6429 39.2682 39.9766C39.2559 39.9899 39.2399 39.9993 39.2224 40.0035C39.2048 40.0077 39.1865 40.0066 39.1696 40.0004Z" fill="#FFE692"/>
<path d="M40.2536 39.0221C40.803 39.1145 40.9351 40.1448 40.8435 40.5807C40.8384 40.6045 40.8279 40.6269 40.8127 40.646C40.7975 40.6651 40.7782 40.6804 40.7561 40.6908C40.734 40.7012 40.7099 40.7064 40.6855 40.7059C40.6611 40.7054 40.6371 40.6993 40.6155 40.6881C40.2139 40.4803 39.7728 39.9757 39.7516 39.4756C39.7393 39.1947 39.9859 38.9772 40.2536 39.0221Z" fill="#FFE692"/>
<path d="M38.4238 39.1779C38.9565 39.5865 38.142 40.5666 37.8048 40.7999C37.7858 40.813 37.764 40.8213 37.7412 40.8242C37.7184 40.8271 37.6952 40.8246 37.6736 40.8167C37.652 40.8089 37.6326 40.796 37.6169 40.7792C37.6013 40.7623 37.5899 40.7419 37.5837 40.7198C37.4423 40.2073 37.5045 39.7347 37.7704 39.3021C37.9113 39.0732 38.2072 39.0124 38.4238 39.1779Z" fill="#FFE692"/>
</g>
<defs>
<filter id="filter0_dd_75_579" x="0" y="0" width="67.5708" height="56" filterUnits="userSpaceOnUse" color-interpolation-filters="sRGB">
<feFlood flood-opacity="0" result="BackgroundImageFix"/>
<feColorMatrix in="SourceAlpha" type="matrix" values="0 0 0 0 0 0 0 0 0 0 0 0 0 0 0 0 0 0 127 0" result="hardAlpha"/>
<feOffset dy="1"/>
<feGaussianBlur stdDeviation="1.5"/>
<feComposite in2="hardAlpha" operator="out"/>
<feColorMatrix type="matrix" values="0 0 0 0 0 0 0 0 0 0 0 0 0 0 0 0 0 0 0.3 0"/>
<feBlend mode="normal" in2="BackgroundImageFix" result="effect1_dropShadow_75_579"/>
<feColorMatrix in="SourceAlpha" type="matrix" values="0 0 0 0 0 0 0 0 0 0 0 0 0 0 0 0 0 0 127 0" result="hardAlpha"/>
<feOffset dy="4"/>
<feGaussianBlur stdDeviation="4"/>
<feComposite in2="hardAlpha" operator="out"/>
<feColorMatrix type="matrix" values="0 0 0 0 0 0 0 0 0 0 0 0 0 0 0 0 0 0 0.15 0"/>
<feBlend mode="normal" in2="effect1_dropShadow_75_579" result="effect2_dropShadow_75_579"/>
<feBlend mode="normal" in="SourceGraphic" in2="effect2_dropShadow_75_579" result="shape"/>
</filter>
</defs>
</svg>
