<svg width="60" height="62" viewBox="0 0 60 62" fill="none" xmlns="http://www.w3.org/2000/svg">
<g filter="url(#filter0_dd_101_468)">
<path d="M31.169 8.76136C30.2621 8.68922 29.3664 8.55038 28.4821 8.34486C27.7483 8.22872 27.2736 8.15834 27.0578 8.13371C26.5877 8.08021 26.1477 8.06737 25.7381 8.09517C25.3438 8.12156 24.9357 8.15799 24.5546 8.24562C24.36 8.29066 24.1608 8.34468 23.957 8.40768C23.8082 8.4536 23.7279 8.35067 23.7327 8.21922C23.7425 7.95669 23.7436 7.70665 23.7359 7.4691C23.7352 7.4523 23.7391 7.43561 23.747 7.42077C23.755 7.40592 23.7668 7.39345 23.7812 7.38464C23.833 7.35262 23.8923 7.32728 23.9591 7.30862C24.878 7.05067 25.7812 6.95441 26.6688 7.01987C27.2635 7.06386 27.8996 7.15431 28.5771 7.2912C29.4175 7.46118 30.1644 7.58101 30.8179 7.65069C31.3337 7.70612 31.8996 7.69926 32.428 7.62747C32.7665 7.58172 33.1204 7.51943 33.4896 7.4406C33.505 7.43729 33.5211 7.43749 33.5365 7.44118C33.5519 7.44487 33.5662 7.45196 33.5785 7.46194C33.5908 7.47191 33.6008 7.48451 33.6076 7.49881C33.6144 7.51311 33.6179 7.52875 33.6178 7.54459L33.6189 8.37178C33.6189 8.39722 33.6109 8.42201 33.5962 8.44273C33.5814 8.46345 33.5606 8.47906 33.5365 8.48739C33.3338 8.55777 33.1406 8.60792 32.9569 8.63783C32.3618 8.73497 31.7658 8.77614 31.169 8.76136ZM26.4903 7.34558C26.1356 7.33326 25.7508 7.34118 25.3359 7.36933C25.0688 7.38728 24.8138 7.45379 24.5504 7.4918C24.3955 7.51397 24.2556 7.55339 24.1307 7.61005C24.0674 7.6389 24.0424 7.68747 24.0557 7.75574C24.0582 7.76911 24.0624 7.78214 24.0684 7.7948C24.1092 7.88103 24.1759 7.91305 24.2685 7.89088C24.6102 7.80994 24.9241 7.75081 25.2102 7.71351C25.5847 7.66424 25.9917 7.64717 26.4312 7.66231C26.8046 7.67533 27.1731 7.70946 27.5366 7.76472C27.8569 7.81328 28.2002 7.87381 28.5665 7.94631C28.7207 7.97693 28.878 7.99118 29.0332 8.01863C29.1324 8.03658 29.1785 7.99522 29.1715 7.89457C29.1708 7.88402 29.1702 7.87328 29.1699 7.86237C29.1664 7.77475 29.1213 7.72424 29.0347 7.71087C28.8162 7.67674 28.6021 7.63609 28.3923 7.58893C28.0397 7.50904 27.63 7.4406 27.1634 7.38358C26.9385 7.35613 26.7152 7.35297 26.4903 7.34558Z" fill="#E5EBF9"/>
<path d="M26.4903 7.34558C26.7152 7.35297 26.9385 7.35613 27.1634 7.38358C27.63 7.4406 28.0397 7.50904 28.3923 7.58893C28.6021 7.63609 28.8162 7.67674 29.0347 7.71087C29.1213 7.72424 29.1664 7.77475 29.1699 7.86237C29.1702 7.87328 29.1708 7.88402 29.1715 7.89457C29.1785 7.99522 29.1324 8.03658 29.0332 8.01863C28.878 7.99118 28.7207 7.97693 28.5665 7.94631C28.2002 7.87381 27.8569 7.81328 27.5366 7.76472C27.1731 7.70946 26.8046 7.67533 26.4312 7.66231C25.9917 7.64717 25.5847 7.66424 25.2102 7.71351C24.9241 7.75081 24.6102 7.80994 24.2685 7.89088C24.1759 7.91305 24.1092 7.88103 24.0684 7.7948C24.0624 7.78214 24.0582 7.76911 24.0557 7.75574C24.0424 7.68747 24.0674 7.6389 24.1307 7.61005C24.2556 7.55339 24.3955 7.51397 24.5504 7.4918C24.8138 7.45379 25.0688 7.38728 25.3359 7.36933C25.7508 7.34118 26.1356 7.33326 26.4903 7.34558Z" fill="white"/>
<path d="M28.4821 8.34486C29.3664 8.55038 30.2621 8.68922 31.169 8.76136L31.1732 10.5208C31.0863 10.5394 31.0057 10.5481 30.9314 10.5467C30.1463 10.5336 29.361 10.5356 28.5755 10.5525C28.5459 10.5532 28.5151 10.5405 28.4831 10.5145L28.4821 8.34486Z" fill="#CCD8E9"/>
<path d="M28.4831 10.5145C28.5151 10.5405 28.5459 10.5532 28.5755 10.5525C29.361 10.5356 30.1463 10.5336 30.9314 10.5467C31.0057 10.5481 31.0863 10.5394 31.1732 10.5208C31.6117 10.6095 31.9013 10.8236 32.0421 11.1632C32.1199 11.3505 32.1558 11.6517 32.1498 12.067C32.1434 12.5269 32.1366 12.9596 32.1292 13.365C32.1281 13.4073 32.1211 13.4599 32.1081 13.5229C32.1039 13.544 32.1178 13.5558 32.1498 13.5582L27.5456 13.5651C27.5174 13.4257 27.5046 13.2881 27.507 13.1523C27.5176 12.6026 27.5181 12.0527 27.5086 11.5027C27.5076 11.4284 27.5253 11.345 27.5619 11.2524C27.7266 10.8368 28.0337 10.5908 28.4831 10.5145ZM29.001 12.1076C28.9899 11.9677 28.9946 11.8289 28.9904 11.6874C28.9781 11.2658 28.7595 11.0802 28.3348 11.1305C28.1136 11.1564 27.932 11.4641 27.9436 11.67C27.951 11.7977 27.9494 11.9308 27.9389 12.0691C27.9315 12.1715 27.9427 12.2651 27.9726 12.3499C28.0437 12.5519 28.1769 12.6673 28.3722 12.6962C28.551 12.7226 28.6943 12.6871 28.8019 12.5896C28.949 12.4565 29.0154 12.2959 29.001 12.1076Z" fill="#E5EBF9"/>
<path d="M29.001 12.1076C29.0154 12.2959 28.949 12.4565 28.8019 12.5896C28.6943 12.6871 28.551 12.7226 28.3722 12.6962C28.1769 12.6673 28.0437 12.5519 27.9726 12.3499C27.9427 12.2651 27.9315 12.1715 27.9389 12.0691C27.9494 11.9308 27.951 11.7977 27.9436 11.67C27.932 11.4641 28.1136 11.1564 28.3348 11.1305C28.7595 11.0802 28.9781 11.2658 28.9904 11.6874C28.9946 11.8289 28.9899 11.9677 29.001 12.1076Z" fill="white"/>
<path d="M27.5456 13.5651L32.1498 13.5582C32.3884 13.5598 32.6998 13.4812 32.7088 13.837C32.7166 14.147 32.7083 14.459 32.684 14.7729L32.0194 14.7523C30.5621 14.7474 29.0842 14.7458 27.5857 14.7476C27.3855 14.7479 27.1731 14.7567 26.9485 14.7739C26.9387 14.4688 26.935 14.1648 26.9375 13.8618C26.9385 13.6897 26.9976 13.5751 27.1771 13.5635C27.275 13.5575 27.3978 13.5581 27.5456 13.5651Z" fill="#CCD8E9"/>
<path d="M32.0194 14.7523C32.2344 14.8713 32.4373 14.9811 32.628 15.0817C33.2999 15.4354 33.8165 15.9283 34.1779 16.5603C34.5186 17.1561 34.688 17.7929 34.6863 18.4707C34.681 20.4819 34.6819 22.4286 34.6889 24.3107C34.6903 24.644 34.6898 24.9954 34.6873 25.3649C34.6697 27.9723 34.6685 31.0729 34.6836 34.6667C34.6836 34.7244 34.678 34.7906 34.6667 34.8652C34.6643 34.8828 34.6697 34.8976 34.6831 34.9095C34.7056 34.9292 34.7318 34.937 34.7617 34.9328C33.8163 36.0286 33.4758 37.4439 33.5914 38.8639C33.608 39.067 33.652 39.4162 33.7234 39.9118C33.9229 41.2906 34.2706 42.6328 34.7665 43.9384C34.7464 43.9307 34.7294 43.9339 34.7153 43.948C34.7058 43.9571 34.7009 43.9715 34.7005 43.9912C34.6899 44.4185 34.6861 44.8417 34.6889 45.2608C34.6907 45.5184 34.6778 45.7028 34.6504 45.814C34.5427 46.2511 34.2893 46.5351 33.9087 46.7658C33.7897 46.8376 33.6556 46.8796 33.5064 46.892C33.2263 46.9152 32.933 46.9171 32.6264 46.8978C32.4537 46.8869 32.1857 46.8904 31.8225 46.9083C31.5272 46.9224 31.2531 46.9296 31 46.93C29.8074 46.9303 28.6196 46.9301 27.4368 46.9294C27.2748 46.9294 27.1159 46.9474 26.9543 46.9447C26.9462 46.9444 26.9422 46.9483 26.9422 46.9564V46.9569C26.9422 46.9639 26.9457 46.9674 26.9528 46.9674C27.0619 46.9671 27.171 46.9697 27.28 46.9754C26.2531 46.9898 25.4928 46.9944 24.9991 46.9891C24.4022 46.9828 23.9725 46.697 23.71 46.1318C23.6501 45.9615 23.6202 45.7767 23.6202 45.5775C23.6188 43.9126 23.6174 42.2499 23.616 40.5896C23.6118 40.5547 23.6113 40.519 23.6144 40.4824C23.6183 40.4345 23.6199 40.3993 23.6192 40.3768C23.6091 40.0427 23.6213 39.6663 23.6192 39.3754C23.6125 38.2503 23.6097 35.9847 23.6107 32.5784C23.6125 27.8735 23.6134 23.2106 23.6134 18.5895C23.6134 18.3555 23.641 18.0966 23.6962 17.813C23.8258 17.1587 24.1309 16.555 24.6116 16.0018C25.2405 15.3289 26.0195 14.9196 26.9485 14.7739C27.1731 14.7567 27.3855 14.7479 27.5857 14.7476C29.0842 14.7458 30.5621 14.7474 32.0194 14.7523ZM25.973 16.1222C25.1669 16.6595 24.6222 17.4487 24.3545 18.3899C24.2611 18.7199 24.2949 19.0445 24.5921 19.2536C24.9473 19.5038 25.5064 19.4357 25.6257 18.9463C25.6908 18.6778 25.7751 18.4406 25.8785 18.2347C26.1884 17.6182 26.7564 17.1199 27.4426 16.9546C27.6021 16.9161 27.7826 16.895 27.9077 16.7989C28.045 16.694 28.115 16.5482 28.1178 16.3613C28.1252 15.8973 27.7599 15.5257 27.288 15.6011C26.8213 15.6754 26.383 15.8491 25.973 16.1222ZM29.6017 38.0758C30.4927 38.2025 31.2935 37.7564 31.6932 36.9567C31.7713 36.8009 31.8911 36.7091 32.0738 36.6985C32.2335 36.6894 32.3864 36.6691 32.5325 36.6378C33.1195 36.5122 33.6442 35.9896 33.8226 35.3904C33.8758 35.2117 33.9015 34.9523 33.8997 34.6123C33.8839 31.7516 33.8835 28.8684 33.8987 25.963C33.9004 25.6117 33.887 25.3599 33.8585 25.2076C33.7976 24.8817 33.6442 24.5903 33.3982 24.3334C33.0583 23.9779 32.627 23.7935 32.1044 23.7802C31.945 23.7759 31.785 23.6973 31.7195 23.5458C31.5216 23.0881 31.1215 22.7191 30.6743 22.5333C30.1443 22.3132 29.5748 22.3211 29.0516 22.5571C28.6181 22.7524 28.2894 23.0853 28.0655 23.5558C28.0127 23.6661 27.9156 23.7443 27.7916 23.7617C27.6047 23.787 27.4205 23.7849 27.2362 23.8382C26.5398 24.0406 26.1018 24.4984 25.9223 25.2118C25.9033 25.2883 25.9039 25.3612 25.9039 25.4388C25.8919 28.5167 25.8884 31.5969 25.8933 34.6794C25.894 34.9884 25.9176 35.2213 25.964 35.3783C26.1291 35.9322 26.4736 36.3244 26.9976 36.5549C27.2352 36.66 27.5039 36.6859 27.7599 36.7006C27.9352 36.7107 28.046 36.8638 28.1152 37.0073C28.4018 37.5986 28.9703 37.9866 29.6017 38.0758Z" fill="#836EAF"/>
<path d="M32.0194 14.7523L32.684 14.7729C33.5849 14.8947 34.3472 15.2798 34.9708 15.9284C35.5493 16.5299 35.8926 17.2416 36.0007 18.0637C36.0253 18.2502 36.0378 18.6013 36.0382 19.1168C36.041 24.0585 36.0401 29.0043 36.0355 33.9541C35.9518 34.0033 35.868 34.0523 35.7843 34.1008C35.401 34.3236 35.0602 34.6009 34.7617 34.9328C34.7318 34.937 34.7056 34.9292 34.6831 34.9095C34.6697 34.8976 34.6643 34.8828 34.6667 34.8652C34.678 34.7906 34.6836 34.7244 34.6836 34.6667C34.6685 31.0729 34.6697 27.9723 34.6873 25.3649C34.6898 24.9954 34.6903 24.644 34.6889 24.3107C34.6819 22.4286 34.681 20.4819 34.6863 18.4707C34.688 17.7929 34.5186 17.1561 34.1779 16.5603C33.8165 15.9283 33.2999 15.4354 32.628 15.0817C32.4373 14.9811 32.2344 14.8713 32.0194 14.7523Z" fill="#735EA0"/>
<path d="M24.3545 18.3899C24.6222 17.4487 25.1669 16.6595 25.973 16.1222C26.383 15.8491 26.8213 15.6754 27.288 15.6011C27.7599 15.5257 28.1252 15.8973 28.1178 16.3613C28.115 16.5482 28.045 16.694 27.9077 16.7989C27.7826 16.895 27.6021 16.9161 27.4426 16.9546C26.7564 17.1199 26.1884 17.6182 25.8785 18.2347C25.7751 18.4406 25.6908 18.6778 25.6257 18.9463C25.5064 19.4357 24.9473 19.5038 24.5921 19.2536C24.2949 19.0445 24.2611 18.7199 24.3545 18.3899Z" fill="#A193C4"/>
<path d="M24.6116 16.0018C24.1309 16.555 23.8258 17.1587 23.6962 17.813C19.6277 17.8105 15.5662 17.8102 11.5117 17.8119C11.4835 17.8119 11.446 17.7978 11.3992 17.7697C11.3922 17.7655 11.386 17.7663 11.3807 17.7723C11.3776 17.7758 11.3756 17.7806 11.3749 17.7866C11.3243 17.5247 11.2936 17.2601 11.2831 16.9926C11.2688 16.6442 11.139 16.2399 11.5153 16.0361C11.6044 15.9879 11.777 15.9636 12.0332 15.9633C15.9255 15.9587 19.7894 15.9582 23.625 15.9617C23.6275 15.9617 23.7601 15.9561 24.023 15.9448C24.2268 15.9363 24.423 15.9553 24.6116 16.0018ZM12.3637 17.5321C12.5252 17.5216 12.7052 17.4767 12.7047 17.2751C12.7043 17.0192 12.6927 16.781 12.6698 16.5603C12.6524 16.3866 12.503 16.2325 12.3151 16.2626C12.2206 16.2779 12.0633 16.2805 12.0263 16.3856C12.0147 16.418 12.0049 16.4764 11.9968 16.5608C11.9809 16.7239 11.9999 16.8955 12.001 17.0607C12.0021 17.2085 12.0179 17.3134 12.0485 17.3754C12.1052 17.4901 12.2102 17.5423 12.3637 17.5321Z" fill="#E5EBF9"/>
<path d="M12.3637 17.5321C12.2102 17.5423 12.1052 17.4901 12.0485 17.3754C12.0179 17.3134 12.0021 17.2085 12.001 17.0607C11.9999 16.8955 11.9809 16.7239 11.9968 16.5608C12.0049 16.4764 12.0147 16.418 12.0263 16.3856C12.0633 16.2805 12.2206 16.2779 12.3151 16.2626C12.503 16.2325 12.6524 16.3866 12.6698 16.5603C12.6927 16.781 12.7043 17.0192 12.7047 17.2751C12.7052 17.4767 12.5252 17.5216 12.3637 17.5321Z" fill="white"/>
<path d="M23.6962 17.813C23.641 18.0966 23.6134 18.3555 23.6134 18.5895C23.6134 23.2106 23.6125 27.8735 23.6107 32.5784C23.6097 35.9847 23.6125 38.2503 23.6192 39.3754C23.6213 39.6663 23.6091 40.0427 23.6192 40.3768C23.6199 40.3993 23.6183 40.4345 23.6144 40.4824C23.6113 40.519 23.6118 40.5547 23.616 40.5896L22.3892 40.5991C22.0278 40.5945 21.6704 40.5924 21.3171 40.5927C18.8417 40.5955 16.3664 40.5962 13.8913 40.5948C13.7573 40.5948 13.6438 40.5674 13.5118 40.5352C13.1884 40.4117 12.9631 40.2012 12.8361 39.9038C12.7721 39.7539 12.7268 39.4671 12.7004 39.0434C12.2591 31.9578 11.8173 24.8722 11.3749 17.7866C11.3756 17.7806 11.3776 17.7758 11.3807 17.7723C11.386 17.7663 11.3922 17.7655 11.3992 17.7697C11.446 17.7978 11.4835 17.8119 11.5117 17.8119C15.5662 17.8102 19.6277 17.8105 23.6962 17.813ZM14.5686 20.842C14.3173 20.8425 14.1891 20.9613 14.2049 21.2184C14.4819 25.6702 14.769 30.2756 15.0664 35.0346C15.0912 35.4353 15.3779 35.7309 15.7727 35.7315C17.7783 35.7336 19.6792 35.7339 21.4754 35.7325C21.7939 35.7325 22.0148 35.6148 22.1379 35.3794C22.1985 35.2636 22.2372 35.0663 22.2541 34.7876C22.5331 30.2196 22.8143 25.7017 23.0976 21.2337C23.1119 21.0162 23.0274 20.8441 22.7703 20.8436C20.1341 20.839 17.4002 20.8385 14.5686 20.842Z" fill="#FE3E64"/>
<path d="M14.2049 21.2184C14.1891 20.9613 14.3173 20.8425 14.5686 20.842C17.4002 20.8385 20.1341 20.839 22.7703 20.8436C23.0274 20.8441 23.1119 21.0162 23.0976 21.2337C22.8143 25.7017 22.5331 30.2196 22.2541 34.7876C22.2372 35.0663 22.1985 35.2636 22.1379 35.3794C22.0148 35.6148 21.7939 35.7325 21.4754 35.7325C19.6792 35.7339 17.7783 35.7336 15.7727 35.7315C15.3779 35.7309 15.0912 35.4353 15.0664 35.0346C14.769 30.2756 14.4819 25.6702 14.2049 21.2184ZM16.0256 33.9931C16.0376 34.1868 16.123 34.3685 16.2643 34.5015C16.4056 34.6345 16.5922 34.7086 16.7863 34.7089L20.5126 34.7132C20.707 34.7134 20.8941 34.6395 21.0359 34.5065C21.1776 34.3734 21.2633 34.1914 21.2754 33.9973L21.9833 22.6774C21.9898 22.5733 21.975 22.4689 21.9396 22.3708C21.9043 22.2726 21.8492 22.1828 21.7778 22.1067C21.7063 22.0307 21.6201 21.9701 21.5243 21.9287C21.4286 21.8873 21.3253 21.866 21.221 21.8661L16.0831 21.8676C15.979 21.8677 15.8759 21.8891 15.7804 21.9305C15.6848 21.9719 15.5987 22.0324 15.5274 22.1083C15.4561 22.1842 15.4011 22.2739 15.3658 22.3719C15.3304 22.4698 15.3155 22.574 15.3219 22.6779L16.0256 33.9931Z" fill="#F4A9B0"/>
<path d="M16.0256 33.9931L15.3219 22.6779C15.3155 22.574 15.3304 22.4698 15.3658 22.3719C15.4011 22.2739 15.4561 22.1842 15.5274 22.1083C15.5987 22.0324 15.6848 21.9719 15.7804 21.9305C15.8759 21.8891 15.979 21.8677 16.0831 21.8676L21.221 21.8661C21.3253 21.866 21.4286 21.8873 21.5243 21.9287C21.6201 21.9701 21.7063 22.0307 21.7778 22.1067C21.8492 22.1828 21.9043 22.2726 21.9396 22.3708C21.975 22.4689 21.9898 22.5733 21.9833 22.6774L21.2754 33.9973C21.2633 34.1914 21.1776 34.3734 21.0359 34.5065C20.8941 34.6395 20.707 34.7134 20.5126 34.7132L16.7863 34.7089C16.5922 34.7086 16.4056 34.6345 16.2643 34.5015C16.123 34.3685 16.0376 34.1868 16.0256 33.9931ZM16.2584 33.9689C16.2672 34.11 16.3295 34.2424 16.4326 34.3392C16.5357 34.436 16.6718 34.4899 16.8132 34.4899L20.4962 34.4915C20.6378 34.4914 20.774 34.4374 20.8771 34.3404C20.9802 34.2434 21.0424 34.1107 21.051 33.9694L21.7473 22.6806C21.752 22.6048 21.7411 22.5289 21.7154 22.4576C21.6896 22.3862 21.6495 22.3208 21.5975 22.2655C21.5455 22.2103 21.4828 22.1662 21.4131 22.1361C21.3435 22.106 21.2684 22.0904 21.1925 22.0904L16.1048 22.0909C16.0288 22.0909 15.9537 22.1065 15.884 22.1366C15.8143 22.1668 15.7515 22.2109 15.6996 22.2663C15.6476 22.3216 15.6075 22.387 15.5817 22.4585C15.556 22.5299 15.5452 22.6059 15.55 22.6816L16.2584 33.9689Z" fill="#FEDADD"/>
<path d="M16.2584 33.9689L15.55 22.6816C15.5452 22.6059 15.556 22.5299 15.5817 22.4585C15.6075 22.387 15.6476 22.3216 15.6996 22.2663C15.7515 22.2109 15.8143 22.1668 15.884 22.1366C15.9537 22.1065 16.0288 22.0909 16.1048 22.0909L21.1925 22.0904C21.2684 22.0904 21.3435 22.106 21.4131 22.1361C21.4828 22.1662 21.5455 22.2103 21.5975 22.2655C21.6495 22.3208 21.6896 22.3862 21.7154 22.4576C21.7411 22.5289 21.752 22.6048 21.7473 22.6806L21.051 33.9694C21.0424 34.1107 20.9802 34.2434 20.8771 34.3404C20.774 34.4374 20.6378 34.4914 20.4962 34.4915L16.8132 34.4899C16.6718 34.4899 16.5357 34.436 16.4326 34.3392C16.3295 34.2424 16.2672 34.11 16.2584 33.9689ZM19.4441 26.5595C19.5571 26.071 19.6048 25.5708 19.5872 25.0587C19.583 24.9306 19.5638 24.7951 19.5297 24.6522C19.5096 24.5685 19.4797 24.5648 19.4399 24.6411C19.1031 25.2926 18.9713 25.9702 19.0445 26.674C19.0593 26.8176 19.0957 26.9522 19.1538 27.0779C19.1653 27.1032 19.1699 27.1311 19.167 27.1587C19.1641 27.1864 19.1539 27.2128 19.1374 27.2352C19.0935 27.2943 19.0706 27.3587 19.0688 27.4284C19.0674 27.478 19.079 27.4813 19.1037 27.4384C19.1438 27.3677 19.1765 27.2917 19.2019 27.2104C19.2091 27.1868 19.2216 27.165 19.2384 27.1467C19.2551 27.1283 19.2758 27.1138 19.299 27.1043C19.7672 26.9121 20.1726 26.3869 20.3679 25.9487C20.3702 25.9436 20.3709 25.938 20.37 25.9325C20.3691 25.927 20.3667 25.9219 20.3629 25.9178C20.3591 25.9137 20.3543 25.9108 20.3489 25.9095C20.3435 25.9081 20.3378 25.9084 20.3326 25.9102C20.2054 25.955 20.0876 26.0443 19.9768 26.125C19.7871 26.2633 19.6231 26.4148 19.4848 26.5795C19.4433 26.6292 19.4297 26.6225 19.4441 26.5595ZM18.4327 28.9302C18.4011 28.8336 18.3762 28.737 18.3351 28.6425C18.1475 28.2093 17.9149 27.7991 17.6372 27.412C17.5397 27.2758 17.4322 27.1498 17.3147 27.034C17.2489 26.9689 17.2216 26.9825 17.2328 27.0747C17.2867 27.5079 17.4014 27.9098 17.577 28.2804C17.6675 28.4715 17.807 28.6814 17.9956 28.9101C18.0885 29.0231 18.1952 29.0907 18.325 29.1509C18.3349 29.1553 18.3438 29.1617 18.3511 29.1697C18.3584 29.1777 18.364 29.1871 18.3675 29.1973C18.3711 29.2075 18.3725 29.2184 18.3718 29.2292C18.371 29.24 18.368 29.2505 18.363 29.2601C18.3275 29.3288 18.3004 29.4009 18.2818 29.4766C18.2578 29.5719 18.2288 29.5735 18.1946 29.4813C18.1485 29.3578 18.0878 29.2387 18.0125 29.1239C17.7391 28.7074 17.4408 28.3205 17.0887 27.9658C16.993 27.8693 16.8885 27.7829 16.7752 27.7066C16.7245 27.6724 16.7065 27.6849 16.7213 27.744C16.8142 28.1204 16.9177 28.5311 17.1389 28.8331C17.3353 29.1016 17.567 29.336 17.8341 29.5362C17.9316 29.6094 18.0439 29.6677 18.1709 29.7109C18.199 29.7208 18.2094 29.7402 18.202 29.769L18.1345 30.0335C18.1332 30.0388 18.1303 30.0436 18.1261 30.0473C18.122 30.0509 18.1169 30.0532 18.1114 30.0538C18.106 30.0545 18.1004 30.0534 18.0956 30.0508C18.0907 30.0482 18.0868 30.0442 18.0843 30.0393C17.955 29.7885 17.7317 29.5985 17.5369 29.399C17.2286 29.0822 16.857 28.8267 16.4616 28.6209C16.4211 28.5997 16.4085 28.6108 16.4236 28.6541C16.5014 28.8804 16.5969 29.1009 16.7102 29.3156C16.9467 29.7632 17.6319 30.0963 18.0722 30.1839C18.0912 30.1878 18.0982 30.1991 18.0933 30.2177L18.0643 30.328C18.0633 30.3317 18.0615 30.335 18.059 30.3379C18.0566 30.3407 18.0535 30.3429 18.05 30.3444C18.0466 30.3459 18.0428 30.3466 18.0391 30.3464C18.0353 30.3462 18.0317 30.3452 18.0284 30.3433C17.5987 30.1137 16.9304 30.1201 16.4637 30.1961C16.4562 30.1974 16.4493 30.2013 16.4442 30.2072C16.4329 30.2198 16.4299 30.233 16.4352 30.2467C16.4391 30.2566 16.4456 30.2638 16.4547 30.2684C16.9735 30.5221 17.4924 30.5943 18.0115 30.4848C18.0347 30.4799 18.044 30.489 18.0395 30.5123C17.9575 30.9582 17.9256 31.4012 17.9439 31.8415C17.9453 31.8784 17.9647 31.8966 18.002 31.8959C18.0379 31.8951 18.069 31.874 18.0954 31.8325C18.106 31.816 18.1114 31.7967 18.1107 31.7771C18.0977 31.3745 18.1137 30.9858 18.1588 30.611C18.1626 30.5793 18.1776 30.5728 18.2036 30.5914C18.6043 30.8791 19.261 30.9441 19.7229 30.8834C19.727 30.8828 19.7309 30.8813 19.7342 30.8789C19.7375 30.8764 19.7402 30.8732 19.742 30.8695C19.7438 30.8658 19.7446 30.8617 19.7444 30.8575C19.7442 30.8534 19.743 30.8494 19.7408 30.8459C19.7334 30.8332 19.7232 30.8232 19.7102 30.8158C19.2721 30.5673 18.8193 30.4338 18.352 30.4151C18.3101 30.4134 18.2724 30.4218 18.239 30.4405C18.1887 30.4686 18.1725 30.4553 18.1904 30.4004L18.2406 30.2473C18.2466 30.229 18.2575 30.2253 18.2733 30.2362C18.4839 30.3808 18.7611 30.3814 19.0097 30.3982C19.4067 30.4252 19.678 30.2325 19.9863 30.0287C20.0401 29.9932 20.0352 29.9714 19.9715 29.9633C19.4271 29.8915 18.8751 29.9349 18.3155 30.0937C18.3089 30.0956 18.3019 30.0957 18.2952 30.094C18.2885 30.0923 18.2824 30.0888 18.2775 30.0839C18.2726 30.079 18.269 30.0729 18.2671 30.0662C18.2653 30.0595 18.2652 30.0524 18.267 30.0456L18.3293 29.8038C18.3342 29.7845 18.3463 29.778 18.3657 29.7843C18.7732 29.9221 19.2092 29.8207 19.6157 29.7289C20.0067 29.6402 20.378 29.4699 20.7295 29.2179C20.7322 29.2159 20.7343 29.2134 20.7359 29.2106C20.7376 29.2077 20.7386 29.2046 20.7389 29.2014C20.7393 29.1982 20.7389 29.1949 20.738 29.1919C20.737 29.1888 20.7354 29.186 20.7332 29.1836C20.7216 29.1702 20.7072 29.163 20.69 29.1619C19.9411 29.1106 19.2529 29.214 18.6254 29.4723C18.5645 29.4977 18.5059 29.5318 18.4496 29.5747C18.3771 29.6296 18.3557 29.6142 18.3852 29.5283L18.4644 29.295C18.4687 29.2826 18.4772 29.2722 18.4885 29.2655C18.4997 29.2588 18.5128 29.2564 18.5256 29.2585C18.8292 29.3097 19.1966 29.1762 19.5038 29.0564C19.785 28.9462 20.0551 28.8294 20.3141 28.7059C20.4704 28.6309 20.6055 28.5332 20.7443 28.4329C20.7982 28.3939 20.7918 28.3736 20.7253 28.3722C20.2837 28.3634 19.8927 28.4041 19.5524 28.4942C19.3585 28.5456 19.1199 28.646 18.8366 28.7956C18.7373 28.8479 18.6713 28.9255 18.5842 28.9893C18.5466 29.0168 18.5351 29.0085 18.5499 28.9645L18.6655 28.6172C18.6695 28.6053 18.6774 28.5953 18.6881 28.5887C18.6987 28.5821 18.7112 28.5795 18.7236 28.5813C18.8995 28.6063 19.0771 28.5887 19.2562 28.5285C19.6314 28.4028 20.0132 28.2424 20.4017 28.0471C20.6034 27.9453 20.7969 27.8234 20.9824 27.6812C20.993 27.6731 20.9951 27.6636 20.9887 27.6527C20.9868 27.6492 20.9841 27.6463 20.9807 27.6442C20.9774 27.6422 20.9736 27.6411 20.9697 27.6411C20.3032 27.6221 19.6917 27.7653 19.1353 28.0708C19.0104 28.1394 18.9098 28.226 18.8334 28.3305C18.8299 28.3355 18.8255 28.3388 18.8202 28.3406C18.8146 28.3423 18.8089 28.3432 18.8033 28.3432C18.7854 28.3425 18.7794 28.3337 18.7854 28.3168L18.9147 27.9325C18.9201 27.9164 18.9298 27.9021 18.9429 27.8912C18.956 27.8804 18.9718 27.8735 18.9886 27.8713C19.1137 27.8538 19.2356 27.8401 19.3518 27.7847C19.9546 27.4975 20.5358 27.0346 20.8631 26.4513C20.8659 26.4462 20.8667 26.4404 20.8654 26.4348C20.864 26.4293 20.8605 26.4246 20.8557 26.4217C20.8459 26.4154 20.8353 26.414 20.824 26.4175C20.236 26.6012 19.7002 26.9147 19.2715 27.346C19.1878 27.4308 19.0947 27.5123 18.9923 27.5904C18.9715 27.6059 18.962 27.6008 18.9638 27.5751C18.9708 27.4607 18.9669 27.351 18.9522 27.2457C18.8638 26.6102 18.6733 26.0557 18.3805 25.5824C18.3238 25.4905 18.2895 25.4983 18.2775 25.6056C18.2121 26.1996 18.2985 26.7958 18.5367 27.3941C18.6038 27.5619 18.7046 27.6944 18.8239 27.8243C18.841 27.8428 18.8512 27.8666 18.8529 27.8918C18.8547 27.9169 18.8478 27.9419 18.8334 27.9626C18.7898 28.0252 18.7642 28.0984 18.7568 28.1822C18.7533 28.2209 18.7405 28.2568 18.7183 28.2899C18.6968 28.3219 18.6836 28.3189 18.6787 28.2809C18.6558 28.1042 18.6141 27.9295 18.5536 27.7567C18.4301 27.4051 18.2867 27.0641 18.1234 26.7337C18.0516 26.5883 17.9629 26.4451 17.8573 26.304C17.8204 26.254 17.8003 26.26 17.7972 26.3219C17.7627 27.0001 17.8973 27.6063 18.201 28.1405C18.2935 28.3041 18.4151 28.4326 18.5658 28.5258C18.5761 28.5323 18.5838 28.5423 18.5874 28.554C18.591 28.5656 18.5903 28.5781 18.5853 28.5892C18.5388 28.6948 18.4996 28.8081 18.4676 28.9291C18.4574 28.9686 18.4457 28.9689 18.4327 28.9302Z" fill="#F4A9B0"/>
<path d="M29.6017 38.0758C28.9703 37.9866 28.4018 37.5986 28.1152 37.0073C28.046 36.8638 27.9352 36.7107 27.7599 36.7006C27.5039 36.6859 27.2352 36.66 26.9976 36.5549C26.4736 36.3244 26.1291 35.9322 25.964 35.3783C25.9176 35.2213 25.894 34.9884 25.8933 34.6794C25.8884 31.5969 25.8919 28.5167 25.9039 25.4388C25.9039 25.3612 25.9033 25.2883 25.9223 25.2118C26.1018 24.4984 26.5398 24.0406 27.2362 23.8382C27.4205 23.7849 27.6047 23.787 27.7916 23.7617C27.9156 23.7443 28.0127 23.6661 28.0655 23.5558C28.2894 23.0853 28.6181 22.7524 29.0516 22.5571C29.5748 22.3211 30.1443 22.3132 30.6743 22.5333C31.1215 22.7191 31.5216 23.0881 31.7195 23.5458C31.785 23.6973 31.945 23.7759 32.1044 23.7802C32.627 23.7935 33.0583 23.9779 33.3982 24.3334C33.6442 24.5903 33.7976 24.8817 33.8585 25.2076C33.887 25.3599 33.9004 25.6117 33.8987 25.963C33.8835 28.8684 33.8839 31.7516 33.8997 34.6123C33.9015 34.9523 33.8758 35.2117 33.8226 35.3904C33.6442 35.9896 33.1195 36.5122 32.5325 36.6378C32.3864 36.6691 32.2335 36.6894 32.0738 36.6985C31.8911 36.7091 31.7713 36.8009 31.6932 36.9567C31.2935 37.7564 30.4927 38.2025 29.6017 38.0758ZM33.1876 25.3876C33.0898 24.928 32.8264 24.6331 32.3974 24.5028C32.2057 24.4442 31.9904 24.4717 31.8056 24.4189C31.4977 24.3309 31.267 24.1488 31.1135 23.8725C31.0147 23.6945 30.9649 23.6049 30.9642 23.6039C30.7731 23.3522 30.5489 23.1893 30.2916 23.115C29.6508 22.9303 29.0157 23.1874 28.7043 23.8087C28.5464 24.1238 28.2931 24.355 27.941 24.4321C27.7293 24.478 27.5176 24.4442 27.3123 24.525C26.8852 24.6929 26.5811 25.0772 26.5817 25.5438C26.5862 28.4525 26.5855 31.5622 26.5796 34.8731C26.5785 35.5335 27.0562 35.9933 27.7108 36.0155C28.2202 36.0329 28.5232 36.3021 28.7412 36.7307C28.8927 37.029 29.191 37.2697 29.5035 37.3547C30.0479 37.5021 30.5074 37.3718 30.8818 36.9635C30.9473 36.8917 31.0046 36.8057 31.0539 36.7054C31.2883 36.2255 31.6272 36.0339 32.1514 36.0065C32.7479 35.9753 33.2008 35.4928 33.2003 34.8916C33.1975 31.6669 33.1983 28.5482 33.2029 25.5354C33.2029 25.4858 33.1978 25.4365 33.1876 25.3876Z" fill="#A193C4"/>
<path d="M33.1876 25.3876C33.1978 25.4365 33.2029 25.4858 33.2029 25.5354C33.1983 28.5482 33.1975 31.6669 33.2003 34.8916C33.2008 35.4928 32.7479 35.9753 32.1514 36.0065C31.6272 36.0339 31.2883 36.2255 31.0539 36.7054C31.0046 36.8057 30.9473 36.8917 30.8818 36.9635C30.5074 37.3718 30.0479 37.5021 29.5035 37.3547C29.191 37.2697 28.8927 37.029 28.7412 36.7307C28.5232 36.3021 28.2202 36.0329 27.7108 36.0155C27.0562 35.9933 26.5785 35.5335 26.5796 34.8731C26.5855 31.5622 26.5862 28.4525 26.5817 25.5438C26.5811 25.0772 26.8852 24.6929 27.3123 24.525C27.5176 24.4442 27.7293 24.478 27.941 24.4321C28.2931 24.355 28.5464 24.1238 28.7043 23.8087C29.0157 23.1874 29.6508 22.9303 30.2916 23.115C30.5489 23.1893 30.7731 23.3522 30.9642 23.6039C30.9649 23.6049 31.0147 23.6945 31.1135 23.8725C31.267 24.1488 31.4977 24.3309 31.8056 24.4189C31.9904 24.4717 32.2057 24.4442 32.3974 24.5028C32.8264 24.6331 33.0898 24.928 33.1876 25.3876ZM32.9722 26.8445C32.9712 26.4828 32.9734 26.1539 32.9791 25.8579C32.9847 25.5693 32.9648 25.3693 32.9194 25.2577C32.7827 24.923 32.476 24.6955 32.1091 24.6918C31.6868 24.6876 31.302 24.5055 31.0428 24.1782C30.9246 24.0293 30.8591 23.8472 30.7403 23.7026C30.2927 23.1583 29.5273 23.1451 29.0648 23.6688C28.9862 23.7575 28.9228 23.8799 28.8679 23.9866C28.6705 24.3693 28.2688 24.6507 27.8364 24.6792C27.6971 24.6881 27.5588 24.6939 27.4268 24.7356C27.0404 24.8586 26.8065 25.1843 26.8071 25.5861C26.8113 28.7541 26.8104 31.8538 26.8044 34.8853C26.8034 35.3582 27.1914 35.7784 27.6749 35.7779C28.0671 35.7779 28.443 35.9484 28.689 36.2282C28.8341 36.3934 28.9112 36.604 29.0485 36.7772C29.4528 37.2861 30.2468 37.3315 30.6786 36.8442C30.7539 36.7594 30.8239 36.6553 30.8887 36.5317C31.1384 36.055 31.5696 35.7858 32.1007 35.7811C32.6312 35.7763 32.9764 35.3514 32.9775 34.8462C32.9831 32.0973 32.9814 29.4301 32.9722 26.8445Z" fill="#D8D2EC"/>
<path d="M32.9722 26.8445C32.9814 29.4301 32.9831 32.0973 32.9775 34.8462C32.9764 35.3514 32.6312 35.7763 32.1007 35.7811C31.5696 35.7858 31.1384 36.055 30.8887 36.5317C30.8239 36.6553 30.7539 36.7594 30.6786 36.8442C30.2468 37.3315 29.4528 37.2861 29.0485 36.7772C28.9112 36.604 28.8341 36.3934 28.689 36.2282C28.443 35.9484 28.0671 35.7779 27.6749 35.7779C27.1914 35.7784 26.8034 35.3582 26.8044 34.8853C26.8104 31.8538 26.8113 28.7541 26.8071 25.5861C26.8065 25.1843 27.0404 24.8586 27.4268 24.7356C27.5588 24.6939 27.6971 24.6881 27.8364 24.6792C28.2688 24.6507 28.6705 24.3693 28.8679 23.9866C28.9228 23.8799 28.9862 23.7575 29.0648 23.6688C29.5273 23.1451 30.2927 23.1583 30.7403 23.7026C30.8591 23.8472 30.9246 24.0293 31.0428 24.1782C31.302 24.5055 31.6868 24.6876 32.1091 24.6918C32.476 24.6955 32.7827 24.923 32.9194 25.2577C32.9648 25.3693 32.9847 25.5693 32.9791 25.8579C32.9734 26.1539 32.9712 26.4828 32.9722 26.8445ZM29.3446 32.439C29.3421 32.4429 29.3388 32.4456 29.3346 32.447C29.3293 32.4487 29.3249 32.4477 29.3214 32.4438C29.0346 32.1165 28.8202 31.7473 28.6784 31.3363C28.5913 31.0834 28.5137 30.7878 28.4055 30.5698C28.2551 30.2668 27.8834 29.74 27.5276 29.6645C27.5113 29.661 27.4942 29.664 27.48 29.6728C27.4657 29.6817 27.4554 29.6957 27.4511 29.712C27.4388 29.7616 27.4367 29.8123 27.4448 29.864C27.4919 30.1628 27.5554 30.4542 27.6353 30.7382C27.8185 31.3859 27.7778 32.2194 28.2397 32.7352C28.4833 33.0072 28.7588 33.2699 29.0664 33.5233C29.2813 33.7002 29.4924 33.9013 29.6027 34.1494C29.6506 34.2567 29.7039 34.3627 29.7627 34.4672C29.7698 34.4799 29.7795 34.4911 29.791 34.5001C29.8026 34.5091 29.8158 34.5157 29.8299 34.5195C29.8441 34.5234 29.8589 34.5243 29.8734 34.5224C29.888 34.5205 29.902 34.5157 29.9147 34.5083C30.2329 34.3243 30.4993 34.1154 30.7139 33.8818C31.028 33.5397 31.1083 33.1797 31.2165 32.7489C31.3384 32.2664 31.5744 31.8283 31.8821 31.4271C32.1105 31.129 32.2592 30.7709 32.3282 30.3529C32.3602 30.1582 32.3539 29.9867 32.3092 29.8382C32.3055 29.826 32.299 29.8149 32.2902 29.8057C32.2814 29.7966 32.2705 29.7897 32.2585 29.7856C32.2464 29.7815 32.2336 29.7804 32.221 29.7823C32.2084 29.7842 32.1965 29.789 32.1862 29.7965C32.0975 29.8598 32.016 29.9355 31.9418 30.0235C31.7613 30.2364 31.5876 30.4503 31.4208 30.6654C31.1927 30.9599 30.8839 31.2196 30.6311 31.5269C30.5904 31.5765 30.563 31.6388 30.5186 31.6821C30.4827 31.7169 30.4579 31.7104 30.4442 31.6625C30.2024 30.8279 30.1327 29.977 30.2642 29.1403C30.3898 28.339 30.3054 27.5287 29.9971 26.7986C29.9284 26.6364 29.841 26.4919 29.7347 26.3652C29.725 26.3537 29.7127 26.3446 29.6988 26.3386C29.685 26.3327 29.6699 26.33 29.6549 26.3309C29.6398 26.3318 29.6252 26.3361 29.6121 26.3436C29.599 26.3512 29.5878 26.3616 29.5795 26.3742C29.5327 26.4446 29.4984 26.5227 29.4766 26.6086C29.3805 26.9904 29.3045 27.3729 29.2485 27.7562C29.2165 27.9754 29.1757 28.1869 29.1261 28.3907C29.0141 28.8515 28.8516 29.3182 28.7845 29.7891C28.7208 30.2385 28.766 30.716 28.9202 31.2217C29.0451 31.6328 29.1869 32.0349 29.3457 32.428C29.3463 32.4298 29.3466 32.4318 29.3464 32.4337C29.3462 32.4356 29.3456 32.4374 29.3446 32.439Z" fill="#A193C4"/>
<path d="M19.4441 26.5595C19.4297 26.6225 19.4433 26.6292 19.4848 26.5795C19.6231 26.4148 19.7871 26.2633 19.9768 26.125C20.0876 26.0443 20.2054 25.955 20.3326 25.9102C20.3378 25.9084 20.3435 25.9081 20.3489 25.9095C20.3543 25.9108 20.3591 25.9137 20.3629 25.9178C20.3667 25.9219 20.3691 25.927 20.37 25.9325C20.3709 25.938 20.3702 25.9436 20.3679 25.9487C20.1726 26.3869 19.7672 26.9121 19.299 27.1043C19.2758 27.1138 19.2551 27.1283 19.2384 27.1467C19.2216 27.165 19.2091 27.1868 19.2019 27.2104C19.1765 27.2917 19.1438 27.3677 19.1037 27.4384C19.079 27.4813 19.0674 27.478 19.0688 27.4284C19.0706 27.3587 19.0935 27.2943 19.1374 27.2352C19.1539 27.2128 19.1641 27.1864 19.167 27.1587C19.1699 27.1311 19.1653 27.1032 19.1538 27.0779C19.0957 26.9522 19.0593 26.8176 19.0445 26.674C18.9713 25.9702 19.1031 25.2926 19.4399 24.6411C19.4797 24.5648 19.5096 24.5685 19.5297 24.6522C19.5638 24.7951 19.583 24.9306 19.5872 25.0587C19.6048 25.5708 19.5571 26.071 19.4441 26.5595Z" fill="#EE7483"/>
<path d="M18.4676 28.9291C18.4996 28.8081 18.5388 28.6948 18.5853 28.5892C18.5903 28.5781 18.591 28.5656 18.5874 28.554C18.5838 28.5423 18.5761 28.5323 18.5658 28.5258C18.4151 28.4326 18.2935 28.3041 18.201 28.1405C17.8973 27.6063 17.7627 27.0001 17.7972 26.3219C17.8003 26.26 17.8204 26.254 17.8573 26.304C17.9629 26.4451 18.0516 26.5883 18.1234 26.7337C18.2867 27.0641 18.4301 27.4051 18.5536 27.7567C18.6141 27.9295 18.6558 28.1042 18.6787 28.2809C18.6836 28.3189 18.6968 28.3219 18.7183 28.2899C18.7405 28.2568 18.7533 28.2209 18.7568 28.1822C18.7642 28.0984 18.7898 28.0252 18.8334 27.9626C18.8478 27.9419 18.8547 27.9169 18.8529 27.8918C18.8512 27.8666 18.841 27.8428 18.8239 27.8243C18.7046 27.6944 18.6038 27.5619 18.5367 27.3941C18.2985 26.7958 18.2121 26.1996 18.2775 25.6056C18.2895 25.4983 18.3238 25.4905 18.3805 25.5824C18.6733 26.0557 18.8638 26.6102 18.9522 27.2457C18.9669 27.351 18.9708 27.4607 18.9638 27.5751C18.962 27.6008 18.9715 27.6059 18.9923 27.5904C19.0947 27.5123 19.1878 27.4308 19.2715 27.346C19.7002 26.9147 20.236 26.6012 20.824 26.4175C20.8353 26.414 20.8459 26.4154 20.8557 26.4217C20.8605 26.4246 20.864 26.4293 20.8654 26.4348C20.8667 26.4404 20.8659 26.4462 20.8631 26.4513C20.5358 27.0346 19.9546 27.4975 19.3518 27.7847C19.2356 27.8401 19.1137 27.8538 18.9886 27.8713C18.9718 27.8735 18.956 27.8804 18.9429 27.8912C18.9298 27.9021 18.9201 27.9164 18.9147 27.9325L18.7854 28.3168C18.7794 28.3337 18.7854 28.3425 18.8033 28.3432C18.8089 28.3432 18.8146 28.3423 18.8202 28.3406C18.8255 28.3388 18.8299 28.3355 18.8334 28.3305C18.9098 28.226 19.0104 28.1394 19.1353 28.0708C19.6917 27.7653 20.3032 27.6221 20.9697 27.6411C20.9736 27.6411 20.9774 27.6422 20.9807 27.6442C20.9841 27.6463 20.9868 27.6492 20.9887 27.6527C20.9951 27.6636 20.993 27.6731 20.9824 27.6812C20.7969 27.8234 20.6034 27.9453 20.4017 28.0471C20.0132 28.2424 19.6314 28.4028 19.2562 28.5285C19.0771 28.5887 18.8995 28.6063 18.7236 28.5813C18.7112 28.5795 18.6987 28.5821 18.6881 28.5887C18.6774 28.5953 18.6695 28.6053 18.6655 28.6172L18.5499 28.9645C18.5351 29.0085 18.5466 29.0168 18.5842 28.9893C18.6713 28.9255 18.7373 28.8479 18.8366 28.7956C19.1199 28.646 19.3585 28.5456 19.5524 28.4942C19.8927 28.4041 20.2837 28.3634 20.7253 28.3722C20.7918 28.3736 20.7982 28.3939 20.7443 28.4329C20.6055 28.5332 20.4704 28.6309 20.3141 28.7059C20.0551 28.8294 19.785 28.9462 19.5038 29.0564C19.1966 29.1762 18.8292 29.3097 18.5256 29.2585C18.5128 29.2564 18.4997 29.2588 18.4885 29.2655C18.4772 29.2722 18.4687 29.2826 18.4644 29.295L18.3852 29.5283C18.3557 29.6142 18.3771 29.6296 18.4496 29.5747C18.5059 29.5318 18.5645 29.4977 18.6254 29.4723C19.2529 29.214 19.9411 29.1106 20.69 29.1619C20.7072 29.163 20.7216 29.1702 20.7332 29.1836C20.7354 29.186 20.737 29.1888 20.738 29.1919C20.7389 29.1949 20.7393 29.1982 20.7389 29.2014C20.7386 29.2046 20.7376 29.2077 20.7359 29.2106C20.7343 29.2134 20.7322 29.2159 20.7295 29.2179C20.378 29.4699 20.0067 29.6402 19.6157 29.7289C19.2092 29.8207 18.7732 29.9221 18.3657 29.7843C18.3463 29.778 18.3342 29.7845 18.3293 29.8038L18.267 30.0456C18.2652 30.0524 18.2653 30.0595 18.2671 30.0662C18.269 30.0729 18.2726 30.079 18.2775 30.0839C18.2824 30.0888 18.2885 30.0923 18.2952 30.094C18.3019 30.0957 18.3089 30.0956 18.3155 30.0937C18.8751 29.9349 19.4271 29.8915 19.9715 29.9633C20.0352 29.9714 20.0401 29.9932 19.9863 30.0287C19.678 30.2325 19.4067 30.4252 19.0097 30.3982C18.7611 30.3814 18.4839 30.3808 18.2733 30.2362C18.2575 30.2253 18.2466 30.229 18.2406 30.2473L18.1904 30.4004C18.1725 30.4553 18.1887 30.4686 18.239 30.4405C18.2724 30.4218 18.3101 30.4134 18.352 30.4151C18.8193 30.4338 19.2721 30.5673 19.7102 30.8158C19.7232 30.8232 19.7334 30.8332 19.7408 30.8459C19.743 30.8494 19.7442 30.8534 19.7444 30.8575C19.7446 30.8617 19.7438 30.8658 19.742 30.8695C19.7402 30.8732 19.7375 30.8764 19.7342 30.8789C19.7309 30.8813 19.727 30.8828 19.7229 30.8834C19.261 30.9441 18.6043 30.8791 18.2036 30.5914C18.1776 30.5728 18.1626 30.5793 18.1588 30.611C18.1137 30.9858 18.0977 31.3745 18.1107 31.7771C18.1114 31.7967 18.106 31.816 18.0954 31.8325C18.069 31.874 18.0379 31.8951 18.002 31.8959C17.9647 31.8966 17.9453 31.8784 17.9439 31.8415C17.9256 31.4012 17.9575 30.9582 18.0395 30.5123C18.044 30.489 18.0347 30.4799 18.0115 30.4848C17.4924 30.5943 16.9735 30.5221 16.4547 30.2684C16.4456 30.2638 16.4391 30.2566 16.4352 30.2467C16.4299 30.233 16.4329 30.2198 16.4442 30.2072C16.4493 30.2013 16.4562 30.1974 16.4637 30.1961C16.9304 30.1201 17.5987 30.1137 18.0284 30.3433C18.0317 30.3452 18.0353 30.3462 18.0391 30.3464C18.0428 30.3466 18.0466 30.3459 18.05 30.3444C18.0535 30.3429 18.0566 30.3407 18.059 30.3379C18.0615 30.335 18.0633 30.3317 18.0643 30.328L18.0933 30.2177C18.0982 30.1991 18.0912 30.1878 18.0722 30.1839C17.6319 30.0963 16.9467 29.7632 16.7102 29.3156C16.5969 29.1009 16.5014 28.8804 16.4236 28.6541C16.4085 28.6108 16.4211 28.5997 16.4616 28.6209C16.857 28.8267 17.2286 29.0822 17.5369 29.399C17.7317 29.5985 17.955 29.7885 18.0843 30.0393C18.0868 30.0442 18.0907 30.0482 18.0956 30.0508C18.1004 30.0534 18.106 30.0545 18.1114 30.0538C18.1169 30.0532 18.122 30.0509 18.1261 30.0473C18.1303 30.0436 18.1332 30.0388 18.1345 30.0335L18.202 29.769C18.2094 29.7402 18.199 29.7208 18.1709 29.7109C18.0439 29.6677 17.9316 29.6094 17.8341 29.5362C17.567 29.336 17.3353 29.1016 17.1389 28.8331C16.9177 28.5311 16.8142 28.1204 16.7213 27.744C16.7065 27.6849 16.7245 27.6724 16.7752 27.7066C16.8885 27.7829 16.993 27.8693 17.0887 27.9658C17.4408 28.3205 17.7391 28.7074 18.0125 29.1239C18.0878 29.2387 18.1485 29.3578 18.1946 29.4813C18.2288 29.5735 18.2578 29.5719 18.2818 29.4766C18.3004 29.4009 18.3275 29.3288 18.363 29.2601C18.368 29.2505 18.371 29.24 18.3718 29.2292C18.3725 29.2184 18.3711 29.2075 18.3675 29.1973C18.364 29.1871 18.3584 29.1777 18.3511 29.1697C18.3438 29.1617 18.3349 29.1553 18.325 29.1509C18.1952 29.0907 18.0885 29.0231 17.9956 28.9101C17.807 28.6814 17.6675 28.4715 17.577 28.2804C17.4014 27.9098 17.2867 27.5079 17.2328 27.0747C17.2216 26.9825 17.2489 26.9689 17.3147 27.034C17.4322 27.1498 17.5397 27.2758 17.6372 27.412C17.9149 27.7991 18.1475 28.2093 18.3351 28.6425C18.3762 28.737 18.4011 28.8336 18.4327 28.9302C18.4457 28.9689 18.4574 28.9686 18.4676 28.9291Z" fill="#EE7483"/>
<path d="M29.3446 32.439C29.3456 32.4374 29.3462 32.4356 29.3464 32.4337C29.3466 32.4318 29.3463 32.4298 29.3457 32.428C29.1869 32.0349 29.0451 31.6328 28.9202 31.2217C28.766 30.716 28.7208 30.2385 28.7845 29.7891C28.8516 29.3182 29.0141 28.8515 29.1261 28.3907C29.1757 28.1869 29.2165 27.9754 29.2485 27.7562C29.3045 27.3729 29.3805 26.9904 29.4766 26.6086C29.4984 26.5227 29.5327 26.4446 29.5795 26.3742C29.5878 26.3616 29.599 26.3512 29.6121 26.3436C29.6252 26.3361 29.6398 26.3318 29.6549 26.3309C29.6699 26.33 29.685 26.3327 29.6988 26.3386C29.7127 26.3446 29.725 26.3537 29.7347 26.3652C29.841 26.4919 29.9284 26.6364 29.9971 26.7986C30.3054 27.5287 30.3898 28.339 30.2642 29.1403C30.1327 29.977 30.2024 30.8279 30.4442 31.6625C30.4579 31.7104 30.4827 31.7169 30.5186 31.6821C30.563 31.6388 30.5904 31.5765 30.6311 31.5269C30.8839 31.2196 31.1927 30.9599 31.4208 30.6654C31.5876 30.4503 31.7613 30.2364 31.9418 30.0235C32.016 29.9355 32.0975 29.8598 32.1862 29.7965C32.1965 29.789 32.2084 29.7842 32.221 29.7823C32.2336 29.7804 32.2464 29.7815 32.2585 29.7856C32.2705 29.7897 32.2814 29.7966 32.2902 29.8057C32.299 29.8149 32.3055 29.826 32.3092 29.8382C32.3539 29.9867 32.3602 30.1582 32.3282 30.3529C32.2592 30.7709 32.1105 31.129 31.8821 31.4271C31.5744 31.8283 31.3384 32.2664 31.2165 32.7489C31.1083 33.1797 31.028 33.5397 30.7139 33.8818C30.4993 34.1154 30.2329 34.3243 29.9147 34.5083C29.902 34.5157 29.888 34.5205 29.8734 34.5224C29.8589 34.5243 29.8441 34.5234 29.8299 34.5195C29.8158 34.5157 29.8026 34.5091 29.791 34.5001C29.7795 34.4911 29.7698 34.4799 29.7627 34.4672C29.7039 34.3627 29.6506 34.2567 29.6027 34.1494C29.4924 33.9013 29.2813 33.7002 29.0664 33.5233C28.7588 33.2699 28.4833 33.0072 28.2397 32.7352C27.7778 32.2194 27.8185 31.3859 27.6353 30.7382C27.5554 30.4542 27.4919 30.1628 27.4448 29.864C27.4367 29.8123 27.4388 29.7616 27.4511 29.712C27.4554 29.6957 27.4657 29.6817 27.48 29.6728C27.4942 29.664 27.5113 29.661 27.5276 29.6645C27.8834 29.74 28.2551 30.2668 28.4055 30.5698C28.5137 30.7878 28.5913 31.0834 28.6784 31.3363C28.8202 31.7473 29.0346 32.1165 29.3214 32.4438C29.3249 32.4477 29.3293 32.4487 29.3346 32.447C29.3388 32.4456 29.3421 32.4429 29.3446 32.439ZM29.9839 33.9578C30.128 33.4943 30.1111 32.9463 30.0145 32.4496C29.9529 32.1329 29.8621 31.7728 29.7421 31.3695C29.6985 31.2235 29.6573 31.059 29.6186 30.876C29.4935 30.2884 29.5204 29.6946 29.6281 29.0801C29.7094 28.6163 29.7637 28.1646 29.7912 27.725C29.7951 27.6635 29.7922 27.6034 29.7827 27.545C29.775 27.4972 29.7671 27.4972 29.759 27.545C29.7088 27.8443 29.6729 28.1537 29.5943 28.4451C29.3541 29.3335 29.1915 30.2816 29.466 31.1352C29.5357 31.3511 29.5843 31.586 29.6619 31.8014C29.8396 32.2983 29.9489 32.7829 29.9897 33.2551C30.0094 33.4786 29.9987 33.7097 29.9575 33.9483C29.9564 33.9542 29.9587 33.9578 29.9643 33.9588L29.9775 33.9615C29.9807 33.9618 29.9828 33.9606 29.9839 33.9578ZM27.9214 30.5682C27.9879 30.8638 28.052 31.1543 28.1136 31.4398C28.1762 31.7308 28.269 31.9879 28.3918 32.211C28.4808 32.3732 28.6105 32.5399 28.7808 32.7109C29.1651 33.0973 29.5331 33.4742 29.6946 34.0021C29.7157 34.0704 29.7234 34.069 29.7178 33.9979C29.7122 33.925 29.6941 33.8469 29.6634 33.7635C29.4993 33.3164 29.2253 32.9733 28.8991 32.6534C28.6165 32.376 28.4095 32.0181 28.2783 31.5796C28.2061 31.3389 28.1426 31.1052 28.0877 30.8786C28.0441 30.6977 27.9758 30.527 27.8829 30.3666C27.866 30.3374 27.8605 30.3393 27.8665 30.3724C27.8781 30.4384 27.9066 30.5022 27.9214 30.5682ZM30.5709 33.0023C30.5258 33.4028 30.393 33.7816 30.1723 34.1388C30.1512 34.1733 30.1567 34.1782 30.1887 34.1536C30.2172 34.1318 30.242 34.1068 30.2631 34.0786C30.4584 33.8189 30.5858 33.5379 30.6453 33.2356C30.6995 32.9594 30.7553 32.6954 30.8126 32.4438C30.8728 32.1809 30.9937 31.9038 31.1479 31.6916C31.3407 31.4244 31.5402 31.1549 31.7465 30.8828C31.8295 30.7727 31.9075 30.6437 31.9803 30.4959C31.9814 30.4938 31.9807 30.492 31.9782 30.4906L31.9671 30.4843C31.964 30.4824 31.9603 30.4819 31.9568 30.4826C31.9533 30.4834 31.9502 30.4855 31.9481 30.4885C31.7232 30.8216 31.4889 31.0745 31.2418 31.3511C31.1014 31.5089 30.9937 31.6916 30.8749 31.8684C30.686 32.1492 30.6115 32.6428 30.5709 33.0023Z" fill="#836EAF"/>
<path d="M30.0145 32.4496C30.1111 32.9463 30.128 33.4943 29.9839 33.9578C29.9828 33.9606 29.9807 33.9618 29.9775 33.9615L29.9643 33.9588C29.9587 33.9578 29.9564 33.9542 29.9575 33.9483C29.9987 33.7097 30.0094 33.4786 29.9897 33.2551C29.9489 32.7829 29.8396 32.2983 29.6619 31.8014C29.5843 31.586 29.5357 31.3511 29.466 31.1352C29.1915 30.2816 29.3541 29.3335 29.5943 28.4451C29.6729 28.1537 29.7088 27.8443 29.759 27.545C29.7671 27.4972 29.775 27.4972 29.7827 27.545C29.7922 27.6034 29.7951 27.6635 29.7912 27.725C29.7637 28.1646 29.7094 28.6163 29.6281 29.0801C29.5204 29.6946 29.4935 30.2884 29.6186 30.876C29.6573 31.059 29.6985 31.2235 29.7421 31.3695C29.8621 31.7728 29.9529 32.1329 30.0145 32.4496Z" fill="#A193C4"/>
<path d="M27.9214 30.5682C27.9066 30.5022 27.8781 30.4384 27.8665 30.3724C27.8605 30.3393 27.866 30.3374 27.8829 30.3666C27.9758 30.527 28.0441 30.6977 28.0877 30.8786C28.1426 31.1052 28.2061 31.3389 28.2783 31.5796C28.4095 32.0181 28.6165 32.376 28.8991 32.6534C29.2253 32.9733 29.4993 33.3164 29.6634 33.7635C29.6941 33.8469 29.7122 33.925 29.7178 33.9979C29.7234 34.069 29.7157 34.0704 29.6946 34.0021C29.5331 33.4742 29.1651 33.0973 28.7808 32.7109C28.6105 32.5399 28.4808 32.3732 28.3918 32.211C28.269 31.9879 28.1762 31.7308 28.1136 31.4398C28.052 31.1543 27.9879 30.8638 27.9214 30.5682Z" fill="#A193C4"/>
<path d="M30.5709 33.0023C30.6115 32.6428 30.686 32.1492 30.8749 31.8684C30.9937 31.6916 31.1014 31.5089 31.2418 31.3511C31.4889 31.0745 31.7232 30.8216 31.9481 30.4885C31.9502 30.4855 31.9533 30.4834 31.9568 30.4826C31.9603 30.4819 31.964 30.4824 31.9671 30.4843L31.9782 30.4906C31.9807 30.492 31.9814 30.4938 31.9803 30.4959C31.9075 30.6437 31.8295 30.7727 31.7465 30.8828C31.5402 31.1549 31.3407 31.4244 31.1479 31.6916C30.9937 31.9038 30.8728 32.1809 30.8126 32.4438C30.7553 32.6954 30.6995 32.9594 30.6453 33.2356C30.5858 33.5379 30.4584 33.8189 30.2631 34.0786C30.242 34.1068 30.2172 34.1318 30.1887 34.1536C30.1567 34.1782 30.1512 34.1733 30.1723 34.1388C30.393 33.7816 30.5258 33.4028 30.5709 33.0023Z" fill="#A193C4"/>
<path d="M44.3898 33.2383C42.0062 33.1974 39.625 33.193 37.246 33.2251C37.2284 33.2251 37.206 33.2376 37.1789 33.2625C37.1701 33.2344 37.1439 33.2184 37.1003 33.2145C37.0285 33.2078 36.9551 33.2089 36.8801 33.2177C36.7017 33.2388 36.5434 33.1417 36.5402 32.9543C36.5317 32.4359 36.5324 31.7232 36.5423 30.8163C36.5434 30.6722 36.6505 30.5381 36.7978 30.5376C39.4034 30.5264 41.9545 30.5264 44.451 30.5376C44.5777 30.5381 44.7366 30.5244 44.8512 30.5666C44.9341 30.5973 45.0365 30.6559 45.0375 30.7577C45.0439 31.45 45.0444 32.1448 45.0391 32.8424C45.0375 33.0424 44.9784 33.2119 44.7546 33.2156C44.6286 33.2173 44.507 33.2249 44.3898 33.2383ZM38.0267 31.3492C38.0264 31.2998 38.0163 31.251 37.9971 31.2056C37.9779 31.1601 37.9499 31.1188 37.9148 31.0842C37.8796 31.0495 37.838 31.0221 37.7923 31.0036C37.7465 30.985 37.6976 30.9756 37.6483 30.976L37.5511 30.9766C37.5018 30.977 37.453 30.987 37.4075 31.0063C37.362 31.0255 37.3208 31.0534 37.2861 31.0886C37.2515 31.1237 37.2241 31.1654 37.2055 31.2111C37.1869 31.2568 37.1776 31.3058 37.1779 31.3551L37.1852 32.4066C37.1856 32.456 37.1957 32.5048 37.2149 32.5503C37.2341 32.5957 37.262 32.637 37.2972 32.6716C37.3323 32.7063 37.374 32.7337 37.4197 32.7522C37.4654 32.7708 37.5144 32.7802 37.5637 32.7798L37.6608 32.7792C37.7102 32.7788 37.759 32.7688 37.8045 32.7496C37.8499 32.7304 37.8912 32.7024 37.9258 32.6672C37.9605 32.6321 37.9879 32.5905 38.0065 32.5447C38.025 32.499 38.0344 32.4501 38.0341 32.4007L38.0267 31.3492Z" fill="#E5EBF9"/>
<path d="M37.6483 30.976L37.5511 30.9766C37.3436 30.9781 37.1765 31.1475 37.1779 31.3551L37.1852 32.4066C37.1867 32.6142 37.3561 32.7813 37.5637 32.7798L37.6608 32.7792C37.8684 32.7777 38.0355 32.6083 38.0341 32.4007L38.0267 31.3492C38.0253 31.1416 37.8558 30.9745 37.6483 30.976Z" fill="white"/>
<path d="M44.3898 33.2383L44.3766 33.5312L43.4861 33.5286L37.1958 33.5344L37.1789 33.2625C37.206 33.2376 37.2284 33.2251 37.246 33.2251C39.625 33.193 42.0062 33.1974 44.3898 33.2383Z" fill="#CCD8E9"/>
<path d="M44.3766 33.5312C44.484 33.5633 44.5878 33.5933 44.6881 33.6215C45.8167 33.9372 46.6831 34.5865 47.2874 35.5694C47.8564 36.4958 48.085 37.682 47.9937 38.7589C47.8469 40.4959 47.4658 42.194 46.8503 43.8529C46.4899 44.8242 46.0292 45.7593 45.4683 46.6581C45.3289 46.8812 45.1371 46.9924 44.8929 46.9917C44.2584 46.9896 43.6399 46.9921 43.0374 46.9991C42.5406 47.0049 42.0212 46.9801 41.5123 46.9785C39.9776 46.974 38.4455 46.9759 36.916 46.9843C36.8003 46.985 36.6632 46.9476 36.5048 46.8719C36.6607 46.8416 36.8134 46.8318 36.963 46.8423C37.1794 46.8578 37.2894 46.8656 37.2929 46.8656C38.4261 46.886 39.7346 46.8941 41.2183 46.8898C41.882 46.8877 42.5199 46.8696 43.1319 46.8355C43.3877 46.821 43.5825 46.7252 43.7162 46.5478C43.8996 46.3046 44.0896 45.9963 44.2863 45.6229C44.6981 44.841 45.0421 44.0581 45.3184 43.2744C45.35 43.1839 45.3792 43.0926 45.406 43.0004C45.473 42.7655 45.5617 42.5353 45.6272 42.302C45.9618 41.1013 46.1864 39.903 46.3007 38.7071C46.356 38.1314 46.3301 37.5585 46.2231 36.9883C45.9312 35.429 44.9335 34.2164 43.465 33.5782C43.4627 33.5772 43.4607 33.5758 43.4591 33.5741C43.4574 33.5723 43.4561 33.5702 43.4553 33.568C43.4545 33.5657 43.4541 33.5633 43.4542 33.5609C43.4543 33.5585 43.4549 33.5561 43.456 33.5539C43.4599 33.5455 43.4699 33.537 43.4861 33.5286L44.3766 33.5312Z" fill="#51BCE0"/>
<path d="M43.4861 33.5286C43.4699 33.537 43.4599 33.5455 43.456 33.5539C43.4549 33.5561 43.4543 33.5585 43.4542 33.5609C43.4541 33.5633 43.4545 33.5657 43.4553 33.568C43.4561 33.5702 43.4574 33.5723 43.4591 33.5741C43.4607 33.5758 43.4627 33.5772 43.465 33.5782C44.9335 34.2164 45.9312 35.429 46.2231 36.9883C46.3301 37.5585 46.356 38.1314 46.3007 38.7071C46.1864 39.903 45.9618 41.1013 45.6272 42.302C45.5617 42.5353 45.473 42.7655 45.406 43.0004C45.3792 43.0926 45.35 43.1839 45.3184 43.2744C45.0421 44.0581 44.6981 44.841 44.2863 45.6229C44.0896 45.9963 43.8996 46.3046 43.7162 46.5478C43.5825 46.7252 43.3877 46.821 43.1319 46.8355C42.5199 46.8696 41.882 46.8877 41.2183 46.8898C39.7346 46.8941 38.4261 46.886 37.2929 46.8656C37.2894 46.8656 37.1794 46.8578 36.963 46.8423C36.8134 46.8318 36.6607 46.8416 36.5048 46.8719C36.2553 46.7705 36.0547 46.58 35.903 46.3002C35.8907 46.2777 35.8793 46.2705 35.8687 46.2786C35.8564 46.249 35.8436 46.2226 35.8302 46.1994C35.4156 45.4741 35.0611 44.7204 34.7665 43.9384C34.2706 42.6328 33.9229 41.2906 33.7234 39.9118C33.652 39.4162 33.608 39.067 33.5914 38.8639C33.4758 37.4439 33.8163 36.0286 34.7617 34.9328C35.0602 34.6009 35.401 34.3236 35.7843 34.1008C35.868 34.0523 35.9518 34.0033 36.0355 33.9541C36.2125 33.8633 36.3442 33.8019 36.4304 33.7698C36.6071 33.7044 36.8622 33.6259 37.1958 33.5344L43.4861 33.5286ZM37.342 34.5701C37.35 34.2798 37.1383 34.0443 36.8369 34.1409C36.7144 34.1803 36.5954 34.2286 36.48 34.2856C35.4232 34.8055 34.606 35.7763 34.2508 36.8896C34.1837 37.0997 34.0993 37.3911 34.2713 37.5611C34.4873 37.7744 34.9275 37.796 35.0188 37.4407C35.2263 36.6373 35.6523 35.9505 36.3238 35.4142C36.5449 35.2373 36.7978 35.1165 37.0501 34.9972C37.227 34.9138 37.3373 34.7675 37.342 34.5701ZM45.9787 39.4298C45.9787 38.4328 45.4319 37.4767 44.4586 36.7717C43.4852 36.0668 42.1651 35.6707 40.7886 35.6707C39.4121 35.6707 38.0919 36.0668 37.1186 36.7717C36.1453 37.4767 35.5984 38.4328 35.5984 39.4298C35.5984 40.4268 36.1453 41.3829 37.1186 42.0879C38.0919 42.7928 39.4121 43.1889 40.7886 43.1889C42.1651 43.1889 43.4852 42.7928 44.4586 42.0879C45.4319 41.3829 45.9787 40.4268 45.9787 39.4298Z" fill="#71CCF8"/>
<path d="M37.342 34.5701C37.3373 34.7675 37.227 34.9138 37.0501 34.9972C36.7978 35.1165 36.5449 35.2373 36.3238 35.4142C35.6523 35.9505 35.2263 36.6373 35.0188 37.4407C34.9275 37.796 34.4873 37.7744 34.2713 37.5611C34.0993 37.3911 34.1837 37.0997 34.2508 36.8896C34.606 35.7763 35.4232 34.8055 36.48 34.2856C36.5954 34.2286 36.7144 34.1803 36.8369 34.1409C37.1383 34.0443 37.35 34.2798 37.342 34.5701Z" fill="#AEE9FF"/>
<path d="M45.9787 39.4298C45.9787 40.4268 45.4319 41.3829 44.4586 42.0879C43.4852 42.7928 42.1651 43.1889 40.7886 43.1889C39.4121 43.1889 38.0919 42.7928 37.1186 42.0879C36.1453 41.3829 35.5984 40.4268 35.5984 39.4298C35.5984 38.4328 36.1453 37.4767 37.1186 36.7717C38.0919 36.0668 39.4121 35.6707 40.7886 35.6707C42.1651 35.6707 43.4852 36.0668 44.4586 36.7717C45.4319 37.4767 45.9787 38.4328 45.9787 39.4298ZM45.1347 39.4233C45.1333 38.6502 44.6746 37.9095 43.8594 37.3643C43.0442 36.8191 41.9393 36.5139 40.7877 36.5159C40.2176 36.5169 39.6531 36.5933 39.1266 36.7407C38.6 36.8881 38.1218 37.1036 37.7191 37.375C37.3164 37.6464 36.9971 37.9683 36.7795 38.3224C36.562 38.6764 36.4503 39.0556 36.451 39.4384C36.4523 40.2115 36.9111 40.9522 37.7263 41.4974C38.5415 42.0427 39.6464 42.3478 40.7979 42.3458C41.3681 42.3448 41.9325 42.2684 42.4591 42.121C42.9856 41.9736 43.4639 41.7581 43.8666 41.4867C44.2693 41.2153 44.5885 40.8934 44.8061 40.5394C45.0237 40.1853 45.1353 39.8061 45.1347 39.4233Z" fill="#AEE9FF"/>
<path d="M45.1347 39.4233C45.1353 39.8061 45.0237 40.1853 44.8061 40.5394C44.5885 40.8934 44.2693 41.2153 43.8666 41.4867C43.4639 41.7581 42.9856 41.9736 42.4591 42.121C41.9325 42.2684 41.3681 42.3448 40.7979 42.3458C39.6464 42.3478 38.5415 42.0427 37.7263 41.4974C36.9111 40.9522 36.4523 40.2115 36.451 39.4384C36.4503 39.0556 36.562 38.6764 36.7795 38.3224C36.9971 37.9683 37.3164 37.6464 37.7191 37.375C38.1218 37.1036 38.6 36.8881 39.1266 36.7407C39.6531 36.5933 40.2176 36.5169 40.7877 36.5159C41.9393 36.5139 43.0442 36.8191 43.8594 37.3643C44.6746 37.9095 45.1333 38.6502 45.1347 39.4233ZM44.9752 39.4361C44.9759 39.0741 44.8681 38.7155 44.6583 38.3808C44.4484 38.046 44.1404 37.7417 43.7519 37.4851C43.3635 37.2285 42.9021 37.0247 42.3942 36.8853C41.8863 36.7459 41.3418 36.6736 40.7918 36.6727C39.681 36.6707 38.6152 36.9592 37.8289 37.4747C37.0425 37.9902 36.6001 38.6905 36.5988 39.4214C36.5981 39.7834 36.7059 40.1419 36.9157 40.4767C37.1256 40.8114 37.4336 41.1158 37.8221 41.3724C38.2105 41.629 38.6719 41.8328 39.1798 41.9722C39.6877 42.1116 40.2322 42.1839 40.7822 42.1848C41.893 42.1868 42.9588 41.8982 43.7451 41.3827C44.5315 40.8673 44.9739 40.167 44.9752 39.4361Z" fill="white"/>
<path d="M44.9752 39.4361C44.9739 40.167 44.5315 40.8673 43.7451 41.3827C42.9588 41.8982 41.893 42.1868 40.7822 42.1848C40.2322 42.1839 39.6877 42.1116 39.1798 41.9722C38.6719 41.8328 38.2105 41.629 37.8221 41.3724C37.4336 41.1158 37.1256 40.8114 36.9157 40.4767C36.7059 40.1419 36.5981 39.7834 36.5988 39.4214C36.6001 38.6905 37.0425 37.9902 37.8289 37.4747C38.6152 36.9592 39.681 36.6707 40.7918 36.6727C41.3418 36.6736 41.8863 36.7459 42.3942 36.8853C42.9021 37.0247 43.3635 37.2285 43.7519 37.4851C44.1404 37.7417 44.4484 38.046 44.6583 38.3808C44.8681 38.7155 44.9759 39.0741 44.9752 39.4361ZM40.7411 39.7587C40.885 39.8178 41.0286 39.8555 41.1718 39.8716C41.2621 39.8822 41.3302 39.9223 41.3909 39.9825C41.5296 40.1198 41.6758 40.2626 41.8296 40.4111C41.8553 40.4358 41.8505 40.4451 41.8153 40.4391C41.7418 40.4268 41.6659 40.4129 41.5878 40.3974C41.223 40.3246 40.9111 40.4571 40.5658 40.5706C40.2813 40.664 39.9925 40.6635 39.7027 40.6777C39.6959 40.6781 39.6892 40.6803 39.6836 40.6842C39.6779 40.6882 39.6735 40.6936 39.6707 40.6999C39.668 40.7062 39.667 40.7132 39.668 40.72C39.669 40.7268 39.6719 40.7332 39.6763 40.7384C39.7149 40.7833 39.7824 40.796 39.8347 40.8197C40.172 40.9723 40.5558 41.0113 40.9116 40.8984C41.1929 40.8092 41.9531 40.5399 42.1901 40.7221C42.3981 40.8825 42.601 41.0251 42.7988 41.1497C42.8048 41.1534 42.8116 41.1557 42.8187 41.1564C42.8258 41.157 42.8329 41.156 42.8394 41.1533C42.8626 41.1445 42.8758 41.1301 42.879 41.1101C42.886 41.0654 42.8707 41.03 42.8331 41.004C42.6923 40.9068 42.5436 40.7979 42.387 40.6772C42.3413 40.642 42.3115 40.5992 42.2978 40.5489C42.1833 40.1298 42.1959 39.698 42.2054 39.2641C42.2139 38.8808 42.0969 38.5479 41.8544 38.2653C41.8385 38.247 41.819 38.2405 41.7958 38.2458C41.7911 38.2469 41.787 38.2498 41.7844 38.2539C41.7818 38.2579 41.781 38.2628 41.7821 38.2674C41.8512 38.5477 41.9019 38.8687 41.8755 39.1638C41.8391 39.5649 41.8523 39.9176 42.0212 40.2939C42.0596 40.3798 42.0444 40.3906 41.9758 40.3262C41.8079 40.1688 41.6448 40.0017 41.4865 39.8247C41.3983 39.7259 41.3545 39.6346 41.3196 39.5127C41.3077 39.4701 41.2913 39.4113 41.2705 39.3364C41.3536 38.8951 41.3819 38.4286 41.3555 37.937C41.3552 37.9314 41.3535 37.926 41.3505 37.9212C41.3475 37.9165 41.3433 37.9127 41.3383 37.91C41.3333 37.9074 41.3278 37.906 41.3221 37.9061C41.3164 37.9062 41.3108 37.9077 41.3059 37.9106C41.2257 37.957 41.1724 38.052 41.1544 38.1397C41.1474 38.1752 41.1343 38.2067 41.1153 38.2342C41.0925 38.2669 41.0793 38.2635 41.0758 38.2241C41.0694 38.1566 41.0703 38.0897 41.0784 38.0235C41.0977 37.8609 41.0738 37.7093 41.0066 37.5685C41.0023 37.5595 40.9963 37.5513 40.9889 37.5447C40.9814 37.538 40.9727 37.5328 40.9633 37.5295C40.9538 37.5261 40.9438 37.5247 40.9337 37.5252C40.9237 37.5258 40.9138 37.5283 40.9047 37.5326C40.8646 37.5516 40.8361 37.5836 40.8192 37.6287C40.708 37.9225 40.6556 38.2199 40.6619 38.5208C40.6637 38.5961 40.6367 38.6082 40.5811 38.5572C40.5621 38.5396 40.5465 38.5192 40.5341 38.496C40.4011 38.2415 40.2663 37.9984 40.1298 37.7664C40.0742 37.6725 40.0087 37.5792 39.9334 37.4867C39.9255 37.477 39.9149 37.4699 39.903 37.4661C39.8911 37.4624 39.8784 37.4622 39.8664 37.4655C39.8543 37.4689 39.8435 37.4757 39.8353 37.485C39.827 37.4944 39.8217 37.506 39.8199 37.5183C39.797 37.6883 39.8041 37.8455 39.841 37.9897C39.8727 38.1143 39.9461 38.2252 39.9941 38.3455C39.9982 38.3554 39.9986 38.3663 39.9954 38.3764C39.9923 38.3865 39.9856 38.3952 39.9767 38.401C39.9595 38.4122 39.9427 38.411 39.9266 38.3973C39.7432 38.2361 39.5449 38.0913 39.3316 37.9628C39.2451 37.9104 39.2178 37.9322 39.2498 38.0283C39.2762 38.1075 39.3139 38.1849 39.3628 38.2605C39.5563 38.5628 39.799 38.8178 40.0907 39.0254C40.1372 39.0582 40.1989 39.0672 40.2301 39.1178C40.2328 39.1222 40.2342 39.1273 40.2342 39.1324C40.2343 39.1375 40.2329 39.1426 40.2303 39.147C40.2277 39.1515 40.224 39.1551 40.2195 39.1576C40.215 39.1601 40.2099 39.1613 40.2047 39.1611C40.0839 39.1564 39.9725 39.1279 39.8511 39.1305C39.5825 39.1372 39.3168 39.1418 39.054 39.1442C38.9368 39.1456 38.8266 39.1616 38.7235 39.1923C38.7141 39.195 38.7058 39.2004 38.6995 39.2079C38.6932 39.2153 38.6893 39.2245 38.6881 39.2342C38.687 39.2438 38.6888 39.2536 38.6932 39.2623C38.6976 39.271 38.7045 39.2782 38.7129 39.2831C38.9964 39.4488 39.3174 39.4974 39.641 39.5581C39.6484 39.5595 39.655 39.5637 39.6595 39.5699C39.664 39.576 39.6661 39.5837 39.6653 39.5913C39.6642 39.6044 39.6575 39.6139 39.6452 39.6198C39.3823 39.7479 39.1836 39.9009 39.0492 40.0786C38.9584 40.1986 38.985 40.2364 39.1289 40.1921C39.4763 40.0844 39.8041 39.9255 40.1541 39.7877C40.2519 39.749 40.3383 39.7362 40.4133 39.7492C40.5445 39.7721 40.6538 39.7752 40.7411 39.7587Z" fill="#AEE9FF"/>
<path d="M41.2705 39.3364C41.1252 39.5398 40.9487 39.6806 40.7411 39.7587C40.6538 39.7752 40.5445 39.7721 40.4133 39.7492C40.3383 39.7362 40.2519 39.749 40.1541 39.7877C39.8041 39.9255 39.4763 40.0844 39.1289 40.1921C38.985 40.2364 38.9584 40.1986 39.0492 40.0786C39.1836 39.9009 39.3823 39.7479 39.6452 39.6198C39.6575 39.6139 39.6642 39.6044 39.6653 39.5913C39.6661 39.5837 39.664 39.576 39.6595 39.5699C39.655 39.5637 39.6484 39.5595 39.641 39.5581C39.3174 39.4974 38.9964 39.4488 38.7129 39.2831C38.7045 39.2782 38.6976 39.271 38.6932 39.2623C38.6888 39.2536 38.687 39.2438 38.6881 39.2342C38.6893 39.2245 38.6932 39.2153 38.6995 39.2079C38.7058 39.2004 38.7141 39.195 38.7235 39.1923C38.8266 39.1616 38.9368 39.1456 39.054 39.1442C39.3168 39.1418 39.5825 39.1372 39.8511 39.1305C39.9725 39.1279 40.0839 39.1564 40.2047 39.1611C40.2099 39.1613 40.215 39.1601 40.2195 39.1576C40.224 39.1551 40.2277 39.1515 40.2303 39.147C40.2329 39.1426 40.2343 39.1375 40.2342 39.1324C40.2342 39.1273 40.2328 39.1222 40.2301 39.1178C40.1989 39.0672 40.1372 39.0582 40.0907 39.0254C39.799 38.8178 39.5563 38.5628 39.3628 38.2605C39.3139 38.1849 39.2762 38.1075 39.2498 38.0283C39.2178 37.9322 39.2451 37.9104 39.3316 37.9628C39.5449 38.0913 39.7432 38.2361 39.9266 38.3973C39.9427 38.411 39.9595 38.4122 39.9767 38.401C39.9856 38.3952 39.9923 38.3865 39.9954 38.3764C39.9986 38.3663 39.9982 38.3554 39.9941 38.3455C39.9461 38.2252 39.8727 38.1143 39.841 37.9897C39.8041 37.8455 39.797 37.6883 39.8199 37.5183C39.8217 37.506 39.827 37.4944 39.8353 37.485C39.8435 37.4757 39.8543 37.4689 39.8664 37.4655C39.8784 37.4622 39.8911 37.4624 39.903 37.4661C39.9149 37.4699 39.9255 37.477 39.9334 37.4867C40.0087 37.5792 40.0742 37.6725 40.1298 37.7664C40.2663 37.9984 40.4011 38.2415 40.5341 38.496C40.5465 38.5192 40.5621 38.5396 40.5811 38.5572C40.6367 38.6082 40.6637 38.5961 40.6619 38.5208C40.6556 38.2199 40.708 37.9225 40.8192 37.6287C40.8361 37.5836 40.8646 37.5516 40.9047 37.5326C40.9138 37.5283 40.9237 37.5258 40.9337 37.5252C40.9438 37.5247 40.9538 37.5261 40.9633 37.5295C40.9727 37.5328 40.9814 37.538 40.9889 37.5447C40.9963 37.5513 41.0023 37.5595 41.0066 37.5685C41.0738 37.7093 41.0977 37.8609 41.0784 38.0235C41.0703 38.0897 41.0694 38.1566 41.0758 38.2241C41.0793 38.2635 41.0925 38.2669 41.1153 38.2342C41.1343 38.2067 41.1474 38.1752 41.1544 38.1397C41.1724 38.052 41.2257 37.957 41.3059 37.9106C41.3108 37.9077 41.3164 37.9062 41.3221 37.9061C41.3278 37.906 41.3333 37.9074 41.3383 37.91C41.3433 37.9127 41.3475 37.9165 41.3505 37.9212C41.3535 37.926 41.3552 37.9314 41.3555 37.937C41.3819 38.4286 41.3536 38.8951 41.2705 39.3364Z" fill="white"/>
<path d="M40.7411 39.7587C40.9487 39.6806 41.1252 39.5398 41.2705 39.3364C41.2913 39.4113 41.3077 39.4701 41.3196 39.5127C41.3545 39.6346 41.3983 39.7259 41.4865 39.8247C41.6448 40.0017 41.8079 40.1688 41.9758 40.3262C42.0444 40.3906 42.0596 40.3798 42.0212 40.2939C41.8523 39.9176 41.8391 39.5649 41.8755 39.1638C41.9019 38.8687 41.8512 38.5477 41.7821 38.2674C41.781 38.2628 41.7818 38.2579 41.7844 38.2539C41.787 38.2498 41.7911 38.2469 41.7958 38.2458C41.819 38.2405 41.8385 38.247 41.8544 38.2653C42.0969 38.5479 42.2139 38.8808 42.2054 39.2641C42.1959 39.698 42.1833 40.1298 42.2978 40.5489C42.3115 40.5992 42.3413 40.642 42.387 40.6772C42.5436 40.7979 42.6923 40.9068 42.8331 41.004C42.8707 41.03 42.886 41.0654 42.879 41.1101C42.8758 41.1301 42.8626 41.1445 42.8394 41.1533C42.8329 41.156 42.8258 41.157 42.8187 41.1564C42.8116 41.1557 42.8048 41.1534 42.7988 41.1497C42.601 41.0251 42.3981 40.8825 42.1901 40.7221C41.9531 40.5399 41.1929 40.8092 40.9116 40.8984C40.5558 41.0113 40.172 40.9723 39.8347 40.8197C39.7824 40.796 39.7149 40.7833 39.6763 40.7384C39.6719 40.7332 39.669 40.7268 39.668 40.72C39.667 40.7132 39.668 40.7062 39.6707 40.6999C39.6735 40.6936 39.6779 40.6882 39.6836 40.6842C39.6892 40.6803 39.6959 40.6781 39.7027 40.6777C39.9925 40.6635 40.2813 40.664 40.5658 40.5706C40.9111 40.4571 41.223 40.3246 41.5878 40.3974C41.6659 40.4129 41.7418 40.4268 41.8153 40.4391C41.8505 40.4451 41.8553 40.4358 41.8296 40.4111C41.6758 40.2626 41.5296 40.1198 41.3909 39.9825C41.3302 39.9223 41.2621 39.8822 41.1718 39.8716C41.0286 39.8555 40.885 39.8178 40.7411 39.7587Z" fill="#71CCF8"/>
<path d="M13.5118 40.5352C13.6438 40.5674 13.7573 40.5948 13.8913 40.5948C16.3664 40.5962 18.8417 40.5955 21.3171 40.5927C21.6704 40.5924 22.0278 40.5945 22.3892 40.5991L22.3876 44.7461C22.3876 44.7531 22.3848 44.7598 22.3797 44.7648C22.3747 44.7697 22.3679 44.7725 22.3607 44.7725L13.5086 44.7604L13.5118 40.5352ZM15.438 41.6295C15.3444 41.5116 15.2429 41.4285 15.1335 41.3803C14.9719 41.3092 14.7947 41.3133 14.6019 41.3925C14.4755 41.4442 14.3689 41.5457 14.282 41.6971C14.2334 41.7815 14.2088 41.8878 14.2081 42.0159C14.2049 42.5406 14.2104 43.0277 14.2244 43.4771C14.2292 43.6376 14.2387 43.8709 14.3416 43.9992C14.4141 44.09 14.5148 44.1632 14.6436 44.2188C14.7442 44.2627 14.8488 44.2775 14.9571 44.2631C15.1838 44.2335 15.3527 44.1241 15.4639 43.9348C15.5248 43.8313 15.5568 43.7115 15.56 43.5753C15.573 43.0023 15.5755 42.4836 15.5674 42.0191C15.5646 41.8639 15.5215 41.734 15.438 41.6295Z" fill="#E5EBF9"/>
<path d="M23.616 40.5896C23.6174 42.2499 23.6188 43.9126 23.6202 45.5775C23.6202 45.7767 23.6501 45.9615 23.71 46.1318C23.6839 46.1674 23.6612 46.2078 23.6419 46.2532C23.5242 46.5314 23.2623 46.7521 22.982 46.8803C22.8567 46.9377 22.6641 46.9715 22.404 46.9817C22.025 46.9972 21.6423 46.9991 21.2559 46.9875C21.2921 46.9365 21.3621 46.9102 21.466 46.9088C21.5404 46.9078 21.6465 46.8671 21.703 46.8207C21.8112 46.7325 21.9405 46.6623 22.0287 46.5541C22.2562 46.2764 22.385 45.9745 22.3897 45.6271C22.3915 45.5237 22.3952 45.4213 22.4008 45.3199C22.4012 45.3141 22.4004 45.3082 22.3984 45.3027C22.3964 45.2972 22.3933 45.2922 22.3893 45.288C22.3853 45.2837 22.3804 45.2803 22.3751 45.278C22.3697 45.2757 22.3639 45.2745 22.3581 45.2745L13.5181 45.275L13.5086 44.7604L22.3607 44.7725C22.3679 44.7725 22.3747 44.7697 22.3797 44.7648C22.3848 44.7598 22.3876 44.7531 22.3876 44.7461L22.3892 40.5991L23.616 40.5896Z" fill="#CCD8E9"/>
<path d="M15.438 41.6295C15.5215 41.734 15.5646 41.8639 15.5674 42.0191C15.5755 42.4836 15.573 43.0023 15.56 43.5753C15.5568 43.7115 15.5248 43.8313 15.4639 43.9348C15.3527 44.1241 15.1838 44.2335 14.9571 44.2631C14.8488 44.2775 14.7442 44.2627 14.6436 44.2188C14.5148 44.1632 14.4141 44.09 14.3416 43.9992C14.2387 43.8709 14.2292 43.6376 14.2244 43.4771C14.2104 43.0277 14.2049 42.5406 14.2081 42.0159C14.2088 41.8878 14.2334 41.7815 14.282 41.6971C14.3689 41.5457 14.4755 41.4442 14.6019 41.3925C14.7947 41.3133 14.9719 41.3092 15.1335 41.3803C15.2429 41.4285 15.3444 41.5116 15.438 41.6295Z" fill="white"/>
<path d="M34.7665 43.9384C35.0611 44.7204 35.4156 45.4741 35.8302 46.1994C35.8436 46.2226 35.8564 46.249 35.8687 46.2786C35.6952 46.5833 35.4582 46.791 35.1577 46.9015C35.0077 46.9567 34.76 46.9859 34.4144 46.9891C33.4403 46.9979 32.4662 46.9986 31.492 46.9912C30.0882 46.981 28.6842 46.9757 27.28 46.9754C27.171 46.9697 27.0619 46.9671 26.9528 46.9674C26.9457 46.9674 26.9422 46.9639 26.9422 46.9569V46.9564C26.9422 46.9483 26.9462 46.9444 26.9543 46.9447C27.1159 46.9474 27.2748 46.9294 27.4368 46.9294C28.6196 46.9301 29.8074 46.9303 31 46.93C31.2531 46.9296 31.5272 46.9224 31.8225 46.9083C32.1857 46.8904 32.4537 46.8869 32.6264 46.8978C32.933 46.9171 33.2263 46.9152 33.5064 46.892C33.6556 46.8796 33.7897 46.8376 33.9087 46.7658C34.2893 46.5351 34.5427 46.2511 34.6504 45.814C34.6778 45.7028 34.6907 45.5184 34.6889 45.2608C34.6861 44.8417 34.6899 44.4185 34.7005 43.9912C34.7009 43.9715 34.7058 43.9571 34.7153 43.948C34.7294 43.9339 34.7464 43.9307 34.7665 43.9384Z" fill="#735EA0"/>
<path d="M13.5181 45.275L22.3581 45.2745C22.3639 45.2745 22.3697 45.2757 22.3751 45.278C22.3804 45.2803 22.3853 45.2837 22.3893 45.288C22.3933 45.2922 22.3964 45.2972 22.3984 45.3027C22.4004 45.3082 22.4012 45.3141 22.4008 45.3199C22.3952 45.4213 22.3915 45.5237 22.3897 45.6271C22.385 45.9745 22.2562 46.2764 22.0287 46.5541C21.9405 46.6623 21.8112 46.7325 21.703 46.8207C21.6465 46.8671 21.5404 46.9078 21.466 46.9088C21.3621 46.9102 21.2921 46.9365 21.2559 46.9875C19.2376 46.9833 17.2145 46.9826 15.1868 46.9854C14.8201 46.9857 14.5714 46.9643 14.4409 46.921C13.9378 46.7531 13.5429 46.2775 13.5065 45.7359C13.4956 45.5705 13.4995 45.4169 13.5181 45.275Z" fill="#E5EBF9"/>
</g>
<defs>
<filter id="filter0_dd_101_468" x="0.25" y="0" width="58.7632" height="62" filterUnits="userSpaceOnUse" color-interpolation-filters="sRGB">
<feFlood flood-opacity="0" result="BackgroundImageFix"/>
<feColorMatrix in="SourceAlpha" type="matrix" values="0 0 0 0 0 0 0 0 0 0 0 0 0 0 0 0 0 0 127 0" result="hardAlpha"/>
<feOffset dy="1"/>
<feGaussianBlur stdDeviation="1.5"/>
<feComposite in2="hardAlpha" operator="out"/>
<feColorMatrix type="matrix" values="0 0 0 0 0 0 0 0 0 0 0 0 0 0 0 0 0 0 0.3 0"/>
<feBlend mode="normal" in2="BackgroundImageFix" result="effect1_dropShadow_101_468"/>
<feColorMatrix in="SourceAlpha" type="matrix" values="0 0 0 0 0 0 0 0 0 0 0 0 0 0 0 0 0 0 127 0" result="hardAlpha"/>
<feMorphology radius="3" operator="dilate" in="SourceAlpha" result="effect2_dropShadow_101_468"/>
<feOffset dy="4"/>
<feGaussianBlur stdDeviation="4"/>
<feComposite in2="hardAlpha" operator="out"/>
<feColorMatrix type="matrix" values="0 0 0 0 0 0 0 0 0 0 0 0 0 0 0 0 0 0 0.15 0"/>
<feBlend mode="normal" in2="effect1_dropShadow_101_468" result="effect2_dropShadow_101_468"/>
<feBlend mode="normal" in="SourceGraphic" in2="effect2_dropShadow_101_468" result="shape"/>
</filter>
</defs>
</svg>
