<svg width="63" height="62" viewBox="0 0 63 62" fill="none" xmlns="http://www.w3.org/2000/svg">
<g id="Group 142" filter="url(#filter0_dd_7_509)">
<path id="Vector" opacity="0.992" fill-rule="evenodd" clip-rule="evenodd" d="M40.2969 11.7237C40.4892 12.2687 40.7236 12.7936 41 13.2982C41.2604 13.4288 41.3906 13.6388 41.3906 13.9281C41.7657 14.6321 41.8699 15.367 41.7031 16.1325C42.1245 16.6621 42.6193 17.1083 43.1875 17.4708C43.6502 16.5644 44.0929 15.6459 44.5156 14.7153C43.1018 13.7814 42.5159 12.4693 42.7578 10.7789C42.8309 10.4871 42.9741 10.2378 43.1875 10.031C43.4848 9.93865 43.7062 10.0305 43.8516 10.3066C43.8506 10.574 43.7985 10.8364 43.6953 11.0939C43.5502 12.2442 43.9538 13.1365 44.9062 13.7706C45.2518 13.1003 45.5773 12.418 45.8828 11.7237C46.1693 11.4088 46.4557 11.4088 46.7422 11.7237C46.7943 11.8811 46.7943 12.0386 46.7422 12.196C46.4557 12.7996 46.1693 13.4032 45.8828 14.0068C45.8294 14.1079 45.8424 14.1997 45.9219 14.2823C47.3347 14.7084 48.4024 14.2885 49.125 13.0227C49.53 12.82 49.7904 12.9381 49.9062 13.377C49.6138 14.236 49.0408 14.8265 48.1875 15.1483C47.2438 15.4043 46.3063 15.4043 45.375 15.1483C44.9027 16.0604 44.486 16.992 44.125 17.9432C44.9702 18.1657 45.8296 18.2313 46.7031 18.14C47.3199 17.9609 47.7887 17.5935 48.1094 17.0378C48.5373 16.8335 48.7977 16.9648 48.8906 17.4315C48.4151 18.4593 47.6078 19.0366 46.4688 19.1635C46.1042 19.216 45.7396 19.216 45.375 19.1635C44.7964 19.0566 44.2235 18.9517 43.6562 18.8486C43.4663 19.2007 43.284 19.555 43.1094 19.9114C42.6778 20.1937 42.3913 20.0887 42.25 19.5965C42.4107 19.1938 42.593 18.8001 42.7969 18.4156C42.4587 18.1537 42.1202 17.8912 41.7812 17.6283C41.7812 18.0744 41.7812 18.5205 41.7812 18.9667C41.7812 19.3078 41.7812 19.649 41.7812 19.9901C41.7812 20.0689 41.7812 20.1476 41.7812 20.2263C44.6719 20.2263 47.5625 20.2263 50.4531 20.2263C50.8515 19.1041 50.8645 17.9757 50.4922 16.841C50.3534 16.5701 50.1842 16.3208 49.9844 16.0931C50.8249 15.3298 51.3718 14.3982 51.625 13.2982C51.625 12.7471 51.625 12.196 51.625 11.645C51.4279 10.776 50.9591 10.0936 50.2188 9.59802C50.1034 7.97028 49.244 7.10427 47.6406 7C47.0331 7.01161 46.4863 7.19531 46 7.5511C43.7693 6.93622 42.1677 7.69726 41.1953 9.83421C40.9427 10.4379 40.8255 11.0678 40.8438 11.7237C40.6615 11.7237 40.4791 11.7237 40.2969 11.7237Z" fill="#566C03"/>
<path id="Vector_2" opacity="0.99" fill-rule="evenodd" clip-rule="evenodd" d="M19.2812 16.0537C19.3334 16.0537 19.3594 16.0799 19.3594 16.1325C19.4747 16.2899 19.6179 16.4212 19.7891 16.5261C19.8612 17.0818 19.9523 17.6329 20.0625 18.1794C20.128 18.2063 20.1541 18.2587 20.1406 18.3368C20.1406 18.3631 20.1406 18.3894 20.1406 18.4156C20.4197 19.0049 20.6802 19.6085 20.9219 20.2263C21.4688 20.2263 22.0156 20.2263 22.5625 20.2263C21.9739 18.7697 22.1823 17.4444 23.1875 16.2505C23.4466 16.2113 23.707 16.1982 23.9688 16.2112C23.9688 16.185 23.9688 16.1587 23.9688 16.1325C23.7588 16.1454 23.5505 16.1322 23.3438 16.0931C23.5439 15.8779 23.7523 15.6811 23.9688 15.5026C23.8376 15.4718 23.7073 15.4324 23.5781 15.3845C23.1557 15.3703 22.7391 15.3571 22.3281 15.3452C22.216 15.0977 22.1119 14.8484 22.0156 14.5973C22.8552 14.3056 23.6755 14.3449 24.4766 14.7154C24.4648 14.8733 24.4258 15.0307 24.3594 15.1877C25.0047 14.8572 25.6817 14.6211 26.3906 14.4792C25.9847 13.8589 25.568 13.2421 25.1406 12.6291C25.1609 12.5298 25.213 12.451 25.2969 12.3929C25.4687 12.2593 25.6509 12.1412 25.8438 12.0386C26.421 12.803 26.9939 13.564 27.5625 14.3217C26.9249 12.2488 25.9223 10.3856 24.5547 8.73202C23.9038 7.998 23.1095 7.48626 22.1719 7.19683C20.2316 6.97282 19.0467 7.82571 18.6172 9.75549C18.4246 10.724 18.3986 11.695 18.5391 12.6684C18.7005 13.8174 18.9478 14.9459 19.2812 16.0537Z" fill="#C39148"/>
<path id="Vector_3" fill-rule="evenodd" clip-rule="evenodd" d="M41.7031 16.1323C41.352 15.6088 41.1827 15.0314 41.1953 14.4002C41.2395 14.2253 41.3047 14.0678 41.3906 13.9279C41.3906 13.6386 41.2604 13.4286 41 13.298C40.7195 13.3015 40.5242 13.4327 40.4141 13.6917C40.0828 15.275 40.5386 16.5871 41.7812 17.6281C42.1202 17.891 42.4587 18.1535 42.7969 18.4154C42.593 18.8 42.4107 19.1936 42.25 19.5963C42.3913 20.0885 42.6778 20.1935 43.1094 19.9112C43.284 19.5548 43.4662 19.2005 43.6562 18.8484C44.2235 18.9515 44.7964 19.0565 45.375 19.1633C45.7396 19.2158 46.1042 19.2158 46.4688 19.1633C47.6078 19.0365 48.4151 18.4591 48.8906 17.4313C48.7977 16.9646 48.5373 16.8333 48.1094 17.0376C47.7887 17.5933 47.3199 17.9607 46.7031 18.1398C45.8296 18.2311 44.9702 18.1655 44.125 17.943C44.486 16.9918 44.9027 16.0602 45.375 15.1482C46.3063 15.4041 47.2438 15.4041 48.1875 15.1482C49.0408 14.8263 49.6138 14.2358 49.9062 13.3768C49.7904 12.9379 49.53 12.8198 49.125 13.0225C48.4024 14.2883 47.3347 14.7082 45.9219 14.2821C45.8424 14.1995 45.8294 14.1077 45.8828 14.0066C46.1693 13.403 46.4557 12.7994 46.7422 12.1959C46.7943 12.0384 46.7943 11.8809 46.7422 11.7235C46.4557 11.4086 46.1693 11.4086 45.8828 11.7235C45.5773 12.4178 45.2518 13.1001 44.9062 13.7704C43.9538 13.1363 43.5502 12.244 43.6953 11.0937C43.7985 10.8362 43.8506 10.5738 43.8516 10.3064C43.7062 10.0303 43.4848 9.93846 43.1875 10.0308C42.9741 10.2376 42.8309 10.4869 42.7578 10.7788C42.5159 12.4691 43.1018 13.7812 44.5156 14.7152C44.0929 15.6457 43.6502 16.5642 43.1875 17.4706C42.6193 17.1081 42.1245 16.6619 41.7031 16.1323Z" fill="#425102"/>
<path id="Rectangle 55" d="M20.125 22H49.625L46.125 35.5H21.625L20.125 22Z" fill="white"/>
<path id="Vector_4" opacity="0.999" fill-rule="evenodd" clip-rule="evenodd" d="M39.5938 10.464C36.3902 10.4378 33.1871 10.464 29.9844 10.5428C30.6787 11.9029 31.3818 13.2544 32.0938 14.5972C35.3157 16.0765 38.5448 17.5329 41.7812 18.9667C41.7812 18.5205 41.7812 18.0744 41.7812 17.6283C40.5386 16.5873 40.0828 15.2752 40.4141 13.6919C40.5242 13.4329 40.7195 13.3017 41 13.2982C40.7236 12.7936 40.4892 12.2687 40.2969 11.7237C40.0241 11.3321 39.7898 10.9122 39.5938 10.464Z" fill="#8EB1C3"/>
<path id="Vector_5" opacity="0.995" fill-rule="evenodd" clip-rule="evenodd" d="M27.9531 14.4004C28.0052 14.4004 28.0312 14.4267 28.0312 14.4792C29.0467 14.5452 29.9321 14.9126 30.6875 15.5813C30.9414 15.7186 31.1628 15.9023 31.3516 16.1324C31.6672 16.5599 31.9406 17.0059 32.1719 17.4708C32.1719 16.8935 32.1719 16.3161 32.1719 15.7388C35.3837 17.134 38.5868 18.5511 41.7812 19.9901C41.7812 19.649 41.7812 19.3078 41.7812 18.9667C38.5448 17.5329 35.3157 16.0765 32.0938 14.5972C31.3818 13.2544 30.6787 11.9029 29.9844 10.5428C33.1871 10.464 36.3902 10.4378 39.5938 10.464C39.5938 9.8342 39.5938 9.20438 39.5938 8.57455C36.3646 8.57455 33.1354 8.57455 29.9062 8.57455C29.9192 9.23115 29.9062 9.88721 29.8672 10.5428C29.2281 11.8307 28.5901 13.1166 27.9531 14.4004Z" fill="#C5CCC8"/>
<path id="Vector_6" fill-rule="evenodd" clip-rule="evenodd" d="M22.3281 10.9364C21.8847 10.9233 21.442 10.9364 21 10.9757C20.8353 11.0041 20.6791 11.0566 20.5312 11.1332C20.6542 11.4135 20.7844 11.689 20.9219 11.9598C21.5055 11.8337 22.0784 11.8731 22.6406 12.0779C23.1671 12.3596 23.662 12.6876 24.125 13.062C24.3334 12.8259 24.5416 12.5897 24.75 12.3535C24.0445 11.6965 23.2373 11.2241 22.3281 10.9364Z" fill="#F7B030"/>
<path id="Vector_7" fill-rule="evenodd" clip-rule="evenodd" d="M26.3906 14.4792C26.7008 14.8582 27.0002 15.2519 27.2891 15.6601C27.5436 15.4727 27.7909 15.2759 28.0312 15.0696C27.901 14.8859 27.7709 14.7022 27.6406 14.5185C27.7683 14.4797 27.8985 14.4665 28.0312 14.4792C28.0312 14.4267 28.0052 14.4004 27.9531 14.4004C27.8131 14.411 27.683 14.3847 27.5625 14.3217C26.9939 13.564 26.421 12.803 25.8438 12.0386C25.6509 12.1412 25.4687 12.2593 25.2969 12.3929C25.213 12.451 25.1609 12.5297 25.1406 12.629C25.568 13.2421 25.9847 13.8588 26.3906 14.4792Z" fill="#445203"/>
<path id="Vector_8" opacity="0.984" fill-rule="evenodd" clip-rule="evenodd" d="M11.625 13.1407C11.625 13.4031 11.625 13.6656 11.625 13.928C11.8331 14.2048 12.0935 14.4279 12.4062 14.5972C14.1318 15.6568 15.8375 16.7458 17.5234 17.8644C18.6784 25.1105 19.8503 32.3535 21.0391 39.5933C21.6064 41.0437 22.6611 41.8572 24.2031 42.0339C24.7764 41.9329 25.3494 41.9329 25.9219 42.0339C31.4427 42.0339 36.9635 42.0339 42.4844 42.0339C42.9769 41.9741 43.4716 41.9479 43.9688 41.9552C44.7289 41.71 45.0284 41.1851 44.8672 40.3806C44.7164 39.9399 44.4169 39.6643 43.9688 39.554C37.3281 39.5278 30.6875 39.5015 24.0469 39.4752C23.7784 39.3882 23.583 39.2176 23.4609 38.9635C23.3277 38.499 23.2366 38.0266 23.1875 37.5464C31.0775 37.6482 38.9681 37.6876 46.8594 37.6645C47.2557 37.5538 47.5292 37.3046 47.6797 36.9166C48.9236 31.7584 50.1606 26.6017 51.3906 21.4465C51.359 21.112 51.2418 20.8102 51.0391 20.5412C50.8705 20.3841 50.6752 20.2791 50.4531 20.2262C47.5625 20.2262 44.6719 20.2262 41.7812 20.2262C38.5781 20.2262 35.375 20.2262 32.1719 20.2262C30.2709 20.2262 28.3698 20.2262 26.4688 20.2262C25.1666 20.2262 23.8646 20.2262 22.5625 20.2262C22.0156 20.2262 21.4688 20.2262 20.9219 20.2262C20.7396 20.2262 20.5573 20.2262 20.375 20.2262C20.3041 19.6216 20.226 19.018 20.1406 18.4155C20.1406 18.3893 20.1406 18.363 20.1406 18.3368C20.0752 18.3098 20.0491 18.2574 20.0625 18.1793C19.9523 17.6328 19.8612 17.0817 19.7891 16.526C19.6179 16.4211 19.4747 16.2898 19.3594 16.1324C19.3073 16.1324 19.2812 16.1062 19.2812 16.0537C17.2934 14.8286 15.3141 13.582 13.3438 12.3141C12.5166 12.0617 11.9437 12.3373 11.625 13.1407ZM48.5781 22.7455C47.6285 22.6672 46.6649 22.6409 45.6875 22.6668C45.603 23.4271 45.5248 24.1882 45.4531 24.9499C46.3125 24.9499 47.1719 24.9499 48.0312 24.9499C48.1665 24.1947 48.3488 23.4598 48.5781 22.7455ZM43.2656 22.7455C42.4202 22.6672 41.5609 22.641 40.6875 22.6668C40.6257 23.4269 40.5736 24.1879 40.5312 24.9499C41.3385 24.9499 42.1459 24.9499 42.9531 24.9499C43.02 24.1992 43.1242 23.4643 43.2656 22.7455ZM38.1875 22.6668C37.3802 22.6668 36.5729 22.6668 35.7656 22.6668C35.7656 23.4279 35.7656 24.1889 35.7656 24.9499C36.5227 24.9761 37.2778 24.9498 38.0312 24.8712C38.1156 24.1406 38.1677 23.4058 38.1875 22.6668ZM33.2656 22.6668C32.3541 22.6668 31.4427 22.6668 30.5312 22.6668C30.5764 23.4285 30.6285 24.1895 30.6875 24.9499C31.5469 24.9499 32.4062 24.9499 33.2656 24.9499C33.2656 24.1889 33.2656 23.4279 33.2656 22.6668ZM28.1094 22.6668C27.25 22.6668 26.3906 22.6668 25.5312 22.6668C25.6158 23.4272 25.6939 24.1882 25.7656 24.9499C26.5729 24.9499 27.3802 24.9499 28.1875 24.9499C28.1517 24.1893 28.1257 23.4283 28.1094 22.6668ZM23.0312 22.6668C22.3021 22.6668 21.5729 22.6668 20.8438 22.6668C20.9224 23.4313 21.0266 24.1924 21.1562 24.9499C21.8859 24.963 22.6151 24.9499 23.3438 24.9106C23.2047 24.1706 23.1005 23.4227 23.0312 22.6668ZM47.4062 27.4692C46.625 27.4692 45.8438 27.4692 45.0625 27.4692C45.0036 28.2323 44.9255 28.9934 44.8281 29.7523C45.5072 29.7784 46.1843 29.7522 46.8594 29.6736C47.0418 28.9382 47.2241 28.2034 47.4062 27.4692ZM42.6406 27.4692C41.8854 27.4692 41.1302 27.4692 40.375 27.4692C40.3132 28.2293 40.2611 28.9903 40.2188 29.7523C40.9219 29.7523 41.625 29.7523 42.3281 29.7523C42.4178 28.9883 42.522 28.2272 42.6406 27.4692ZM37.875 27.4692C37.1459 27.4692 36.4166 27.4692 35.6875 27.4692C35.6875 28.2303 35.6875 28.9913 35.6875 29.7523C36.3906 29.7523 37.0938 29.7523 37.7969 29.7523C37.8132 28.9909 37.8392 28.2298 37.875 27.4692ZM33.2656 27.4692C32.4584 27.4692 31.651 27.4692 30.8438 27.4692C30.8861 28.2312 30.9382 28.9923 31 29.7523C31.7291 29.7523 32.4584 29.7523 33.1875 29.7523C33.2038 28.9909 33.2298 28.2298 33.2656 27.4692ZM28.3438 27.4692C27.6146 27.4692 26.8854 27.4692 26.1562 27.4692C26.227 28.2309 26.3052 28.992 26.3906 29.7523C27.0938 29.7523 27.7969 29.7523 28.5 29.7523C28.477 28.9873 28.4249 28.2263 28.3438 27.4692ZM23.6562 27.4692C22.9512 27.4431 22.248 27.4694 21.5469 27.5479C21.6855 28.2551 21.8157 28.9636 21.9375 29.6736C22.5865 29.7522 23.2375 29.7784 23.8906 29.7523C23.8189 28.9906 23.7408 28.2296 23.6562 27.4692ZM46.2344 32.1929C45.6591 32.1668 45.0862 32.1931 44.5156 32.2716C44.3599 33.2645 44.2297 34.2618 44.125 35.2633C44.5966 35.2892 45.0654 35.263 45.5312 35.1846C45.7904 34.1927 46.0247 33.1954 46.2344 32.1929ZM42.0156 32.1929C41.3646 32.1929 40.7135 32.1929 40.0625 32.1929C39.9862 33.1887 39.9341 34.1859 39.9062 35.1846C40.4791 35.1846 41.0521 35.1846 41.625 35.1846C41.7552 34.1873 41.8854 33.1901 42.0156 32.1929ZM37.5625 32.1929C36.9178 32.168 36.2798 32.1943 35.6484 32.2716C35.6094 33.2423 35.5963 34.2132 35.6094 35.1846C36.2084 35.1846 36.8073 35.1846 37.4062 35.1846C37.4778 34.1885 37.5298 33.1913 37.5625 32.1929ZM33.1875 32.1929C32.5104 32.1929 31.8334 32.1929 31.1562 32.1929C31.2118 33.1899 31.2639 34.1872 31.3125 35.1846C31.9375 35.1846 32.5625 35.1846 33.1875 35.1846C33.1875 34.1873 33.1875 33.1901 33.1875 32.1929ZM28.6562 32.1929C28.0031 32.1668 27.3521 32.1931 26.7031 32.2716C26.8478 33.2136 26.978 34.1583 27.0938 35.1058C27.6933 35.1189 28.2923 35.1058 28.8906 35.0665C28.8006 34.1134 28.7225 33.1555 28.6562 32.1929ZM24.2812 32.1929C23.6302 32.1929 22.9791 32.1929 22.3281 32.1929C22.4675 33.1407 22.6238 34.0854 22.7969 35.0271C23.3936 35.1056 23.9925 35.1319 24.5938 35.1058C24.4749 34.1365 24.3708 33.1655 24.2812 32.1929Z" fill="#F8B030"/>
<path id="Vector_9" fill-rule="evenodd" clip-rule="evenodd" d="M41.3908 13.9281C41.3048 14.068 41.2397 14.2255 41.1955 14.4004C41.1829 15.0316 41.3522 15.609 41.7033 16.1325C41.8701 15.367 41.7659 14.6322 41.3908 13.9281Z" fill="#8AABB8"/>
<path id="Vector_10" fill-rule="evenodd" clip-rule="evenodd" d="M23.9688 15.5025C24.1163 15.4156 24.2465 15.3106 24.3594 15.1876C24.4258 15.0306 24.4648 14.8731 24.4766 14.7152C23.6755 14.3448 22.8552 14.3054 22.0156 14.5971C22.1119 14.8483 22.216 15.0976 22.3281 15.345C22.7391 15.357 23.1557 15.3702 23.5781 15.3844C23.7073 15.4323 23.8376 15.4716 23.9688 15.5025Z" fill="#F7AF30"/>
<path id="Vector_11" fill-rule="evenodd" clip-rule="evenodd" d="M28.0312 14.4794C27.8985 14.4668 27.7683 14.4799 27.6406 14.5187C27.7709 14.7024 27.901 14.8862 28.0312 15.0698C27.7909 15.2761 27.5436 15.4729 27.2891 15.6603C27.0002 15.2521 26.7008 14.8584 26.3906 14.4794C25.6817 14.6213 25.0047 14.8574 24.3594 15.1879C24.2465 15.311 24.1163 15.4159 23.9688 15.5028C23.7523 15.6813 23.5439 15.8781 23.3438 16.0933C23.5505 16.1324 23.7588 16.1456 23.9688 16.1327C24.3073 16.1327 24.6459 16.1327 24.9844 16.1327C24.9976 16.6068 25.0366 17.0792 25.1016 17.5498C25.543 17.1707 25.9727 16.777 26.3906 16.3688C26.7412 16.9932 27.0407 17.6492 27.2891 18.337C27.6276 17.681 27.9662 17.0249 28.3047 16.3688C28.8776 16.7887 29.4505 17.2086 30.0234 17.6285C30.0786 16.8884 30.1698 16.1537 30.2969 15.4241C30.4199 15.4994 30.5502 15.5519 30.6875 15.5816C29.9321 14.9128 29.0467 14.5454 28.0312 14.4794Z" fill="#576C04"/>
<path id="Vector_12" fill-rule="evenodd" clip-rule="evenodd" d="M23.9689 16.1324C23.9689 16.1587 23.9689 16.185 23.9689 16.2112C23.9213 17.5717 24.4162 18.687 25.4533 19.5571C25.7969 19.782 26.1355 20.0052 26.4689 20.2263C28.3699 20.2263 30.271 20.2263 32.172 20.2263C32.3548 19.3049 32.3548 18.3864 32.172 17.4708C31.9408 17.0059 31.6673 16.5599 31.3517 16.1324C31.163 15.9023 30.9416 15.7186 30.6877 15.5813C30.5503 15.5517 30.4201 15.4992 30.297 15.4239C30.1699 16.1535 30.0788 16.8882 30.0236 17.6283C29.4507 17.2084 28.8777 16.7885 28.3048 16.3686C27.9663 17.0247 27.6277 17.6808 27.2892 18.3368C27.0409 17.649 26.7413 16.9929 26.3908 16.3686C25.9728 16.7768 25.5431 17.1705 25.1017 17.5495C25.0368 17.079 24.9977 16.6066 24.9845 16.1324C24.646 16.1324 24.3074 16.1324 23.9689 16.1324Z" fill="#DA3643"/>
<path id="Vector_13" fill-rule="evenodd" clip-rule="evenodd" d="M32.1719 17.4708C32.3546 18.3864 32.3546 19.3049 32.1719 20.2263C35.375 20.2263 38.5781 20.2263 41.7812 20.2263C41.7812 20.1476 41.7812 20.0689 41.7812 19.9901C38.5868 18.5511 35.3837 17.134 32.1719 15.7388C32.1719 16.3161 32.1719 16.8935 32.1719 17.4708Z" fill="#8EB1C3"/>
<path id="Vector_14" fill-rule="evenodd" clip-rule="evenodd" d="M23.9688 16.2111C23.707 16.1981 23.4466 16.2113 23.1875 16.2505C22.1823 17.4443 21.9739 18.7696 22.5625 20.2262C23.8646 20.2262 25.1666 20.2262 26.4688 20.2262C26.1353 20.0051 25.7967 19.782 25.4531 19.557C24.416 18.6869 23.9212 17.5717 23.9688 16.2111Z" fill="#BC2C3D"/>
<path id="Vector_15" opacity="0.985" fill-rule="evenodd" clip-rule="evenodd" d="M43.9688 41.9555C43.4717 41.9481 42.9769 41.9743 42.4844 42.0342C40.8988 42.9311 40.4952 44.2169 41.2735 45.8919C42.0218 46.8778 42.9984 47.2058 44.2031 46.876C45.6521 46.1992 46.1599 45.0839 45.7266 43.53C45.3823 42.7218 44.7963 42.1969 43.9688 41.9555Z" fill="#4A6692"/>
<path id="Vector_16" opacity="0.985" fill-rule="evenodd" clip-rule="evenodd" d="M24.2031 42.0339C22.8252 42.7649 22.3434 43.8934 22.7578 45.4193C23.4227 46.7371 24.4774 47.2225 25.9219 46.8757C27.5809 46.0329 28.0106 44.7601 27.2109 43.0574C26.8855 42.5732 26.4558 42.2321 25.9219 42.0339C25.3494 41.9329 24.7764 41.9329 24.2031 42.0339Z" fill="#4A6792"/>
</g>
<defs>
<filter id="filter0_dd_7_509" x="0.625" y="0" width="62" height="62" filterUnits="userSpaceOnUse" color-interpolation-filters="sRGB">
<feFlood flood-opacity="0" result="BackgroundImageFix"/>
<feColorMatrix in="SourceAlpha" type="matrix" values="0 0 0 0 0 0 0 0 0 0 0 0 0 0 0 0 0 0 127 0" result="hardAlpha"/>
<feOffset dy="1"/>
<feGaussianBlur stdDeviation="1.5"/>
<feComposite in2="hardAlpha" operator="out"/>
<feColorMatrix type="matrix" values="0 0 0 0 0 0 0 0 0 0 0 0 0 0 0 0 0 0 0.3 0"/>
<feBlend mode="normal" in2="BackgroundImageFix" result="effect1_dropShadow_7_509"/>
<feColorMatrix in="SourceAlpha" type="matrix" values="0 0 0 0 0 0 0 0 0 0 0 0 0 0 0 0 0 0 127 0" result="hardAlpha"/>
<feMorphology radius="3" operator="dilate" in="SourceAlpha" result="effect2_dropShadow_7_509"/>
<feOffset dy="4"/>
<feGaussianBlur stdDeviation="4"/>
<feComposite in2="hardAlpha" operator="out"/>
<feColorMatrix type="matrix" values="0 0 0 0 0 0 0 0 0 0 0 0 0 0 0 0 0 0 0.15 0"/>
<feBlend mode="normal" in2="effect1_dropShadow_7_509" result="effect2_dropShadow_7_509"/>
<feBlend mode="normal" in="SourceGraphic" in2="effect2_dropShadow_7_509" result="shape"/>
</filter>
</defs>
</svg>
