<svg width="57" height="62" viewBox="0 0 57 62" fill="none" xmlns="http://www.w3.org/2000/svg">
<g filter="url(#filter0_dd_75_565)">
<path d="M37.3751 13.3763C37.4212 13.8786 37.4974 14.3689 37.5255 14.8772C37.601 16.2341 37.8266 17.4713 38.2023 18.5889C38.4362 19.2847 38.877 19.9043 39.5247 20.4477C39.5535 20.4965 39.6287 20.5537 39.7503 20.6192L40.8311 21.4443L41.1379 21.696C41.8999 22.2855 42.5914 22.9472 43.2123 23.6811C43.7397 24.3128 44.1868 25.0093 44.5538 25.7706L45.032 27.1943L45.1133 28.0254C45.1373 29.0668 44.9792 30.0714 44.639 31.0393C44.2921 32.0258 43.746 32.8707 43.0008 33.5739L42.5135 34.027C42.1639 34.2623 41.83 34.4785 41.5119 34.6757C41.0841 34.9411 40.6276 35.146 40.1423 35.2903C40.3027 33.7029 40.3011 32.2711 40.1373 30.9952C39.637 27.081 36.5921 24.1504 32.703 23.4495C32.6549 23.374 32.6234 23.2741 32.6087 23.1498C32.4924 22.1725 32.4289 21.1706 32.4182 20.1439C32.4149 19.8378 32.437 19.5387 32.4844 19.2466C32.4901 19.2116 32.503 19.1781 32.5224 19.1484C32.5417 19.1187 32.567 19.0934 32.5967 19.0742C33.6053 18.4174 33.9793 17.3096 33.4509 16.1927C33.3467 15.9701 33.2263 15.7666 32.9957 15.6513C32.8855 15.5958 32.8163 15.6285 32.7882 15.7495C32.5837 16.6285 32.2481 17.4733 31.7816 18.2841C31.7784 18.2896 31.7739 18.2941 31.7684 18.2972C31.7629 18.3003 31.7566 18.3018 31.7502 18.3017C31.7438 18.3016 31.7375 18.2999 31.7319 18.2966C31.7264 18.2933 31.7217 18.2887 31.7184 18.2831C30.8027 16.6843 29.5394 15.7164 27.9286 15.3795C26.5169 15.0848 25.2967 14.4351 24.4656 13.3352C24.4361 13.2965 24.4117 13.2995 24.3924 13.3443C23.3637 15.7876 23.466 18.256 24.9187 20.5109C25.8893 22.0188 27.4072 22.7547 29.2059 22.2444C29.2099 22.2433 29.2141 22.2432 29.2182 22.244C29.2222 22.2448 29.226 22.2465 29.2293 22.249C29.2326 22.2516 29.2353 22.2548 29.2372 22.2585C29.239 22.2622 29.24 22.2663 29.24 22.2705L29.2309 22.9753C27.8641 22.873 26.4988 22.9335 25.1353 23.1568C25.0123 23.0151 24.8843 22.8687 24.7513 22.7176C24.0348 21.9015 23.1755 21.4437 22.1736 21.3441C19.8876 21.1165 18.0609 22.8199 17.5887 24.9915C17.3768 25.9654 17.3267 26.9553 17.4383 27.9613C17.1315 28.4158 16.9129 28.8265 16.7826 29.1935C16.1897 30.8571 15.8906 32.6328 15.8852 34.5203C15.7369 34.4241 15.531 34.278 15.2676 34.0822C14.5331 33.5361 13.8941 32.9279 13.3506 32.2574C12.9697 31.7862 12.6689 31.2328 12.4022 30.6904C12.3968 30.6783 12.3881 30.675 12.3761 30.6803H12.3751C12.3631 30.6857 12.3594 30.6944 12.3641 30.7064C13.0308 32.5442 14.0886 34 15.8762 34.8752C15.9136 34.9334 15.9187 35.0203 15.8913 35.1359C14.5003 34.4902 13.4559 33.5107 12.7581 32.1973C11.9901 30.7509 11.6609 29.1677 11.7705 27.4479C11.7919 27.2815 11.8137 27.106 11.8357 26.9216C11.9714 25.796 12.333 24.7492 12.9205 23.7814C13.2046 23.3135 13.6026 22.861 14.1146 22.4239L14.245 22.3056L15.5022 21.4463C15.6647 21.3654 15.7736 21.2822 15.8291 21.1967C17.2147 20.1747 18.3363 18.9558 19.1938 17.5402L19.3563 17.1882L19.6962 16.5787C19.9829 15.9684 20.1908 15.41 20.3198 14.9033C20.5764 13.8897 20.7218 12.7186 21.0066 11.5817C21.1108 11.1639 21.2649 10.7612 21.4688 10.3735C22.2127 8.96085 23.6254 8.74429 25.0882 8.98191C25.1256 8.98859 25.159 8.9799 25.1884 8.95584C26.8036 7.64142 28.85 6.76715 30.9113 7.0549C31.8805 7.19058 32.7678 7.4683 33.5732 7.88806C35.776 9.03705 36.9771 10.956 37.3751 13.3763ZM36.8056 13.4555C36.9768 14.3793 37.1556 15.3037 37.342 16.2288C37.4189 16.6091 37.5101 16.9857 37.6158 17.3587C37.6178 17.3667 37.6228 17.3697 37.6308 17.3677C37.6388 17.3657 37.6422 17.3607 37.6408 17.3527C37.4343 16.2344 37.2812 15.1085 37.1816 13.9749C37.1529 13.6521 37.1285 13.4495 37.1084 13.3673C37.0623 12.9349 36.9724 12.5091 36.8387 12.09C36.2639 10.2893 35.1397 8.95751 33.466 8.0946C33.4613 8.09193 33.4576 8.09293 33.4549 8.09761C33.4529 8.10028 33.4523 8.10362 33.4529 8.10763C33.4543 8.11766 33.4593 8.12602 33.468 8.1327C34.9578 9.26364 35.9768 10.7412 36.5249 12.5652C36.6138 12.8627 36.7074 13.1594 36.8056 13.4555ZM19.5999 17.2855C19.5023 17.4332 19.4081 17.5856 19.3172 17.7427C18.8553 18.5421 18.3236 19.2406 17.722 19.8381C17.6184 19.9411 17.6281 19.9528 17.7511 19.8732C17.8995 19.777 18.0288 19.6517 18.1702 19.5444C18.9211 18.9809 19.5528 18.2721 19.8796 17.3848C20.0447 16.9349 20.168 16.4954 20.2496 16.0663C20.283 15.8919 20.262 15.8852 20.1864 16.0463C20.0654 16.3016 19.9518 16.5603 19.8455 16.8223C19.78 16.9834 19.6982 17.1378 19.5999 17.2855ZM41.0898 34.6637C42.0403 34.1203 42.9947 33.4195 43.6033 32.5041C43.9021 32.0549 44.1461 31.6335 44.3352 31.2398C44.3419 31.2264 44.3386 31.2161 44.3252 31.2087H44.3242C44.3115 31.2014 44.3015 31.204 44.2941 31.2167C43.489 32.5873 42.3581 33.6571 41.0657 34.6326C41.0564 34.6393 41.0547 34.6473 41.0607 34.6567L41.0617 34.6577C41.0691 34.6684 41.0784 34.6704 41.0898 34.6637Z" fill="#34104D"/>
<path d="M32.703 23.4495C32.7625 23.7443 32.8657 24.0952 33.0128 24.5023C33.3467 25.4267 32.6619 26.1566 31.8057 26.4784C31.0888 26.7491 30.386 26.698 29.6079 26.5045C29.0913 26.3755 28.7357 26.184 28.5412 25.93C27.9857 25.2031 28.6735 24.2987 29.0786 23.623C29.1487 23.5067 29.1995 23.2908 29.2309 22.9753L29.24 22.2705C29.24 22.2663 29.239 22.2622 29.2372 22.2585C29.2353 22.2548 29.2326 22.2516 29.2293 22.249C29.226 22.2465 29.2222 22.2448 29.2182 22.244C29.2141 22.2432 29.2099 22.2433 29.2059 22.2444C27.4072 22.7547 25.8893 22.0188 24.9187 20.5109C23.466 18.256 23.3637 15.7876 24.3924 13.3443C24.4117 13.2995 24.4361 13.2965 24.4656 13.3352C25.2967 14.4351 26.5169 15.0848 27.9286 15.3795C29.5394 15.7164 30.8027 16.6843 31.7184 18.2831C31.7217 18.2887 31.7264 18.2933 31.7319 18.2966C31.7375 18.2999 31.7438 18.3016 31.7502 18.3017C31.7566 18.3018 31.7629 18.3003 31.7684 18.2972C31.7739 18.2941 31.7784 18.2896 31.7816 18.2841C32.2481 17.4733 32.5837 16.6285 32.7882 15.7495C32.8163 15.6285 32.8855 15.5958 32.9957 15.6513C33.2263 15.7666 33.3467 15.9701 33.4509 16.1927C33.9793 17.3096 33.6053 18.4174 32.5967 19.0742C32.567 19.0934 32.5417 19.1187 32.5224 19.1484C32.503 19.1781 32.4901 19.2116 32.4844 19.2466C32.437 19.5387 32.4149 19.8378 32.4182 20.1439C32.4289 21.1706 32.4924 22.1725 32.6087 23.1498C32.6234 23.2741 32.6549 23.374 32.703 23.4495Z" fill="#FBCCA9"/>
<path d="M25.1353 23.1568C25.5611 23.8305 25.8308 24.3065 25.9444 24.5845C26.1329 25.0444 26.3221 25.4885 26.5119 25.917C26.804 26.5733 27.2147 27.1097 27.7441 27.5262C28.6855 28.2671 29.8666 28.7664 30.9705 29.2276C31.3882 29.4027 31.8344 29.6851 32.309 30.0748C32.7621 30.4631 33.1555 30.8876 33.489 31.3481C34.0304 32.0954 34.3436 32.9436 34.4285 33.8927C34.242 34.8806 33.8319 35.7719 33.1983 36.5667C32.5245 37.4129 31.6512 37.979 30.5785 38.2651C29.3212 38.6 27.9015 38.5137 26.6512 38.238C25.3946 37.9606 24.1825 37.5539 23.0148 37.0178C22.7748 36.6696 22.5248 36.3321 22.2648 36.0052C22.0436 35.7272 21.7909 35.4621 21.5069 35.2101C21.1145 34.8619 20.7586 34.4843 20.4391 34.0772C20.3067 33.9078 19.9378 33.597 19.7583 33.8466C19.7383 33.874 19.7296 33.9044 19.7323 33.9378L19.7443 34.1143C19.7563 34.2814 19.7206 34.2921 19.637 34.1464L18.5853 32.3016C17.9376 30.9801 17.5552 29.5334 17.4383 27.9613C17.3267 26.9553 17.3768 25.9654 17.5887 24.9915C18.0609 22.8199 19.8876 21.1165 22.1736 21.3441C23.1755 21.4437 24.0348 21.9015 24.7513 22.7176C24.8843 22.8687 25.0123 23.0151 25.1353 23.1568ZM19.2039 25.929C19.1671 26.4357 19.3279 26.97 19.6861 27.5322C20.1393 28.2434 20.6453 28.7757 21.2041 29.1293C21.7585 29.4792 22.2699 29.5925 22.9095 29.6397C23.3116 29.6697 23.7096 29.6617 24.1026 29.7459C25.0601 29.9515 26.1961 30.3244 26.955 30.939C27.2003 31.1376 27.4523 31.3661 27.711 31.6248C27.721 31.6342 27.7311 31.6342 27.7411 31.6248L27.7661 31.6008C27.7688 31.5981 27.7688 31.5951 27.7661 31.5917C27.2341 30.9173 26.6436 30.3736 25.9945 29.9605C25.4271 29.5985 24.8816 29.4452 24.26 29.2938C24.2079 29.2811 24.2019 29.257 24.242 29.2216C24.8085 28.7213 25.0751 28.0144 25.1624 27.3106C25.28 26.3581 25.1376 25.4715 24.7353 24.6507C24.3088 23.8011 23.7039 23.2424 22.9205 22.9743C21.4958 22.4871 20.028 23.0204 19.4134 24.4522C19.2296 24.8799 19.1598 25.3722 19.2039 25.929Z" fill="#4FB0D4"/>
<path d="M24.7353 24.6507C24.9298 25.2877 25.0177 25.9397 24.9989 26.6068C24.9739 27.5021 24.5779 28.635 23.7317 29.0511C22.4914 29.6617 21.1209 29.0451 20.2626 28.0214C19.8245 27.4991 19.4305 26.8775 19.2951 26.2629C19.2697 26.1499 19.2393 26.0386 19.2039 25.929C19.1598 25.3722 19.2296 24.8799 19.4134 24.4522C20.028 23.0204 21.4958 22.4871 22.9205 22.9743C23.7039 23.2424 24.3088 23.8011 24.7353 24.6507Z" fill="#FBCCA9"/>
<path d="M29.2309 22.9753C29.1995 23.2908 29.1487 23.5067 29.0786 23.623C28.6735 24.2987 27.9857 25.2031 28.5412 25.93C28.7357 26.184 29.0913 26.3755 29.6079 26.5045C30.386 26.698 31.0888 26.7491 31.8057 26.4784C32.6619 26.1566 33.3467 25.4267 33.0128 24.5023C32.8657 24.0952 32.7625 23.7443 32.703 23.4495C36.5921 24.1504 39.637 27.081 40.1373 30.9952C40.3011 32.2711 40.3027 33.7029 40.1423 35.2903L39.8285 36.9817C39.7964 37.0626 39.7951 37.1395 39.8245 37.2123C39.7643 37.3453 39.6648 37.6187 39.5257 38.0325C39.1848 39.0464 38.6575 39.9685 37.9436 40.7987C37.1683 41.6903 36.2783 42.3557 35.2737 42.7949C34.7617 43.0181 34.0986 43.2621 33.2845 43.5268L30.9574 43.7864C30.9473 43.7875 30.9371 43.7861 30.9276 43.7822C30.9182 43.7784 30.9098 43.7723 30.9033 43.7645C30.8967 43.7566 30.8922 43.7473 30.8901 43.7373C30.888 43.7274 30.8884 43.717 30.8913 43.7072C30.8986 43.6805 30.915 43.6611 30.9404 43.6491C31.2111 43.5221 31.415 43.3279 31.552 43.0666C31.5599 43.0514 31.5628 43.0341 31.5602 43.0172C31.5577 43.0002 31.5499 42.9845 31.538 42.9723C31.3745 42.8019 31.0577 42.834 30.8492 42.8861C30.3325 43.0164 29.7877 43.1133 29.2149 43.1768C28.873 43.2139 28.494 43.2681 28.1782 43.3754C27.6983 43.5385 27.3307 43.6147 27.0753 43.604C25.026 43.3085 23.0372 42.8273 21.1088 42.1602C21.0346 42.1341 20.9675 42.0977 20.9073 42.0509C20.8948 42.0413 20.8847 42.029 20.8778 42.0149C20.8708 42.0008 20.8672 41.9853 20.8672 41.9697C20.8705 41.1823 20.9792 40.4147 21.1931 39.6667C21.3708 39.0331 21.6436 38.4482 22.0112 37.9122C22.1562 37.7003 22.3267 37.5111 22.5225 37.3447C22.6702 37.2184 22.8343 37.1094 23.0148 37.0178C24.1825 37.5539 25.3946 37.9606 26.6512 38.238C27.9015 38.5137 29.3212 38.6 30.5785 38.2651C31.6512 37.979 32.5245 37.4129 33.1983 36.5667C33.8319 35.7719 34.242 34.8806 34.4285 33.8927C34.4719 33.6635 34.5244 33.4379 34.5859 33.2159C34.638 33.0295 34.6698 32.8634 34.6811 32.7176C34.6962 32.5181 34.7463 32.1301 34.629 31.9547C34.4305 31.6586 34.1778 31.3782 33.871 31.1135C33.6124 30.8909 33.0917 30.5447 32.309 30.0748C31.8344 29.6851 31.3882 29.4027 30.9705 29.2276C29.8666 28.7664 28.6855 28.2671 27.7441 27.5262C27.2147 27.1097 26.804 26.5733 26.5119 25.917C26.3221 25.4885 26.1329 25.0444 25.9444 24.5845C25.8308 24.3065 25.5611 23.8305 25.1353 23.1568C26.4988 22.9335 27.8641 22.873 29.2309 22.9753Z" fill="#FE9091"/>
<path d="M19.2039 25.929C19.2393 26.0386 19.2697 26.1499 19.2951 26.2629C19.4305 26.8775 19.8245 27.4991 20.2626 28.0214C21.1209 29.0451 22.4914 29.6617 23.7317 29.0511C24.5779 28.635 24.9739 27.5021 24.9989 26.6068C25.0177 25.9397 24.9298 25.2877 24.7353 24.6507C25.1376 25.4715 25.28 26.3581 25.1624 27.3106C25.0751 28.0144 24.8085 28.7213 24.242 29.2216C24.2019 29.257 24.2079 29.2811 24.26 29.2938C24.8816 29.4452 25.4271 29.5985 25.9945 29.9605C26.6436 30.3736 27.2341 30.9173 27.7661 31.5917C27.7688 31.5951 27.7688 31.5981 27.7661 31.6008L27.7411 31.6248C27.7311 31.6342 27.721 31.6342 27.711 31.6248C27.4523 31.3661 27.2003 31.1376 26.955 30.939C26.1961 30.3244 25.0601 29.9515 24.1026 29.7459C23.7096 29.6617 23.3116 29.6697 22.9095 29.6397C22.2699 29.5925 21.7585 29.4792 21.2041 29.1293C20.6453 28.7757 20.1393 28.2434 19.6861 27.5322C19.3279 26.97 19.1671 26.4357 19.2039 25.929Z" fill="#3293BE"/>
<path d="M17.4383 27.9613C17.5552 29.5334 17.9376 30.9801 18.5853 32.3016C18.4743 32.585 18.4399 32.9178 18.482 33.3002C18.5996 34.391 18.7748 35.403 19.0074 36.3361C19.1187 36.7802 19.2851 37.1722 19.5347 37.5352C19.9946 38.2022 20.5474 38.9128 21.1931 39.6667C20.9792 40.4147 20.8705 41.1823 20.8672 41.9697C20.8672 41.9853 20.8708 42.0008 20.8778 42.0149C20.8847 42.029 20.8948 42.0413 20.9073 42.0509C20.9675 42.0977 21.0346 42.1341 21.1088 42.1602C23.0372 42.8273 25.026 43.3085 27.0753 43.604C26.5841 44.3292 26.3087 45.1259 26.2492 45.9942L26.2652 46.9847C26.2144 47.0108 26.1252 47.0035 25.9975 46.9627C22.6569 45.8909 19.5768 43.8205 17.6629 40.8398C17.703 40.8097 17.6819 40.7576 17.5997 40.6834C17.5536 40.6413 17.5188 40.6005 17.4954 40.561C16.9981 39.7108 16.6115 38.8125 16.3354 37.866C16.3033 37.7571 16.2522 37.6732 16.182 37.6144C16.2281 37.5041 16.2221 37.3607 16.164 37.1843C16.0089 36.4878 15.918 35.805 15.8913 35.1359C15.9187 35.0203 15.9136 34.9334 15.8762 34.8752C15.9177 34.7837 15.9207 34.6654 15.8852 34.5203C15.8906 32.6328 16.1897 30.8571 16.7826 29.1935C16.9129 28.8265 17.1315 28.4158 17.4383 27.9613Z" fill="#F86E75"/>
<path d="M32.309 30.0748C33.0917 30.5447 33.6124 30.8909 33.871 31.1135C34.1778 31.3782 34.4305 31.6586 34.629 31.9547C34.7463 32.1301 34.6962 32.5181 34.6811 32.7176C34.6698 32.8634 34.638 33.0295 34.5859 33.2159C34.5244 33.4379 34.4719 33.6635 34.4285 33.8927C34.3436 32.9436 34.0304 32.0954 33.489 31.3481C33.1555 30.8876 32.7621 30.4631 32.309 30.0748Z" fill="#F86E75"/>
<path d="M41.0898 34.6637C41.0784 34.6704 41.0691 34.6684 41.0617 34.6577L41.0607 34.6567C41.0547 34.6473 41.0564 34.6393 41.0657 34.6326C42.3581 33.6571 43.489 32.5873 44.2941 31.2167C44.3015 31.204 44.3115 31.2014 44.3242 31.2087H44.3252C44.3386 31.2161 44.3419 31.2264 44.3352 31.2398C44.1461 31.6335 43.9021 32.0549 43.6033 32.5041C42.9947 33.4195 42.0403 34.1203 41.0898 34.6637Z" fill="#3293BE"/>
<path d="M18.5853 32.3016L19.637 34.1464C19.7206 34.2921 19.7563 34.2814 19.7443 34.1143L19.7323 33.9378C19.7296 33.9044 19.7383 33.874 19.7583 33.8466C19.9378 33.597 20.3067 33.9078 20.4391 34.0772C20.7586 34.4843 21.1145 34.8619 21.5069 35.2101C21.7909 35.4621 22.0436 35.7272 22.2648 36.0052C22.5248 36.3321 22.7748 36.6696 23.0148 37.0178C22.8343 37.1094 22.6702 37.2184 22.5225 37.3447C22.3267 37.5111 22.1562 37.7003 22.0112 37.9122C21.6436 38.4482 21.3708 39.0331 21.1931 39.6667C20.5474 38.9128 19.9946 38.2022 19.5347 37.5352C19.2851 37.1722 19.1187 36.7802 19.0074 36.3361C18.7748 35.403 18.5996 34.391 18.482 33.3002C18.4399 32.9178 18.4743 32.585 18.5853 32.3016Z" fill="#FBCCA9"/>
<path d="M33.2845 43.5268C33.1321 43.7132 33.0145 43.8352 32.9316 43.8927C32.0513 44.5003 31.175 45.0337 30.3027 45.4929C30.1089 45.5951 29.8643 45.6697 29.5688 45.7165C28.8048 45.8398 28.0088 45.921 27.2769 45.937C27.182 45.939 27.1054 45.9494 27.0473 45.9681L26.2492 45.9942C26.3087 45.1259 26.5841 44.3292 27.0753 43.604C27.3307 43.6147 27.6983 43.5385 28.1782 43.3754C28.494 43.2681 28.873 43.2139 29.2149 43.1768C29.7877 43.1133 30.3325 43.0164 30.8492 42.8861C31.0577 42.834 31.3745 42.8019 31.538 42.9723C31.5499 42.9845 31.5577 43.0002 31.5602 43.0172C31.5628 43.0341 31.5599 43.0514 31.552 43.0666C31.415 43.3279 31.2111 43.5221 30.9404 43.6491C30.915 43.6611 30.8986 43.6805 30.8913 43.7072C30.8884 43.717 30.888 43.7274 30.8901 43.7373C30.8922 43.7473 30.8967 43.7566 30.9033 43.7645C30.9098 43.7723 30.9182 43.7784 30.9276 43.7822C30.9371 43.7861 30.9473 43.7875 30.9574 43.7864L33.2845 43.5268Z" fill="#FBCCA9"/>
<path d="M27.0473 45.9681C26.8347 46.3478 26.574 46.6866 26.2652 46.9847L26.2492 45.9942L27.0473 45.9681Z" fill="#34104D"/>
</g>
<defs>
<filter id="filter0_dd_75_565" x="0.75" y="0" width="55.3657" height="62" filterUnits="userSpaceOnUse" color-interpolation-filters="sRGB">
<feFlood flood-opacity="0" result="BackgroundImageFix"/>
<feColorMatrix in="SourceAlpha" type="matrix" values="0 0 0 0 0 0 0 0 0 0 0 0 0 0 0 0 0 0 127 0" result="hardAlpha"/>
<feOffset dy="1"/>
<feGaussianBlur stdDeviation="1.5"/>
<feComposite in2="hardAlpha" operator="out"/>
<feColorMatrix type="matrix" values="0 0 0 0 0 0 0 0 0 0 0 0 0 0 0 0 0 0 0.3 0"/>
<feBlend mode="normal" in2="BackgroundImageFix" result="effect1_dropShadow_75_565"/>
<feColorMatrix in="SourceAlpha" type="matrix" values="0 0 0 0 0 0 0 0 0 0 0 0 0 0 0 0 0 0 127 0" result="hardAlpha"/>
<feMorphology radius="3" operator="dilate" in="SourceAlpha" result="effect2_dropShadow_75_565"/>
<feOffset dy="4"/>
<feGaussianBlur stdDeviation="4"/>
<feComposite in2="hardAlpha" operator="out"/>
<feColorMatrix type="matrix" values="0 0 0 0 0 0 0 0 0 0 0 0 0 0 0 0 0 0 0.15 0"/>
<feBlend mode="normal" in2="effect1_dropShadow_75_565" result="effect2_dropShadow_75_565"/>
<feBlend mode="normal" in="SourceGraphic" in2="effect2_dropShadow_75_565" result="shape"/>
</filter>
</defs>
</svg>
