<svg width="63" height="62" viewBox="0 0 63 62" fill="none" xmlns="http://www.w3.org/2000/svg">
<g id="Vector" opacity="0.976" filter="url(#filter0_dd_3_13115)">
<path fill-rule="evenodd" clip-rule="evenodd" d="M39.0814 7.0108C38.3448 7.30301 37.8732 7.84044 37.6669 8.62308C37.3755 8.96336 37.0118 9.19177 36.5757 9.3083C36.1411 9.55362 35.8582 9.91638 35.727 10.3966C35.7201 11.1282 35.6662 11.8537 35.5654 12.5732C35.0653 12.9492 34.6746 12.8686 34.3933 12.3313C34.3933 12.1432 34.3933 11.9551 34.3933 11.767C34.3799 10.9873 34.3933 10.208 34.4337 9.42922C34.5775 9.09775 34.8065 8.84247 35.1208 8.66339C35.4233 8.57177 35.7197 8.46429 36.0099 8.34093C36.3879 7.93451 36.7651 7.53143 37.1415 7.13172C37.7813 7.01877 38.4279 6.97846 39.0814 7.0108Z" fill="#B8D670"/>
<path fill-rule="evenodd" clip-rule="evenodd" d="M39.0814 7.0108C39.3508 7.0108 39.6203 7.01074 39.8897 7.01074C39.6193 7.0998 39.3903 7.26103 39.2027 7.49443C39.0407 7.93913 38.9194 8.39595 38.8389 8.86487C38.744 8.94659 38.6902 9.05407 38.6773 9.18733C38.2418 9.6878 37.703 10.0506 37.0607 10.2756C36.6967 10.5852 36.4676 10.9749 36.3736 11.4445C36.3333 11.9275 36.3198 12.4112 36.3332 12.8956C36.3332 13.7286 36.3332 14.5616 36.3332 15.3946C35.1764 15.262 34.5297 14.6171 34.3933 13.4599C34.3933 13.2449 34.3933 13.0299 34.3933 12.815C34.3933 12.6537 34.3933 12.4926 34.3933 12.3313C34.6746 12.8686 35.0653 12.9492 35.5654 12.5732C35.6662 11.8537 35.7201 11.1282 35.727 10.3966C35.8582 9.91638 36.1411 9.55362 36.5757 9.3083C37.0118 9.19177 37.3755 8.96336 37.6669 8.62308C37.8732 7.84044 38.3448 7.30301 39.0814 7.0108Z" fill="#9EC63D"/>
<path fill-rule="evenodd" clip-rule="evenodd" d="M39.8897 7.01074C40.6715 6.99732 41.4529 7.01091 42.2338 7.0512C42.7146 7.32489 42.9302 7.74139 42.8804 8.30072C42.845 8.29544 42.8181 8.30888 42.7996 8.34102C43.0983 8.72819 43.435 9.09095 43.81 9.42932C43.8475 9.47723 43.861 9.53098 43.8504 9.59055C43.2667 10.3797 42.903 11.2665 42.7592 12.2508C42.6768 12.8392 42.6228 13.4304 42.5975 14.0243C41.4834 12.2015 40.2305 10.4816 38.8389 8.86487C38.9194 8.39595 39.0407 7.93913 39.2027 7.49443C39.3903 7.26103 39.6193 7.0998 39.8897 7.01074Z" fill="#93BD2C"/>
<path fill-rule="evenodd" clip-rule="evenodd" d="M26.7145 7.6558C29.067 7.09393 30.5489 7.95382 31.1601 10.2355C29.6621 9.39471 28.1803 8.53483 26.7145 7.6558Z" fill="#A1C102"/>
<path fill-rule="evenodd" clip-rule="evenodd" d="M26.7145 7.6558C28.1803 8.53483 29.6621 9.39471 31.1601 10.2355C31.1601 10.2623 31.1601 10.2892 31.1601 10.316C30.6224 10.2714 30.0835 10.2445 29.5435 10.2354C28.5317 9.96569 27.6561 9.45514 26.9166 8.70376C26.6566 8.37557 26.5892 8.02627 26.7145 7.6558Z" fill="#89AC00"/>
<path fill-rule="evenodd" clip-rule="evenodd" d="M22.1072 8.3008C22.0762 8.87226 22.1166 9.43656 22.2285 9.9937C22.3686 10.1509 22.5438 10.2316 22.7539 10.2355C22.7539 9.59063 22.7539 8.94571 22.7539 8.3008C22.9694 8.3008 23.1849 8.3008 23.4005 8.3008C23.4005 8.94571 23.4005 9.59063 23.4005 10.2355C23.6161 10.2355 23.8316 10.2355 24.0471 10.2355C24.0471 10.4505 24.0471 10.6655 24.0471 10.8805C23.4813 10.8805 22.9155 10.8805 22.3497 10.8805C22.0533 10.8805 21.757 10.8805 21.4606 10.8805C21.4606 10.0206 21.4606 9.16069 21.4606 8.3008C21.6762 8.3008 21.8916 8.3008 22.1072 8.3008Z" fill="#01A3EC"/>
<path fill-rule="evenodd" clip-rule="evenodd" d="M22.1072 8.3008C22.3228 8.3008 22.5383 8.3008 22.7539 8.3008C22.7539 8.94571 22.7539 9.59063 22.7539 10.2355C22.5438 10.2316 22.3686 10.1509 22.2285 9.9937C22.1166 9.43656 22.0762 8.87226 22.1072 8.3008Z" fill="#2FCEFE"/>
<path fill-rule="evenodd" clip-rule="evenodd" d="M23.4005 8.3008C23.6161 8.3008 23.8316 8.3008 24.0472 8.3008C24.0472 8.94571 24.0471 9.59063 24.0471 10.2355C23.8316 10.2355 23.6161 10.2355 23.4005 10.2355C23.4005 9.59063 23.4005 8.94571 23.4005 8.3008Z" fill="#30CFFF"/>
<path fill-rule="evenodd" clip-rule="evenodd" d="M42.8804 8.30072C43.3654 8.30072 43.8504 8.30094 44.3354 8.30094C44.2515 8.48131 44.2381 8.66942 44.2949 8.86524C44.5105 9.08021 44.726 9.29518 44.9416 9.51015C45.0618 9.80169 45.1695 10.0973 45.2649 10.3969C45.4266 10.6119 45.5882 10.8268 45.7499 11.0418C45.7533 11.9304 45.7264 12.8172 45.669 13.7021C45.888 14.1111 46.0363 14.541 46.1136 14.9919C46.1001 15.1263 46.0867 15.2606 46.0732 15.395C45.4978 16.2384 45.3362 17.152 45.5882 18.1359C45.8539 18.558 46.1906 18.6386 46.5986 18.3777C46.5986 18.4583 46.5986 18.5389 46.5986 18.6196C46.1276 19.962 45.5079 21.225 44.7395 22.4084C44.7635 21.3296 44.7366 20.2547 44.6587 19.1839C44.7528 16.5104 44.7663 13.8232 44.6991 11.1224C44.6458 10.6136 44.4438 10.1837 44.0929 9.83261C44.0929 9.67138 44.0121 9.59055 43.8504 9.59055C43.861 9.53098 43.8475 9.47723 43.81 9.42932C43.435 9.09095 43.0983 8.72819 42.7996 8.34102C42.8181 8.30888 42.845 8.29544 42.8804 8.30072Z" fill="#9FC63D"/>
<path fill-rule="evenodd" clip-rule="evenodd" d="M44.3354 8.30094C45.029 8.19502 45.5544 8.4365 45.9115 9.02611C45.9954 9.52549 46.1301 10.0092 46.3156 10.4772C46.5698 10.7379 46.8392 10.9797 47.1239 11.2027C47.1778 11.3102 47.2317 11.4177 47.2856 11.5251C47.326 12.035 47.3394 12.5456 47.326 13.0568C47.2167 14.0425 47.0146 15.0099 46.7198 15.9589C46.7002 16.7677 46.6599 17.5742 46.5986 18.3777C46.1906 18.6386 45.8539 18.558 45.5882 18.1359C45.3362 17.152 45.4978 16.2384 46.0732 15.395C46.0867 15.2606 46.1001 15.1263 46.1136 14.9919C46.0363 14.541 45.888 14.1111 45.669 13.7021C45.7264 12.8172 45.7533 11.9304 45.7499 11.0418C45.5882 10.8268 45.4266 10.6119 45.2649 10.3969C45.1695 10.0973 45.0618 9.80169 44.9416 9.51015C44.726 9.29518 44.5105 9.08021 44.2949 8.86524C44.2381 8.66942 44.2515 8.48131 44.3354 8.30094Z" fill="#B8D570"/>
<path fill-rule="evenodd" clip-rule="evenodd" d="M38.8389 8.86487C40.2305 10.4816 41.4834 12.2015 42.5975 14.0243C42.6228 13.4304 42.6768 12.8392 42.7592 12.2508C42.903 11.2665 43.2667 10.3797 43.8504 9.59055C44.0121 9.59055 44.0929 9.67138 44.0929 9.83261C43.3852 10.808 43.0215 11.9097 43.0017 13.1378C42.9478 13.6752 42.9478 14.2127 43.0017 14.7501C43.7703 16.15 44.3227 17.6278 44.6587 19.1839C44.7366 20.2547 44.7635 21.3296 44.7395 22.4084C44.7446 22.8731 44.6908 23.3299 44.5778 23.7789C44.5239 23.7789 44.4701 23.7789 44.4162 23.7789C44.5639 23.1419 44.6043 22.497 44.5374 21.8442C43.5789 20.875 42.4608 20.1361 41.183 19.6273C40.4801 19.2996 39.7526 19.0443 39.0006 18.8614C38.9359 18.7371 38.9089 18.6028 38.9198 18.4584C41.0048 19.0344 42.8773 20.0018 44.5374 21.3605C44.588 19.9973 44.359 18.6805 43.8504 17.4104C42.7605 16.8631 41.6019 16.5541 40.3747 16.4833C39.5399 16.443 38.7047 16.4296 37.869 16.443C37.7427 16.4242 37.635 16.3704 37.5457 16.2818C39.2474 16.0251 40.9448 16.1192 42.6379 16.5639C42.9619 16.6536 43.2717 16.7746 43.5675 16.9267C43.3791 16.2268 43.0962 15.555 42.7188 14.9113C41.5723 14.0309 40.279 13.4801 38.8389 13.2587C38.0864 13.1604 37.332 13.0798 36.5757 13.0169C36.5308 12.986 36.5039 12.9457 36.4949 12.896C36.5039 12.8462 36.5308 12.8059 36.5757 12.7751C37.5603 12.7365 38.5303 12.844 39.4856 13.0975C40.4631 13.3847 41.4062 13.7341 42.3146 14.1455C41.2496 12.3832 40.0371 10.7302 38.6773 9.18733C38.6902 9.05407 38.744 8.94659 38.8389 8.86487Z" fill="#B6D46C"/>
<path fill-rule="evenodd" clip-rule="evenodd" d="M38.6773 9.18733C40.0371 10.7302 41.2496 12.3832 42.3146 14.1455C41.4062 13.7341 40.4631 13.3847 39.4856 13.0975C38.5303 12.844 37.5603 12.7365 36.5757 12.7751C36.5308 12.8059 36.5039 12.8462 36.4949 12.896C36.441 12.896 36.3871 12.8956 36.3332 12.8956C36.3198 12.4112 36.3333 11.9275 36.3736 11.4445C36.4676 10.9749 36.6967 10.5852 37.0607 10.2756C37.703 10.0506 38.2418 9.6878 38.6773 9.18733Z" fill="#88AB02"/>
<path fill-rule="evenodd" clip-rule="evenodd" d="M44.0929 9.83261C44.4438 10.1837 44.6458 10.6136 44.6991 11.1224C44.7663 13.8232 44.7528 16.5104 44.6587 19.1839C44.3227 17.6278 43.7703 16.15 43.0017 14.7501C42.9478 14.2127 42.9478 13.6752 43.0017 13.1378C43.0215 11.9097 43.3852 10.808 44.0929 9.83261Z" fill="#89B029"/>
<path fill-rule="evenodd" clip-rule="evenodd" d="M29.5435 10.2354C30.0835 10.2445 30.6224 10.2714 31.1601 10.316C32.4396 10.3631 33.5174 10.8467 34.3933 11.767C34.3933 11.9551 34.3933 12.1432 34.3933 12.3313C34.3933 12.4926 34.3933 12.6537 34.3933 12.815C32.167 12.8842 30.0655 12.414 28.0886 11.4043C27.7431 11.2077 27.5006 10.9255 27.3612 10.5579C28.0581 10.3165 28.7855 10.209 29.5435 10.2354Z" fill="#FE9A00"/>
<path fill-rule="evenodd" clip-rule="evenodd" d="M27.3612 10.5579C27.5006 10.9255 27.7431 11.2077 28.0886 11.4043C30.0655 12.414 32.167 12.8842 34.3933 12.815C34.3933 13.0299 34.3933 13.2449 34.3933 13.4599C34.1388 13.453 33.9232 13.5336 33.7467 13.7016C33.4332 13.8391 33.2311 14.0809 33.1405 14.4271C33.0866 15.0452 33.0866 15.6632 33.1405 16.2813C33.1934 16.4528 33.2608 16.614 33.3425 16.765C33.0472 16.7293 32.7508 16.7024 32.4534 16.6843C32.6985 14.7927 31.9172 13.57 30.1094 13.0164C28.7208 12.6466 27.4006 12.7944 26.1487 13.4598C26.0948 13.4598 26.041 13.4598 25.9871 13.4598C26.0005 12.8948 25.9871 12.3305 25.9466 11.7669C25.8782 11.6304 25.8109 11.496 25.7446 11.3638C26.2163 10.9673 26.7552 10.6988 27.3612 10.5579Z" fill="#F0681B"/>
<path fill-rule="evenodd" clip-rule="evenodd" d="M21.4606 10.8805C21.757 10.8805 22.0533 10.8805 22.3497 10.8805C21.9744 11.0803 21.6915 11.3754 21.501 11.7668C21.4606 12.3304 21.4472 12.8947 21.4606 13.4597C20.814 13.4597 20.1673 13.4597 19.5207 13.4597C19.5073 12.8679 19.5207 12.2767 19.5611 11.6862C19.9691 10.9287 20.6023 10.6604 21.4606 10.8805Z" fill="#CEDADA"/>
<path fill-rule="evenodd" clip-rule="evenodd" d="M22.3497 10.8805C22.9155 10.8805 23.4813 10.8805 24.0471 10.8805C24.4253 10.8671 24.8025 10.8806 25.1788 10.9208C25.4289 10.9963 25.6176 11.1436 25.7446 11.3638C25.8109 11.496 25.8782 11.6304 25.9466 11.7669C25.9871 12.3305 26.0005 12.8948 25.9871 13.4598C25.7715 13.4598 25.556 13.4602 25.3404 13.4602C24.9094 13.4602 24.4782 13.4602 24.0471 13.4602C23.1849 13.4602 22.3228 13.4597 21.4606 13.4597C21.4472 12.8947 21.4606 12.3304 21.501 11.7668C21.6915 11.3754 21.9744 11.0803 22.3497 10.8805Z" fill="#E9F6F5"/>
<path fill-rule="evenodd" clip-rule="evenodd" d="M50.5592 11.6866C50.1504 12.5296 49.7597 13.3895 49.3872 14.2663C49.2465 14.8653 48.8828 15.0938 48.296 14.9515C48.1708 14.8536 48.0765 14.7327 48.0131 14.5887C48.0213 13.8156 47.9539 13.0632 47.811 12.3315C48.6335 11.6306 49.5495 11.4157 50.5592 11.6866Z" fill="#336B2F"/>
<path fill-rule="evenodd" clip-rule="evenodd" d="M50.5592 11.6866C50.5865 13.2412 50.4115 14.7729 50.0339 16.2816C49.8471 16.8683 49.6181 17.4326 49.3468 17.9745C49.2929 17.9745 49.266 18.0013 49.266 18.0551C48.5027 18.1647 47.7483 18.326 47.0027 18.5388C46.864 18.5492 46.7293 18.5762 46.5986 18.6196C46.5986 18.5389 46.5986 18.4583 46.5986 18.3777C46.6599 17.5742 46.7002 16.7677 46.7198 15.9589C47.0146 15.0099 47.2167 14.0425 47.326 13.0568C47.4266 12.7761 47.5882 12.5345 47.811 12.3315C47.9539 13.0632 48.0213 13.8156 48.0131 14.5887C48.0765 14.7327 48.1708 14.8536 48.296 14.9515C48.8828 15.0938 49.2465 14.8653 49.3872 14.2663C49.7597 13.3895 50.1504 12.5296 50.5592 11.6866Z" fill="#335E33"/>
<path fill-rule="evenodd" clip-rule="evenodd" d="M17.9041 12.1705C17.7401 12.6619 17.6997 13.1724 17.7829 13.7021C17.91 14.5095 18.0448 15.3156 18.187 16.1206C18.2504 16.2646 18.3447 16.3855 18.4699 16.4833C18.7665 16.5058 19.063 16.4924 19.359 16.443C19.3783 16.7931 19.4053 17.1424 19.4399 17.491C19.0977 17.4942 18.7744 17.5478 18.4699 17.6522C17.5071 17.9271 16.874 18.5452 16.5704 19.5064C16.4769 19.8222 16.4365 20.1447 16.4492 20.4737C14.9935 20.3673 13.5386 20.2463 12.0844 20.111C11.1902 19.6867 10.9208 19.0283 11.2761 18.1359C11.3166 18.35 11.4243 18.5247 11.5994 18.6599C12.9061 18.9498 14.2263 19.111 15.56 19.1436C15.7601 18.9405 15.9487 18.7389 16.1258 18.539C14.9694 17.507 13.7974 16.4859 12.6098 15.4757C12.3089 14.835 12.4032 14.2573 12.8927 13.7425C12.9933 13.6787 13.1011 13.6383 13.216 13.6215C13.2599 13.6264 13.2868 13.6532 13.2968 13.7021C13.0745 14.1387 13.0879 14.5687 13.3372 14.992C14.1348 15.9219 15.0105 16.7683 15.9642 17.5313C16.3487 17.5966 16.7259 17.5697 17.0958 17.4507C17.2246 17.3742 17.3323 17.2802 17.4191 17.1686C17.4674 17.1496 17.4943 17.1093 17.5 17.0476C17.1838 15.988 16.874 14.9266 16.5704 13.8634C16.3244 12.7378 16.7689 12.1735 17.9041 12.1705Z" fill="#638D1A"/>
<path fill-rule="evenodd" clip-rule="evenodd" d="M17.9041 12.1705C18.4502 12.298 18.8408 12.6205 19.0761 13.1378C19.1931 14.238 19.2874 15.3397 19.359 16.443C19.063 16.4924 18.7665 16.5058 18.4699 16.4833C18.3447 16.3855 18.2504 16.2646 18.187 16.1206C18.0448 15.3156 17.91 14.5095 17.7829 13.7021C17.6997 13.1724 17.7401 12.6619 17.9041 12.1705Z" fill="#87AA00"/>
<path fill-rule="evenodd" clip-rule="evenodd" d="M32.4534 16.6843C32.4265 16.6843 32.3995 16.6845 32.3726 16.6845C30.7468 14.7853 28.6722 13.7102 26.1487 13.4598C27.4006 12.7944 28.7208 12.6466 30.1094 13.0164C31.9172 13.57 32.6985 14.7927 32.4534 16.6843Z" fill="#A1C103"/>
<path fill-rule="evenodd" clip-rule="evenodd" d="M36.3332 12.8956C36.3871 12.8956 36.441 12.896 36.4949 12.896C36.5039 12.9457 36.5308 12.986 36.5757 13.0169C37.332 13.0798 38.0864 13.1604 38.8389 13.2587C40.279 13.4801 41.5723 14.0309 42.7188 14.9113C43.0962 15.555 43.3791 16.2268 43.5675 16.9267C43.2717 16.7746 42.9619 16.6536 42.6379 16.5639C40.9448 16.1192 39.2474 16.0251 37.5457 16.2818C37.1188 16.0174 36.7146 15.7214 36.3332 15.3946C36.3332 14.5616 36.3332 13.7286 36.3332 12.8956Z" fill="#80A101"/>
<path fill-rule="evenodd" clip-rule="evenodd" d="M17.4191 17.1686C17.3323 17.2802 17.2246 17.3742 17.0958 17.4507C16.7259 17.5697 16.3487 17.5966 15.9642 17.5313C15.0105 16.7683 14.1348 15.9219 13.3372 14.992C13.0879 14.5687 13.0745 14.1387 13.2968 13.7021C13.2868 13.6532 13.2599 13.6264 13.216 13.6215C13.615 13.4117 14.0191 13.4247 14.4284 13.6614C15.4423 14.8201 16.4392 15.9894 17.4191 17.1686Z" fill="#87AA00"/>
<path fill-rule="evenodd" clip-rule="evenodd" d="M19.5207 13.4597C20.1673 13.4597 20.814 13.4597 21.4606 13.4597C21.4471 14.5886 21.4606 15.7176 21.501 16.8458C22.0535 18.3911 23.1178 18.915 24.6938 18.4178C25.354 18.0696 25.785 17.5456 25.987 16.8458C25.9608 17.452 25.9877 18.0431 26.0679 18.6194C25.6108 19.2235 25.3683 19.9087 25.3404 20.675C25.3857 21.7299 25.5473 22.7645 25.8254 23.7787C25.7074 23.7841 25.5997 23.7572 25.5021 23.6981C25.1763 23.293 24.853 22.89 24.5321 22.4888C24.3448 22.1949 24.1293 21.9262 23.8855 21.6827C23.7884 21.4885 23.6537 21.3273 23.4813 21.199C23.0233 20.6079 22.5653 20.0166 22.1072 19.4255C21.9701 19.2623 21.8354 19.101 21.7031 18.9418C21.1892 18.133 20.4618 17.6493 19.5207 17.4908C19.5207 16.1472 19.5207 14.8033 19.5207 13.4597Z" fill="#09A3EA"/>
<path fill-rule="evenodd" clip-rule="evenodd" d="M21.4606 13.4597C22.3228 13.4597 23.1849 13.4602 24.0471 13.4602C24.0337 14.3742 24.0471 15.2877 24.0875 16.2009C24.2819 16.6816 24.6187 16.8025 25.0979 16.5637C25.2105 16.4693 25.2779 16.3484 25.3 16.2009C25.3404 15.2877 25.3539 14.3742 25.3404 13.4602C25.556 13.4602 25.7715 13.4598 25.9871 13.4598C25.9871 13.4866 25.987 13.5138 25.987 13.5407C25.987 14.6424 25.987 15.7441 25.987 16.8458C25.785 17.5456 25.354 18.0696 24.6938 18.4178C23.1178 18.915 22.0535 18.3911 21.501 16.8458C21.4606 15.7176 21.4471 14.5886 21.4606 13.4597Z" fill="#2FCEFE"/>
<path fill-rule="evenodd" clip-rule="evenodd" d="M24.0471 13.4602C24.4782 13.4602 24.9094 13.4602 25.3404 13.4602C25.3539 14.3742 25.3404 15.2877 25.3 16.2009C25.2779 16.3484 25.2105 16.4693 25.0979 16.5637C24.6187 16.8025 24.2819 16.6816 24.0875 16.2009C24.0471 15.2877 24.0337 14.3742 24.0471 13.4602Z" fill="#98EEFF"/>
<path fill-rule="evenodd" clip-rule="evenodd" d="M25.987 13.5407C25.987 13.5138 25.9871 13.4866 25.9871 13.4598C26.041 13.4598 26.0948 13.4598 26.1487 13.4598C28.6722 13.7102 30.7468 14.7853 32.3726 16.6845C31.9145 16.6845 31.4565 16.6846 30.9984 16.6846C29.3097 16.548 27.8683 15.8762 26.6741 14.6693C26.4216 14.2987 26.1926 13.9225 25.987 13.5407Z" fill="#80A000"/>
<path fill-rule="evenodd" clip-rule="evenodd" d="M34.3933 13.4599C34.5297 14.6171 35.1764 15.262 36.3332 15.3946C36.7146 15.7214 37.1188 16.0174 37.5457 16.2818C37.635 16.3704 37.7427 16.4242 37.869 16.443C38.5816 16.9238 38.9318 17.5955 38.9198 18.4584C38.9089 18.6028 38.9359 18.7371 39.0006 18.8614C39.0816 19.1976 39.2028 19.5197 39.3643 19.8285C40.3865 20.954 41.0197 22.2707 41.2638 23.7786C40.698 23.7786 40.1322 23.7786 39.5664 23.7786C39.0006 23.7786 38.4348 23.7786 37.8689 23.7786C38.0736 22.9299 38.2083 22.07 38.2731 21.1989C38.8929 21.2125 39.1489 20.9169 39.041 20.3122C38.433 19.3547 37.948 18.3336 37.586 17.2488C37.2814 16.8745 36.9177 16.5655 36.4948 16.3218C35.805 16.0569 35.1315 15.7613 34.4741 15.435C33.9541 14.9753 33.7117 14.3974 33.7467 13.7016C33.9232 13.5336 34.1388 13.453 34.3933 13.4599Z" fill="#4D6E15"/>
<path fill-rule="evenodd" clip-rule="evenodd" d="M25.987 13.5407C26.1926 13.9225 26.4216 14.2987 26.6741 14.6693C27.8683 15.8762 29.3097 16.548 30.9984 16.6846C30.6588 16.6591 30.3356 16.6864 30.0286 16.7657C28.4738 16.9054 27.1536 17.5229 26.0679 18.6194C25.9877 18.0431 25.9608 17.452 25.987 16.8458C25.987 15.7441 25.987 14.6424 25.987 13.5407Z" fill="#F0671C"/>
<path fill-rule="evenodd" clip-rule="evenodd" d="M33.7467 13.7016C33.7117 14.3974 33.9541 14.9753 34.4741 15.435C35.1315 15.7613 35.805 16.0569 36.4948 16.3218C36.9177 16.5655 37.2814 16.8745 37.586 17.2488C37.948 18.3336 38.433 19.3547 39.041 20.3122C39.1489 20.9169 38.8929 21.2125 38.2731 21.1989C38.299 20.7801 38.2721 20.3775 38.1923 19.9901C37.9523 19.0381 37.4134 18.2991 36.5757 17.7733C35.5927 17.1374 34.515 16.8009 33.3425 16.765C33.2608 16.614 33.1934 16.4528 33.1405 16.2813C33.0866 15.6632 33.0866 15.0452 33.1405 14.4271C33.2311 14.0809 33.4332 13.8391 33.7467 13.7016Z" fill="#628B1B"/>
<path fill-rule="evenodd" clip-rule="evenodd" d="M37.869 16.443C38.7047 16.4296 39.5399 16.443 40.3747 16.4833C41.6019 16.5541 42.7605 16.8631 43.8504 17.4104C44.359 18.6805 44.588 19.9973 44.5374 21.3605C42.8773 20.0018 41.0048 19.0344 38.9198 18.4584C38.9318 17.5955 38.5816 16.9238 37.869 16.443Z" fill="#88AB02"/>
<path fill-rule="evenodd" clip-rule="evenodd" d="M30.9984 16.6846C31.4565 16.6846 31.9145 16.6845 32.3726 16.6845C32.3995 16.6845 32.4265 16.6843 32.4534 16.6843C32.7508 16.7024 33.0472 16.7293 33.3425 16.765C34.515 16.8009 35.5927 17.1374 36.5757 17.7733C37.4134 18.2991 37.9523 19.0381 38.1923 19.9901C37.9628 21.2808 37.2084 22.0997 35.9291 22.4482C34.0161 22.502 32.1032 22.502 30.1902 22.4482C28.5184 21.8682 27.7775 20.6993 27.9674 18.9415C28.3117 17.8861 28.9988 17.1614 30.0286 16.7657C30.3356 16.6864 30.6588 16.6591 30.9984 16.6846Z" fill="#DA3744"/>
<path fill-rule="evenodd" clip-rule="evenodd" d="M30.0286 16.7657C28.9988 17.1614 28.3117 17.8861 27.9674 18.9415C27.7775 20.6993 28.5184 21.8682 30.1902 22.4482C32.1032 22.502 34.0161 22.502 35.9291 22.4482C37.2084 22.0997 37.9628 21.2808 38.1923 19.9901C38.2721 20.3775 38.299 20.7801 38.2731 21.1989C38.2083 22.07 38.0736 22.9299 37.8689 23.7786C33.8544 23.7786 29.8399 23.7787 25.8254 23.7787C25.5473 22.7645 25.3857 21.7299 25.3404 20.675C25.3683 19.9087 25.6108 19.2235 26.0679 18.6194C27.1536 17.5229 28.4738 16.9054 30.0286 16.7657Z" fill="#AD313B"/>
<path fill-rule="evenodd" clip-rule="evenodd" d="M19.4399 17.491C19.4668 17.491 19.4938 17.4908 19.5207 17.4908C20.4618 17.6493 21.1892 18.133 21.7031 18.9418C21.0593 19.5435 20.4261 20.1612 19.8036 20.7956C19.7387 21.1473 19.887 21.295 20.2481 21.2389C20.8572 20.618 21.4769 20.0138 22.1072 19.4255C22.5653 20.0166 23.0233 20.6079 23.4813 21.199C23.0396 21.5992 22.6085 22.0152 22.188 22.4481C21.5953 22.5019 21.0025 22.5019 20.4098 22.4481C20.2481 22.3675 20.0865 22.2869 19.9248 22.2063C19.2941 21.658 18.6879 21.0802 18.1062 20.4731C17.3197 19.4117 17.441 18.4719 18.4699 17.6522C18.7744 17.5478 19.0977 17.4942 19.4399 17.491Z" fill="#FE9A01"/>
<path fill-rule="evenodd" clip-rule="evenodd" d="M16.1258 18.539C15.9487 18.7389 15.7601 18.9405 15.56 19.1436C14.2263 19.111 12.9061 18.9498 11.5994 18.6599C11.4243 18.5247 11.3166 18.35 11.2761 18.1359C11.4822 17.7312 11.819 17.5428 12.2864 17.5713C13.5772 17.8495 14.857 18.1723 16.1258 18.539Z" fill="#87AA00"/>
<path fill-rule="evenodd" clip-rule="evenodd" d="M18.4699 17.6522C17.441 18.4719 17.3197 19.4126 18.1062 20.474C18.6879 21.0811 19.2941 21.6588 19.9248 22.2072C20.0865 22.2878 20.2482 22.3684 20.4098 22.449C21.0025 22.5028 21.5953 22.5028 22.1881 22.449C22.6085 22.0161 23.0396 21.5992 23.4813 21.199C23.6537 21.3273 23.7884 21.4885 23.8855 21.6827C23.6055 21.9215 23.3361 22.1773 23.0772 22.449C23.5614 22.4893 24.0464 22.5022 24.5321 22.4888C24.853 22.89 25.1763 23.293 25.5021 23.6981C23.9534 23.7784 22.3907 23.8058 20.814 23.7792C20.2212 23.7792 19.6284 23.7792 19.0357 23.7792C18.3168 23.2371 17.6297 22.6459 16.9746 22.0056C16.6465 21.5482 16.4714 21.0374 16.4492 20.4737C16.4365 20.1447 16.4769 19.8222 16.5704 19.5064C16.874 18.5452 17.5071 17.9271 18.4699 17.6522Z" fill="#F27823"/>
<path fill-rule="evenodd" clip-rule="evenodd" d="M33.6659 17.8129C34.6394 17.6409 35.5016 17.8693 36.2524 18.4981C36.7543 19.0028 36.8621 19.5806 36.5757 20.2313C36.3293 20.3898 36.0599 20.4301 35.7674 20.3522C34.9508 19.7769 34.156 19.1723 33.383 18.5384C33.2988 18.2232 33.3931 17.9813 33.6659 17.8129Z" fill="#FE6565"/>
<path fill-rule="evenodd" clip-rule="evenodd" d="M49.3468 17.9745C49.9395 17.9745 50.5323 17.9747 51.125 17.9747C49.9472 18.9392 48.7348 19.8663 47.4877 20.7559C46.7912 20.8944 46.4814 20.6122 46.5581 19.9095C46.6945 19.4451 46.8427 18.9881 47.0027 18.5388C47.7483 18.326 48.5027 18.1647 49.266 18.0551C49.3199 18.0551 49.3468 18.0283 49.3468 17.9745Z" fill="#587F19"/>
<path fill-rule="evenodd" clip-rule="evenodd" d="M51.125 17.9747C50.7464 20.029 49.6956 21.6816 47.9727 22.9325C46.9805 23.5427 45.9028 23.8248 44.7395 23.779C44.6856 23.779 44.6318 23.7789 44.5778 23.7789C44.6908 23.3299 44.7446 22.8731 44.7395 22.4084C45.5079 21.225 46.1276 19.962 46.5986 18.6196C46.7293 18.5762 46.864 18.5492 47.0027 18.5388C46.8427 18.9881 46.6945 19.4451 46.5581 19.9095C46.4814 20.6122 46.7912 20.8944 47.4877 20.7559C48.7348 19.8663 49.9472 18.9392 51.125 17.9747Z" fill="#356C2E"/>
<path fill-rule="evenodd" clip-rule="evenodd" d="M18.9548 18.2161C19.6176 18.1033 20.1968 18.2645 20.6927 18.6998C20.8531 19.1462 20.705 19.388 20.2481 19.4254C19.6913 19.3374 19.1524 19.1896 18.6315 18.982C18.4932 18.8906 18.4528 18.7697 18.5103 18.6192C18.6196 18.4379 18.7677 18.3035 18.9548 18.2161Z" fill="#FBC900"/>
<path fill-rule="evenodd" clip-rule="evenodd" d="M39.0006 18.8614C39.7526 19.0443 40.4801 19.2996 41.183 19.6273C42.4608 20.1361 43.5789 20.875 44.5374 21.8442C44.6043 22.497 44.5639 23.1419 44.4162 23.7789C43.6618 23.7789 42.9073 23.7785 42.153 23.7785C41.8565 23.7785 41.5602 23.7786 41.2638 23.7786C41.0197 22.2707 40.3865 20.954 39.3643 19.8285C39.2028 19.5197 39.0816 19.1976 39.0006 18.8614Z" fill="#80A100"/>
<path fill-rule="evenodd" clip-rule="evenodd" d="M21.7031 18.9418C21.8354 19.101 21.9701 19.2623 22.1072 19.4255C21.4769 20.0138 20.8572 20.618 20.2481 21.2389C19.887 21.295 19.7387 21.1473 19.8036 20.7956C20.4261 20.1612 21.0593 19.5435 21.7031 18.9418Z" fill="#F27923"/>
<path fill-rule="evenodd" clip-rule="evenodd" d="M23.8855 21.6827C24.1293 21.9262 24.3448 22.1949 24.5321 22.4888C24.0464 22.5022 23.5614 22.4893 23.0772 22.449C23.3361 22.1773 23.6055 21.9215 23.8855 21.6827Z" fill="#FC9B05"/>
<path fill-rule="evenodd" clip-rule="evenodd" d="M19.0357 23.778C19.6285 23.778 20.2213 23.778 20.814 23.778C20.8005 27.9432 20.814 32.1082 20.8544 36.2733C21.5233 40.5949 23.9886 43.2686 28.2503 44.2944C32.0202 44.412 35.7923 44.4523 39.5664 44.4153C39.5664 45.2483 39.5664 46.0813 39.5664 46.9143C39.5664 46.9412 39.5664 46.9681 39.5664 46.9949C32.642 47.0084 25.7176 46.995 18.7933 46.9546C18.4026 46.565 18.0119 46.1753 17.6212 45.7857C17.5808 38.4499 17.5673 31.114 17.5808 23.778C18.0658 23.778 18.5508 23.778 19.0357 23.778Z" fill="#F5B662"/>
<path fill-rule="evenodd" clip-rule="evenodd" d="M25.5021 23.6981C25.5997 23.7572 25.7074 23.7841 25.8254 23.7787C29.8399 23.7787 33.8544 23.7786 37.8689 23.7786C38.4348 23.7786 39.0006 23.7786 39.5664 23.7786C39.5664 30.6576 39.5664 37.5362 39.5664 44.4153C35.7923 44.4523 32.0202 44.412 28.2503 44.2944C23.9886 43.2686 21.5233 40.5949 20.8544 36.2733C20.814 32.1082 20.8005 27.9432 20.814 23.778C22.3907 23.8046 23.9534 23.7784 25.5021 23.6981Z" fill="#F9D179"/>
<path fill-rule="evenodd" clip-rule="evenodd" d="M39.5664 23.7786C40.1322 23.7786 40.698 23.7786 41.2638 23.7786C41.5602 23.7786 41.8565 23.7785 42.153 23.7785C42.153 30.2276 42.1529 36.6763 42.1529 43.1255C41.3108 44.4024 40.4486 45.6654 39.5664 46.9143C39.5664 46.0813 39.5664 45.2483 39.5664 44.4153C39.5664 37.5362 39.5664 30.6576 39.5664 23.7786Z" fill="#E4A95B"/>
<path fill-rule="evenodd" clip-rule="evenodd" d="M42.153 23.7785C42.9073 23.7785 43.6618 23.778 44.4161 23.778C44.4701 23.778 44.5239 23.778 44.5778 23.778C44.6317 23.778 44.6856 23.778 44.7395 23.778C44.7395 31.0602 44.7395 38.3424 44.7395 45.6245C43.8773 44.7915 43.0152 43.9585 42.1529 43.1255C42.1529 36.6763 42.153 30.2276 42.153 23.7785Z" fill="#D18E42"/>
<path fill-rule="evenodd" clip-rule="evenodd" d="M27.3611 28.6159C28.9426 28.4823 30.4784 28.6839 31.9684 29.2205C32.7439 29.5097 33.2289 30.047 33.4233 30.8328C33.3592 31.488 33.0359 31.9717 32.4534 32.2838C30.8343 33.0252 29.1369 33.2939 27.3611 33.09C26.3132 32.9924 25.3433 32.67 24.4513 32.1226C23.4813 31.2896 23.4813 30.4566 24.4513 29.6236C25.359 29.0845 26.3289 28.7487 27.3611 28.6159Z" fill="#F8AD22"/>
<path fill-rule="evenodd" clip-rule="evenodd" d="M27.927 28.9379C29.1965 28.909 30.4358 29.0837 31.6451 29.4619C33.5753 30.3987 33.5753 31.3392 31.6451 32.2834C29.5963 32.9699 27.5486 32.9699 25.5021 32.2834C23.572 31.3392 23.572 30.3987 25.5021 29.4619C26.3047 29.2079 27.113 29.0333 27.927 28.9379Z" fill="#88AB00"/>
<path fill-rule="evenodd" clip-rule="evenodd" d="M42.1529 43.1255C43.0152 43.9585 43.8773 44.7915 44.7395 45.6245C44.7298 45.7121 44.6759 45.7658 44.5778 45.7857C42.912 46.2145 41.2416 46.6176 39.5664 46.9949C39.5664 46.9681 39.5664 46.9412 39.5664 46.9143C40.4486 45.6654 41.3108 44.4024 42.1529 43.1255Z" fill="#A15C27"/>
</g>
<defs>
<filter id="filter0_dd_3_13115" x="0.124512" y="0" width="62.0005" height="62" filterUnits="userSpaceOnUse" color-interpolation-filters="sRGB">
<feFlood flood-opacity="0" result="BackgroundImageFix"/>
<feColorMatrix in="SourceAlpha" type="matrix" values="0 0 0 0 0 0 0 0 0 0 0 0 0 0 0 0 0 0 127 0" result="hardAlpha"/>
<feOffset dy="1"/>
<feGaussianBlur stdDeviation="1.5"/>
<feComposite in2="hardAlpha" operator="out"/>
<feColorMatrix type="matrix" values="0 0 0 0 0 0 0 0 0 0 0 0 0 0 0 0 0 0 0.3 0"/>
<feBlend mode="normal" in2="BackgroundImageFix" result="effect1_dropShadow_3_13115"/>
<feColorMatrix in="SourceAlpha" type="matrix" values="0 0 0 0 0 0 0 0 0 0 0 0 0 0 0 0 0 0 127 0" result="hardAlpha"/>
<feMorphology radius="3" operator="dilate" in="SourceAlpha" result="effect2_dropShadow_3_13115"/>
<feOffset dy="4"/>
<feGaussianBlur stdDeviation="4"/>
<feComposite in2="hardAlpha" operator="out"/>
<feColorMatrix type="matrix" values="0 0 0 0 0 0 0 0 0 0 0 0 0 0 0 0 0 0 0.15 0"/>
<feBlend mode="normal" in2="effect1_dropShadow_3_13115" result="effect2_dropShadow_3_13115"/>
<feBlend mode="normal" in="SourceGraphic" in2="effect2_dropShadow_3_13115" result="shape"/>
</filter>
</defs>
</svg>
