<svg width="63" height="62" viewBox="0 0 63 62" fill="none" xmlns="http://www.w3.org/2000/svg">
<g filter="url(#filter0_dd_3_13158)">
<path fill-rule="evenodd" clip-rule="evenodd" d="M47.9384 21.5748C46.8507 21.3427 45.7506 21.2085 44.6379 21.1722C44.8026 20.9414 45.0173 20.7669 45.2819 20.6488C45.6576 20.5682 46.0332 20.4877 46.4089 20.4072C46.521 20.3129 46.5882 20.1921 46.6101 20.0448C46.6638 17.3338 46.6638 14.6229 46.6101 11.9119C46.5727 11.7967 46.5056 11.7028 46.4089 11.6301C44.954 11.5435 44.1623 10.7785 44.0342 9.33519C43.9967 9.21997 43.9296 9.12603 43.8329 9.05335C34.8216 8.91964 25.8058 8.89281 16.7854 8.97283C16.611 9.03993 16.4902 9.16072 16.4232 9.33519C16.3293 10.7175 15.5914 11.4556 14.2095 11.5496C14.035 11.6167 13.9143 11.7375 13.8472 11.9119C13.7935 14.6229 13.7935 17.3338 13.8472 20.0448C13.8692 20.1921 13.9363 20.3129 14.0485 20.4072C15.467 20.4844 16.2586 21.2225 16.4232 22.6216C16.4452 22.7689 16.5123 22.8897 16.6244 22.984C23.9164 23.1043 31.2149 23.1446 38.52 23.1047C38.0072 23.6477 37.7121 24.2919 37.6345 25.0373C29.048 25.0373 20.4615 25.0373 11.875 25.0373C11.875 19.0248 11.875 13.0124 11.875 7C23.8961 7 35.9173 7 47.9384 7C47.9384 11.8583 47.9384 16.7166 47.9384 21.5748Z" fill="#C8F6B5"/>
<path fill-rule="evenodd" clip-rule="evenodd" d="M44.6378 21.1721C44.1001 21.1811 43.5634 21.208 43.0279 21.2526C43.4758 20.2099 44.254 19.5657 45.3623 19.3201C45.3623 17.1191 45.3623 14.9181 45.3623 12.7171C44.0207 12.395 43.1889 11.563 42.8669 10.2209C39.5259 10.1942 36.1986 10.221 32.885 10.3014C30.8954 9.34417 28.9098 9.34417 26.9282 10.3014C23.8288 10.1943 20.7162 10.1943 17.5903 10.3014C17.2415 11.563 16.4365 12.3682 15.1754 12.7171C15.0949 14.9174 15.068 17.1185 15.0949 19.3201C16.4365 19.6422 17.2683 20.4742 17.5903 21.8163C20.7166 21.843 23.8293 21.8162 26.9282 21.7358C28.9102 22.6965 30.8958 22.6965 32.885 21.7358C35.474 21.8162 38.0769 21.843 40.6934 21.8163C39.908 22.1421 39.1835 22.5715 38.5199 23.1047C31.2149 23.1446 23.9163 23.1043 16.6243 22.9839C16.5122 22.8896 16.4451 22.7688 16.4231 22.6216C16.2585 21.2225 15.4669 20.4844 14.0484 20.4071C13.9362 20.3129 13.8692 20.1921 13.8471 20.0448C13.7935 17.3338 13.7935 14.6229 13.8471 11.9119C13.9142 11.7374 14.035 11.6166 14.2094 11.5495C15.5913 11.4556 16.3292 10.7175 16.4231 9.33514C16.4902 9.16067 16.6109 9.03989 16.7853 8.97279C25.8057 8.89276 34.8215 8.9196 43.8329 9.05331C43.9295 9.12598 43.9967 9.21993 44.0341 9.33514C44.1623 10.7785 44.9539 11.5435 46.4088 11.6301C46.5055 11.7027 46.5726 11.7967 46.6101 11.9119C46.6637 14.6229 46.6637 17.3338 46.6101 20.0448C46.5881 20.1921 46.5209 20.3129 46.4088 20.4071C46.0331 20.4877 45.6575 20.5682 45.2818 20.6487C45.0172 20.7668 44.8025 20.9413 44.6378 21.1721Z" fill="#89C585"/>
<path fill-rule="evenodd" clip-rule="evenodd" d="M32.885 10.3013C35.8016 12.0586 36.8615 14.6085 36.0647 17.951C35.4804 19.6218 34.4205 20.8833 32.885 21.7356C30.8957 22.6964 28.9102 22.6964 26.9281 21.7356C24.1135 20.0485 23.0268 17.5792 23.6679 14.3275C24.2124 12.5357 25.2992 11.1937 26.9281 10.3013C28.9098 9.34401 30.8953 9.34401 32.885 10.3013Z" fill="#C8F6B5"/>
<path fill-rule="evenodd" clip-rule="evenodd" d="M26.9283 10.3016C25.2993 11.194 24.2126 12.5361 23.6681 14.3278C23.0269 17.5795 24.1137 20.0488 26.9283 21.7359C23.8294 21.8164 20.7168 21.8432 17.5905 21.8165C17.2685 20.4744 16.4367 19.6423 15.095 19.3202C15.0682 17.1186 15.095 14.9176 15.1755 12.7173C16.4367 12.3684 17.2416 11.5631 17.5905 10.3016C20.7163 10.1944 23.8289 10.1944 26.9283 10.3016Z" fill="#7BB57A"/>
<path fill-rule="evenodd" clip-rule="evenodd" d="M32.8853 10.3015C36.1988 10.2211 39.5261 10.1942 42.8671 10.221C43.1891 11.563 44.0209 12.3951 45.3625 12.7172C45.3625 14.9182 45.3625 17.1192 45.3625 19.3201C44.2542 19.5657 43.476 20.2099 43.0281 21.2527C42.2482 21.4276 41.4701 21.6155 40.6936 21.8164C38.0771 21.8431 35.4742 21.8162 32.8853 21.7359C34.4207 20.8835 35.4806 19.622 36.0649 17.9512C36.8617 14.6087 35.8018 12.0588 32.8853 10.3015Z" fill="#7BB57A"/>
<path fill-rule="evenodd" clip-rule="evenodd" d="M29.2628 11.5092C29.6921 11.5092 30.1215 11.5092 30.5508 11.5092C30.5508 11.9387 30.5508 12.3681 30.5508 12.7976C30.9801 12.7976 31.4094 12.7976 31.8387 12.7976C31.8387 13.2271 31.8387 13.6565 31.8387 14.086C31.4094 14.086 30.9801 14.086 30.5508 14.086C30.5508 14.5154 30.5508 14.9449 30.5508 15.3744C31.9093 15.5655 32.54 16.3439 32.4425 17.7095C32.1583 18.6517 31.5278 19.1616 30.5508 19.2395C30.5508 19.6689 30.5508 20.0984 30.5508 20.5279C30.1215 20.5279 29.6921 20.5279 29.2628 20.5279C29.2628 20.0984 29.2628 19.6689 29.2628 19.2395C28.8335 19.2395 28.4041 19.2395 27.9748 19.2395C27.9748 18.8101 27.9748 18.3805 27.9748 17.9511C28.4041 17.9511 28.8335 17.9511 29.2628 17.9511C29.2628 17.5217 29.2628 17.0922 29.2628 16.6627C28.0921 16.525 27.4481 15.8674 27.3308 14.6899C27.4188 13.7692 27.9018 13.1518 28.7798 12.8379C28.9386 12.798 29.0996 12.7845 29.2628 12.7976C29.2628 12.3681 29.2628 11.9387 29.2628 11.5092Z" fill="#5B8E63"/>
<path fill-rule="evenodd" clip-rule="evenodd" d="M29.0212 14.0862C29.1017 14.0862 29.1822 14.0862 29.2627 14.0862C29.2627 14.5155 29.2627 14.9449 29.2627 15.3742C28.7433 15.3024 28.542 15.0072 28.6589 14.4887C28.7414 14.3126 28.8622 14.1785 29.0212 14.0862Z" fill="#C4F2B2"/>
<path fill-rule="evenodd" clip-rule="evenodd" d="M18.7172 15.3747C19.3739 15.3202 19.6557 15.6154 19.5625 16.2602C19.3833 16.6112 19.1016 16.732 18.7172 16.6224C18.3662 16.4432 18.2455 16.1615 18.355 15.7772C18.4375 15.6011 18.5583 15.467 18.7172 15.3747Z" fill="#C5F4B3"/>
<path fill-rule="evenodd" clip-rule="evenodd" d="M41.257 15.3747C41.9138 15.3202 42.1955 15.6154 42.1023 16.2602C41.9231 16.6112 41.6413 16.732 41.257 16.6224C40.906 16.4432 40.7852 16.1615 40.8948 15.7772C40.9773 15.6011 41.0981 15.467 41.257 15.3747Z" fill="#C5F4B3"/>
<path fill-rule="evenodd" clip-rule="evenodd" d="M30.5506 16.6627C31.1513 16.7907 31.3257 17.1396 31.0738 17.7092C30.9489 17.8272 30.8013 17.9077 30.6311 17.9507C30.551 17.5247 30.5242 17.0954 30.5506 16.6627Z" fill="#C4F3B2"/>
<path opacity="0.998" fill-rule="evenodd" clip-rule="evenodd" d="M44.6379 21.1724C45.7505 21.2087 46.8507 21.3429 47.9383 21.575C49.0226 21.8087 49.9886 22.2784 50.8363 22.9842C51.5464 23.586 51.8684 24.351 51.8023 25.2791C51.6003 26.1242 51.1441 26.8086 50.4338 27.3325C48.2578 28.6537 45.8965 29.1637 43.3499 28.8624C42.2933 28.747 41.2736 28.492 40.291 28.0974C39.4293 27.6996 38.6914 27.1359 38.0773 26.4064C37.8882 26.0649 37.7406 25.7159 37.6345 25.3596C37.6345 25.2523 37.6345 25.1449 37.6345 25.0375C37.712 24.2921 38.0071 23.6479 38.52 23.105C39.1836 22.5718 39.908 22.1424 40.6935 21.8166C41.47 21.6157 42.2481 21.4278 43.0279 21.2529C43.5635 21.2083 44.1002 21.1814 44.6379 21.1724Z" fill="#FEBF51"/>
<path fill-rule="evenodd" clip-rule="evenodd" d="M49.1458 25.3587C48.8859 24.8977 48.5102 24.5624 48.0188 24.3525C45.8807 23.5823 43.734 23.5555 41.5789 24.272C41.0839 24.4652 40.6814 24.7737 40.3714 25.1977C40.279 25.1743 40.2253 25.1072 40.2104 24.9965C40.4536 24.2974 40.9366 23.8412 41.6594 23.628C43.8516 22.903 46.025 22.9566 48.1798 23.789C48.7255 24.0519 49.0744 24.4678 49.2263 25.0367C49.2254 25.1611 49.1986 25.2684 49.1458 25.3587Z" fill="#CA7E12"/>
<path fill-rule="evenodd" clip-rule="evenodd" d="M49.1459 25.3595C48.8075 25.9192 48.3245 26.3084 47.697 26.5271C45.7111 27.1158 43.7254 27.1158 41.7401 26.5271C41.158 26.3377 40.6884 26.0022 40.3313 25.5205C40.2847 25.4055 40.2982 25.2981 40.3716 25.1984C40.6815 24.7743 41.084 24.4657 41.5791 24.2724C43.7342 23.5557 45.8808 23.5825 48.0189 24.3529C48.5103 24.5629 48.886 24.8983 49.1459 25.3595Z" fill="#FEDD74"/>
<path fill-rule="evenodd" clip-rule="evenodd" d="M11.875 25.0374C20.4615 25.0374 29.048 25.0374 37.6345 25.0374C37.6345 25.1447 37.6345 25.2521 37.6345 25.3594C37.6345 25.6814 37.6345 26.0034 37.6345 26.3253C29.048 26.3253 20.4615 26.3253 11.875 26.3253C11.875 25.896 11.875 25.4667 11.875 25.0374Z" fill="#88C584"/>
<path fill-rule="evenodd" clip-rule="evenodd" d="M51.8023 25.2787C51.8023 25.7618 51.8023 26.2449 51.8023 26.7281C51.4978 27.718 50.8806 28.4562 49.9509 28.9425C47.21 30.2696 44.3657 30.538 41.418 29.7477C40.6435 29.4406 40.2679 28.8904 40.291 28.097C41.2737 28.4916 42.2934 28.7466 43.35 28.862C45.8966 29.1633 48.2578 28.6532 50.4339 27.332C51.1442 26.8082 51.6004 26.1238 51.8023 25.2787Z" fill="#EF9413"/>
<path fill-rule="evenodd" clip-rule="evenodd" d="M11.875 26.3259C20.4615 26.3259 29.048 26.3259 37.6345 26.3259C37.6345 26.7552 37.6345 27.1845 37.6345 27.6138C29.048 27.6138 20.4615 27.6138 11.875 27.6138C11.875 27.1845 11.875 26.7552 11.875 26.3259Z" fill="#5A9159"/>
<path fill-rule="evenodd" clip-rule="evenodd" d="M11.875 27.6138C20.4615 27.6138 29.048 27.6138 37.6345 27.6138C37.6345 28.0431 37.6345 28.4725 37.6345 28.9018C35.5684 28.9018 33.5023 28.9018 31.4361 28.9018C30.7922 28.9018 30.1482 28.9018 29.5042 28.9018C23.6278 28.9018 17.7514 28.9018 11.875 28.9018C11.875 28.4725 11.875 28.0431 11.875 27.6138Z" fill="#88C584"/>
<path fill-rule="evenodd" clip-rule="evenodd" d="M51.8023 28.0974C51.8023 28.5268 51.8023 28.9563 51.8023 29.3858C51.463 30.3297 50.8459 31.041 49.9508 31.5197C47.87 32.5475 45.6698 32.9502 43.35 32.7275C42.5062 32.6496 41.7012 32.435 40.935 32.0833C40.4757 31.688 40.2475 31.1914 40.2508 30.5936C41.9829 31.3551 43.7942 31.6369 45.6844 31.4391C47.3763 31.3759 48.9327 30.8928 50.3533 29.9897C51.043 29.5051 51.526 28.8744 51.8023 28.0974Z" fill="#FEC950"/>
<path fill-rule="evenodd" clip-rule="evenodd" d="M11.875 28.9023C17.7514 28.9023 23.6278 28.9023 29.5042 28.9023C28.0105 29.0677 26.5884 29.497 25.2378 30.1903C20.7835 30.1903 16.3293 30.1903 11.875 30.1903C11.875 29.761 11.875 29.3316 11.875 28.9023Z" fill="#5B9159"/>
<path fill-rule="evenodd" clip-rule="evenodd" d="M29.5042 28.9023C30.1482 28.9023 30.7922 28.9023 31.4362 28.9023C32.9875 29.0424 34.4633 29.4718 35.8636 30.1907C36.4211 30.5067 36.8773 30.9361 37.2321 31.4791C37.3688 31.7528 37.503 32.0212 37.6345 32.2843C37.6562 32.6411 37.6294 32.9901 37.554 33.3311C37.3704 34.0056 36.9947 34.5558 36.4271 34.9819C34.2848 36.3192 31.9503 36.8561 29.4237 36.5924C28.2423 36.5117 27.1153 36.2298 26.0428 35.7469C25.3365 35.4297 24.7058 35.0002 24.151 34.4585C23.8333 34.0376 23.6053 33.5813 23.4668 33.0896C23.4668 32.9822 23.4668 32.8748 23.4668 32.7675C23.4725 32.2942 23.6067 31.8647 23.8693 31.4791C24.2419 30.9579 24.698 30.5284 25.2378 30.1907C26.5884 29.4972 28.0105 29.0677 29.5042 28.9023Z" fill="#FEBF51"/>
<path fill-rule="evenodd" clip-rule="evenodd" d="M31.436 28.9023C33.5022 28.9023 35.5683 28.9023 37.6344 28.9023C37.6344 29.3316 37.6344 29.761 37.6344 30.1903C37.0441 30.1903 36.4538 30.1903 35.8635 30.1903C34.4632 29.4716 32.9874 29.0423 31.436 28.9023Z" fill="#5D9159"/>
<path fill-rule="evenodd" clip-rule="evenodd" d="M11.875 30.1908C16.3293 30.1908 20.7835 30.1908 25.2378 30.1908C24.698 30.5284 24.2419 30.9577 23.8693 31.4788C19.8712 31.4788 15.8731 31.4788 11.875 31.4788C11.875 31.0495 11.875 30.6201 11.875 30.1908Z" fill="#89C484"/>
<path fill-rule="evenodd" clip-rule="evenodd" d="M35.8635 30.1908C36.4538 30.1908 37.0442 30.1908 37.6345 30.1908C37.6345 30.6201 37.6345 31.0495 37.6345 31.4788C37.5003 31.4788 37.3662 31.4788 37.232 31.4788C36.8772 30.936 36.4211 30.5067 35.8635 30.1908Z" fill="#8AC484"/>
<path fill-rule="evenodd" clip-rule="evenodd" d="M37.6346 25.3592C37.7407 25.7156 37.8882 26.0645 38.0773 26.406C38.6914 27.1355 39.4294 27.6992 40.291 28.097C40.2678 28.8904 40.6435 29.4407 41.418 29.7478C44.3657 30.538 47.21 30.2697 49.9509 28.9425C50.8806 28.4563 51.4978 27.7181 51.8023 26.7281C51.8023 27.1845 51.8023 27.6407 51.8023 28.097C51.5261 28.874 51.0431 29.5048 50.3534 29.9893C48.9327 30.8924 47.3764 31.3756 45.6844 31.4388C43.7942 31.6365 41.983 31.3547 40.2508 30.5933C40.2476 31.1911 40.4757 31.6877 40.935 32.083C41.7012 32.4346 42.5062 32.6493 43.35 32.7272C45.6698 32.9498 47.8701 32.5472 49.9509 31.5193C50.8459 31.0407 51.463 30.3293 51.8023 29.3854C51.8023 29.7343 51.8023 30.0833 51.8023 30.4322C51.6004 31.2773 51.1442 31.9618 50.4339 32.4856C47.7714 34.0523 44.9271 34.4818 41.901 33.774C41.3327 33.6068 40.7692 33.4323 40.2105 33.2506C40.2699 34.0544 40.6724 34.6046 41.418 34.9013C44.3657 35.6916 47.21 35.4232 49.9509 34.0961C50.8806 33.6098 51.4978 32.8716 51.8023 31.8817C51.8023 32.338 51.8023 32.7942 51.8023 33.2506C51.3123 34.452 50.4536 35.2975 49.2264 35.7871C46.6404 36.7466 44.0108 36.8807 41.3375 36.1897C40.9545 36.0889 40.5923 35.9413 40.2508 35.7468C40.2606 36.6972 40.7302 37.3011 41.6595 37.5586C44.05 38.1102 46.4113 38.0028 48.7434 37.2365C49.6405 36.9017 50.4321 36.4052 51.1181 35.7468C51.3903 35.3627 51.6183 34.9601 51.8023 34.5389C51.8023 34.8878 51.8023 35.2368 51.8023 35.5857C51.6102 36.3831 51.1809 37.0407 50.5144 37.5586C48.6643 38.7291 46.6385 39.2793 44.4367 39.2093C43.0053 39.1564 41.6234 38.8612 40.291 38.3236C40.2471 39.1591 40.6227 39.7362 41.418 40.0548C44.3657 40.8451 47.21 40.5767 49.9509 39.2496C50.8806 38.7633 51.4978 38.0251 51.8023 37.0352C51.8023 37.4915 51.8023 37.9477 51.8023 38.4041C51.3123 39.6055 50.4536 40.451 49.2264 40.9406C46.6404 41.9001 44.0108 42.0342 41.3375 41.3432C40.9545 41.2425 40.5923 41.0948 40.2508 40.9003C40.2606 41.8507 40.7302 42.4547 41.6595 42.7121C44.05 43.2638 46.4113 43.1563 48.7434 42.39C49.6405 42.0552 50.4321 41.5587 51.1181 40.9003C51.3903 40.5162 51.6183 40.1136 51.8023 39.6925C51.8023 40.0414 51.8023 40.3904 51.8023 40.7393C51.6102 41.5366 51.1809 42.1942 50.5144 42.7121C48.6643 43.8826 46.6385 44.4328 44.4367 44.3628C43.0053 44.3099 41.6234 44.0147 40.291 43.4771C40.26 44.4284 40.7162 45.0323 41.6595 45.2888C44.5348 45.9888 47.2986 45.6936 49.9509 44.4031C50.8806 43.9168 51.4978 43.1786 51.8023 42.1887C52.034 43.3589 51.712 44.3385 50.8363 45.1278C49.4576 46.1605 47.9014 46.751 46.1674 46.8993C43.6047 47.2295 41.2165 46.7463 39.0031 45.4499C38.4132 44.9804 37.9571 44.4033 37.6346 43.7186C37.1948 44.7357 36.4703 45.4738 35.4611 45.933C33.0794 46.9597 30.6108 47.2281 28.0552 46.7383C26.5655 46.4754 25.2642 45.8446 24.1511 44.846C23.9431 44.5644 23.7553 44.2691 23.5876 43.9602C23.4684 41.0932 23.4282 38.2211 23.4668 35.3442C23.4668 34.9147 23.4668 34.4852 23.4668 34.0558C23.4668 33.7337 23.4668 33.4116 23.4668 33.0895C23.6053 33.5813 23.8333 34.0375 24.1511 34.4584C24.7059 35.0002 25.3365 35.4296 26.0428 35.7468C26.0936 36.6968 26.5766 37.3007 27.4918 37.5586C30.0386 38.1611 32.534 38.0001 34.9781 37.0754C35.8588 36.7096 36.5967 36.1593 37.1918 35.4247C37.6115 34.7655 37.7322 34.0676 37.5541 33.3311C37.6294 32.9901 37.6562 32.6411 37.6346 32.2843C37.6346 32.0159 37.6346 31.7474 37.6346 31.479C37.6346 31.0496 37.6346 30.6201 37.6346 30.1907C37.6346 29.7612 37.6346 29.3317 37.6346 28.9023C37.6346 28.4728 37.6346 28.0433 37.6346 27.6139C37.6346 27.1845 37.6346 26.755 37.6346 26.3255C37.6346 26.0034 37.6346 25.6813 37.6346 25.3592Z" fill="#DE8800"/>
<path fill-rule="evenodd" clip-rule="evenodd" d="M51.8022 30.4326C51.8022 30.9157 51.8022 31.3989 51.8022 31.882C51.4977 32.872 50.8805 33.6101 49.9508 34.0964C47.2099 35.4235 44.3656 35.6919 41.4179 34.9017C40.6723 34.605 40.2698 34.0548 40.2104 33.2509C40.7691 33.4327 41.3326 33.6072 41.9009 33.7743C44.927 34.4822 47.7713 34.0527 50.4338 32.486C51.1441 31.9621 51.6003 31.2777 51.8022 30.4326Z" fill="#EF9312"/>
<path fill-rule="evenodd" clip-rule="evenodd" d="M34.9781 33.0889C34.7181 32.6279 34.3424 32.2926 33.8511 32.0827C31.713 31.3125 29.5663 31.2857 27.4112 32.0022C26.9161 32.1954 26.5136 32.5039 26.2037 32.9279C26.1077 32.8901 26.054 32.8096 26.0427 32.6864C26.2309 32.1623 26.5797 31.7733 27.0892 31.5192C29.5678 30.5523 32.0097 30.6328 34.4146 31.7607C34.915 32.1006 35.1028 32.5433 34.9781 33.0889Z" fill="#C97E12"/>
<path fill-rule="evenodd" clip-rule="evenodd" d="M11.875 31.4793C15.8731 31.4793 19.8712 31.4793 23.8693 31.4793C23.6067 31.8648 23.4725 32.2941 23.4668 32.7673C19.6029 32.7673 15.7389 32.7673 11.875 32.7673C11.875 32.338 11.875 31.9086 11.875 31.4793Z" fill="#5B9159"/>
<path fill-rule="evenodd" clip-rule="evenodd" d="M34.9781 33.0894C34.927 33.3425 34.7929 33.5438 34.5756 33.6934C33.3395 34.4319 31.9979 34.7675 30.5507 34.6999C29.0985 34.7881 27.7569 34.4525 26.5257 33.6934C26.2223 33.5042 26.1149 33.2493 26.2037 32.9284C26.5137 32.5043 26.9161 32.1956 27.4112 32.0024C29.5663 31.2856 31.713 31.3124 33.8511 32.0829C34.3425 32.2928 34.7181 32.6283 34.9781 33.0894Z" fill="#FDDD74"/>
<path fill-rule="evenodd" clip-rule="evenodd" d="M37.2319 31.4793C37.3661 31.4793 37.5002 31.4793 37.6344 31.4793C37.6344 31.7476 37.6344 32.016 37.6344 32.2843C37.5029 32.0212 37.3687 31.7529 37.2319 31.4793Z" fill="#669459"/>
<path fill-rule="evenodd" clip-rule="evenodd" d="M11.875 32.7678C15.7389 32.7678 19.6029 32.7678 23.4668 32.7678C23.4668 32.8751 23.4668 32.9825 23.4668 33.0898C23.4668 33.4118 23.4668 33.7338 23.4668 34.0558C19.6029 34.0558 15.7389 34.0558 11.875 34.0558C11.875 33.6265 11.875 33.1971 11.875 32.7678Z" fill="#88C584"/>
<path fill-rule="evenodd" clip-rule="evenodd" d="M37.554 33.3315C37.7322 34.0679 37.6114 34.7658 37.1918 35.4251C36.5966 36.1597 35.8587 36.71 34.9781 37.0758C32.534 38.0005 30.0385 38.1615 27.4917 37.5589C26.5765 37.3011 26.0935 36.6972 26.0427 35.7472C27.1153 36.2301 28.2423 36.512 29.4237 36.5927C31.9503 36.8564 34.2847 36.3195 36.427 34.9822C36.9947 34.5561 37.3704 34.0059 37.554 33.3315Z" fill="#EF9413"/>
<path fill-rule="evenodd" clip-rule="evenodd" d="M51.8023 33.2509C51.8023 33.6803 51.8023 34.1098 51.8023 34.5392C51.6183 34.9604 51.3902 35.363 51.118 35.7471C50.432 36.4055 49.6404 36.902 48.7433 37.2368C46.4112 38.0031 44.0499 38.1106 41.6595 37.5589C40.7301 37.3015 40.2606 36.6975 40.2507 35.7471C40.5922 35.9416 40.9545 36.0892 41.3375 36.19C44.0107 36.881 46.6404 36.7469 49.2263 35.7874C50.4535 35.2978 51.3122 34.4523 51.8023 33.2509Z" fill="#FECA50"/>
<path fill-rule="evenodd" clip-rule="evenodd" d="M11.875 34.0558C15.7389 34.0558 19.6029 34.0558 23.4668 34.0558C23.4668 34.4851 23.4668 34.9145 23.4668 35.3438C19.6029 35.3438 15.7389 35.3438 11.875 35.3438C11.875 34.9145 11.875 34.4851 11.875 34.0558Z" fill="#5A9159"/>
<path fill-rule="evenodd" clip-rule="evenodd" d="M37.5541 35.8273C37.7711 37.3658 37.1808 38.5065 35.7831 39.2496C34.0572 40.1479 32.2191 40.5639 30.269 40.4977C29.0502 40.5183 27.883 40.2901 26.7673 39.8133C26.3069 39.4162 26.0789 38.9196 26.0831 38.3236C27.8415 39.0926 29.6796 39.3744 31.5972 39.1691C33.4072 39.0845 35.0441 38.5209 36.5076 37.4781C37.0429 37.0385 37.3917 36.4883 37.5541 35.8273Z" fill="#FECA50"/>
<path fill-rule="evenodd" clip-rule="evenodd" d="M51.8023 35.5861C51.8023 36.0692 51.8023 36.5523 51.8023 37.0355C51.4978 38.0254 50.8806 38.7636 49.9509 39.2499C47.21 40.577 44.3657 40.8454 41.418 40.0551C40.6227 39.7365 40.2471 39.1595 40.2911 38.3239C41.6235 38.8615 43.0053 39.1567 44.4367 39.2096C46.6385 39.2796 48.6644 38.7294 50.5144 37.5589C51.1809 37.041 51.6102 36.3834 51.8023 35.5861Z" fill="#EF9413"/>
<path fill-rule="evenodd" clip-rule="evenodd" d="M37.5541 38.1626C37.8439 39.7973 37.2536 41.0185 35.7831 41.8264C33.1287 43.1028 30.3649 43.398 27.4917 42.7121C26.5624 42.4547 26.0928 41.8508 26.083 40.9004C28.6176 41.8818 31.2069 42.0295 33.8511 41.3432C34.9114 41.0009 35.8773 40.491 36.7491 39.8133C37.1843 39.3396 37.4526 38.7893 37.5541 38.1626Z" fill="#EF9312"/>
<path fill-rule="evenodd" clip-rule="evenodd" d="M51.8023 38.4043C51.8023 38.8338 51.8023 39.2633 51.8023 39.6927C51.6183 40.1138 51.3902 40.5165 51.118 40.9006C50.432 41.5589 49.6404 42.0554 48.7433 42.3902C46.4112 43.1566 44.0499 43.264 41.6595 42.7123C40.7301 42.4549 40.2606 41.851 40.2507 40.9006C40.5922 41.095 40.9545 41.2427 41.3375 41.3434C44.0107 42.0345 46.6404 41.9003 49.2263 40.9408C50.4535 40.4512 51.3122 39.6057 51.8023 38.4043Z" fill="#FECA50"/>
<path fill-rule="evenodd" clip-rule="evenodd" d="M37.5541 40.9808C37.7711 42.5192 37.1808 43.66 35.7831 44.4031C34.0572 45.3014 32.2191 45.7174 30.269 45.6512C29.0502 45.6717 27.883 45.4436 26.7673 44.9667C26.3069 44.5697 26.0789 44.0731 26.0831 43.4771C27.8415 44.2461 29.6796 44.5279 31.5972 44.3226C33.4072 44.238 35.0441 43.6743 36.5076 42.6316C37.0429 42.192 37.3917 41.6418 37.5541 40.9808Z" fill="#FECA50"/>
<path fill-rule="evenodd" clip-rule="evenodd" d="M51.8023 40.7395C51.8023 41.2227 51.8023 41.7058 51.8023 42.189C51.4978 43.1789 50.8806 43.9171 49.9509 44.4034C47.2986 45.6939 44.5348 45.9891 41.6595 45.2891C40.7162 45.0326 40.26 44.4286 40.291 43.4773C41.6234 44.015 43.0053 44.3102 44.4367 44.3631C46.6385 44.4331 48.6643 43.8829 50.5143 42.7124C51.1809 42.1945 51.6102 41.5369 51.8023 40.7395Z" fill="#EF9413"/>
</g>
<defs>
<filter id="filter0_dd_3_13158" x="0.875" y="0" width="62" height="61.9998" filterUnits="userSpaceOnUse" color-interpolation-filters="sRGB">
<feFlood flood-opacity="0" result="BackgroundImageFix"/>
<feColorMatrix in="SourceAlpha" type="matrix" values="0 0 0 0 0 0 0 0 0 0 0 0 0 0 0 0 0 0 127 0" result="hardAlpha"/>
<feOffset dy="1"/>
<feGaussianBlur stdDeviation="1.5"/>
<feComposite in2="hardAlpha" operator="out"/>
<feColorMatrix type="matrix" values="0 0 0 0 0 0 0 0 0 0 0 0 0 0 0 0 0 0 0.3 0"/>
<feBlend mode="normal" in2="BackgroundImageFix" result="effect1_dropShadow_3_13158"/>
<feColorMatrix in="SourceAlpha" type="matrix" values="0 0 0 0 0 0 0 0 0 0 0 0 0 0 0 0 0 0 127 0" result="hardAlpha"/>
<feMorphology radius="3" operator="dilate" in="SourceAlpha" result="effect2_dropShadow_3_13158"/>
<feOffset dy="4"/>
<feGaussianBlur stdDeviation="4"/>
<feComposite in2="hardAlpha" operator="out"/>
<feColorMatrix type="matrix" values="0 0 0 0 0 0 0 0 0 0 0 0 0 0 0 0 0 0 0.15 0"/>
<feBlend mode="normal" in2="effect1_dropShadow_3_13158" result="effect2_dropShadow_3_13158"/>
<feBlend mode="normal" in="SourceGraphic" in2="effect2_dropShadow_3_13158" result="shape"/>
</filter>
</defs>
</svg>
