<svg width="62" height="62" viewBox="0 0 62 62" fill="none" xmlns="http://www.w3.org/2000/svg">
<g filter="url(#filter0_dd_51_1751)">
<path d="M36.8026 9.5871V44.4129C36.8026 45.099 36.5301 45.7571 36.045 46.2423C35.5598 46.7274 34.9019 47 34.2159 47H13.5867C12.9007 47 12.2427 46.7274 11.7576 46.2423C11.2725 45.7571 11 45.099 11 44.4129V9.5871C11 8.90096 11.2725 8.24292 11.7576 7.75774C12.2427 7.27257 12.9007 7 13.5867 7H34.2159C34.9019 7 35.5598 7.27257 36.045 7.75774C36.5301 8.24292 36.8026 8.90096 36.8026 9.5871ZM14.2253 45.0637L23.9013 45.0629C27.3062 45.0651 30.7099 45.0656 34.1127 45.0645C34.2669 45.0645 34.3884 45.0478 34.4771 45.0145C34.715 44.9258 34.8682 44.6806 34.8682 44.4266C34.8677 32.8035 34.8674 21.2099 34.8674 9.64597C34.8674 9.37823 34.7432 9.12419 34.4957 9.00968C34.3903 8.96075 34.1911 8.93629 33.8982 8.93629C30.5852 8.93575 27.2798 8.93602 23.9819 8.9371C23.9658 8.9371 23.9392 8.94355 23.9021 8.95645C23.9016 8.95054 23.8975 8.94516 23.89 8.94032C23.8836 8.93602 23.8766 8.93387 23.869 8.93387C20.4013 8.93978 17.0897 8.93844 13.9342 8.92984C13.6327 8.92876 13.4244 8.94973 13.3093 8.99274C13.0604 9.08575 12.936 9.28844 12.936 9.60081C12.9365 21.1132 12.9368 32.6255 12.9368 44.1379C12.9368 44.4239 12.9642 44.6204 13.0191 44.7274C13.2408 45.1629 13.8052 45.0653 14.2253 45.0637Z" fill="#FA6E9A"/>
<path d="M23.9021 8.95645L23.9013 10.229L14.2963 10.2266C14.2871 10.2266 14.2779 10.2284 14.2694 10.232C14.2609 10.2355 14.2532 10.2407 14.2467 10.2472C14.2402 10.2537 14.235 10.2614 14.2315 10.2699C14.2279 10.2784 14.2261 10.2876 14.2261 10.2968L14.2253 45.0637C13.8052 45.0653 13.2408 45.1629 13.0191 44.7274C12.9642 44.6204 12.9368 44.4239 12.9368 44.1379C12.9368 32.6255 12.9365 21.1132 12.936 9.60081C12.936 9.28844 13.0604 9.08575 13.3093 8.99274C13.4244 8.94973 13.6327 8.92876 13.9342 8.92984C17.0897 8.93844 20.4013 8.93978 23.869 8.93387C23.8766 8.93387 23.8836 8.93602 23.89 8.94032C23.8975 8.94516 23.9016 8.95054 23.9021 8.95645Z" fill="#66504C"/>
<path d="M23.9013 45.0629L23.9013 10.229L23.9021 8.95645C23.9392 8.94355 23.9658 8.9371 23.9819 8.9371C27.2798 8.93602 30.5852 8.93575 33.8982 8.93629C34.1911 8.93629 34.3903 8.96075 34.4957 9.00968C34.7432 9.12419 34.8674 9.37823 34.8674 9.64597C34.8674 21.2099 34.8677 32.8035 34.8682 44.4266C34.8682 44.6806 34.715 44.9258 34.4771 45.0145C34.3884 45.0478 34.2669 45.0645 34.1127 45.0645C30.7099 45.0656 27.3062 45.0651 23.9013 45.0629ZM28.0958 20.5492L28.1119 25.6726L28.1023 25.696C28.0969 25.7089 28.0942 25.722 28.0942 25.7355L28.095 38.6258C28.0923 38.9887 28.0926 39.3479 28.0958 39.7032C28.1007 40.1815 28.1547 40.5121 28.4837 40.821C28.925 41.2355 29.4362 41.3054 30.0173 41.0307C30.4511 40.7828 30.6699 40.393 30.6737 39.8613C30.6769 39.4667 30.6753 39.0707 30.6688 38.6734C30.6688 38.654 30.6629 38.6333 30.6511 38.6113L30.6712 25.6911L30.6769 20.5556C31.0354 19.4551 31.3937 18.3575 31.7517 17.2629C32.0001 16.5032 32.1331 15.9839 32.1509 15.7048C32.1976 14.9511 31.9514 14.2766 31.4123 13.6815C31.0145 13.2427 30.5258 12.9715 29.9464 12.8677C28.2063 12.5436 26.6702 13.8516 26.667 15.6081C26.6665 15.8554 26.7576 16.2726 26.9404 16.8597C27.3236 18.0919 27.7088 19.3218 28.0958 20.5492Z" fill="#FDF3E6"/>
<path d="M23.9013 10.229L23.9013 45.0629L14.2253 45.0637L14.2261 10.2968C14.2261 10.2876 14.2279 10.2784 14.2315 10.2699C14.235 10.2614 14.2402 10.2537 14.2467 10.2472C14.2532 10.2407 14.2609 10.2355 14.2694 10.232C14.2779 10.2284 14.2871 10.2266 14.2963 10.2266L23.9013 10.229ZM21.6508 14.2315C21.6508 13.3755 21.3108 12.5546 20.7057 11.9493C20.1005 11.3441 19.2797 11.004 18.4239 11.004C17.568 11.004 16.7473 11.3441 16.1421 11.9493C15.5369 12.5546 15.197 13.3755 15.197 14.2315C15.197 15.0874 15.5369 15.9083 16.1421 16.5136C16.7473 17.1188 17.568 17.4589 18.4239 17.4589C19.2797 17.4589 20.1005 17.1188 20.7057 16.5136C21.3108 15.9083 21.6508 15.0874 21.6508 14.2315ZM21.6508 22.746C21.6508 21.89 21.3108 21.0691 20.7057 20.4638C20.1005 19.8586 19.2797 19.5185 18.4239 19.5185C17.568 19.5185 16.7473 19.8586 16.1421 20.4638C15.5369 21.0691 15.197 21.89 15.197 22.746C15.197 23.1698 15.2804 23.5895 15.4426 23.981C15.6048 24.3726 15.8424 24.7284 16.1421 25.0281C16.4417 25.3278 16.7975 25.5655 17.189 25.7277C17.5805 25.8899 18.0001 25.9734 18.4239 25.9734C18.8477 25.9734 19.2673 25.8899 19.6588 25.7277C20.0503 25.5655 20.406 25.3278 20.7057 25.0281C21.0053 24.7284 21.243 24.3726 21.4052 23.981C21.5674 23.5895 21.6508 23.1698 21.6508 22.746ZM21.654 31.2677C21.654 30.4111 21.3138 29.5896 20.7082 28.9839C20.1026 28.3782 19.2812 28.0379 18.4247 28.0379C17.5682 28.0379 16.7468 28.3782 16.1412 28.9839C15.5356 29.5896 15.1953 30.4111 15.1953 31.2677C15.1953 32.1243 15.5356 32.9459 16.1412 33.5516C16.7468 34.1573 17.5682 34.4976 18.4247 34.4976C19.2812 34.4976 20.1026 34.1573 20.7082 33.5516C21.3138 32.9459 21.654 32.1243 21.654 31.2677ZM16.8394 42.5903C17.2624 42.8286 17.7337 42.9684 18.2183 42.9992C18.7694 43.034 19.3201 42.9268 19.8179 42.6878C20.3157 42.4489 20.7438 42.0863 21.0614 41.6347C21.4115 41.1372 21.6139 40.5508 21.6451 39.9432C21.6764 39.3356 21.5352 38.7316 21.238 38.2008C21.1537 38.0505 21.0577 37.9076 20.9509 37.7734C20.6166 37.3514 20.182 37.0197 19.6867 36.8086C19.1914 36.5974 18.6511 36.5135 18.1151 36.5645C17.5148 36.6219 16.9426 36.8464 16.4633 37.2126C15.984 37.5787 15.6168 38.072 15.4034 38.6363C15.1931 39.1924 15.1406 39.7959 15.2516 40.38C15.3626 40.9642 15.6328 41.5064 16.0323 41.9468C16.2652 42.2032 16.5377 42.4205 16.8394 42.5903Z" fill="#725D57"/>
<path d="M18.4239 17.4589C20.2061 17.4589 21.6508 16.0139 21.6508 14.2315C21.6508 12.449 20.2061 11.004 18.4239 11.004C16.6417 11.004 15.197 12.449 15.197 14.2315C15.197 16.0139 16.6417 17.4589 18.4239 17.4589Z" fill="#FFB2D8"/>
<path d="M29.9464 12.8677C29.2997 13.1301 28.8148 13.4855 28.4917 13.9339C28.1224 14.4473 27.9445 15.0038 27.9579 15.6032C27.9644 15.8909 28.0856 16.4083 28.3216 17.1556C28.6753 18.2788 29.0266 19.4089 29.3755 20.546L28.0958 20.5492C27.7088 19.3218 27.3236 18.0919 26.9404 16.8597C26.7576 16.2726 26.6665 15.8554 26.667 15.6081C26.6702 13.8516 28.2063 12.5436 29.9464 12.8677Z" fill="#86746F"/>
<path d="M29.9464 12.8677C30.5258 12.9715 31.0145 13.2427 31.4123 13.6815C31.9514 14.2766 32.1976 14.9511 32.1509 15.7048C32.1331 15.9839 32.0001 16.5032 31.7517 17.2629C31.3937 18.3575 31.0354 19.4551 30.6769 20.5556L29.3819 20.55C29.3798 20.5489 29.3776 20.5476 29.3755 20.546C29.0266 19.4089 28.6753 18.2788 28.3216 17.1556C28.0856 16.4083 27.9644 15.8909 27.9579 15.6032C27.9445 15.0038 28.1224 14.4473 28.4917 13.9339C28.8148 13.4855 29.2997 13.1301 29.9464 12.8677Z" fill="#725D57"/>
<path d="M47.1801 13.346C47.1704 13.5976 47.2276 13.8726 47.2292 14.079C47.2389 15.0312 46.9801 15.8823 46.4527 16.6323C45.5722 17.8847 44.1305 18.3113 42.6662 17.8895C42.4614 17.8304 42.2276 17.6737 41.9647 17.4194V17.3508C41.9644 17.338 41.9671 17.3254 41.9726 17.3137C41.978 17.3021 41.9861 17.2919 41.9962 17.2839L47.0769 13.3065C47.0967 13.2909 47.1169 13.2901 47.1373 13.304C47.1545 13.3153 47.1688 13.3293 47.1801 13.346Z" fill="#EC5B78"/>
<path d="M47.1801 13.346C48.3552 14.3035 48.9801 15.5417 49.0548 17.0605C49.0747 17.4696 49.0722 18.4581 49.0475 20.0258C48.6492 20.8366 48.1791 21.518 47.6372 22.0702C46.7503 22.9761 45.6779 23.5745 44.42 23.8653C43.826 24.003 43.2317 24.1406 42.6372 24.2782C42.6092 24.2847 42.5353 24.2952 42.4154 24.3097C42.3036 24.3237 42.2346 24.3594 42.2082 24.4169L41.9639 24.4081L41.9647 17.4194C42.2276 17.6737 42.4614 17.8304 42.6662 17.8895C44.1305 18.3113 45.5722 17.8847 46.4527 16.6323C46.9801 15.8823 47.2389 15.0312 47.2292 14.079C47.2276 13.8726 47.1704 13.5976 47.1801 13.346Z" fill="#DC4061"/>
<path d="M18.4239 25.9734C20.2061 25.9734 21.6508 24.5284 21.6508 22.746C21.6508 20.9635 20.2061 19.5185 18.4239 19.5185C16.6417 19.5185 15.197 20.9635 15.197 22.746C15.197 24.5284 16.6417 25.9734 18.4239 25.9734Z" fill="#FA6E9A"/>
<path d="M49.0475 20.0258L49.0765 24.4169L42.2082 24.4169C42.2346 24.3594 42.3036 24.3237 42.4154 24.3097C42.5353 24.2952 42.6092 24.2847 42.6372 24.2782C43.2317 24.1406 43.826 24.003 44.42 23.8653C45.6779 23.5745 46.7503 22.9761 47.6372 22.0702C48.1791 21.518 48.6492 20.8366 49.0475 20.0258Z" fill="#D12F55"/>
<path d="M28.0958 20.5492L29.3755 20.546C29.3776 20.5476 29.3798 20.5489 29.3819 20.55L29.4037 25.7024C29.3763 25.7164 29.3631 25.718 29.3642 25.7073C29.0013 25.7105 28.6385 25.7113 28.2756 25.7097C28.2015 25.7091 28.1469 25.6968 28.1119 25.6726L28.0958 20.5492Z" fill="#FEDB8B"/>
<path d="M29.3819 20.55L30.6769 20.5556L30.6712 25.6911L29.4037 25.7024L29.3819 20.55Z" fill="#FDCC5C"/>
<path d="M41.9639 24.4081L42.2082 24.4169L49.0765 24.4169L49.6297 24.4161C49.6479 24.4161 49.6653 24.4234 49.6782 24.4365C49.691 24.4495 49.6982 24.4671 49.6982 24.4855L49.7031 25.7089H42.6694C42.653 25.7089 42.6372 25.7153 42.6255 25.7268C42.6139 25.7383 42.6074 25.7539 42.6074 25.7702L42.6066 30.1847C42.6066 30.1958 42.611 30.2065 42.6188 30.2143C42.6267 30.2222 42.6374 30.2266 42.6485 30.2266L49.7039 30.2234L50.2723 30.2226C50.2819 30.2225 50.2913 30.2243 50.3002 30.2279C50.309 30.2315 50.3171 30.2368 50.3239 30.2435C50.3307 30.2503 50.3361 30.2583 50.3399 30.2671C50.3436 30.276 50.3456 30.2855 50.3457 30.2952L50.3473 31.5145L42.0244 31.5161C42.0163 31.5161 42.0082 31.5177 42.0007 31.5208C41.9933 31.5239 41.9865 31.5284 41.9808 31.5341C41.9751 31.5398 41.9706 31.5466 41.9675 31.554C41.9645 31.5615 41.963 31.5694 41.9631 31.5774L41.9663 32.8057L40.6738 32.8L40.6754 30.2863C40.6754 30.2707 40.6816 30.2557 40.6926 30.2447C40.7037 30.2336 40.7186 30.2274 40.7343 30.2274L41.2777 30.225C41.2884 30.225 41.2987 30.2208 41.3062 30.2134C41.3138 30.206 41.318 30.196 41.318 30.1855V24.5226C41.318 24.457 41.3508 24.4234 41.4164 24.4218L41.9639 24.4081Z" fill="#FEDB8B"/>
<path d="M28.1119 25.6726C28.1469 25.6968 28.2015 25.7091 28.2756 25.7097C28.6385 25.7113 29.0013 25.7105 29.3642 25.7073L29.3843 38.6105C29.3822 38.6132 29.3803 38.6159 29.3787 38.6186L28.095 38.6258L28.0942 25.7355C28.0942 25.722 28.0969 25.7089 28.1023 25.696L28.1119 25.6726Z" fill="#FF91BB"/>
<path d="M30.6712 25.6911L30.6511 38.6113L29.3843 38.6105L29.3642 25.7073C29.3631 25.718 29.3763 25.7164 29.4037 25.7024L30.6712 25.6911Z" fill="#FA6E9A"/>
<path d="M49.7031 25.7089L49.7039 30.2234L42.6485 30.2266C42.6374 30.2266 42.6267 30.2222 42.6188 30.2143C42.611 30.2065 42.6066 30.1958 42.6066 30.1847L42.6074 25.7702C42.6074 25.7539 42.6139 25.7383 42.6255 25.7268C42.6372 25.7153 42.653 25.7089 42.6694 25.7089H49.7031Z" fill="#FDCC5C"/>
<path d="M18.4247 34.4976C20.2082 34.4976 21.654 33.0515 21.654 31.2677C21.654 29.484 20.2082 28.0379 18.4247 28.0379C16.6412 28.0379 15.1953 29.484 15.1953 31.2677C15.1953 33.0515 16.6412 34.4976 18.4247 34.4976Z" fill="#FDF3E6"/>
<path d="M50.3473 31.5145L50.3497 32.7847L41.9663 32.8057L41.9631 31.5774C41.963 31.5694 41.9645 31.5615 41.9675 31.554C41.9706 31.5466 41.9751 31.5398 41.9808 31.5341C41.9865 31.5284 41.9933 31.5239 42.0007 31.5208C42.0082 31.5177 42.0163 31.5161 42.0244 31.5161L50.3473 31.5145Z" fill="#FDCC5C"/>
<path d="M50.3497 32.7847L50.9448 32.8113C50.9771 32.8129 50.9932 32.8298 50.9932 32.8621L50.9867 34.079L42.0058 34.0968C41.9953 34.097 41.9852 34.1012 41.9778 34.1086C41.9705 34.116 41.9663 34.1259 41.9663 34.1363C41.9556 35.4621 41.9679 36.7927 42.0034 38.1282C42.083 41.1083 42.4095 44.0653 42.9831 46.9992L41.3624 46.9952C41.335 46.9952 41.3183 46.9817 41.3124 46.9548C40.5544 43.5167 40.1343 40.0769 40.0521 36.6355C40.022 35.3737 40.0166 34.1164 40.036 32.8637C40.0362 32.8482 40.0425 32.8335 40.0535 32.8226C40.0645 32.8117 40.0794 32.8056 40.0948 32.8056L40.6738 32.8L41.9663 32.8057L50.3497 32.7847Z" fill="#86746F"/>
<path d="M50.9867 34.079C51.0824 38.4296 50.6602 42.725 49.72 46.9653C49.7152 46.9874 49.7015 46.9984 49.6789 46.9984L42.9831 46.9992C42.4095 44.0653 42.083 41.1083 42.0034 38.1282C41.9679 36.7927 41.9556 35.4621 41.9663 34.1363C41.9663 34.1259 41.9705 34.116 41.9778 34.1086C41.9852 34.1012 41.9953 34.097 42.0058 34.0968L50.9867 34.079Z" fill="#725D57"/>
<path d="M21.238 38.2008C20.458 37.8497 19.7264 37.7516 19.0431 37.9065C17.9132 38.1624 17.1262 38.8411 16.6822 39.9427C16.3548 40.7546 16.4073 41.6371 16.8394 42.5903C16.5377 42.4205 16.2652 42.2032 16.0323 41.9468C15.6328 41.5064 15.3626 40.9642 15.2516 40.38C15.1406 39.7959 15.1931 39.1924 15.4034 38.6363C15.6168 38.072 15.984 37.5787 16.4633 37.2126C16.9426 36.8464 17.5148 36.6219 18.1151 36.5645C18.6511 36.5135 19.1914 36.5974 19.6867 36.8086C20.182 37.0197 20.6166 37.3514 20.9509 37.7734C21.0577 37.9076 21.1537 38.0505 21.238 38.2008Z" fill="#D12F55"/>
<path d="M21.238 38.2008C21.5352 38.7316 21.6764 39.3356 21.6451 39.9432C21.6139 40.5508 21.4115 41.1372 21.0614 41.6347C20.7438 42.0863 20.3157 42.4489 19.8179 42.6878C19.3201 42.9268 18.7694 43.034 18.2183 42.9992C17.7337 42.9684 17.2624 42.8286 16.8394 42.5903C16.4073 41.6371 16.3548 40.7546 16.6822 39.9427C17.1262 38.8411 17.9132 38.1624 19.0431 37.9065C19.7264 37.7516 20.458 37.8497 21.238 38.2008Z" fill="#DC4061"/>
<path d="M29.3787 38.6186C29.383 38.9374 29.3849 39.2565 29.3843 39.5758C29.3838 39.9543 29.4161 40.2218 29.4811 40.3782C29.5848 40.6266 29.7636 40.8441 30.0173 41.0307C29.4362 41.3054 28.925 41.2355 28.4837 40.821C28.1547 40.5121 28.1007 40.1815 28.0958 39.7032C28.0926 39.3479 28.0923 38.9887 28.095 38.6258L29.3787 38.6186Z" fill="#FEDB8B"/>
<path d="M29.3787 38.6186C29.3803 38.6159 29.3822 38.6132 29.3843 38.6105L30.6511 38.6113C30.6629 38.6333 30.6688 38.654 30.6688 38.6734C30.6753 39.0707 30.6769 39.4667 30.6737 39.8613C30.6699 40.393 30.4511 40.7828 30.0173 41.0307C29.7636 40.8441 29.5848 40.6266 29.4811 40.3782C29.4161 40.2218 29.3838 39.9543 29.3843 39.5758C29.3849 39.2565 29.383 38.9374 29.3787 38.6186Z" fill="#FDCC5C"/>
</g>
<defs>
<filter id="filter0_dd_51_1751" x="0" y="0" width="62" height="62" filterUnits="userSpaceOnUse" color-interpolation-filters="sRGB">
<feFlood flood-opacity="0" result="BackgroundImageFix"/>
<feColorMatrix in="SourceAlpha" type="matrix" values="0 0 0 0 0 0 0 0 0 0 0 0 0 0 0 0 0 0 127 0" result="hardAlpha"/>
<feOffset dy="1"/>
<feGaussianBlur stdDeviation="1.5"/>
<feComposite in2="hardAlpha" operator="out"/>
<feColorMatrix type="matrix" values="0 0 0 0 0 0 0 0 0 0 0 0 0 0 0 0 0 0 0.3 0"/>
<feBlend mode="normal" in2="BackgroundImageFix" result="effect1_dropShadow_51_1751"/>
<feColorMatrix in="SourceAlpha" type="matrix" values="0 0 0 0 0 0 0 0 0 0 0 0 0 0 0 0 0 0 127 0" result="hardAlpha"/>
<feMorphology radius="3" operator="dilate" in="SourceAlpha" result="effect2_dropShadow_51_1751"/>
<feOffset dy="4"/>
<feGaussianBlur stdDeviation="4"/>
<feComposite in2="hardAlpha" operator="out"/>
<feColorMatrix type="matrix" values="0 0 0 0 0 0 0 0 0 0 0 0 0 0 0 0 0 0 0.15 0"/>
<feBlend mode="normal" in2="effect1_dropShadow_51_1751" result="effect2_dropShadow_51_1751"/>
<feBlend mode="normal" in="SourceGraphic" in2="effect2_dropShadow_51_1751" result="shape"/>
</filter>
</defs>
</svg>
