<svg width="63" height="62" viewBox="0 0 63 62" fill="none" xmlns="http://www.w3.org/2000/svg">
<g id="Group 142" filter="url(#filter0_dd_3_13128)">
<path id="Vector" opacity="0.992" fill-rule="evenodd" clip-rule="evenodd" d="M40.0469 11.7237C40.2392 12.2687 40.4736 12.7936 40.75 13.2982C41.0104 13.4288 41.1406 13.6388 41.1406 13.9281C41.5157 14.6321 41.6199 15.367 41.4531 16.1325C41.8745 16.6621 42.3693 17.1083 42.9375 17.4708C43.4002 16.5644 43.8429 15.6459 44.2656 14.7153C42.8518 13.7814 42.2659 12.4693 42.5078 10.7789C42.5809 10.4871 42.7241 10.2378 42.9375 10.031C43.2348 9.93865 43.4562 10.0305 43.6016 10.3066C43.6006 10.574 43.5485 10.8364 43.4453 11.0939C43.3002 12.2442 43.7038 13.1365 44.6562 13.7706C45.0018 13.1003 45.3273 12.418 45.6328 11.7237C45.9193 11.4088 46.2057 11.4088 46.4922 11.7237C46.5443 11.8811 46.5443 12.0386 46.4922 12.196C46.2057 12.7996 45.9193 13.4032 45.6328 14.0068C45.5794 14.1079 45.5924 14.1997 45.6719 14.2823C47.0847 14.7084 48.1524 14.2885 48.875 13.0227C49.28 12.82 49.5404 12.9381 49.6562 13.377C49.3638 14.236 48.7908 14.8265 47.9375 15.1483C46.9938 15.4043 46.0563 15.4043 45.125 15.1483C44.6527 16.0604 44.236 16.992 43.875 17.9432C44.7202 18.1657 45.5796 18.2313 46.4531 18.14C47.0699 17.9609 47.5387 17.5935 47.8594 17.0378C48.2873 16.8335 48.5477 16.9648 48.6406 17.4315C48.1651 18.4593 47.3578 19.0366 46.2188 19.1635C45.8542 19.216 45.4896 19.216 45.125 19.1635C44.5464 19.0566 43.9735 18.9517 43.4062 18.8486C43.2163 19.2007 43.034 19.555 42.8594 19.9114C42.4278 20.1937 42.1413 20.0887 42 19.5965C42.1607 19.1938 42.343 18.8001 42.5469 18.4156C42.2087 18.1537 41.8702 17.8912 41.5312 17.6283C41.5312 18.0744 41.5312 18.5205 41.5312 18.9667C41.5312 19.3078 41.5312 19.649 41.5312 19.9901C41.5312 20.0689 41.5312 20.1476 41.5312 20.2263C44.4219 20.2263 47.3125 20.2263 50.2031 20.2263C50.6015 19.1041 50.6145 17.9757 50.2422 16.841C50.1034 16.5701 49.9342 16.3208 49.7344 16.0931C50.5749 15.3298 51.1218 14.3982 51.375 13.2982C51.375 12.7471 51.375 12.196 51.375 11.645C51.1779 10.776 50.7091 10.0936 49.9688 9.59802C49.8534 7.97028 48.994 7.10427 47.3906 7C46.7831 7.01161 46.2363 7.19531 45.75 7.5511C43.5193 6.93622 41.9177 7.69726 40.9453 9.83421C40.6927 10.4379 40.5755 11.0678 40.5938 11.7237C40.4115 11.7237 40.2291 11.7237 40.0469 11.7237Z" fill="#566C03"/>
<path id="Vector_2" opacity="0.99" fill-rule="evenodd" clip-rule="evenodd" d="M19.0312 16.0537C19.0834 16.0537 19.1094 16.0799 19.1094 16.1325C19.2247 16.2899 19.3679 16.4212 19.5391 16.5261C19.6112 17.0818 19.7023 17.6329 19.8125 18.1794C19.878 18.2063 19.9041 18.2587 19.8906 18.3368C19.8906 18.3631 19.8906 18.3894 19.8906 18.4156C20.1697 19.0049 20.4302 19.6085 20.6719 20.2263C21.2188 20.2263 21.7656 20.2263 22.3125 20.2263C21.7239 18.7697 21.9323 17.4444 22.9375 16.2505C23.1966 16.2113 23.457 16.1982 23.7188 16.2112C23.7188 16.185 23.7188 16.1587 23.7188 16.1325C23.5088 16.1454 23.3005 16.1322 23.0938 16.0931C23.2939 15.8779 23.5023 15.6811 23.7188 15.5026C23.5876 15.4718 23.4573 15.4324 23.3281 15.3845C22.9057 15.3703 22.4891 15.3571 22.0781 15.3452C21.966 15.0977 21.8619 14.8484 21.7656 14.5973C22.6052 14.3056 23.4255 14.3449 24.2266 14.7154C24.2148 14.8733 24.1758 15.0307 24.1094 15.1877C24.7547 14.8572 25.4317 14.6211 26.1406 14.4792C25.7347 13.8589 25.318 13.2421 24.8906 12.6291C24.9109 12.5298 24.963 12.451 25.0469 12.3929C25.2187 12.2593 25.4009 12.1412 25.5938 12.0386C26.171 12.803 26.7439 13.564 27.3125 14.3217C26.6749 12.2488 25.6723 10.3856 24.3047 8.73202C23.6538 7.998 22.8595 7.48626 21.9219 7.19683C19.9816 6.97282 18.7967 7.82571 18.3672 9.75549C18.1746 10.724 18.1486 11.695 18.2891 12.6684C18.4505 13.8174 18.6978 14.9459 19.0312 16.0537Z" fill="#C39148"/>
<path id="Vector_3" fill-rule="evenodd" clip-rule="evenodd" d="M41.4531 16.1323C41.102 15.6088 40.9327 15.0314 40.9453 14.4002C40.9895 14.2253 41.0547 14.0678 41.1406 13.9279C41.1406 13.6386 41.0104 13.4286 40.75 13.298C40.4695 13.3015 40.2742 13.4327 40.1641 13.6917C39.8328 15.275 40.2886 16.5871 41.5312 17.6281C41.8702 17.891 42.2087 18.1535 42.5469 18.4154C42.343 18.8 42.1607 19.1936 42 19.5963C42.1413 20.0885 42.4278 20.1935 42.8594 19.9112C43.034 19.5548 43.2162 19.2005 43.4062 18.8484C43.9735 18.9515 44.5464 19.0565 45.125 19.1633C45.4896 19.2158 45.8542 19.2158 46.2188 19.1633C47.3578 19.0365 48.1651 18.4591 48.6406 17.4313C48.5477 16.9646 48.2873 16.8333 47.8594 17.0376C47.5387 17.5933 47.0699 17.9607 46.4531 18.1398C45.5796 18.2311 44.7202 18.1655 43.875 17.943C44.236 16.9918 44.6527 16.0602 45.125 15.1482C46.0563 15.4041 46.9938 15.4041 47.9375 15.1482C48.7908 14.8263 49.3638 14.2358 49.6562 13.3768C49.5404 12.9379 49.28 12.8198 48.875 13.0225C48.1524 14.2883 47.0847 14.7082 45.6719 14.2821C45.5924 14.1995 45.5794 14.1077 45.6328 14.0066C45.9193 13.403 46.2057 12.7994 46.4922 12.1959C46.5443 12.0384 46.5443 11.8809 46.4922 11.7235C46.2057 11.4086 45.9193 11.4086 45.6328 11.7235C45.3273 12.4178 45.0018 13.1001 44.6562 13.7704C43.7038 13.1363 43.3002 12.244 43.4453 11.0937C43.5485 10.8362 43.6006 10.5738 43.6016 10.3064C43.4562 10.0303 43.2348 9.93846 42.9375 10.0308C42.7241 10.2376 42.5809 10.4869 42.5078 10.7788C42.2659 12.4691 42.8518 13.7812 44.2656 14.7152C43.8429 15.6457 43.4002 16.5642 42.9375 17.4706C42.3693 17.1081 41.8745 16.6619 41.4531 16.1323Z" fill="#425102"/>
<path id="Rectangle 55" d="M19.875 22H49.375L45.875 35.5H21.375L19.875 22Z" fill="white"/>
<path id="Vector_4" opacity="0.999" fill-rule="evenodd" clip-rule="evenodd" d="M39.3438 10.464C36.1402 10.4378 32.9371 10.464 29.7344 10.5428C30.4287 11.9029 31.1318 13.2544 31.8438 14.5972C35.0657 16.0765 38.2948 17.5329 41.5312 18.9667C41.5312 18.5205 41.5312 18.0744 41.5312 17.6283C40.2886 16.5873 39.8328 15.2752 40.1641 13.6919C40.2742 13.4329 40.4695 13.3017 40.75 13.2982C40.4736 12.7936 40.2392 12.2687 40.0469 11.7237C39.7741 11.3321 39.5398 10.9122 39.3438 10.464Z" fill="#8EB1C3"/>
<path id="Vector_5" opacity="0.995" fill-rule="evenodd" clip-rule="evenodd" d="M27.7031 14.4004C27.7552 14.4004 27.7812 14.4267 27.7812 14.4792C28.7967 14.5452 29.6821 14.9126 30.4375 15.5813C30.6914 15.7186 30.9128 15.9023 31.1016 16.1324C31.4172 16.5599 31.6906 17.0059 31.9219 17.4708C31.9219 16.8935 31.9219 16.3161 31.9219 15.7388C35.1337 17.134 38.3368 18.5511 41.5312 19.9901C41.5312 19.649 41.5312 19.3078 41.5312 18.9667C38.2948 17.5329 35.0657 16.0765 31.8438 14.5972C31.1318 13.2544 30.4287 11.9029 29.7344 10.5428C32.9371 10.464 36.1402 10.4378 39.3438 10.464C39.3438 9.8342 39.3438 9.20438 39.3438 8.57455C36.1146 8.57455 32.8854 8.57455 29.6562 8.57455C29.6692 9.23115 29.6562 9.88721 29.6172 10.5428C28.9781 11.8307 28.3401 13.1166 27.7031 14.4004Z" fill="#C5CCC8"/>
<path id="Vector_6" fill-rule="evenodd" clip-rule="evenodd" d="M22.0781 10.9364C21.6347 10.9233 21.192 10.9364 20.75 10.9757C20.5853 11.0041 20.4291 11.0566 20.2812 11.1332C20.4042 11.4135 20.5344 11.689 20.6719 11.9598C21.2555 11.8337 21.8284 11.8731 22.3906 12.0779C22.9171 12.3596 23.412 12.6876 23.875 13.062C24.0834 12.8259 24.2916 12.5897 24.5 12.3535C23.7945 11.6965 22.9873 11.2241 22.0781 10.9364Z" fill="#F7B030"/>
<path id="Vector_7" fill-rule="evenodd" clip-rule="evenodd" d="M26.1406 14.4792C26.4508 14.8582 26.7502 15.2519 27.0391 15.6601C27.2936 15.4727 27.5409 15.2759 27.7812 15.0696C27.651 14.8859 27.5209 14.7022 27.3906 14.5185C27.5183 14.4797 27.6485 14.4665 27.7812 14.4792C27.7812 14.4267 27.7552 14.4004 27.7031 14.4004C27.5631 14.411 27.433 14.3847 27.3125 14.3217C26.7439 13.564 26.171 12.803 25.5938 12.0386C25.4009 12.1412 25.2187 12.2593 25.0469 12.3929C24.963 12.451 24.9109 12.5297 24.8906 12.629C25.318 13.2421 25.7347 13.8588 26.1406 14.4792Z" fill="#445203"/>
<path id="Vector_8" opacity="0.984" fill-rule="evenodd" clip-rule="evenodd" d="M11.375 13.1407C11.375 13.4031 11.375 13.6656 11.375 13.928C11.5831 14.2048 11.8435 14.4279 12.1562 14.5972C13.8818 15.6568 15.5875 16.7458 17.2734 17.8644C18.4284 25.1105 19.6003 32.3535 20.7891 39.5933C21.3564 41.0437 22.4111 41.8572 23.9531 42.0339C24.5264 41.9329 25.0994 41.9329 25.6719 42.0339C31.1927 42.0339 36.7135 42.0339 42.2344 42.0339C42.7269 41.9741 43.2216 41.9479 43.7188 41.9552C44.4789 41.71 44.7784 41.1851 44.6172 40.3806C44.4664 39.9399 44.1669 39.6643 43.7188 39.554C37.0781 39.5278 30.4375 39.5015 23.7969 39.4752C23.5284 39.3882 23.333 39.2176 23.2109 38.9635C23.0777 38.499 22.9866 38.0266 22.9375 37.5464C30.8275 37.6482 38.7181 37.6876 46.6094 37.6645C47.0057 37.5538 47.2792 37.3046 47.4297 36.9166C48.6736 31.7584 49.9106 26.6017 51.1406 21.4465C51.109 21.112 50.9918 20.8102 50.7891 20.5412C50.6205 20.3841 50.4252 20.2791 50.2031 20.2262C47.3125 20.2262 44.4219 20.2262 41.5312 20.2262C38.3281 20.2262 35.125 20.2262 31.9219 20.2262C30.0209 20.2262 28.1198 20.2262 26.2188 20.2262C24.9166 20.2262 23.6146 20.2262 22.3125 20.2262C21.7656 20.2262 21.2188 20.2262 20.6719 20.2262C20.4896 20.2262 20.3073 20.2262 20.125 20.2262C20.0541 19.6216 19.976 19.018 19.8906 18.4155C19.8906 18.3893 19.8906 18.363 19.8906 18.3368C19.8252 18.3098 19.7991 18.2574 19.8125 18.1793C19.7023 17.6328 19.6112 17.0817 19.5391 16.526C19.3679 16.4211 19.2247 16.2898 19.1094 16.1324C19.0573 16.1324 19.0312 16.1062 19.0312 16.0537C17.0434 14.8286 15.0641 13.582 13.0938 12.3141C12.2666 12.0617 11.6937 12.3373 11.375 13.1407ZM48.3281 22.7455C47.3785 22.6672 46.4149 22.6409 45.4375 22.6668C45.353 23.4271 45.2748 24.1882 45.2031 24.9499C46.0625 24.9499 46.9219 24.9499 47.7812 24.9499C47.9165 24.1947 48.0988 23.4598 48.3281 22.7455ZM43.0156 22.7455C42.1702 22.6672 41.3109 22.641 40.4375 22.6668C40.3757 23.4269 40.3236 24.1879 40.2812 24.9499C41.0885 24.9499 41.8959 24.9499 42.7031 24.9499C42.77 24.1992 42.8742 23.4643 43.0156 22.7455ZM37.9375 22.6668C37.1302 22.6668 36.3229 22.6668 35.5156 22.6668C35.5156 23.4279 35.5156 24.1889 35.5156 24.9499C36.2727 24.9761 37.0278 24.9498 37.7812 24.8712C37.8656 24.1406 37.9177 23.4058 37.9375 22.6668ZM33.0156 22.6668C32.1041 22.6668 31.1927 22.6668 30.2812 22.6668C30.3264 23.4285 30.3785 24.1895 30.4375 24.9499C31.2969 24.9499 32.1562 24.9499 33.0156 24.9499C33.0156 24.1889 33.0156 23.4279 33.0156 22.6668ZM27.8594 22.6668C27 22.6668 26.1406 22.6668 25.2812 22.6668C25.3658 23.4272 25.4439 24.1882 25.5156 24.9499C26.3229 24.9499 27.1302 24.9499 27.9375 24.9499C27.9017 24.1893 27.8757 23.4283 27.8594 22.6668ZM22.7812 22.6668C22.0521 22.6668 21.3229 22.6668 20.5938 22.6668C20.6724 23.4313 20.7766 24.1924 20.9062 24.9499C21.6359 24.963 22.3651 24.9499 23.0938 24.9106C22.9547 24.1706 22.8505 23.4227 22.7812 22.6668ZM47.1562 27.4692C46.375 27.4692 45.5938 27.4692 44.8125 27.4692C44.7536 28.2323 44.6755 28.9934 44.5781 29.7523C45.2572 29.7784 45.9343 29.7522 46.6094 29.6736C46.7918 28.9382 46.9741 28.2034 47.1562 27.4692ZM42.3906 27.4692C41.6354 27.4692 40.8802 27.4692 40.125 27.4692C40.0632 28.2293 40.0111 28.9903 39.9688 29.7523C40.6719 29.7523 41.375 29.7523 42.0781 29.7523C42.1678 28.9883 42.272 28.2272 42.3906 27.4692ZM37.625 27.4692C36.8959 27.4692 36.1666 27.4692 35.4375 27.4692C35.4375 28.2303 35.4375 28.9913 35.4375 29.7523C36.1406 29.7523 36.8438 29.7523 37.5469 29.7523C37.5632 28.9909 37.5892 28.2298 37.625 27.4692ZM33.0156 27.4692C32.2084 27.4692 31.401 27.4692 30.5938 27.4692C30.6361 28.2312 30.6882 28.9923 30.75 29.7523C31.4791 29.7523 32.2084 29.7523 32.9375 29.7523C32.9538 28.9909 32.9798 28.2298 33.0156 27.4692ZM28.0938 27.4692C27.3646 27.4692 26.6354 27.4692 25.9062 27.4692C25.977 28.2309 26.0552 28.992 26.1406 29.7523C26.8438 29.7523 27.5469 29.7523 28.25 29.7523C28.227 28.9873 28.1749 28.2263 28.0938 27.4692ZM23.4062 27.4692C22.7012 27.4431 21.998 27.4694 21.2969 27.5479C21.4355 28.2551 21.5657 28.9636 21.6875 29.6736C22.3365 29.7522 22.9875 29.7784 23.6406 29.7523C23.5689 28.9906 23.4908 28.2296 23.4062 27.4692ZM45.9844 32.1929C45.4091 32.1668 44.8362 32.1931 44.2656 32.2716C44.1099 33.2645 43.9797 34.2618 43.875 35.2633C44.3466 35.2892 44.8154 35.263 45.2812 35.1846C45.5404 34.1927 45.7747 33.1954 45.9844 32.1929ZM41.7656 32.1929C41.1146 32.1929 40.4635 32.1929 39.8125 32.1929C39.7362 33.1887 39.6841 34.1859 39.6562 35.1846C40.2291 35.1846 40.8021 35.1846 41.375 35.1846C41.5052 34.1873 41.6354 33.1901 41.7656 32.1929ZM37.3125 32.1929C36.6678 32.168 36.0298 32.1943 35.3984 32.2716C35.3594 33.2423 35.3463 34.2132 35.3594 35.1846C35.9584 35.1846 36.5573 35.1846 37.1562 35.1846C37.2278 34.1885 37.2798 33.1913 37.3125 32.1929ZM32.9375 32.1929C32.2604 32.1929 31.5834 32.1929 30.9062 32.1929C30.9618 33.1899 31.0139 34.1872 31.0625 35.1846C31.6875 35.1846 32.3125 35.1846 32.9375 35.1846C32.9375 34.1873 32.9375 33.1901 32.9375 32.1929ZM28.4062 32.1929C27.7531 32.1668 27.1021 32.1931 26.4531 32.2716C26.5978 33.2136 26.728 34.1583 26.8438 35.1058C27.4433 35.1189 28.0423 35.1058 28.6406 35.0665C28.5506 34.1134 28.4725 33.1555 28.4062 32.1929ZM24.0312 32.1929C23.3802 32.1929 22.7291 32.1929 22.0781 32.1929C22.2175 33.1407 22.3738 34.0854 22.5469 35.0271C23.1436 35.1056 23.7425 35.1319 24.3438 35.1058C24.2249 34.1365 24.1208 33.1655 24.0312 32.1929Z" fill="#F8B030"/>
<path id="Vector_9" fill-rule="evenodd" clip-rule="evenodd" d="M41.1408 13.9281C41.0548 14.068 40.9897 14.2255 40.9455 14.4004C40.9329 15.0316 41.1022 15.609 41.4533 16.1325C41.6201 15.367 41.5159 14.6322 41.1408 13.9281Z" fill="#8AABB8"/>
<path id="Vector_10" fill-rule="evenodd" clip-rule="evenodd" d="M23.7188 15.5025C23.8663 15.4156 23.9965 15.3106 24.1094 15.1876C24.1758 15.0306 24.2148 14.8731 24.2266 14.7152C23.4255 14.3448 22.6052 14.3054 21.7656 14.5971C21.8619 14.8483 21.966 15.0976 22.0781 15.345C22.4891 15.357 22.9057 15.3702 23.3281 15.3844C23.4573 15.4323 23.5876 15.4716 23.7188 15.5025Z" fill="#F7AF30"/>
<path id="Vector_11" fill-rule="evenodd" clip-rule="evenodd" d="M27.7812 14.4794C27.6485 14.4668 27.5183 14.4799 27.3906 14.5187C27.5209 14.7024 27.651 14.8862 27.7812 15.0698C27.5409 15.2761 27.2936 15.4729 27.0391 15.6603C26.7502 15.2521 26.4508 14.8584 26.1406 14.4794C25.4317 14.6213 24.7547 14.8574 24.1094 15.1879C23.9965 15.311 23.8663 15.4159 23.7188 15.5028C23.5023 15.6813 23.2939 15.8781 23.0938 16.0933C23.3005 16.1324 23.5088 16.1456 23.7188 16.1327C24.0573 16.1327 24.3959 16.1327 24.7344 16.1327C24.7476 16.6068 24.7866 17.0792 24.8516 17.5498C25.293 17.1707 25.7227 16.777 26.1406 16.3688C26.4912 16.9932 26.7907 17.6492 27.0391 18.337C27.3776 17.681 27.7162 17.0249 28.0547 16.3688C28.6276 16.7887 29.2005 17.2086 29.7734 17.6285C29.8286 16.8884 29.9198 16.1537 30.0469 15.4241C30.1699 15.4994 30.3002 15.5519 30.4375 15.5816C29.6821 14.9128 28.7967 14.5454 27.7812 14.4794Z" fill="#576C04"/>
<path id="Vector_12" fill-rule="evenodd" clip-rule="evenodd" d="M23.7189 16.1324C23.7189 16.1587 23.7189 16.185 23.7189 16.2112C23.6713 17.5717 24.1662 18.687 25.2033 19.5571C25.5469 19.782 25.8855 20.0052 26.2189 20.2263C28.1199 20.2263 30.021 20.2263 31.922 20.2263C32.1048 19.3049 32.1048 18.3864 31.922 17.4708C31.6908 17.0059 31.4173 16.5599 31.1017 16.1324C30.913 15.9023 30.6916 15.7186 30.4377 15.5813C30.3003 15.5517 30.1701 15.4992 30.047 15.4239C29.9199 16.1535 29.8288 16.8882 29.7736 17.6283C29.2007 17.2084 28.6277 16.7885 28.0548 16.3686C27.7163 17.0247 27.3777 17.6808 27.0392 18.3368C26.7909 17.649 26.4913 16.9929 26.1408 16.3686C25.7228 16.7768 25.2931 17.1705 24.8517 17.5495C24.7868 17.079 24.7477 16.6066 24.7345 16.1324C24.396 16.1324 24.0574 16.1324 23.7189 16.1324Z" fill="#DA3643"/>
<path id="Vector_13" fill-rule="evenodd" clip-rule="evenodd" d="M31.9219 17.4708C32.1046 18.3864 32.1046 19.3049 31.9219 20.2263C35.125 20.2263 38.3281 20.2263 41.5312 20.2263C41.5312 20.1476 41.5312 20.0689 41.5312 19.9901C38.3368 18.5511 35.1337 17.134 31.9219 15.7388C31.9219 16.3161 31.9219 16.8935 31.9219 17.4708Z" fill="#8EB1C3"/>
<path id="Vector_14" fill-rule="evenodd" clip-rule="evenodd" d="M23.7188 16.2111C23.457 16.1981 23.1966 16.2113 22.9375 16.2505C21.9323 17.4443 21.7239 18.7696 22.3125 20.2262C23.6146 20.2262 24.9166 20.2262 26.2188 20.2262C25.8853 20.0051 25.5467 19.782 25.2031 19.557C24.166 18.6869 23.6712 17.5717 23.7188 16.2111Z" fill="#BC2C3D"/>
<path id="Vector_15" opacity="0.985" fill-rule="evenodd" clip-rule="evenodd" d="M43.7188 41.9555C43.2217 41.9481 42.7269 41.9743 42.2344 42.0342C40.6488 42.9311 40.2452 44.2169 41.0235 45.8919C41.7718 46.8778 42.7484 47.2058 43.9531 46.876C45.4021 46.1992 45.9099 45.0839 45.4766 43.53C45.1323 42.7218 44.5463 42.1969 43.7188 41.9555Z" fill="#4A6692"/>
<path id="Vector_16" opacity="0.985" fill-rule="evenodd" clip-rule="evenodd" d="M23.9531 42.0339C22.5752 42.7649 22.0934 43.8934 22.5078 45.4193C23.1727 46.7371 24.2274 47.2225 25.6719 46.8757C27.3309 46.0329 27.7606 44.7601 26.9609 43.0574C26.6355 42.5732 26.2058 42.2321 25.6719 42.0339C25.0994 41.9329 24.5264 41.9329 23.9531 42.0339Z" fill="#4A6792"/>
</g>
<defs>
<filter id="filter0_dd_3_13128" x="0.375" y="0" width="62" height="62" filterUnits="userSpaceOnUse" color-interpolation-filters="sRGB">
<feFlood flood-opacity="0" result="BackgroundImageFix"/>
<feColorMatrix in="SourceAlpha" type="matrix" values="0 0 0 0 0 0 0 0 0 0 0 0 0 0 0 0 0 0 127 0" result="hardAlpha"/>
<feOffset dy="1"/>
<feGaussianBlur stdDeviation="1.5"/>
<feComposite in2="hardAlpha" operator="out"/>
<feColorMatrix type="matrix" values="0 0 0 0 0 0 0 0 0 0 0 0 0 0 0 0 0 0 0.3 0"/>
<feBlend mode="normal" in2="BackgroundImageFix" result="effect1_dropShadow_3_13128"/>
<feColorMatrix in="SourceAlpha" type="matrix" values="0 0 0 0 0 0 0 0 0 0 0 0 0 0 0 0 0 0 127 0" result="hardAlpha"/>
<feMorphology radius="3" operator="dilate" in="SourceAlpha" result="effect2_dropShadow_3_13128"/>
<feOffset dy="4"/>
<feGaussianBlur stdDeviation="4"/>
<feComposite in2="hardAlpha" operator="out"/>
<feColorMatrix type="matrix" values="0 0 0 0 0 0 0 0 0 0 0 0 0 0 0 0 0 0 0.15 0"/>
<feBlend mode="normal" in2="effect1_dropShadow_3_13128" result="effect2_dropShadow_3_13128"/>
<feBlend mode="normal" in="SourceGraphic" in2="effect2_dropShadow_3_13128" result="shape"/>
</filter>
</defs>
</svg>
