<svg width="60" height="62" viewBox="0 0 60 62" fill="none" xmlns="http://www.w3.org/2000/svg">
<g filter="url(#filter0_dd_75_572)">
<path d="M31.419 8.76136C30.5121 8.68922 29.6164 8.55038 28.7321 8.34486C27.9983 8.22872 27.5236 8.15834 27.3078 8.13371C26.8377 8.08021 26.3977 8.06737 25.9881 8.09517C25.5938 8.12156 25.1857 8.15799 24.8046 8.24562C24.61 8.29066 24.4108 8.34468 24.207 8.40768C24.0582 8.4536 23.9779 8.35067 23.9827 8.21922C23.9925 7.95669 23.9936 7.70665 23.9859 7.4691C23.9852 7.4523 23.9891 7.43561 23.997 7.42077C24.005 7.40592 24.0168 7.39345 24.0312 7.38464C24.083 7.35262 24.1423 7.32728 24.2091 7.30862C25.128 7.05067 26.0312 6.95441 26.9188 7.01987C27.5135 7.06386 28.1496 7.15431 28.8271 7.2912C29.6675 7.46118 30.4144 7.58101 31.0679 7.65069C31.5837 7.70612 32.1496 7.69926 32.678 7.62747C33.0165 7.58172 33.3704 7.51943 33.7396 7.4406C33.755 7.43729 33.7711 7.43749 33.7865 7.44118C33.8019 7.44487 33.8162 7.45196 33.8285 7.46194C33.8408 7.47191 33.8508 7.48451 33.8576 7.49881C33.8644 7.51311 33.8679 7.52875 33.8678 7.54459L33.8689 8.37178C33.8689 8.39722 33.8609 8.42201 33.8462 8.44273C33.8314 8.46345 33.8106 8.47906 33.7865 8.48739C33.5838 8.55777 33.3906 8.60792 33.2069 8.63783C32.6118 8.73497 32.0158 8.77614 31.419 8.76136ZM26.7403 7.34558C26.3856 7.33326 26.0008 7.34118 25.5859 7.36933C25.3188 7.38728 25.0638 7.45379 24.8004 7.4918C24.6455 7.51397 24.5056 7.55339 24.3807 7.61005C24.3174 7.6389 24.2924 7.68747 24.3057 7.75574C24.3082 7.76911 24.3124 7.78214 24.3184 7.7948C24.3592 7.88103 24.4259 7.91305 24.5185 7.89088C24.8602 7.80994 25.1741 7.75081 25.4602 7.71351C25.8347 7.66424 26.2417 7.64717 26.6812 7.66231C27.0546 7.67533 27.4231 7.70946 27.7866 7.76472C28.1069 7.81328 28.4502 7.87381 28.8165 7.94631C28.9707 7.97693 29.128 7.99118 29.2832 8.01863C29.3824 8.03658 29.4285 7.99522 29.4215 7.89457C29.4208 7.88402 29.4202 7.87328 29.4199 7.86237C29.4164 7.77475 29.3713 7.72424 29.2847 7.71087C29.0662 7.67674 28.8521 7.63609 28.6423 7.58893C28.2897 7.50904 27.88 7.4406 27.4134 7.38358C27.1885 7.35613 26.9652 7.35297 26.7403 7.34558Z" fill="#E5EBF9"/>
<path d="M26.7403 7.34558C26.9652 7.35297 27.1885 7.35613 27.4134 7.38358C27.88 7.4406 28.2897 7.50904 28.6423 7.58893C28.8521 7.63609 29.0662 7.67674 29.2847 7.71087C29.3713 7.72424 29.4164 7.77475 29.4199 7.86237C29.4202 7.87328 29.4208 7.88402 29.4215 7.89457C29.4285 7.99522 29.3824 8.03658 29.2832 8.01863C29.128 7.99118 28.9707 7.97693 28.8165 7.94631C28.4502 7.87381 28.1069 7.81328 27.7866 7.76472C27.4231 7.70946 27.0546 7.67533 26.6812 7.66231C26.2417 7.64717 25.8347 7.66424 25.4602 7.71351C25.1741 7.75081 24.8602 7.80994 24.5185 7.89088C24.4259 7.91305 24.3592 7.88103 24.3184 7.7948C24.3124 7.78214 24.3082 7.76911 24.3057 7.75574C24.2924 7.68747 24.3174 7.6389 24.3807 7.61005C24.5056 7.55339 24.6455 7.51397 24.8004 7.4918C25.0638 7.45379 25.3188 7.38728 25.5859 7.36933C26.0008 7.34118 26.3856 7.33326 26.7403 7.34558Z" fill="white"/>
<path d="M28.7321 8.34486C29.6164 8.55038 30.5121 8.68922 31.419 8.76136L31.4232 10.5208C31.3363 10.5394 31.2557 10.5481 31.1814 10.5467C30.3963 10.5336 29.611 10.5356 28.8255 10.5525C28.7959 10.5532 28.7651 10.5405 28.7331 10.5145L28.7321 8.34486Z" fill="#CCD8E9"/>
<path d="M28.7331 10.5145C28.7651 10.5405 28.7959 10.5532 28.8255 10.5525C29.611 10.5356 30.3963 10.5336 31.1814 10.5467C31.2557 10.5481 31.3363 10.5394 31.4232 10.5208C31.8617 10.6095 32.1513 10.8236 32.2921 11.1632C32.3699 11.3505 32.4058 11.6517 32.3998 12.067C32.3934 12.5269 32.3866 12.9596 32.3792 13.365C32.3781 13.4073 32.3711 13.4599 32.3581 13.5229C32.3539 13.544 32.3678 13.5558 32.3998 13.5582L27.7956 13.5651C27.7674 13.4257 27.7546 13.2881 27.757 13.1523C27.7676 12.6026 27.7681 12.0527 27.7586 11.5027C27.7576 11.4284 27.7753 11.345 27.8119 11.2524C27.9766 10.8368 28.2837 10.5908 28.7331 10.5145ZM29.251 12.1076C29.2399 11.9677 29.2446 11.8289 29.2404 11.6874C29.2281 11.2658 29.0095 11.0802 28.5848 11.1305C28.3636 11.1564 28.182 11.4641 28.1936 11.67C28.201 11.7977 28.1994 11.9308 28.1889 12.0691C28.1815 12.1715 28.1927 12.2651 28.2226 12.3499C28.2937 12.5519 28.4269 12.6673 28.6222 12.6962C28.801 12.7226 28.9443 12.6871 29.0519 12.5896C29.199 12.4565 29.2654 12.2959 29.251 12.1076Z" fill="#E5EBF9"/>
<path d="M29.251 12.1076C29.2654 12.2959 29.199 12.4565 29.0519 12.5896C28.9443 12.6871 28.801 12.7226 28.6222 12.6962C28.4269 12.6673 28.2937 12.5519 28.2226 12.3499C28.1927 12.2651 28.1815 12.1715 28.1889 12.0691C28.1994 11.9308 28.201 11.7977 28.1936 11.67C28.182 11.4641 28.3636 11.1564 28.5848 11.1305C29.0095 11.0802 29.2281 11.2658 29.2404 11.6874C29.2446 11.8289 29.2399 11.9677 29.251 12.1076Z" fill="white"/>
<path d="M27.7956 13.5651L32.3998 13.5582C32.6384 13.5598 32.9498 13.4812 32.9588 13.837C32.9666 14.147 32.9583 14.459 32.934 14.7729L32.2694 14.7523C30.8121 14.7474 29.3342 14.7458 27.8357 14.7476C27.6355 14.7479 27.4231 14.7567 27.1985 14.7739C27.1887 14.4688 27.185 14.1648 27.1875 13.8618C27.1885 13.6897 27.2476 13.5751 27.4271 13.5635C27.525 13.5575 27.6478 13.5581 27.7956 13.5651Z" fill="#CCD8E9"/>
<path d="M32.2694 14.7523C32.4844 14.8713 32.6873 14.9811 32.878 15.0817C33.5499 15.4354 34.0665 15.9283 34.4279 16.5603C34.7686 17.1561 34.938 17.7929 34.9363 18.4707C34.931 20.4819 34.9319 22.4286 34.9389 24.3107C34.9403 24.644 34.9398 24.9954 34.9373 25.3649C34.9197 27.9723 34.9185 31.0729 34.9336 34.6667C34.9336 34.7244 34.928 34.7906 34.9167 34.8652C34.9143 34.8828 34.9197 34.8976 34.9331 34.9095C34.9556 34.9292 34.9818 34.937 35.0117 34.9328C34.0663 36.0286 33.7258 37.4439 33.8414 38.8639C33.858 39.067 33.902 39.4162 33.9734 39.9118C34.1729 41.2906 34.5206 42.6328 35.0165 43.9384C34.9964 43.9307 34.9794 43.9339 34.9653 43.948C34.9558 43.9571 34.9509 43.9715 34.9505 43.9912C34.9399 44.4185 34.9361 44.8417 34.9389 45.2608C34.9407 45.5184 34.9278 45.7028 34.9004 45.814C34.7927 46.2511 34.5393 46.5351 34.1587 46.7658C34.0397 46.8376 33.9056 46.8796 33.7564 46.892C33.4763 46.9152 33.183 46.9171 32.8764 46.8978C32.7037 46.8869 32.4357 46.8904 32.0725 46.9083C31.7772 46.9224 31.5031 46.9296 31.25 46.93C30.0574 46.9303 28.8696 46.9301 27.6868 46.9294C27.5248 46.9294 27.3659 46.9474 27.2043 46.9447C27.1962 46.9444 27.1922 46.9483 27.1922 46.9564V46.9569C27.1922 46.9639 27.1957 46.9674 27.2028 46.9674C27.3119 46.9671 27.421 46.9697 27.53 46.9754C26.5031 46.9898 25.7428 46.9944 25.2491 46.9891C24.6522 46.9828 24.2225 46.697 23.96 46.1318C23.9001 45.9615 23.8702 45.7767 23.8702 45.5775C23.8688 43.9126 23.8674 42.2499 23.866 40.5896C23.8618 40.5547 23.8613 40.519 23.8644 40.4824C23.8683 40.4345 23.8699 40.3993 23.8692 40.3768C23.8591 40.0427 23.8713 39.6663 23.8692 39.3754C23.8625 38.2503 23.8597 35.9847 23.8607 32.5784C23.8625 27.8735 23.8634 23.2106 23.8634 18.5895C23.8634 18.3555 23.891 18.0966 23.9462 17.813C24.0758 17.1587 24.3809 16.555 24.8616 16.0018C25.4905 15.3289 26.2695 14.9196 27.1985 14.7739C27.4231 14.7567 27.6355 14.7479 27.8357 14.7476C29.3342 14.7458 30.8121 14.7474 32.2694 14.7523ZM26.223 16.1222C25.4169 16.6595 24.8722 17.4487 24.6045 18.3899C24.5111 18.7199 24.5449 19.0445 24.8421 19.2536C25.1973 19.5038 25.7564 19.4357 25.8757 18.9463C25.9408 18.6778 26.0251 18.4406 26.1285 18.2347C26.4384 17.6182 27.0064 17.1199 27.6926 16.9546C27.8521 16.9161 28.0326 16.895 28.1577 16.7989C28.295 16.694 28.365 16.5482 28.3678 16.3613C28.3752 15.8973 28.0099 15.5257 27.538 15.6011C27.0713 15.6754 26.633 15.8491 26.223 16.1222ZM29.8517 38.0758C30.7427 38.2025 31.5435 37.7564 31.9432 36.9567C32.0213 36.8009 32.1411 36.7091 32.3238 36.6985C32.4835 36.6894 32.6364 36.6691 32.7825 36.6378C33.3695 36.5122 33.8942 35.9896 34.0726 35.3904C34.1258 35.2117 34.1515 34.9523 34.1497 34.6123C34.1339 31.7516 34.1335 28.8684 34.1487 25.963C34.1504 25.6117 34.137 25.3599 34.1085 25.2076C34.0476 24.8817 33.8942 24.5903 33.6482 24.3334C33.3083 23.9779 32.877 23.7935 32.3544 23.7802C32.195 23.7759 32.035 23.6973 31.9695 23.5458C31.7716 23.0881 31.3715 22.7191 30.9243 22.5333C30.3943 22.3132 29.8248 22.3211 29.3016 22.5571C28.8681 22.7524 28.5394 23.0853 28.3155 23.5558C28.2627 23.6661 28.1656 23.7443 28.0416 23.7617C27.8547 23.787 27.6705 23.7849 27.4862 23.8382C26.7898 24.0406 26.3518 24.4984 26.1723 25.2118C26.1533 25.2883 26.1539 25.3612 26.1539 25.4388C26.1419 28.5167 26.1384 31.5969 26.1433 34.6794C26.144 34.9884 26.1676 35.2213 26.214 35.3783C26.3791 35.9322 26.7236 36.3244 27.2476 36.5549C27.4852 36.66 27.7539 36.6859 28.0099 36.7006C28.1852 36.7107 28.296 36.8638 28.3652 37.0073C28.6518 37.5986 29.2203 37.9866 29.8517 38.0758Z" fill="#836EAF"/>
<path d="M32.2694 14.7523L32.934 14.7729C33.8349 14.8947 34.5972 15.2798 35.2208 15.9284C35.7993 16.5299 36.1426 17.2416 36.2507 18.0637C36.2753 18.2502 36.2878 18.6013 36.2882 19.1168C36.291 24.0585 36.2901 29.0043 36.2855 33.9541C36.2018 34.0033 36.118 34.0523 36.0343 34.1008C35.651 34.3236 35.3102 34.6009 35.0117 34.9328C34.9818 34.937 34.9556 34.9292 34.9331 34.9095C34.9197 34.8976 34.9143 34.8828 34.9167 34.8652C34.928 34.7906 34.9336 34.7244 34.9336 34.6667C34.9185 31.0729 34.9197 27.9723 34.9373 25.3649C34.9398 24.9954 34.9403 24.644 34.9389 24.3107C34.9319 22.4286 34.931 20.4819 34.9363 18.4707C34.938 17.7929 34.7686 17.1561 34.4279 16.5603C34.0665 15.9283 33.5499 15.4354 32.878 15.0817C32.6873 14.9811 32.4844 14.8713 32.2694 14.7523Z" fill="#735EA0"/>
<path d="M24.6045 18.3899C24.8722 17.4487 25.4169 16.6595 26.223 16.1222C26.633 15.8491 27.0713 15.6754 27.538 15.6011C28.0099 15.5257 28.3752 15.8973 28.3678 16.3613C28.365 16.5482 28.295 16.694 28.1577 16.7989C28.0326 16.895 27.8521 16.9161 27.6926 16.9546C27.0064 17.1199 26.4384 17.6182 26.1285 18.2347C26.0251 18.4406 25.9408 18.6778 25.8757 18.9463C25.7564 19.4357 25.1973 19.5038 24.8421 19.2536C24.5449 19.0445 24.5111 18.7199 24.6045 18.3899Z" fill="#A193C4"/>
<path d="M24.8616 16.0018C24.3809 16.555 24.0758 17.1587 23.9462 17.813C19.8777 17.8105 15.8162 17.8102 11.7617 17.8119C11.7335 17.8119 11.696 17.7978 11.6492 17.7697C11.6422 17.7655 11.636 17.7663 11.6307 17.7723C11.6276 17.7758 11.6256 17.7806 11.6249 17.7866C11.5743 17.5247 11.5436 17.2601 11.5331 16.9926C11.5188 16.6442 11.389 16.2399 11.7653 16.0361C11.8544 15.9879 12.027 15.9636 12.2832 15.9633C16.1755 15.9587 20.0394 15.9582 23.875 15.9617C23.8775 15.9617 24.0101 15.9561 24.273 15.9448C24.4768 15.9363 24.673 15.9553 24.8616 16.0018ZM12.6137 17.5321C12.7752 17.5216 12.9552 17.4767 12.9547 17.2751C12.9543 17.0192 12.9427 16.781 12.9198 16.5603C12.9024 16.3866 12.753 16.2325 12.5651 16.2626C12.4706 16.2779 12.3133 16.2805 12.2763 16.3856C12.2647 16.418 12.2549 16.4764 12.2468 16.5608C12.2309 16.7239 12.2499 16.8955 12.251 17.0607C12.2521 17.2085 12.2679 17.3134 12.2985 17.3754C12.3552 17.4901 12.4602 17.5423 12.6137 17.5321Z" fill="#E5EBF9"/>
<path d="M12.6137 17.5321C12.4602 17.5423 12.3552 17.4901 12.2985 17.3754C12.2679 17.3134 12.2521 17.2085 12.251 17.0607C12.2499 16.8955 12.2309 16.7239 12.2468 16.5608C12.2549 16.4764 12.2647 16.418 12.2763 16.3856C12.3133 16.2805 12.4706 16.2779 12.5651 16.2626C12.753 16.2325 12.9024 16.3866 12.9198 16.5603C12.9427 16.781 12.9543 17.0192 12.9547 17.2751C12.9552 17.4767 12.7752 17.5216 12.6137 17.5321Z" fill="white"/>
<path d="M23.9462 17.813C23.891 18.0966 23.8634 18.3555 23.8634 18.5895C23.8634 23.2106 23.8625 27.8735 23.8607 32.5784C23.8597 35.9847 23.8625 38.2503 23.8692 39.3754C23.8713 39.6663 23.8591 40.0427 23.8692 40.3768C23.8699 40.3993 23.8683 40.4345 23.8644 40.4824C23.8613 40.519 23.8618 40.5547 23.866 40.5896L22.6392 40.5991C22.2778 40.5945 21.9204 40.5924 21.5671 40.5927C19.0917 40.5955 16.6164 40.5962 14.1413 40.5948C14.0073 40.5948 13.8938 40.5674 13.7618 40.5352C13.4384 40.4117 13.2131 40.2012 13.0861 39.9038C13.0221 39.7539 12.9768 39.4671 12.9504 39.0434C12.5091 31.9578 12.0673 24.8722 11.6249 17.7866C11.6256 17.7806 11.6276 17.7758 11.6307 17.7723C11.636 17.7663 11.6422 17.7655 11.6492 17.7697C11.696 17.7978 11.7335 17.8119 11.7617 17.8119C15.8162 17.8102 19.8777 17.8105 23.9462 17.813ZM14.8186 20.842C14.5673 20.8425 14.4391 20.9613 14.4549 21.2184C14.7319 25.6702 15.019 30.2756 15.3164 35.0346C15.3412 35.4353 15.6279 35.7309 16.0227 35.7315C18.0283 35.7336 19.9292 35.7339 21.7254 35.7325C22.0439 35.7325 22.2648 35.6148 22.3879 35.3794C22.4485 35.2636 22.4872 35.0663 22.5041 34.7876C22.7831 30.2196 23.0643 25.7017 23.3476 21.2337C23.3619 21.0162 23.2774 20.8441 23.0203 20.8436C20.3841 20.839 17.6502 20.8385 14.8186 20.842Z" fill="#FE3E64"/>
<path d="M14.4549 21.2184C14.4391 20.9613 14.5673 20.8425 14.8186 20.842C17.6502 20.8385 20.3841 20.839 23.0203 20.8436C23.2774 20.8441 23.3619 21.0162 23.3476 21.2337C23.0643 25.7017 22.7831 30.2196 22.5041 34.7876C22.4872 35.0663 22.4485 35.2636 22.3879 35.3794C22.2648 35.6148 22.0439 35.7325 21.7254 35.7325C19.9292 35.7339 18.0283 35.7336 16.0227 35.7315C15.6279 35.7309 15.3412 35.4353 15.3164 35.0346C15.019 30.2756 14.7319 25.6702 14.4549 21.2184ZM16.2756 33.9931C16.2876 34.1868 16.373 34.3685 16.5143 34.5015C16.6556 34.6345 16.8422 34.7086 17.0363 34.7089L20.7626 34.7132C20.957 34.7134 21.1441 34.6395 21.2859 34.5065C21.4276 34.3734 21.5133 34.1914 21.5254 33.9973L22.2333 22.6774C22.2398 22.5733 22.225 22.4689 22.1896 22.3708C22.1543 22.2726 22.0992 22.1828 22.0278 22.1067C21.9563 22.0307 21.8701 21.9701 21.7743 21.9287C21.6786 21.8873 21.5753 21.866 21.471 21.8661L16.3331 21.8676C16.229 21.8677 16.1259 21.8891 16.0304 21.9305C15.9348 21.9719 15.8487 22.0324 15.7774 22.1083C15.7061 22.1842 15.6511 22.2739 15.6158 22.3719C15.5804 22.4698 15.5655 22.574 15.5719 22.6779L16.2756 33.9931Z" fill="#F4A9B0"/>
<path d="M16.2756 33.9931L15.5719 22.6779C15.5655 22.574 15.5804 22.4698 15.6158 22.3719C15.6511 22.2739 15.7061 22.1842 15.7774 22.1083C15.8487 22.0324 15.9348 21.9719 16.0304 21.9305C16.1259 21.8891 16.229 21.8677 16.3331 21.8676L21.471 21.8661C21.5753 21.866 21.6786 21.8873 21.7743 21.9287C21.8701 21.9701 21.9563 22.0307 22.0278 22.1067C22.0992 22.1828 22.1543 22.2726 22.1896 22.3708C22.225 22.4689 22.2398 22.5733 22.2333 22.6774L21.5254 33.9973C21.5133 34.1914 21.4276 34.3734 21.2859 34.5065C21.1441 34.6395 20.957 34.7134 20.7626 34.7132L17.0363 34.7089C16.8422 34.7086 16.6556 34.6345 16.5143 34.5015C16.373 34.3685 16.2876 34.1868 16.2756 33.9931ZM16.5084 33.9689C16.5172 34.11 16.5795 34.2424 16.6826 34.3392C16.7857 34.436 16.9218 34.4899 17.0632 34.4899L20.7462 34.4915C20.8878 34.4914 21.024 34.4374 21.1271 34.3404C21.2302 34.2434 21.2924 34.1107 21.301 33.9694L21.9973 22.6806C22.002 22.6048 21.9911 22.5289 21.9654 22.4576C21.9396 22.3862 21.8995 22.3208 21.8475 22.2655C21.7955 22.2103 21.7328 22.1662 21.6631 22.1361C21.5935 22.106 21.5184 22.0904 21.4425 22.0904L16.3548 22.0909C16.2788 22.0909 16.2037 22.1065 16.134 22.1366C16.0643 22.1668 16.0015 22.2109 15.9496 22.2663C15.8976 22.3216 15.8575 22.387 15.8317 22.4585C15.806 22.5299 15.7952 22.6059 15.8 22.6816L16.5084 33.9689Z" fill="#FEDADD"/>
<path d="M16.5084 33.9689L15.8 22.6816C15.7952 22.6059 15.806 22.5299 15.8317 22.4585C15.8575 22.387 15.8976 22.3216 15.9496 22.2663C16.0015 22.2109 16.0643 22.1668 16.134 22.1366C16.2037 22.1065 16.2788 22.0909 16.3548 22.0909L21.4425 22.0904C21.5184 22.0904 21.5935 22.106 21.6631 22.1361C21.7328 22.1662 21.7955 22.2103 21.8475 22.2655C21.8995 22.3208 21.9396 22.3862 21.9654 22.4576C21.9911 22.5289 22.002 22.6048 21.9973 22.6806L21.301 33.9694C21.2924 34.1107 21.2302 34.2434 21.1271 34.3404C21.024 34.4374 20.8878 34.4914 20.7462 34.4915L17.0632 34.4899C16.9218 34.4899 16.7857 34.436 16.6826 34.3392C16.5795 34.2424 16.5172 34.11 16.5084 33.9689ZM19.6941 26.5595C19.8071 26.071 19.8548 25.5708 19.8372 25.0587C19.833 24.9306 19.8138 24.7951 19.7797 24.6522C19.7596 24.5685 19.7297 24.5648 19.6899 24.6411C19.3531 25.2926 19.2213 25.9702 19.2945 26.674C19.3093 26.8176 19.3457 26.9522 19.4038 27.0779C19.4153 27.1032 19.4199 27.1311 19.417 27.1587C19.4141 27.1864 19.4039 27.2128 19.3874 27.2352C19.3435 27.2943 19.3206 27.3587 19.3188 27.4284C19.3174 27.478 19.329 27.4813 19.3537 27.4384C19.3938 27.3677 19.4265 27.2917 19.4519 27.2104C19.4591 27.1868 19.4716 27.165 19.4884 27.1467C19.5051 27.1283 19.5258 27.1138 19.549 27.1043C20.0172 26.9121 20.4226 26.3869 20.6179 25.9487C20.6202 25.9436 20.6209 25.938 20.62 25.9325C20.6191 25.927 20.6167 25.9219 20.6129 25.9178C20.6091 25.9137 20.6043 25.9108 20.5989 25.9095C20.5935 25.9081 20.5878 25.9084 20.5826 25.9102C20.4554 25.955 20.3376 26.0443 20.2268 26.125C20.0371 26.2633 19.8731 26.4148 19.7348 26.5795C19.6933 26.6292 19.6797 26.6225 19.6941 26.5595ZM18.6827 28.9302C18.6511 28.8336 18.6262 28.737 18.5851 28.6425C18.3975 28.2093 18.1649 27.7991 17.8872 27.412C17.7897 27.2758 17.6822 27.1498 17.5647 27.034C17.4989 26.9689 17.4716 26.9825 17.4828 27.0747C17.5367 27.5079 17.6514 27.9098 17.827 28.2804C17.9175 28.4715 18.057 28.6814 18.2456 28.9101C18.3385 29.0231 18.4452 29.0907 18.575 29.1509C18.5849 29.1553 18.5938 29.1617 18.6011 29.1697C18.6084 29.1777 18.614 29.1871 18.6175 29.1973C18.6211 29.2075 18.6225 29.2184 18.6218 29.2292C18.621 29.24 18.618 29.2505 18.613 29.2601C18.5775 29.3288 18.5504 29.4009 18.5318 29.4766C18.5078 29.5719 18.4788 29.5735 18.4446 29.4813C18.3985 29.3578 18.3378 29.2387 18.2625 29.1239C17.9891 28.7074 17.6908 28.3205 17.3387 27.9658C17.243 27.8693 17.1385 27.7829 17.0252 27.7066C16.9745 27.6724 16.9565 27.6849 16.9713 27.744C17.0642 28.1204 17.1677 28.5311 17.3889 28.8331C17.5853 29.1016 17.817 29.336 18.0841 29.5362C18.1816 29.6094 18.2939 29.6677 18.4209 29.7109C18.449 29.7208 18.4594 29.7402 18.452 29.769L18.3845 30.0335C18.3832 30.0388 18.3803 30.0436 18.3761 30.0473C18.372 30.0509 18.3669 30.0532 18.3614 30.0538C18.356 30.0545 18.3504 30.0534 18.3456 30.0508C18.3407 30.0482 18.3368 30.0442 18.3343 30.0393C18.205 29.7885 17.9817 29.5985 17.7869 29.399C17.4786 29.0822 17.107 28.8267 16.7116 28.6209C16.6711 28.5997 16.6585 28.6108 16.6736 28.6541C16.7514 28.8804 16.8469 29.1009 16.9602 29.3156C17.1967 29.7632 17.8819 30.0963 18.3222 30.1839C18.3412 30.1878 18.3482 30.1991 18.3433 30.2177L18.3143 30.328C18.3133 30.3317 18.3115 30.335 18.309 30.3379C18.3066 30.3407 18.3035 30.3429 18.3 30.3444C18.2966 30.3459 18.2928 30.3466 18.2891 30.3464C18.2853 30.3462 18.2817 30.3452 18.2784 30.3433C17.8487 30.1137 17.1804 30.1201 16.7137 30.1961C16.7062 30.1974 16.6993 30.2013 16.6942 30.2072C16.6829 30.2198 16.6799 30.233 16.6852 30.2467C16.6891 30.2566 16.6956 30.2638 16.7047 30.2684C17.2235 30.5221 17.7424 30.5943 18.2615 30.4848C18.2847 30.4799 18.294 30.489 18.2895 30.5123C18.2075 30.9582 18.1756 31.4012 18.1939 31.8415C18.1953 31.8784 18.2147 31.8966 18.252 31.8959C18.2879 31.8951 18.319 31.874 18.3454 31.8325C18.356 31.816 18.3614 31.7967 18.3607 31.7771C18.3477 31.3745 18.3637 30.9858 18.4088 30.611C18.4126 30.5793 18.4276 30.5728 18.4536 30.5914C18.8543 30.8791 19.511 30.9441 19.9729 30.8834C19.977 30.8828 19.9809 30.8813 19.9842 30.8789C19.9875 30.8764 19.9902 30.8732 19.992 30.8695C19.9938 30.8658 19.9946 30.8617 19.9944 30.8575C19.9942 30.8534 19.993 30.8494 19.9908 30.8459C19.9834 30.8332 19.9732 30.8232 19.9602 30.8158C19.5221 30.5673 19.0693 30.4338 18.602 30.4151C18.5601 30.4134 18.5224 30.4218 18.489 30.4405C18.4387 30.4686 18.4225 30.4553 18.4404 30.4004L18.4906 30.2473C18.4966 30.229 18.5075 30.2253 18.5233 30.2362C18.7339 30.3808 19.0111 30.3814 19.2597 30.3982C19.6567 30.4252 19.928 30.2325 20.2363 30.0287C20.2901 29.9932 20.2852 29.9714 20.2215 29.9633C19.6771 29.8915 19.1251 29.9349 18.5655 30.0937C18.5589 30.0956 18.5519 30.0957 18.5452 30.094C18.5385 30.0923 18.5324 30.0888 18.5275 30.0839C18.5226 30.079 18.519 30.0729 18.5171 30.0662C18.5153 30.0595 18.5152 30.0524 18.517 30.0456L18.5793 29.8038C18.5842 29.7845 18.5963 29.778 18.6157 29.7843C19.0232 29.9221 19.4592 29.8207 19.8657 29.7289C20.2567 29.6402 20.628 29.4699 20.9795 29.2179C20.9822 29.2159 20.9843 29.2134 20.9859 29.2106C20.9876 29.2077 20.9886 29.2046 20.9889 29.2014C20.9893 29.1982 20.9889 29.1949 20.988 29.1919C20.987 29.1888 20.9854 29.186 20.9832 29.1836C20.9716 29.1702 20.9572 29.163 20.94 29.1619C20.1911 29.1106 19.5029 29.214 18.8754 29.4723C18.8145 29.4977 18.7559 29.5318 18.6996 29.5747C18.6271 29.6296 18.6057 29.6142 18.6352 29.5283L18.7144 29.295C18.7187 29.2826 18.7272 29.2722 18.7385 29.2655C18.7497 29.2588 18.7628 29.2564 18.7756 29.2585C19.0792 29.3097 19.4466 29.1762 19.7538 29.0564C20.035 28.9462 20.3051 28.8294 20.5641 28.7059C20.7204 28.6309 20.8555 28.5332 20.9943 28.4329C21.0482 28.3939 21.0418 28.3736 20.9753 28.3722C20.5337 28.3634 20.1427 28.4041 19.8024 28.4942C19.6085 28.5456 19.3699 28.646 19.0866 28.7956C18.9873 28.8479 18.9213 28.9255 18.8342 28.9893C18.7966 29.0168 18.7851 29.0085 18.7999 28.9645L18.9155 28.6172C18.9195 28.6053 18.9274 28.5953 18.9381 28.5887C18.9487 28.5821 18.9612 28.5795 18.9736 28.5813C19.1495 28.6063 19.3271 28.5887 19.5062 28.5285C19.8814 28.4028 20.2632 28.2424 20.6517 28.0471C20.8534 27.9453 21.0469 27.8234 21.2324 27.6812C21.243 27.6731 21.2451 27.6636 21.2387 27.6527C21.2368 27.6492 21.2341 27.6463 21.2307 27.6442C21.2274 27.6422 21.2236 27.6411 21.2197 27.6411C20.5532 27.6221 19.9417 27.7653 19.3853 28.0708C19.2604 28.1394 19.1598 28.226 19.0834 28.3305C19.0799 28.3355 19.0755 28.3388 19.0702 28.3406C19.0646 28.3423 19.0589 28.3432 19.0533 28.3432C19.0354 28.3425 19.0294 28.3337 19.0354 28.3168L19.1647 27.9325C19.1701 27.9164 19.1798 27.9021 19.1929 27.8912C19.206 27.8804 19.2218 27.8735 19.2386 27.8713C19.3637 27.8538 19.4856 27.8401 19.6018 27.7847C20.2046 27.4975 20.7858 27.0346 21.1131 26.4513C21.1159 26.4462 21.1167 26.4404 21.1154 26.4348C21.114 26.4293 21.1105 26.4246 21.1057 26.4217C21.0959 26.4154 21.0853 26.414 21.074 26.4175C20.486 26.6012 19.9502 26.9147 19.5215 27.346C19.4378 27.4308 19.3447 27.5123 19.2423 27.5904C19.2215 27.6059 19.212 27.6008 19.2138 27.5751C19.2208 27.4607 19.2169 27.351 19.2022 27.2457C19.1138 26.6102 18.9233 26.0557 18.6305 25.5824C18.5738 25.4905 18.5395 25.4983 18.5275 25.6056C18.4621 26.1996 18.5485 26.7958 18.7867 27.3941C18.8538 27.5619 18.9546 27.6944 19.0739 27.8243C19.091 27.8428 19.1012 27.8666 19.1029 27.8918C19.1047 27.9169 19.0978 27.9419 19.0834 27.9626C19.0398 28.0252 19.0142 28.0984 19.0068 28.1822C19.0033 28.2209 18.9905 28.2568 18.9683 28.2899C18.9468 28.3219 18.9336 28.3189 18.9287 28.2809C18.9058 28.1042 18.8641 27.9295 18.8036 27.7567C18.6801 27.4051 18.5367 27.0641 18.3734 26.7337C18.3016 26.5883 18.2129 26.4451 18.1073 26.304C18.0704 26.254 18.0503 26.26 18.0472 26.3219C18.0127 27.0001 18.1473 27.6063 18.451 28.1405C18.5435 28.3041 18.6651 28.4326 18.8158 28.5258C18.8261 28.5323 18.8338 28.5423 18.8374 28.554C18.841 28.5656 18.8403 28.5781 18.8353 28.5892C18.7888 28.6948 18.7496 28.8081 18.7176 28.9291C18.7074 28.9686 18.6957 28.9689 18.6827 28.9302Z" fill="#F4A9B0"/>
<path d="M29.8517 38.0758C29.2203 37.9866 28.6518 37.5986 28.3652 37.0073C28.296 36.8638 28.1852 36.7107 28.0099 36.7006C27.7539 36.6859 27.4852 36.66 27.2476 36.5549C26.7236 36.3244 26.3791 35.9322 26.214 35.3783C26.1676 35.2213 26.144 34.9884 26.1433 34.6794C26.1384 31.5969 26.1419 28.5167 26.1539 25.4388C26.1539 25.3612 26.1533 25.2883 26.1723 25.2118C26.3518 24.4984 26.7898 24.0406 27.4862 23.8382C27.6705 23.7849 27.8547 23.787 28.0416 23.7617C28.1656 23.7443 28.2627 23.6661 28.3155 23.5558C28.5394 23.0853 28.8681 22.7524 29.3016 22.5571C29.8248 22.3211 30.3943 22.3132 30.9243 22.5333C31.3715 22.7191 31.7716 23.0881 31.9695 23.5458C32.035 23.6973 32.195 23.7759 32.3544 23.7802C32.877 23.7935 33.3083 23.9779 33.6482 24.3334C33.8942 24.5903 34.0476 24.8817 34.1085 25.2076C34.137 25.3599 34.1504 25.6117 34.1487 25.963C34.1335 28.8684 34.1339 31.7516 34.1497 34.6123C34.1515 34.9523 34.1258 35.2117 34.0726 35.3904C33.8942 35.9896 33.3695 36.5122 32.7825 36.6378C32.6364 36.6691 32.4835 36.6894 32.3238 36.6985C32.1411 36.7091 32.0213 36.8009 31.9432 36.9567C31.5435 37.7564 30.7427 38.2025 29.8517 38.0758ZM33.4376 25.3876C33.3398 24.928 33.0764 24.6331 32.6474 24.5028C32.4557 24.4442 32.2404 24.4717 32.0556 24.4189C31.7477 24.3309 31.517 24.1488 31.3635 23.8725C31.2647 23.6945 31.2149 23.6049 31.2142 23.6039C31.0231 23.3522 30.7989 23.1893 30.5416 23.115C29.9008 22.9303 29.2657 23.1874 28.9543 23.8087C28.7964 24.1238 28.5431 24.355 28.191 24.4321C27.9793 24.478 27.7676 24.4442 27.5623 24.525C27.1352 24.6929 26.8311 25.0772 26.8317 25.5438C26.8362 28.4525 26.8355 31.5622 26.8296 34.8731C26.8285 35.5335 27.3062 35.9933 27.9608 36.0155C28.4702 36.0329 28.7732 36.3021 28.9912 36.7307C29.1427 37.029 29.441 37.2697 29.7535 37.3547C30.2979 37.5021 30.7574 37.3718 31.1318 36.9635C31.1973 36.8917 31.2546 36.8057 31.3039 36.7054C31.5383 36.2255 31.8772 36.0339 32.4014 36.0065C32.9979 35.9753 33.4508 35.4928 33.4503 34.8916C33.4475 31.6669 33.4483 28.5482 33.4529 25.5354C33.4529 25.4858 33.4478 25.4365 33.4376 25.3876Z" fill="#A193C4"/>
<path d="M33.4376 25.3876C33.4478 25.4365 33.4529 25.4858 33.4529 25.5354C33.4483 28.5482 33.4475 31.6669 33.4503 34.8916C33.4508 35.4928 32.9979 35.9753 32.4014 36.0065C31.8772 36.0339 31.5383 36.2255 31.3039 36.7054C31.2546 36.8057 31.1973 36.8917 31.1318 36.9635C30.7574 37.3718 30.2979 37.5021 29.7535 37.3547C29.441 37.2697 29.1427 37.029 28.9912 36.7307C28.7732 36.3021 28.4702 36.0329 27.9608 36.0155C27.3062 35.9933 26.8285 35.5335 26.8296 34.8731C26.8355 31.5622 26.8362 28.4525 26.8317 25.5438C26.8311 25.0772 27.1352 24.6929 27.5623 24.525C27.7676 24.4442 27.9793 24.478 28.191 24.4321C28.5431 24.355 28.7964 24.1238 28.9543 23.8087C29.2657 23.1874 29.9008 22.9303 30.5416 23.115C30.7989 23.1893 31.0231 23.3522 31.2142 23.6039C31.2149 23.6049 31.2647 23.6945 31.3635 23.8725C31.517 24.1488 31.7477 24.3309 32.0556 24.4189C32.2404 24.4717 32.4557 24.4442 32.6474 24.5028C33.0764 24.6331 33.3398 24.928 33.4376 25.3876ZM33.2222 26.8445C33.2212 26.4828 33.2234 26.1539 33.2291 25.8579C33.2347 25.5693 33.2148 25.3693 33.1694 25.2577C33.0327 24.923 32.726 24.6955 32.3591 24.6918C31.9368 24.6876 31.552 24.5055 31.2928 24.1782C31.1746 24.0293 31.1091 23.8472 30.9903 23.7026C30.5427 23.1583 29.7773 23.1451 29.3148 23.6688C29.2362 23.7575 29.1728 23.8799 29.1179 23.9866C28.9205 24.3693 28.5188 24.6507 28.0864 24.6792C27.9471 24.6881 27.8088 24.6939 27.6768 24.7356C27.2904 24.8586 27.0565 25.1843 27.0571 25.5861C27.0613 28.7541 27.0604 31.8538 27.0544 34.8853C27.0534 35.3582 27.4414 35.7784 27.9249 35.7779C28.3171 35.7779 28.693 35.9484 28.939 36.2282C29.0841 36.3934 29.1612 36.604 29.2985 36.7772C29.7028 37.2861 30.4968 37.3315 30.9286 36.8442C31.0039 36.7594 31.0739 36.6553 31.1387 36.5317C31.3884 36.055 31.8196 35.7858 32.3507 35.7811C32.8812 35.7763 33.2264 35.3514 33.2275 34.8462C33.2331 32.0973 33.2314 29.4301 33.2222 26.8445Z" fill="#D8D2EC"/>
<path d="M33.2222 26.8445C33.2314 29.4301 33.2331 32.0973 33.2275 34.8462C33.2264 35.3514 32.8812 35.7763 32.3507 35.7811C31.8196 35.7858 31.3884 36.055 31.1387 36.5317C31.0739 36.6553 31.0039 36.7594 30.9286 36.8442C30.4968 37.3315 29.7028 37.2861 29.2985 36.7772C29.1612 36.604 29.0841 36.3934 28.939 36.2282C28.693 35.9484 28.3171 35.7779 27.9249 35.7779C27.4414 35.7784 27.0534 35.3582 27.0544 34.8853C27.0604 31.8538 27.0613 28.7541 27.0571 25.5861C27.0565 25.1843 27.2904 24.8586 27.6768 24.7356C27.8088 24.6939 27.9471 24.6881 28.0864 24.6792C28.5188 24.6507 28.9205 24.3693 29.1179 23.9866C29.1728 23.8799 29.2362 23.7575 29.3148 23.6688C29.7773 23.1451 30.5427 23.1583 30.9903 23.7026C31.1091 23.8472 31.1746 24.0293 31.2928 24.1782C31.552 24.5055 31.9368 24.6876 32.3591 24.6918C32.726 24.6955 33.0327 24.923 33.1694 25.2577C33.2148 25.3693 33.2347 25.5693 33.2291 25.8579C33.2234 26.1539 33.2212 26.4828 33.2222 26.8445ZM29.5946 32.439C29.5921 32.4429 29.5888 32.4456 29.5846 32.447C29.5793 32.4487 29.5749 32.4477 29.5714 32.4438C29.2846 32.1165 29.0702 31.7473 28.9284 31.3363C28.8413 31.0834 28.7637 30.7878 28.6555 30.5698C28.5051 30.2668 28.1334 29.74 27.7776 29.6645C27.7613 29.661 27.7442 29.664 27.73 29.6728C27.7157 29.6817 27.7054 29.6957 27.7011 29.712C27.6888 29.7616 27.6867 29.8123 27.6948 29.864C27.7419 30.1628 27.8054 30.4542 27.8853 30.7382C28.0685 31.3859 28.0278 32.2194 28.4897 32.7352C28.7333 33.0072 29.0088 33.2699 29.3164 33.5233C29.5313 33.7002 29.7424 33.9013 29.8527 34.1494C29.9006 34.2567 29.9539 34.3627 30.0127 34.4672C30.0198 34.4799 30.0295 34.4911 30.041 34.5001C30.0526 34.5091 30.0658 34.5157 30.0799 34.5195C30.0941 34.5234 30.1089 34.5243 30.1234 34.5224C30.138 34.5205 30.152 34.5157 30.1647 34.5083C30.4829 34.3243 30.7493 34.1154 30.9639 33.8818C31.278 33.5397 31.3583 33.1797 31.4665 32.7489C31.5884 32.2664 31.8244 31.8283 32.1321 31.4271C32.3605 31.129 32.5092 30.7709 32.5782 30.3529C32.6102 30.1582 32.6039 29.9867 32.5592 29.8382C32.5555 29.826 32.549 29.8149 32.5402 29.8057C32.5314 29.7966 32.5205 29.7897 32.5085 29.7856C32.4964 29.7815 32.4836 29.7804 32.471 29.7823C32.4584 29.7842 32.4465 29.789 32.4362 29.7965C32.3475 29.8598 32.266 29.9355 32.1918 30.0235C32.0113 30.2364 31.8376 30.4503 31.6708 30.6654C31.4427 30.9599 31.1339 31.2196 30.8811 31.5269C30.8404 31.5765 30.813 31.6388 30.7686 31.6821C30.7327 31.7169 30.7079 31.7104 30.6942 31.6625C30.4524 30.8279 30.3827 29.977 30.5142 29.1403C30.6398 28.339 30.5554 27.5287 30.2471 26.7986C30.1784 26.6364 30.091 26.4919 29.9847 26.3652C29.975 26.3537 29.9627 26.3446 29.9488 26.3386C29.935 26.3327 29.9199 26.33 29.9049 26.3309C29.8898 26.3318 29.8752 26.3361 29.8621 26.3436C29.849 26.3512 29.8378 26.3616 29.8295 26.3742C29.7827 26.4446 29.7484 26.5227 29.7266 26.6086C29.6305 26.9904 29.5545 27.3729 29.4985 27.7562C29.4665 27.9754 29.4257 28.1869 29.3761 28.3907C29.2641 28.8515 29.1016 29.3182 29.0345 29.7891C28.9708 30.2385 29.016 30.716 29.1702 31.2217C29.2951 31.6328 29.4369 32.0349 29.5957 32.428C29.5963 32.4298 29.5966 32.4318 29.5964 32.4337C29.5962 32.4356 29.5956 32.4374 29.5946 32.439Z" fill="#A193C4"/>
<path d="M19.6941 26.5595C19.6797 26.6225 19.6933 26.6292 19.7348 26.5795C19.8731 26.4148 20.0371 26.2633 20.2268 26.125C20.3376 26.0443 20.4554 25.955 20.5826 25.9102C20.5878 25.9084 20.5935 25.9081 20.5989 25.9095C20.6043 25.9108 20.6091 25.9137 20.6129 25.9178C20.6167 25.9219 20.6191 25.927 20.62 25.9325C20.6209 25.938 20.6202 25.9436 20.6179 25.9487C20.4226 26.3869 20.0172 26.9121 19.549 27.1043C19.5258 27.1138 19.5051 27.1283 19.4884 27.1467C19.4716 27.165 19.4591 27.1868 19.4519 27.2104C19.4265 27.2917 19.3938 27.3677 19.3537 27.4384C19.329 27.4813 19.3174 27.478 19.3188 27.4284C19.3206 27.3587 19.3435 27.2943 19.3874 27.2352C19.4039 27.2128 19.4141 27.1864 19.417 27.1587C19.4199 27.1311 19.4153 27.1032 19.4038 27.0779C19.3457 26.9522 19.3093 26.8176 19.2945 26.674C19.2213 25.9702 19.3531 25.2926 19.6899 24.6411C19.7297 24.5648 19.7596 24.5685 19.7797 24.6522C19.8138 24.7951 19.833 24.9306 19.8372 25.0587C19.8548 25.5708 19.8071 26.071 19.6941 26.5595Z" fill="#EE7483"/>
<path d="M18.7176 28.9291C18.7496 28.8081 18.7888 28.6948 18.8353 28.5892C18.8403 28.5781 18.841 28.5656 18.8374 28.554C18.8338 28.5423 18.8261 28.5323 18.8158 28.5258C18.6651 28.4326 18.5435 28.3041 18.451 28.1405C18.1473 27.6063 18.0127 27.0001 18.0472 26.3219C18.0503 26.26 18.0704 26.254 18.1073 26.304C18.2129 26.4451 18.3016 26.5883 18.3734 26.7337C18.5367 27.0641 18.6801 27.4051 18.8036 27.7567C18.8641 27.9295 18.9058 28.1042 18.9287 28.2809C18.9336 28.3189 18.9468 28.3219 18.9683 28.2899C18.9905 28.2568 19.0033 28.2209 19.0068 28.1822C19.0142 28.0984 19.0398 28.0252 19.0834 27.9626C19.0978 27.9419 19.1047 27.9169 19.1029 27.8918C19.1012 27.8666 19.091 27.8428 19.0739 27.8243C18.9546 27.6944 18.8538 27.5619 18.7867 27.3941C18.5485 26.7958 18.4621 26.1996 18.5275 25.6056C18.5395 25.4983 18.5738 25.4905 18.6305 25.5824C18.9233 26.0557 19.1138 26.6102 19.2022 27.2457C19.2169 27.351 19.2208 27.4607 19.2138 27.5751C19.212 27.6008 19.2215 27.6059 19.2423 27.5904C19.3447 27.5123 19.4378 27.4308 19.5215 27.346C19.9502 26.9147 20.486 26.6012 21.074 26.4175C21.0853 26.414 21.0959 26.4154 21.1057 26.4217C21.1105 26.4246 21.114 26.4293 21.1154 26.4348C21.1167 26.4404 21.1159 26.4462 21.1131 26.4513C20.7858 27.0346 20.2046 27.4975 19.6018 27.7847C19.4856 27.8401 19.3637 27.8538 19.2386 27.8713C19.2218 27.8735 19.206 27.8804 19.1929 27.8912C19.1798 27.9021 19.1701 27.9164 19.1647 27.9325L19.0354 28.3168C19.0294 28.3337 19.0354 28.3425 19.0533 28.3432C19.0589 28.3432 19.0646 28.3423 19.0702 28.3406C19.0755 28.3388 19.0799 28.3355 19.0834 28.3305C19.1598 28.226 19.2604 28.1394 19.3853 28.0708C19.9417 27.7653 20.5532 27.6221 21.2197 27.6411C21.2236 27.6411 21.2274 27.6422 21.2307 27.6442C21.2341 27.6463 21.2368 27.6492 21.2387 27.6527C21.2451 27.6636 21.243 27.6731 21.2324 27.6812C21.0469 27.8234 20.8534 27.9453 20.6517 28.0471C20.2632 28.2424 19.8814 28.4028 19.5062 28.5285C19.3271 28.5887 19.1495 28.6063 18.9736 28.5813C18.9612 28.5795 18.9487 28.5821 18.9381 28.5887C18.9274 28.5953 18.9195 28.6053 18.9155 28.6172L18.7999 28.9645C18.7851 29.0085 18.7966 29.0168 18.8342 28.9893C18.9213 28.9255 18.9873 28.8479 19.0866 28.7956C19.3699 28.646 19.6085 28.5456 19.8024 28.4942C20.1427 28.4041 20.5337 28.3634 20.9753 28.3722C21.0418 28.3736 21.0482 28.3939 20.9943 28.4329C20.8555 28.5332 20.7204 28.6309 20.5641 28.7059C20.3051 28.8294 20.035 28.9462 19.7538 29.0564C19.4466 29.1762 19.0792 29.3097 18.7756 29.2585C18.7628 29.2564 18.7497 29.2588 18.7385 29.2655C18.7272 29.2722 18.7187 29.2826 18.7144 29.295L18.6352 29.5283C18.6057 29.6142 18.6271 29.6296 18.6996 29.5747C18.7559 29.5318 18.8145 29.4977 18.8754 29.4723C19.5029 29.214 20.1911 29.1106 20.94 29.1619C20.9572 29.163 20.9716 29.1702 20.9832 29.1836C20.9854 29.186 20.987 29.1888 20.988 29.1919C20.9889 29.1949 20.9893 29.1982 20.9889 29.2014C20.9886 29.2046 20.9876 29.2077 20.9859 29.2106C20.9843 29.2134 20.9822 29.2159 20.9795 29.2179C20.628 29.4699 20.2567 29.6402 19.8657 29.7289C19.4592 29.8207 19.0232 29.9221 18.6157 29.7843C18.5963 29.778 18.5842 29.7845 18.5793 29.8038L18.517 30.0456C18.5152 30.0524 18.5153 30.0595 18.5171 30.0662C18.519 30.0729 18.5226 30.079 18.5275 30.0839C18.5324 30.0888 18.5385 30.0923 18.5452 30.094C18.5519 30.0957 18.5589 30.0956 18.5655 30.0937C19.1251 29.9349 19.6771 29.8915 20.2215 29.9633C20.2852 29.9714 20.2901 29.9932 20.2363 30.0287C19.928 30.2325 19.6567 30.4252 19.2597 30.3982C19.0111 30.3814 18.7339 30.3808 18.5233 30.2362C18.5075 30.2253 18.4966 30.229 18.4906 30.2473L18.4404 30.4004C18.4225 30.4553 18.4387 30.4686 18.489 30.4405C18.5224 30.4218 18.5601 30.4134 18.602 30.4151C19.0693 30.4338 19.5221 30.5673 19.9602 30.8158C19.9732 30.8232 19.9834 30.8332 19.9908 30.8459C19.993 30.8494 19.9942 30.8534 19.9944 30.8575C19.9946 30.8617 19.9938 30.8658 19.992 30.8695C19.9902 30.8732 19.9875 30.8764 19.9842 30.8789C19.9809 30.8813 19.977 30.8828 19.9729 30.8834C19.511 30.9441 18.8543 30.8791 18.4536 30.5914C18.4276 30.5728 18.4126 30.5793 18.4088 30.611C18.3637 30.9858 18.3477 31.3745 18.3607 31.7771C18.3614 31.7967 18.356 31.816 18.3454 31.8325C18.319 31.874 18.2879 31.8951 18.252 31.8959C18.2147 31.8966 18.1953 31.8784 18.1939 31.8415C18.1756 31.4012 18.2075 30.9582 18.2895 30.5123C18.294 30.489 18.2847 30.4799 18.2615 30.4848C17.7424 30.5943 17.2235 30.5221 16.7047 30.2684C16.6956 30.2638 16.6891 30.2566 16.6852 30.2467C16.6799 30.233 16.6829 30.2198 16.6942 30.2072C16.6993 30.2013 16.7062 30.1974 16.7137 30.1961C17.1804 30.1201 17.8487 30.1137 18.2784 30.3433C18.2817 30.3452 18.2853 30.3462 18.2891 30.3464C18.2928 30.3466 18.2966 30.3459 18.3 30.3444C18.3035 30.3429 18.3066 30.3407 18.309 30.3379C18.3115 30.335 18.3133 30.3317 18.3143 30.328L18.3433 30.2177C18.3482 30.1991 18.3412 30.1878 18.3222 30.1839C17.8819 30.0963 17.1967 29.7632 16.9602 29.3156C16.8469 29.1009 16.7514 28.8804 16.6736 28.6541C16.6585 28.6108 16.6711 28.5997 16.7116 28.6209C17.107 28.8267 17.4786 29.0822 17.7869 29.399C17.9817 29.5985 18.205 29.7885 18.3343 30.0393C18.3368 30.0442 18.3407 30.0482 18.3456 30.0508C18.3504 30.0534 18.356 30.0545 18.3614 30.0538C18.3669 30.0532 18.372 30.0509 18.3761 30.0473C18.3803 30.0436 18.3832 30.0388 18.3845 30.0335L18.452 29.769C18.4594 29.7402 18.449 29.7208 18.4209 29.7109C18.2939 29.6677 18.1816 29.6094 18.0841 29.5362C17.817 29.336 17.5853 29.1016 17.3889 28.8331C17.1677 28.5311 17.0642 28.1204 16.9713 27.744C16.9565 27.6849 16.9745 27.6724 17.0252 27.7066C17.1385 27.7829 17.243 27.8693 17.3387 27.9658C17.6908 28.3205 17.9891 28.7074 18.2625 29.1239C18.3378 29.2387 18.3985 29.3578 18.4446 29.4813C18.4788 29.5735 18.5078 29.5719 18.5318 29.4766C18.5504 29.4009 18.5775 29.3288 18.613 29.2601C18.618 29.2505 18.621 29.24 18.6218 29.2292C18.6225 29.2184 18.6211 29.2075 18.6175 29.1973C18.614 29.1871 18.6084 29.1777 18.6011 29.1697C18.5938 29.1617 18.5849 29.1553 18.575 29.1509C18.4452 29.0907 18.3385 29.0231 18.2456 28.9101C18.057 28.6814 17.9175 28.4715 17.827 28.2804C17.6514 27.9098 17.5367 27.5079 17.4828 27.0747C17.4716 26.9825 17.4989 26.9689 17.5647 27.034C17.6822 27.1498 17.7897 27.2758 17.8872 27.412C18.1649 27.7991 18.3975 28.2093 18.5851 28.6425C18.6262 28.737 18.6511 28.8336 18.6827 28.9302C18.6957 28.9689 18.7074 28.9686 18.7176 28.9291Z" fill="#EE7483"/>
<path d="M29.5946 32.439C29.5956 32.4374 29.5962 32.4356 29.5964 32.4337C29.5966 32.4318 29.5963 32.4298 29.5957 32.428C29.4369 32.0349 29.2951 31.6328 29.1702 31.2217C29.016 30.716 28.9708 30.2385 29.0345 29.7891C29.1016 29.3182 29.2641 28.8515 29.3761 28.3907C29.4257 28.1869 29.4665 27.9754 29.4985 27.7562C29.5545 27.3729 29.6305 26.9904 29.7266 26.6086C29.7484 26.5227 29.7827 26.4446 29.8295 26.3742C29.8378 26.3616 29.849 26.3512 29.8621 26.3436C29.8752 26.3361 29.8898 26.3318 29.9049 26.3309C29.9199 26.33 29.935 26.3327 29.9488 26.3386C29.9627 26.3446 29.975 26.3537 29.9847 26.3652C30.091 26.4919 30.1784 26.6364 30.2471 26.7986C30.5554 27.5287 30.6398 28.339 30.5142 29.1403C30.3827 29.977 30.4524 30.8279 30.6942 31.6625C30.7079 31.7104 30.7327 31.7169 30.7686 31.6821C30.813 31.6388 30.8404 31.5765 30.8811 31.5269C31.1339 31.2196 31.4427 30.9599 31.6708 30.6654C31.8376 30.4503 32.0113 30.2364 32.1918 30.0235C32.266 29.9355 32.3475 29.8598 32.4362 29.7965C32.4465 29.789 32.4584 29.7842 32.471 29.7823C32.4836 29.7804 32.4964 29.7815 32.5085 29.7856C32.5205 29.7897 32.5314 29.7966 32.5402 29.8057C32.549 29.8149 32.5555 29.826 32.5592 29.8382C32.6039 29.9867 32.6102 30.1582 32.5782 30.3529C32.5092 30.7709 32.3605 31.129 32.1321 31.4271C31.8244 31.8283 31.5884 32.2664 31.4665 32.7489C31.3583 33.1797 31.278 33.5397 30.9639 33.8818C30.7493 34.1154 30.4829 34.3243 30.1647 34.5083C30.152 34.5157 30.138 34.5205 30.1234 34.5224C30.1089 34.5243 30.0941 34.5234 30.0799 34.5195C30.0658 34.5157 30.0526 34.5091 30.041 34.5001C30.0295 34.4911 30.0198 34.4799 30.0127 34.4672C29.9539 34.3627 29.9006 34.2567 29.8527 34.1494C29.7424 33.9013 29.5313 33.7002 29.3164 33.5233C29.0088 33.2699 28.7333 33.0072 28.4897 32.7352C28.0278 32.2194 28.0685 31.3859 27.8853 30.7382C27.8054 30.4542 27.7419 30.1628 27.6948 29.864C27.6867 29.8123 27.6888 29.7616 27.7011 29.712C27.7054 29.6957 27.7157 29.6817 27.73 29.6728C27.7442 29.664 27.7613 29.661 27.7776 29.6645C28.1334 29.74 28.5051 30.2668 28.6555 30.5698C28.7637 30.7878 28.8413 31.0834 28.9284 31.3363C29.0702 31.7473 29.2846 32.1165 29.5714 32.4438C29.5749 32.4477 29.5793 32.4487 29.5846 32.447C29.5888 32.4456 29.5921 32.4429 29.5946 32.439ZM30.2339 33.9578C30.378 33.4943 30.3611 32.9463 30.2645 32.4496C30.2029 32.1329 30.1121 31.7728 29.9921 31.3695C29.9485 31.2235 29.9073 31.059 29.8686 30.876C29.7435 30.2884 29.7704 29.6946 29.8781 29.0801C29.9594 28.6163 30.0137 28.1646 30.0412 27.725C30.0451 27.6635 30.0422 27.6034 30.0327 27.545C30.025 27.4972 30.0171 27.4972 30.009 27.545C29.9588 27.8443 29.9229 28.1537 29.8443 28.4451C29.6041 29.3335 29.4415 30.2816 29.716 31.1352C29.7857 31.3511 29.8343 31.586 29.9119 31.8014C30.0896 32.2983 30.1989 32.7829 30.2397 33.2551C30.2594 33.4786 30.2487 33.7097 30.2075 33.9483C30.2064 33.9542 30.2087 33.9578 30.2143 33.9588L30.2275 33.9615C30.2307 33.9618 30.2328 33.9606 30.2339 33.9578ZM28.1714 30.5682C28.2379 30.8638 28.302 31.1543 28.3636 31.4398C28.4262 31.7308 28.519 31.9879 28.6418 32.211C28.7308 32.3732 28.8605 32.5399 29.0308 32.7109C29.4151 33.0973 29.7831 33.4742 29.9446 34.0021C29.9657 34.0704 29.9734 34.069 29.9678 33.9979C29.9622 33.925 29.9441 33.8469 29.9134 33.7635C29.7493 33.3164 29.4753 32.9733 29.1491 32.6534C28.8665 32.376 28.6595 32.0181 28.5283 31.5796C28.4561 31.3389 28.3926 31.1052 28.3377 30.8786C28.2941 30.6977 28.2258 30.527 28.1329 30.3666C28.116 30.3374 28.1105 30.3393 28.1165 30.3724C28.1281 30.4384 28.1566 30.5022 28.1714 30.5682ZM30.8209 33.0023C30.7758 33.4028 30.643 33.7816 30.4223 34.1388C30.4012 34.1733 30.4067 34.1782 30.4387 34.1536C30.4672 34.1318 30.492 34.1068 30.5131 34.0786C30.7084 33.8189 30.8358 33.5379 30.8953 33.2356C30.9495 32.9594 31.0053 32.6954 31.0626 32.4438C31.1228 32.1809 31.2437 31.9038 31.3979 31.6916C31.5907 31.4244 31.7902 31.1549 31.9965 30.8828C32.0795 30.7727 32.1575 30.6437 32.2303 30.4959C32.2314 30.4938 32.2307 30.492 32.2282 30.4906L32.2171 30.4843C32.214 30.4824 32.2103 30.4819 32.2068 30.4826C32.2033 30.4834 32.2002 30.4855 32.1981 30.4885C31.9732 30.8216 31.7389 31.0745 31.4918 31.3511C31.3514 31.5089 31.2437 31.6916 31.1249 31.8684C30.936 32.1492 30.8615 32.6428 30.8209 33.0023Z" fill="#836EAF"/>
<path d="M30.2645 32.4496C30.3611 32.9463 30.378 33.4943 30.2339 33.9578C30.2328 33.9606 30.2307 33.9618 30.2275 33.9615L30.2143 33.9588C30.2087 33.9578 30.2064 33.9542 30.2075 33.9483C30.2487 33.7097 30.2594 33.4786 30.2397 33.2551C30.1989 32.7829 30.0896 32.2983 29.9119 31.8014C29.8343 31.586 29.7857 31.3511 29.716 31.1352C29.4415 30.2816 29.6041 29.3335 29.8443 28.4451C29.9229 28.1537 29.9588 27.8443 30.009 27.545C30.0171 27.4972 30.025 27.4972 30.0327 27.545C30.0422 27.6034 30.0451 27.6635 30.0412 27.725C30.0137 28.1646 29.9594 28.6163 29.8781 29.0801C29.7704 29.6946 29.7435 30.2884 29.8686 30.876C29.9073 31.059 29.9485 31.2235 29.9921 31.3695C30.1121 31.7728 30.2029 32.1329 30.2645 32.4496Z" fill="#A193C4"/>
<path d="M28.1714 30.5682C28.1566 30.5022 28.1281 30.4384 28.1165 30.3724C28.1105 30.3393 28.116 30.3374 28.1329 30.3666C28.2258 30.527 28.2941 30.6977 28.3377 30.8786C28.3926 31.1052 28.4561 31.3389 28.5283 31.5796C28.6595 32.0181 28.8665 32.376 29.1491 32.6534C29.4753 32.9733 29.7493 33.3164 29.9134 33.7635C29.9441 33.8469 29.9622 33.925 29.9678 33.9979C29.9734 34.069 29.9657 34.0704 29.9446 34.0021C29.7831 33.4742 29.4151 33.0973 29.0308 32.7109C28.8605 32.5399 28.7308 32.3732 28.6418 32.211C28.519 31.9879 28.4262 31.7308 28.3636 31.4398C28.302 31.1543 28.2379 30.8638 28.1714 30.5682Z" fill="#A193C4"/>
<path d="M30.8209 33.0023C30.8615 32.6428 30.936 32.1492 31.1249 31.8684C31.2437 31.6916 31.3514 31.5089 31.4918 31.3511C31.7389 31.0745 31.9732 30.8216 32.1981 30.4885C32.2002 30.4855 32.2033 30.4834 32.2068 30.4826C32.2103 30.4819 32.214 30.4824 32.2171 30.4843L32.2282 30.4906C32.2307 30.492 32.2314 30.4938 32.2303 30.4959C32.1575 30.6437 32.0795 30.7727 31.9965 30.8828C31.7902 31.1549 31.5907 31.4244 31.3979 31.6916C31.2437 31.9038 31.1228 32.1809 31.0626 32.4438C31.0053 32.6954 30.9495 32.9594 30.8953 33.2356C30.8358 33.5379 30.7084 33.8189 30.5131 34.0786C30.492 34.1068 30.4672 34.1318 30.4387 34.1536C30.4067 34.1782 30.4012 34.1733 30.4223 34.1388C30.643 33.7816 30.7758 33.4028 30.8209 33.0023Z" fill="#A193C4"/>
<path d="M44.6398 33.2383C42.2562 33.1974 39.875 33.193 37.496 33.2251C37.4784 33.2251 37.456 33.2376 37.4289 33.2625C37.4201 33.2344 37.3939 33.2184 37.3503 33.2145C37.2785 33.2078 37.2051 33.2089 37.1301 33.2177C36.9517 33.2388 36.7934 33.1417 36.7902 32.9543C36.7817 32.4359 36.7824 31.7232 36.7923 30.8163C36.7934 30.6722 36.9005 30.5381 37.0478 30.5376C39.6534 30.5264 42.2045 30.5264 44.701 30.5376C44.8277 30.5381 44.9866 30.5244 45.1012 30.5666C45.1841 30.5973 45.2865 30.6559 45.2875 30.7577C45.2939 31.45 45.2944 32.1448 45.2891 32.8424C45.2875 33.0424 45.2284 33.2119 45.0046 33.2156C44.8786 33.2173 44.757 33.2249 44.6398 33.2383ZM38.2767 31.3492C38.2764 31.2998 38.2663 31.251 38.2471 31.2056C38.2279 31.1601 38.1999 31.1188 38.1648 31.0842C38.1296 31.0495 38.088 31.0221 38.0423 31.0036C37.9965 30.985 37.9476 30.9756 37.8983 30.976L37.8011 30.9766C37.7518 30.977 37.703 30.987 37.6575 31.0063C37.612 31.0255 37.5708 31.0534 37.5361 31.0886C37.5015 31.1237 37.4741 31.1654 37.4555 31.2111C37.4369 31.2568 37.4276 31.3058 37.4279 31.3551L37.4352 32.4066C37.4356 32.456 37.4457 32.5048 37.4649 32.5503C37.4841 32.5957 37.512 32.637 37.5472 32.6716C37.5823 32.7063 37.624 32.7337 37.6697 32.7522C37.7154 32.7708 37.7644 32.7802 37.8137 32.7798L37.9108 32.7792C37.9602 32.7788 38.009 32.7688 38.0545 32.7496C38.0999 32.7304 38.1412 32.7024 38.1758 32.6672C38.2105 32.6321 38.2379 32.5905 38.2565 32.5447C38.275 32.499 38.2844 32.4501 38.2841 32.4007L38.2767 31.3492Z" fill="#E5EBF9"/>
<path d="M37.8983 30.976L37.8011 30.9766C37.5936 30.9781 37.4265 31.1475 37.4279 31.3551L37.4352 32.4066C37.4367 32.6142 37.6061 32.7813 37.8137 32.7798L37.9108 32.7792C38.1184 32.7777 38.2855 32.6083 38.2841 32.4007L38.2767 31.3492C38.2753 31.1416 38.1058 30.9745 37.8983 30.976Z" fill="white"/>
<path d="M44.6398 33.2383L44.6266 33.5312L43.7361 33.5286L37.4458 33.5344L37.4289 33.2625C37.456 33.2376 37.4784 33.2251 37.496 33.2251C39.875 33.193 42.2562 33.1974 44.6398 33.2383Z" fill="#CCD8E9"/>
<path d="M44.6266 33.5312C44.734 33.5633 44.8378 33.5933 44.9381 33.6215C46.0667 33.9372 46.9331 34.5865 47.5374 35.5694C48.1064 36.4958 48.335 37.682 48.2437 38.7589C48.0969 40.4959 47.7158 42.194 47.1003 43.8529C46.7399 44.8242 46.2792 45.7593 45.7183 46.6581C45.5789 46.8812 45.3871 46.9924 45.1429 46.9917C44.5084 46.9896 43.8899 46.9921 43.2874 46.9991C42.7906 47.0049 42.2712 46.9801 41.7623 46.9785C40.2276 46.974 38.6955 46.9759 37.166 46.9843C37.0503 46.985 36.9132 46.9476 36.7548 46.8719C36.9107 46.8416 37.0634 46.8318 37.213 46.8423C37.4294 46.8578 37.5394 46.8656 37.5429 46.8656C38.6761 46.886 39.9846 46.8941 41.4683 46.8898C42.132 46.8877 42.7699 46.8696 43.3819 46.8355C43.6377 46.821 43.8325 46.7252 43.9662 46.5478C44.1496 46.3046 44.3396 45.9963 44.5363 45.6229C44.9481 44.841 45.2921 44.0581 45.5684 43.2744C45.6 43.1839 45.6292 43.0926 45.656 43.0004C45.723 42.7655 45.8117 42.5353 45.8772 42.302C46.2118 41.1013 46.4364 39.903 46.5507 38.7071C46.606 38.1314 46.5801 37.5585 46.4731 36.9883C46.1812 35.429 45.1835 34.2164 43.715 33.5782C43.7127 33.5772 43.7107 33.5758 43.7091 33.5741C43.7074 33.5723 43.7061 33.5702 43.7053 33.568C43.7045 33.5657 43.7041 33.5633 43.7042 33.5609C43.7043 33.5585 43.7049 33.5561 43.706 33.5539C43.7099 33.5455 43.7199 33.537 43.7361 33.5286L44.6266 33.5312Z" fill="#51BCE0"/>
<path d="M43.7361 33.5286C43.7199 33.537 43.7099 33.5455 43.706 33.5539C43.7049 33.5561 43.7043 33.5585 43.7042 33.5609C43.7041 33.5633 43.7045 33.5657 43.7053 33.568C43.7061 33.5702 43.7074 33.5723 43.7091 33.5741C43.7107 33.5758 43.7127 33.5772 43.715 33.5782C45.1835 34.2164 46.1812 35.429 46.4731 36.9883C46.5801 37.5585 46.606 38.1314 46.5507 38.7071C46.4364 39.903 46.2118 41.1013 45.8772 42.302C45.8117 42.5353 45.723 42.7655 45.656 43.0004C45.6292 43.0926 45.6 43.1839 45.5684 43.2744C45.2921 44.0581 44.9481 44.841 44.5363 45.6229C44.3396 45.9963 44.1496 46.3046 43.9662 46.5478C43.8325 46.7252 43.6377 46.821 43.3819 46.8355C42.7699 46.8696 42.132 46.8877 41.4683 46.8898C39.9846 46.8941 38.6761 46.886 37.5429 46.8656C37.5394 46.8656 37.4294 46.8578 37.213 46.8423C37.0634 46.8318 36.9107 46.8416 36.7548 46.8719C36.5053 46.7705 36.3047 46.58 36.153 46.3002C36.1407 46.2777 36.1293 46.2705 36.1187 46.2786C36.1064 46.249 36.0936 46.2226 36.0802 46.1994C35.6656 45.4741 35.3111 44.7204 35.0165 43.9384C34.5206 42.6328 34.1729 41.2906 33.9734 39.9118C33.902 39.4162 33.858 39.067 33.8414 38.8639C33.7258 37.4439 34.0663 36.0286 35.0117 34.9328C35.3102 34.6009 35.651 34.3236 36.0343 34.1008C36.118 34.0523 36.2018 34.0033 36.2855 33.9541C36.4625 33.8633 36.5942 33.8019 36.6804 33.7698C36.8571 33.7044 37.1122 33.6259 37.4458 33.5344L43.7361 33.5286ZM37.592 34.5701C37.6 34.2798 37.3883 34.0443 37.0869 34.1409C36.9644 34.1803 36.8454 34.2286 36.73 34.2856C35.6732 34.8055 34.856 35.7763 34.5008 36.8896C34.4337 37.0997 34.3493 37.3911 34.5213 37.5611C34.7373 37.7744 35.1775 37.796 35.2688 37.4407C35.4763 36.6373 35.9023 35.9505 36.5738 35.4142C36.7949 35.2373 37.0478 35.1165 37.3001 34.9972C37.477 34.9138 37.5873 34.7675 37.592 34.5701ZM46.2287 39.4298C46.2287 38.4328 45.6819 37.4767 44.7086 36.7717C43.7352 36.0668 42.4151 35.6707 41.0386 35.6707C39.6621 35.6707 38.3419 36.0668 37.3686 36.7717C36.3953 37.4767 35.8484 38.4328 35.8484 39.4298C35.8484 40.4268 36.3953 41.3829 37.3686 42.0879C38.3419 42.7928 39.6621 43.1889 41.0386 43.1889C42.4151 43.1889 43.7352 42.7928 44.7086 42.0879C45.6819 41.3829 46.2287 40.4268 46.2287 39.4298Z" fill="#71CCF8"/>
<path d="M37.592 34.5701C37.5873 34.7675 37.477 34.9138 37.3001 34.9972C37.0478 35.1165 36.7949 35.2373 36.5738 35.4142C35.9023 35.9505 35.4763 36.6373 35.2688 37.4407C35.1775 37.796 34.7373 37.7744 34.5213 37.5611C34.3493 37.3911 34.4337 37.0997 34.5008 36.8896C34.856 35.7763 35.6732 34.8055 36.73 34.2856C36.8454 34.2286 36.9644 34.1803 37.0869 34.1409C37.3883 34.0443 37.6 34.2798 37.592 34.5701Z" fill="#AEE9FF"/>
<path d="M46.2287 39.4298C46.2287 40.4268 45.6819 41.3829 44.7086 42.0879C43.7352 42.7928 42.4151 43.1889 41.0386 43.1889C39.6621 43.1889 38.3419 42.7928 37.3686 42.0879C36.3953 41.3829 35.8484 40.4268 35.8484 39.4298C35.8484 38.4328 36.3953 37.4767 37.3686 36.7717C38.3419 36.0668 39.6621 35.6707 41.0386 35.6707C42.4151 35.6707 43.7352 36.0668 44.7086 36.7717C45.6819 37.4767 46.2287 38.4328 46.2287 39.4298ZM45.3847 39.4233C45.3833 38.6502 44.9246 37.9095 44.1094 37.3643C43.2942 36.8191 42.1893 36.5139 41.0377 36.5159C40.4676 36.5169 39.9031 36.5933 39.3766 36.7407C38.85 36.8881 38.3718 37.1036 37.9691 37.375C37.5664 37.6464 37.2471 37.9683 37.0295 38.3224C36.812 38.6764 36.7003 39.0556 36.701 39.4384C36.7023 40.2115 37.1611 40.9522 37.9763 41.4974C38.7915 42.0427 39.8964 42.3478 41.0479 42.3458C41.6181 42.3448 42.1825 42.2684 42.7091 42.121C43.2356 41.9736 43.7139 41.7581 44.1166 41.4867C44.5193 41.2153 44.8385 40.8934 45.0561 40.5394C45.2737 40.1853 45.3853 39.8061 45.3847 39.4233Z" fill="#AEE9FF"/>
<path d="M45.3847 39.4233C45.3853 39.8061 45.2737 40.1853 45.0561 40.5394C44.8385 40.8934 44.5193 41.2153 44.1166 41.4867C43.7139 41.7581 43.2356 41.9736 42.7091 42.121C42.1825 42.2684 41.6181 42.3448 41.0479 42.3458C39.8964 42.3478 38.7915 42.0427 37.9763 41.4974C37.1611 40.9522 36.7023 40.2115 36.701 39.4384C36.7003 39.0556 36.812 38.6764 37.0295 38.3224C37.2471 37.9683 37.5664 37.6464 37.9691 37.375C38.3718 37.1036 38.85 36.8881 39.3766 36.7407C39.9031 36.5933 40.4676 36.5169 41.0377 36.5159C42.1893 36.5139 43.2942 36.8191 44.1094 37.3643C44.9246 37.9095 45.3833 38.6502 45.3847 39.4233ZM45.2252 39.4361C45.2259 39.0741 45.1181 38.7155 44.9083 38.3808C44.6984 38.046 44.3904 37.7417 44.0019 37.4851C43.6135 37.2285 43.1521 37.0247 42.6442 36.8853C42.1363 36.7459 41.5918 36.6736 41.0418 36.6727C39.931 36.6707 38.8652 36.9592 38.0789 37.4747C37.2925 37.9902 36.8501 38.6905 36.8488 39.4214C36.8481 39.7834 36.9559 40.1419 37.1657 40.4767C37.3756 40.8114 37.6836 41.1158 38.0721 41.3724C38.4605 41.629 38.9219 41.8328 39.4298 41.9722C39.9377 42.1116 40.4822 42.1839 41.0322 42.1848C42.143 42.1868 43.2088 41.8982 43.9951 41.3827C44.7815 40.8673 45.2239 40.167 45.2252 39.4361Z" fill="white"/>
<path d="M45.2252 39.4361C45.2239 40.167 44.7815 40.8673 43.9951 41.3827C43.2088 41.8982 42.143 42.1868 41.0322 42.1848C40.4822 42.1839 39.9377 42.1116 39.4298 41.9722C38.9219 41.8328 38.4605 41.629 38.0721 41.3724C37.6836 41.1158 37.3756 40.8114 37.1657 40.4767C36.9559 40.1419 36.8481 39.7834 36.8488 39.4214C36.8501 38.6905 37.2925 37.9902 38.0789 37.4747C38.8652 36.9592 39.931 36.6707 41.0418 36.6727C41.5918 36.6736 42.1363 36.7459 42.6442 36.8853C43.1521 37.0247 43.6135 37.2285 44.0019 37.4851C44.3904 37.7417 44.6984 38.046 44.9083 38.3808C45.1181 38.7155 45.2259 39.0741 45.2252 39.4361ZM40.9911 39.7587C41.135 39.8178 41.2786 39.8555 41.4218 39.8716C41.5121 39.8822 41.5802 39.9223 41.6409 39.9825C41.7796 40.1198 41.9258 40.2626 42.0796 40.4111C42.1053 40.4358 42.1005 40.4451 42.0653 40.4391C41.9918 40.4268 41.9159 40.4129 41.8378 40.3974C41.473 40.3246 41.1611 40.4571 40.8158 40.5706C40.5313 40.664 40.2425 40.6635 39.9527 40.6777C39.9459 40.6781 39.9392 40.6803 39.9336 40.6842C39.9279 40.6882 39.9235 40.6936 39.9207 40.6999C39.918 40.7062 39.917 40.7132 39.918 40.72C39.919 40.7268 39.9219 40.7332 39.9263 40.7384C39.9649 40.7833 40.0324 40.796 40.0847 40.8197C40.422 40.9723 40.8058 41.0113 41.1616 40.8984C41.4429 40.8092 42.2031 40.5399 42.4401 40.7221C42.6481 40.8825 42.851 41.0251 43.0488 41.1497C43.0548 41.1534 43.0616 41.1557 43.0687 41.1564C43.0758 41.157 43.0829 41.156 43.0894 41.1533C43.1126 41.1445 43.1258 41.1301 43.129 41.1101C43.136 41.0654 43.1207 41.03 43.0831 41.004C42.9423 40.9068 42.7936 40.7979 42.637 40.6772C42.5913 40.642 42.5615 40.5992 42.5478 40.5489C42.4333 40.1298 42.4459 39.698 42.4554 39.2641C42.4639 38.8808 42.3469 38.5479 42.1044 38.2653C42.0885 38.247 42.069 38.2405 42.0458 38.2458C42.0411 38.2469 42.037 38.2498 42.0344 38.2539C42.0318 38.2579 42.031 38.2628 42.0321 38.2674C42.1012 38.5477 42.1519 38.8687 42.1255 39.1638C42.0891 39.5649 42.1023 39.9176 42.2712 40.2939C42.3096 40.3798 42.2944 40.3906 42.2258 40.3262C42.0579 40.1688 41.8948 40.0017 41.7365 39.8247C41.6483 39.7259 41.6045 39.6346 41.5696 39.5127C41.5577 39.4701 41.5413 39.4113 41.5205 39.3364C41.6036 38.8951 41.6319 38.4286 41.6055 37.937C41.6052 37.9314 41.6035 37.926 41.6005 37.9212C41.5975 37.9165 41.5933 37.9127 41.5883 37.91C41.5833 37.9074 41.5778 37.906 41.5721 37.9061C41.5664 37.9062 41.5608 37.9077 41.5559 37.9106C41.4757 37.957 41.4224 38.052 41.4044 38.1397C41.3974 38.1752 41.3843 38.2067 41.3653 38.2342C41.3425 38.2669 41.3293 38.2635 41.3258 38.2241C41.3194 38.1566 41.3203 38.0897 41.3284 38.0235C41.3477 37.8609 41.3238 37.7093 41.2566 37.5685C41.2523 37.5595 41.2463 37.5513 41.2389 37.5447C41.2314 37.538 41.2227 37.5328 41.2133 37.5295C41.2038 37.5261 41.1938 37.5247 41.1837 37.5252C41.1737 37.5258 41.1638 37.5283 41.1547 37.5326C41.1146 37.5516 41.0861 37.5836 41.0692 37.6287C40.958 37.9225 40.9056 38.2199 40.9119 38.5208C40.9137 38.5961 40.8867 38.6082 40.8311 38.5572C40.8121 38.5396 40.7965 38.5192 40.7841 38.496C40.6511 38.2415 40.5163 37.9984 40.3798 37.7664C40.3242 37.6725 40.2587 37.5792 40.1834 37.4867C40.1755 37.477 40.1649 37.4699 40.153 37.4661C40.1411 37.4624 40.1284 37.4622 40.1164 37.4655C40.1043 37.4689 40.0935 37.4757 40.0853 37.485C40.077 37.4944 40.0717 37.506 40.0699 37.5183C40.047 37.6883 40.0541 37.8455 40.091 37.9897C40.1227 38.1143 40.1961 38.2252 40.2441 38.3455C40.2482 38.3554 40.2486 38.3663 40.2454 38.3764C40.2423 38.3865 40.2356 38.3952 40.2267 38.401C40.2095 38.4122 40.1927 38.411 40.1766 38.3973C39.9932 38.2361 39.7949 38.0913 39.5816 37.9628C39.4951 37.9104 39.4678 37.9322 39.4998 38.0283C39.5262 38.1075 39.5639 38.1849 39.6128 38.2605C39.8063 38.5628 40.049 38.8178 40.3407 39.0254C40.3872 39.0582 40.4489 39.0672 40.4801 39.1178C40.4828 39.1222 40.4842 39.1273 40.4842 39.1324C40.4843 39.1375 40.4829 39.1426 40.4803 39.147C40.4777 39.1515 40.474 39.1551 40.4695 39.1576C40.465 39.1601 40.4599 39.1613 40.4547 39.1611C40.3339 39.1564 40.2225 39.1279 40.1011 39.1305C39.8325 39.1372 39.5668 39.1418 39.304 39.1442C39.1868 39.1456 39.0766 39.1616 38.9735 39.1923C38.9641 39.195 38.9558 39.2004 38.9495 39.2079C38.9432 39.2153 38.9393 39.2245 38.9381 39.2342C38.937 39.2438 38.9388 39.2536 38.9432 39.2623C38.9476 39.271 38.9545 39.2782 38.9629 39.2831C39.2464 39.4488 39.5674 39.4974 39.891 39.5581C39.8984 39.5595 39.905 39.5637 39.9095 39.5699C39.914 39.576 39.9161 39.5837 39.9153 39.5913C39.9142 39.6044 39.9075 39.6139 39.8952 39.6198C39.6323 39.7479 39.4336 39.9009 39.2992 40.0786C39.2084 40.1986 39.235 40.2364 39.3789 40.1921C39.7263 40.0844 40.0541 39.9255 40.4041 39.7877C40.5019 39.749 40.5883 39.7362 40.6633 39.7492C40.7945 39.7721 40.9038 39.7752 40.9911 39.7587Z" fill="#AEE9FF"/>
<path d="M41.5205 39.3364C41.3752 39.5398 41.1987 39.6806 40.9911 39.7587C40.9038 39.7752 40.7945 39.7721 40.6633 39.7492C40.5883 39.7362 40.5019 39.749 40.4041 39.7877C40.0541 39.9255 39.7263 40.0844 39.3789 40.1921C39.235 40.2364 39.2084 40.1986 39.2992 40.0786C39.4336 39.9009 39.6323 39.7479 39.8952 39.6198C39.9075 39.6139 39.9142 39.6044 39.9153 39.5913C39.9161 39.5837 39.914 39.576 39.9095 39.5699C39.905 39.5637 39.8984 39.5595 39.891 39.5581C39.5674 39.4974 39.2464 39.4488 38.9629 39.2831C38.9545 39.2782 38.9476 39.271 38.9432 39.2623C38.9388 39.2536 38.937 39.2438 38.9381 39.2342C38.9393 39.2245 38.9432 39.2153 38.9495 39.2079C38.9558 39.2004 38.9641 39.195 38.9735 39.1923C39.0766 39.1616 39.1868 39.1456 39.304 39.1442C39.5668 39.1418 39.8325 39.1372 40.1011 39.1305C40.2225 39.1279 40.3339 39.1564 40.4547 39.1611C40.4599 39.1613 40.465 39.1601 40.4695 39.1576C40.474 39.1551 40.4777 39.1515 40.4803 39.147C40.4829 39.1426 40.4843 39.1375 40.4842 39.1324C40.4842 39.1273 40.4828 39.1222 40.4801 39.1178C40.4489 39.0672 40.3872 39.0582 40.3407 39.0254C40.049 38.8178 39.8063 38.5628 39.6128 38.2605C39.5639 38.1849 39.5262 38.1075 39.4998 38.0283C39.4678 37.9322 39.4951 37.9104 39.5816 37.9628C39.7949 38.0913 39.9932 38.2361 40.1766 38.3973C40.1927 38.411 40.2095 38.4122 40.2267 38.401C40.2356 38.3952 40.2423 38.3865 40.2454 38.3764C40.2486 38.3663 40.2482 38.3554 40.2441 38.3455C40.1961 38.2252 40.1227 38.1143 40.091 37.9897C40.0541 37.8455 40.047 37.6883 40.0699 37.5183C40.0717 37.506 40.077 37.4944 40.0853 37.485C40.0935 37.4757 40.1043 37.4689 40.1164 37.4655C40.1284 37.4622 40.1411 37.4624 40.153 37.4661C40.1649 37.4699 40.1755 37.477 40.1834 37.4867C40.2587 37.5792 40.3242 37.6725 40.3798 37.7664C40.5163 37.9984 40.6511 38.2415 40.7841 38.496C40.7965 38.5192 40.8121 38.5396 40.8311 38.5572C40.8867 38.6082 40.9137 38.5961 40.9119 38.5208C40.9056 38.2199 40.958 37.9225 41.0692 37.6287C41.0861 37.5836 41.1146 37.5516 41.1547 37.5326C41.1638 37.5283 41.1737 37.5258 41.1837 37.5252C41.1938 37.5247 41.2038 37.5261 41.2133 37.5295C41.2227 37.5328 41.2314 37.538 41.2389 37.5447C41.2463 37.5513 41.2523 37.5595 41.2566 37.5685C41.3238 37.7093 41.3477 37.8609 41.3284 38.0235C41.3203 38.0897 41.3194 38.1566 41.3258 38.2241C41.3293 38.2635 41.3425 38.2669 41.3653 38.2342C41.3843 38.2067 41.3974 38.1752 41.4044 38.1397C41.4224 38.052 41.4757 37.957 41.5559 37.9106C41.5608 37.9077 41.5664 37.9062 41.5721 37.9061C41.5778 37.906 41.5833 37.9074 41.5883 37.91C41.5933 37.9127 41.5975 37.9165 41.6005 37.9212C41.6035 37.926 41.6052 37.9314 41.6055 37.937C41.6319 38.4286 41.6036 38.8951 41.5205 39.3364Z" fill="white"/>
<path d="M40.9911 39.7587C41.1987 39.6806 41.3752 39.5398 41.5205 39.3364C41.5413 39.4113 41.5577 39.4701 41.5696 39.5127C41.6045 39.6346 41.6483 39.7259 41.7365 39.8247C41.8948 40.0017 42.0579 40.1688 42.2258 40.3262C42.2944 40.3906 42.3096 40.3798 42.2712 40.2939C42.1023 39.9176 42.0891 39.5649 42.1255 39.1638C42.1519 38.8687 42.1012 38.5477 42.0321 38.2674C42.031 38.2628 42.0318 38.2579 42.0344 38.2539C42.037 38.2498 42.0411 38.2469 42.0458 38.2458C42.069 38.2405 42.0885 38.247 42.1044 38.2653C42.3469 38.5479 42.4639 38.8808 42.4554 39.2641C42.4459 39.698 42.4333 40.1298 42.5478 40.5489C42.5615 40.5992 42.5913 40.642 42.637 40.6772C42.7936 40.7979 42.9423 40.9068 43.0831 41.004C43.1207 41.03 43.136 41.0654 43.129 41.1101C43.1258 41.1301 43.1126 41.1445 43.0894 41.1533C43.0829 41.156 43.0758 41.157 43.0687 41.1564C43.0616 41.1557 43.0548 41.1534 43.0488 41.1497C42.851 41.0251 42.6481 40.8825 42.4401 40.7221C42.2031 40.5399 41.4429 40.8092 41.1616 40.8984C40.8058 41.0113 40.422 40.9723 40.0847 40.8197C40.0324 40.796 39.9649 40.7833 39.9263 40.7384C39.9219 40.7332 39.919 40.7268 39.918 40.72C39.917 40.7132 39.918 40.7062 39.9207 40.6999C39.9235 40.6936 39.9279 40.6882 39.9336 40.6842C39.9392 40.6803 39.9459 40.6781 39.9527 40.6777C40.2425 40.6635 40.5313 40.664 40.8158 40.5706C41.1611 40.4571 41.473 40.3246 41.8378 40.3974C41.9159 40.4129 41.9918 40.4268 42.0653 40.4391C42.1005 40.4451 42.1053 40.4358 42.0796 40.4111C41.9258 40.2626 41.7796 40.1198 41.6409 39.9825C41.5802 39.9223 41.5121 39.8822 41.4218 39.8716C41.2786 39.8555 41.135 39.8178 40.9911 39.7587Z" fill="#71CCF8"/>
<path d="M13.7618 40.5352C13.8938 40.5674 14.0073 40.5948 14.1413 40.5948C16.6164 40.5962 19.0917 40.5955 21.5671 40.5927C21.9204 40.5924 22.2778 40.5945 22.6392 40.5991L22.6376 44.7461C22.6376 44.7531 22.6348 44.7598 22.6297 44.7648C22.6247 44.7697 22.6179 44.7725 22.6107 44.7725L13.7586 44.7604L13.7618 40.5352ZM15.688 41.6295C15.5944 41.5116 15.4929 41.4285 15.3835 41.3803C15.2219 41.3092 15.0447 41.3133 14.8519 41.3925C14.7255 41.4442 14.6189 41.5457 14.532 41.6971C14.4834 41.7815 14.4588 41.8878 14.4581 42.0159C14.4549 42.5406 14.4604 43.0277 14.4744 43.4771C14.4792 43.6376 14.4887 43.8709 14.5916 43.9992C14.6641 44.09 14.7648 44.1632 14.8936 44.2188C14.9942 44.2627 15.0988 44.2775 15.2071 44.2631C15.4338 44.2335 15.6027 44.1241 15.7139 43.9348C15.7748 43.8313 15.8068 43.7115 15.81 43.5753C15.823 43.0023 15.8255 42.4836 15.8174 42.0191C15.8146 41.8639 15.7715 41.734 15.688 41.6295Z" fill="#E5EBF9"/>
<path d="M23.866 40.5896C23.8674 42.2499 23.8688 43.9126 23.8702 45.5775C23.8702 45.7767 23.9001 45.9615 23.96 46.1318C23.9339 46.1674 23.9112 46.2078 23.8919 46.2532C23.7742 46.5314 23.5123 46.7521 23.232 46.8803C23.1067 46.9377 22.9141 46.9715 22.654 46.9817C22.275 46.9972 21.8923 46.9991 21.5059 46.9875C21.5421 46.9365 21.6121 46.9102 21.716 46.9088C21.7904 46.9078 21.8965 46.8671 21.953 46.8207C22.0612 46.7325 22.1905 46.6623 22.2787 46.5541C22.5062 46.2764 22.635 45.9745 22.6397 45.6271C22.6415 45.5237 22.6452 45.4213 22.6508 45.3199C22.6512 45.3141 22.6504 45.3082 22.6484 45.3027C22.6464 45.2972 22.6433 45.2922 22.6393 45.288C22.6353 45.2837 22.6304 45.2803 22.6251 45.278C22.6197 45.2757 22.6139 45.2745 22.6081 45.2745L13.7681 45.275L13.7586 44.7604L22.6107 44.7725C22.6179 44.7725 22.6247 44.7697 22.6297 44.7648C22.6348 44.7598 22.6376 44.7531 22.6376 44.7461L22.6392 40.5991L23.866 40.5896Z" fill="#CCD8E9"/>
<path d="M15.688 41.6295C15.7715 41.734 15.8146 41.8639 15.8174 42.0191C15.8255 42.4836 15.823 43.0023 15.81 43.5753C15.8068 43.7115 15.7748 43.8313 15.7139 43.9348C15.6027 44.1241 15.4338 44.2335 15.2071 44.2631C15.0988 44.2775 14.9942 44.2627 14.8936 44.2188C14.7648 44.1632 14.6641 44.09 14.5916 43.9992C14.4887 43.8709 14.4792 43.6376 14.4744 43.4771C14.4604 43.0277 14.4549 42.5406 14.4581 42.0159C14.4588 41.8878 14.4834 41.7815 14.532 41.6971C14.6189 41.5457 14.7255 41.4442 14.8519 41.3925C15.0447 41.3133 15.2219 41.3092 15.3835 41.3803C15.4929 41.4285 15.5944 41.5116 15.688 41.6295Z" fill="white"/>
<path d="M35.0165 43.9384C35.3111 44.7204 35.6656 45.4741 36.0802 46.1994C36.0936 46.2226 36.1064 46.249 36.1187 46.2786C35.9452 46.5833 35.7082 46.791 35.4077 46.9015C35.2577 46.9567 35.01 46.9859 34.6644 46.9891C33.6903 46.9979 32.7162 46.9986 31.742 46.9912C30.3382 46.981 28.9342 46.9757 27.53 46.9754C27.421 46.9697 27.3119 46.9671 27.2028 46.9674C27.1957 46.9674 27.1922 46.9639 27.1922 46.9569V46.9564C27.1922 46.9483 27.1962 46.9444 27.2043 46.9447C27.3659 46.9474 27.5248 46.9294 27.6868 46.9294C28.8696 46.9301 30.0574 46.9303 31.25 46.93C31.5031 46.9296 31.7772 46.9224 32.0725 46.9083C32.4357 46.8904 32.7037 46.8869 32.8764 46.8978C33.183 46.9171 33.4763 46.9152 33.7564 46.892C33.9056 46.8796 34.0397 46.8376 34.1587 46.7658C34.5393 46.5351 34.7927 46.2511 34.9004 45.814C34.9278 45.7028 34.9407 45.5184 34.9389 45.2608C34.9361 44.8417 34.9399 44.4185 34.9505 43.9912C34.9509 43.9715 34.9558 43.9571 34.9653 43.948C34.9794 43.9339 34.9964 43.9307 35.0165 43.9384Z" fill="#735EA0"/>
<path d="M13.7681 45.275L22.6081 45.2745C22.6139 45.2745 22.6197 45.2757 22.6251 45.278C22.6304 45.2803 22.6353 45.2837 22.6393 45.288C22.6433 45.2922 22.6464 45.2972 22.6484 45.3027C22.6504 45.3082 22.6512 45.3141 22.6508 45.3199C22.6452 45.4213 22.6415 45.5237 22.6397 45.6271C22.635 45.9745 22.5062 46.2764 22.2787 46.5541C22.1905 46.6623 22.0612 46.7325 21.953 46.8207C21.8965 46.8671 21.7904 46.9078 21.716 46.9088C21.6121 46.9102 21.5421 46.9365 21.5059 46.9875C19.4876 46.9833 17.4645 46.9826 15.4368 46.9854C15.0701 46.9857 14.8214 46.9643 14.6909 46.921C14.1878 46.7531 13.7929 46.2775 13.7565 45.7359C13.7456 45.5705 13.7495 45.4169 13.7681 45.275Z" fill="#E5EBF9"/>
</g>
<defs>
<filter id="filter0_dd_75_572" x="0.5" y="0" width="58.7632" height="62" filterUnits="userSpaceOnUse" color-interpolation-filters="sRGB">
<feFlood flood-opacity="0" result="BackgroundImageFix"/>
<feColorMatrix in="SourceAlpha" type="matrix" values="0 0 0 0 0 0 0 0 0 0 0 0 0 0 0 0 0 0 127 0" result="hardAlpha"/>
<feOffset dy="1"/>
<feGaussianBlur stdDeviation="1.5"/>
<feComposite in2="hardAlpha" operator="out"/>
<feColorMatrix type="matrix" values="0 0 0 0 0 0 0 0 0 0 0 0 0 0 0 0 0 0 0.3 0"/>
<feBlend mode="normal" in2="BackgroundImageFix" result="effect1_dropShadow_75_572"/>
<feColorMatrix in="SourceAlpha" type="matrix" values="0 0 0 0 0 0 0 0 0 0 0 0 0 0 0 0 0 0 127 0" result="hardAlpha"/>
<feMorphology radius="3" operator="dilate" in="SourceAlpha" result="effect2_dropShadow_75_572"/>
<feOffset dy="4"/>
<feGaussianBlur stdDeviation="4"/>
<feComposite in2="hardAlpha" operator="out"/>
<feColorMatrix type="matrix" values="0 0 0 0 0 0 0 0 0 0 0 0 0 0 0 0 0 0 0.15 0"/>
<feBlend mode="normal" in2="effect1_dropShadow_75_572" result="effect2_dropShadow_75_572"/>
<feBlend mode="normal" in="SourceGraphic" in2="effect2_dropShadow_75_572" result="shape"/>
</filter>
</defs>
</svg>
