<?xml version="1.0" encoding="iso-8859-1"?>
<!-- Uploaded to: SVG Repo, www.svgrepo.com, Generator: SVG Repo Mixer Tools -->
<svg version="1.1" id="Layer_1" xmlns="http://www.w3.org/2000/svg" xmlns:xlink="http://www.w3.org/1999/xlink" 
	 viewBox="0 0 512 512" xml:space="preserve">
<path style="fill:#008D75;" d="M504.745,195.319C477.496,83.228,376.476,0,256,0C114.616,0,0,114.616,0,256
	c0,120.476,83.228,221.496,195.319,248.745L504.745,195.319z"/>
<path style="fill:#006654;" d="M512,256c0-20.91-2.526-41.226-7.255-60.681l-126.31-126.31l-244.87,373.983l61.754,61.754
	C214.774,509.474,235.09,512,256,512C397.384,512,512,397.384,512,256z"/>
<polygon style="fill:#F2F2F2;" points="378.435,213.704 378.435,398.47 238.995,431.254 238.995,158.66 "/>
<polygon style="fill:#FFFFFF;" points="256,158.66 256,431.254 133.565,398.47 133.565,213.704 "/>
<polygon style="fill:#85DC79;" points="356.174,135.791 356.174,376.209 256,376.209 211.478,244.87 256,135.791 "/>
<rect x="155.826" y="135.791" style="fill:#AFF078;" width="100.174" height="240.417"/>
<polygon style="fill:#F15D4A;" points="286.613,102.4 317.221,213.701 347.824,222.049 378.435,213.701 378.435,113.53 "/>
<g>
	<polygon style="fill:#FF7452;" points="317.222,102.4 317.221,213.701 286.611,222.049 256,213.701 225.391,102.4 	"/>
	<polygon style="fill:#FF7452;" points="225.396,102.4 194.786,213.701 164.176,222.049 133.565,213.701 133.565,113.53 	"/>
</g>
<g>
	<path style="fill:#F15D4A;" d="M133.565,213.704h61.217c0,16.902-13.707,30.642-30.609,30.642c-8.918,0-16.944-3.821-22.534-9.919
		C136.627,228.971,133.565,221.688,133.565,213.704z"/>
	<polygon style="fill:#F15D4A;" points="194.787,102.4 194.786,213.701 225.389,222.049 256,213.701 256,102.4 	"/>
</g>
<g>
	<path style="fill:#E24642;" d="M194.783,213.704H256c0,16.902-13.707,30.642-30.609,30.642S194.783,230.606,194.783,213.704z"/>
	<path style="fill:#E24642;" d="M317.217,213.704h61.217c0,7.984-3.062,15.266-8.075,20.723c-5.59,6.098-13.615,9.919-22.534,9.919
		C330.924,244.346,317.217,230.606,317.217,213.704z"/>
</g>
<path style="fill:#F15D4A;" d="M256,213.704h61.217c0,16.902-13.707,30.642-30.609,30.642C269.707,244.346,256,230.606,256,213.704z
	"/>
<polygon style="fill:#B2B2B2;" points="378.435,69.009 378.435,113.53 256,113.53 221.991,91.27 256,69.009 "/>
<rect x="133.565" y="69.009" style="fill:#CCCCCC;" width="122.435" height="44.522"/>
<polygon style="fill:#B2B2B2;" points="378.435,398.47 378.435,442.991 256,442.991 221.991,420.73 256,398.47 "/>
<rect x="133.565" y="398.47" style="fill:#CCCCCC;" width="122.435" height="44.522"/>
</svg>