<svg width="19" height="16" viewBox="0 0 19 16" fill="none" xmlns="http://www.w3.org/2000/svg">
<g id="Group">
<path id="Vector" d="M3.83749 0.704686C3.78261 0.642817 3.71599 0.592456 3.64149 0.556523C3.567 0.52059 3.48611 0.499799 3.40353 0.495356C3.32094 0.490913 3.23829 0.502906 3.16037 0.530639C3.08246 0.558373 3.01082 0.601296 2.94961 0.65692C2.8884 0.712544 2.83884 0.779764 2.80381 0.854682C2.76877 0.929601 2.74895 1.01073 2.7455 1.09336C2.74204 1.176 2.75503 1.2585 2.78369 1.33608C2.81236 1.41366 2.85614 1.48478 2.91249 1.54531L4.41562 3.19922C1.57812 4.94062 0.357805 7.625 0.303899 7.74687C0.268362 7.82681 0.25 7.91331 0.25 8.00078C0.25 8.08825 0.268362 8.17476 0.303899 8.25469C0.331243 8.31641 0.992961 9.78359 2.46405 11.2547C4.42421 13.2141 6.89999 14.25 9.62499 14.25C11.0255 14.258 12.4118 13.9696 13.693 13.4039L15.4117 15.2953C15.4666 15.3572 15.5332 15.4075 15.6077 15.4435C15.6822 15.4794 15.7631 15.5002 15.8457 15.5046C15.9283 15.5091 16.0109 15.4971 16.0888 15.4694C16.1667 15.4416 16.2384 15.3987 16.2996 15.3431C16.3608 15.2875 16.4104 15.2202 16.4454 15.1453C16.4804 15.0704 16.5003 14.9893 16.5037 14.9066C16.5072 14.824 16.4942 14.7415 16.4655 14.6639C16.4368 14.5863 16.3931 14.5152 16.3367 14.4547L3.83749 0.704686ZM7.53515 6.62969L10.7906 10.2117C10.3004 10.4696 9.73836 10.5574 9.19283 10.4613C8.64729 10.3652 8.14913 10.0906 7.77657 9.68063C7.40401 9.27069 7.17814 8.74863 7.13445 8.19642C7.09075 7.6442 7.2317 7.09311 7.53515 6.62969ZM9.62499 13C7.2203 13 5.11952 12.1258 3.38046 10.4023C2.66665 9.69295 2.05954 8.88374 1.57812 8C1.94452 7.31328 3.11405 5.39141 5.27734 4.14219L6.68359 5.68516C6.13916 6.38242 5.85877 7.24971 5.89197 8.13373C5.92517 9.01774 6.26983 9.86155 6.86502 10.516C7.46021 11.1705 8.26761 11.5935 9.14452 11.7102C10.0214 11.8269 10.9114 11.6299 11.657 11.1539L12.8078 12.4195C11.7922 12.8092 10.7128 13.006 9.62499 13ZM10.0937 5.54453C9.93088 5.51345 9.78704 5.41895 9.69386 5.28181C9.60068 5.14468 9.56579 4.97614 9.59687 4.81328C9.62795 4.65042 9.72245 4.50658 9.85959 4.4134C9.99672 4.32021 10.1653 4.28533 10.3281 4.31641C11.1247 4.47083 11.85 4.87863 12.3958 5.47897C12.9417 6.07932 13.2789 6.84003 13.357 7.64766C13.3725 7.81269 13.3217 7.9771 13.2159 8.10471C13.1101 8.23232 12.958 8.31268 12.793 8.32812C12.7734 8.32927 12.7539 8.32927 12.7344 8.32812C12.5782 8.32879 12.4274 8.27094 12.3117 8.16596C12.196 8.06098 12.1238 7.91648 12.1094 7.76094C12.0568 7.22374 11.8322 6.71788 11.469 6.31855C11.1059 5.91922 10.6235 5.64776 10.0937 5.54453ZM18.9437 8.25469C18.9109 8.32812 18.1195 10.0805 16.3375 11.6766C16.2766 11.7328 16.2051 11.7764 16.1272 11.8048C16.0493 11.8332 15.9665 11.8458 15.8837 11.8419C15.8009 11.8379 15.7197 11.8176 15.6448 11.782C15.5699 11.7463 15.5029 11.6962 15.4476 11.6344C15.3923 11.5726 15.3499 11.5005 15.3227 11.4221C15.2956 11.3438 15.2843 11.2608 15.2895 11.1781C15.2948 11.0953 15.3164 11.0145 15.3532 10.9402C15.39 10.8659 15.4412 10.7996 15.5039 10.7453C16.3782 9.95986 17.1126 9.03154 17.6758 8C17.1933 7.11545 16.5849 6.30569 15.8695 5.59609C14.1305 3.87422 12.0297 3 9.62499 3C9.11832 2.99938 8.61245 3.0404 8.11249 3.12266C8.03119 3.13703 7.94784 3.13516 7.86727 3.11714C7.7867 3.09913 7.71049 3.06533 7.64305 3.01769C7.57562 2.97005 7.51829 2.90953 7.47438 2.83961C7.43047 2.76969 7.40084 2.69177 7.38722 2.61033C7.3736 2.5289 7.37624 2.44558 7.395 2.36517C7.41377 2.28477 7.44827 2.20888 7.49653 2.14189C7.54479 2.0749 7.60585 2.01813 7.67617 1.97487C7.74649 1.93161 7.82469 1.90271 7.90624 1.88984C8.47434 1.79604 9.0492 1.74927 9.62499 1.75C12.35 1.75 14.8258 2.78594 16.7859 4.74609C18.257 6.21719 18.9187 7.68516 18.9461 7.74687C18.9816 7.82681 19 7.91331 19 8.00078C19 8.08825 18.9816 8.17476 18.9461 8.25469H18.9437Z" fill="#9E9EA7"/>
</g>
</svg>
