<svg width="25" height="24" viewBox="0 0 25 24" fill="none" xmlns="http://www.w3.org/2000/svg">
<g id="material-symbols:eye-tracking-rounded">
<path id="Vector" d="M3.5 23C2.95 23 2.47933 22.8043 2.088 22.413C1.69667 22.0217 1.50067 21.5507 1.5 21V19C1.5 18.7167 1.596 18.4793 1.788 18.288C1.98 18.0967 2.21733 18.0007 2.5 18C2.78267 17.9993 3.02033 18.0953 3.213 18.288C3.40567 18.4807 3.50133 18.718 3.5 19V21H5.5C5.78333 21 6.021 21.096 6.213 21.288C6.405 21.48 6.50067 21.7173 6.5 22C6.49933 22.2827 6.40333 22.5203 6.212 22.713C6.02067 22.9057 5.78333 23.0013 5.5 23H3.5ZM21.5 23H19.5C19.2167 23 18.9793 22.904 18.788 22.712C18.5967 22.52 18.5007 22.2827 18.5 22C18.4993 21.7173 18.5953 21.48 18.788 21.288C18.9807 21.096 19.218 21 19.5 21H21.5V19C21.5 18.7167 21.596 18.4793 21.788 18.288C21.98 18.0967 22.2173 18.0007 22.5 18C22.7827 17.9993 23.0203 18.0953 23.213 18.288C23.4057 18.4807 23.5013 18.718 23.5 19V21C23.5 21.55 23.3043 22.021 22.913 22.413C22.5217 22.805 22.0507 23.0007 21.5 23ZM12.5 18.5C10.7333 18.5 9.1 18.0333 7.6 17.1C6.1 16.1667 4.925 14.8917 4.075 13.275C3.975 13.075 3.9 12.871 3.85 12.663C3.8 12.455 3.775 12.2423 3.775 12.025C3.775 11.7917 3.8 11.5667 3.85 11.35C3.9 11.1333 3.975 10.925 4.075 10.725C4.925 9.10833 6.1 7.83333 7.6 6.9C9.1 5.96667 10.7333 5.5 12.5 5.5C14.2667 5.5 15.9 5.96667 17.4 6.9C18.9 7.83333 20.075 9.10833 20.925 10.725C21.025 10.925 21.1 11.1293 21.15 11.338C21.2 11.5467 21.225 11.7673 21.225 12C21.225 12.2327 21.2 12.4537 21.15 12.663C21.1 12.8723 21.025 13.0763 20.925 13.275C20.075 14.8917 18.9 16.1667 17.4 17.1C15.9 18.0333 14.2667 18.5 12.5 18.5ZM12.5 15.5C13.4667 15.5 14.2917 15.1583 14.975 14.475C15.6583 13.7917 16 12.9667 16 12C16 11.0333 15.6583 10.2083 14.975 9.525C14.2917 8.84167 13.4667 8.5 12.5 8.5C11.5333 8.5 10.7083 8.84167 10.025 9.525C9.34167 10.2083 9 11.0333 9 12C9 12.9667 9.34167 13.7917 10.025 14.475C10.7083 15.1583 11.5333 15.5 12.5 15.5ZM12.5 13.5C12.0833 13.5 11.729 13.3543 11.437 13.063C11.145 12.7717 10.9993 12.4173 11 12C11.0007 11.5827 11.1467 11.2287 11.438 10.938C11.7293 10.6473 12.0833 10.5013 12.5 10.5C12.9167 10.4987 13.271 10.6447 13.563 10.938C13.855 11.2313 14.0007 11.5853 14 12C13.9993 12.4147 13.8537 12.769 13.563 13.063C13.2723 13.357 12.918 13.5027 12.5 13.5ZM23.5 3V5C23.5 5.28333 23.404 5.521 23.212 5.713C23.02 5.905 22.7827 6.00067 22.5 6C22.2173 5.99933 21.98 5.90333 21.788 5.712C21.596 5.52067 21.5 5.28333 21.5 5V3H19.5C19.2167 3 18.9793 2.904 18.788 2.712C18.5967 2.52 18.5007 2.28267 18.5 2C18.4993 1.71733 18.5953 1.48 18.788 1.288C18.9807 1.096 19.218 1 19.5 1H21.5C22.05 1 22.521 1.196 22.913 1.588C23.305 1.98 23.5007 2.45067 23.5 3ZM3.5 1H5.5C5.78333 1 6.021 1.096 6.213 1.288C6.405 1.48 6.50067 1.71733 6.5 2C6.49933 2.28267 6.40333 2.52033 6.212 2.713C6.02067 2.90567 5.78333 3.00133 5.5 3H3.5V5C3.5 5.28333 3.404 5.521 3.212 5.713C3.02 5.905 2.78267 6.00067 2.5 6C2.21733 5.99933 1.98 5.90333 1.788 5.712C1.596 5.52067 1.5 5.28333 1.5 5V3C1.5 2.45 1.696 1.97933 2.088 1.588C2.48 1.19667 2.95067 1.00067 3.5 1Z" fill="#FF6B00"/>
</g>
</svg>
