<svg width="25" height="26" viewBox="0 0 25 26" fill="none" xmlns="http://www.w3.org/2000/svg">
<g id="Lock">
<g id="Iconly/Bold/Lock">
<g id="Lock_2">
<path id="Vector" d="M12.4842 2.58334C15.6808 2.58334 18.2529 5.09874 18.2529 8.20417V9.8014C20.047 10.3614 21.3542 11.9856 21.3542 13.9254V19.068C21.3542 21.4696 19.3632 23.4167 16.9086 23.4167H8.09254C5.63687 23.4167 3.64587 21.4696 3.64587 19.068V13.9254C3.64587 11.9856 4.95415 10.3614 6.74721 9.8014V8.20417C6.7578 5.09874 9.3299 2.58334 12.4842 2.58334ZM12.4947 14.442C11.9867 14.442 11.5739 14.8457 11.5739 15.3425V17.6406C11.5739 18.1478 11.9867 18.5515 12.4947 18.5515C13.0134 18.5515 13.4262 18.1478 13.4262 17.6406V15.3425C13.4262 14.8457 13.0134 14.442 12.4947 14.442ZM12.5053 4.39484C10.3566 4.39484 8.61014 6.09248 8.59955 8.18347V9.57678H16.4005V8.20417C16.4005 6.10283 14.654 4.39484 12.5053 4.39484Z" fill="#F2A444"/>
</g>
</g>
</g>
</svg>
