<svg xmlns="http://www.w3.org/2000/svg" version="1.1" viewBox="0 0 8534 8534">
<path d="M0 0 C2816.22 0 5632.44 0 8534 0 C8534 2816.22 8534 5632.44 8534 8534 C5717.78 8534 2901.56 8534 0 8534 C0 5717.78 0 2901.56 0 0 Z " fill="#090909" transform="translate(0,0)"/>
<path d="M0 0 C0.34925275 9.30981659 0.614886 18.6173454 0.77718258 27.9323082 C0.85512834 32.2591632 0.96058529 36.58150528 1.1315918 40.90576172 C2.29927678 71.2157245 2.29927678 71.2157245 -3.15527344 77.81030273 C-6.15609795 80.53259162 -9.35038828 82.37808579 -13.03443909 84.02680969 C-16.43086168 85.70844953 -19.21951871 88.15765229 -22.125 90.5625 C-23.27784098 91.47013048 -24.43253323 92.37541926 -25.58984375 93.27734375 C-29.57696508 96.43585408 -33.45619939 99.71645776 -37.32128906 103.02246094 C-40.62579253 105.84828405 -43.97782207 108.59776845 -47.375 111.3125 C-62.68399246 123.85458089 -76.44845672 138.26054834 -90.42675781 152.24145508 C-93.3091095 155.12390903 -96.19833147 157.99937134 -99.08927727 160.87320232 C-101.35265613 163.12537158 -103.61138319 165.38216381 -105.8689003 167.64020729 C-106.93160034 168.70174483 -107.99588048 169.76170345 -109.06191635 170.81989098 C-115.07080207 176.78857999 -120.74040816 182.88708043 -126.00857544 189.53645325 C-128.0430248 192.05322502 -130.1786728 194.43647917 -132.375 196.8125 C-137.35193649 202.29483968 -141.89486767 208.07233272 -146.40429688 213.9375 C-148.08221236 216.10626224 -149.78256249 218.25620053 -151.484375 220.40625 C-187.99884444 266.95744405 -217.86836337 319.77159556 -239 375 C-239.4223291 376.10069824 -239.8446582 377.20139648 -240.27978516 378.33544922 C-266.24521944 446.73536581 -278.25999798 520.47099539 -274.25 593.5625 C-274.20709839 594.35136597 -274.16419678 595.14023193 -274.11999512 595.95300293 C-268.98231367 687.89408516 -239.36750415 776.99126674 -110.78979492 961.06665039 C-109.39281812 962.57567499 -108.0072491 964.09526267 -106.6262207 965.61889648 C-100.23859165 972.66460327 -93.66627312 979.49068516 -86.9284668 986.2019043 C-85.29943428 987.82552229 -83.67589272 989.45449603 -82.05273438 991.08398438 C-77.0859863 996.05389192 -72.08700057 1000.93691028 -66.74145508 1005.50366211 C-63.97899161 1007.87729713 -61.34347112 1010.38376951 -58.6875 1012.875 C-53.87110199 1017.35545146 -48.93147022 1021.60958253 -43.80078125 1025.73046875 C-41.27313891 1027.77866986 -38.79070721 1029.86708454 -36.31835938 1031.98095703 C-29.04026509 1038.2022023 -21.57961535 1044.15140013 -14 1050 C-13.2049707 1050.61568848 -12.40994141 1051.23137695 -11.59082031 1051.86572266 C-1.11004951 1059.97098416 9.42078442 1067.92745684 20.43945312 1075.28808594 C22.98456681 1076.98968178 25.52369741 1078.70001453 28.06230164 1080.41130066 C103.94286402 1131.53069979 185.62820129 1171.5009771 364 1228 C364.87849609 1228.21720703 365.75699219 1228.43441406 366.66210938 1228.65820312 C457.3170709 1251.00693907 550.30997304 1262.04184443 1199 1132 C1199.88977539 1131.51321777 1200.77955078 1131.02643555 1201.69628906 1130.52490234 C1232.63271751 1113.49612938 1263.33554208 1095.21952926 1291.93896484 1074.49169922 C1294.1472526 1072.89342414 1296.36405557 1071.30745589 1298.58203125 1069.72265625 C1307.52632889 1063.31785521 1316.33547143 1056.77859262 1325 1050 C1326.15083467 1049.10780585 1327.30188232 1048.21588637 1328.453125 1047.32421875 C1335.90465163 1041.53395876 1343.17825533 1035.56752135 1350.33935547 1029.42236328 C1352.05623967 1027.95183 1353.77948682 1026.48903077 1355.50390625 1025.02734375 C1362.59410366 1019.00398549 1369.52782173 1012.84734274 1376.3425293 1006.51391602 C1377.54278133 1005.41761865 1378.75709085 1004.33664688 1379.97973633 1003.26538086 C1387.94284795 996.25011817 1395.40512679 988.74616246 1402.89624023 981.23413086 C1405.18946748 978.9355279 1407.4880124 976.6423397 1409.78710938 974.34960938 C1411.26855 972.86750813 1412.7496805 971.3850968 1414.23046875 969.90234375 C1414.9066777 969.22815903 1415.58288666 968.5539743 1416.27958679 967.85935974 C1420.18055146 963.93941611 1423.90383894 959.91423243 1427.51377869 955.72433472 C1429.42540147 953.50644327 1431.39946761 951.34847509 1433.375 949.1875 C1437.22050182 944.92119411 1440.89731266 940.548307 1444.5078125 936.08203125 C1446.30393609 933.86080631 1448.11008536 931.65099623 1449.9296875 929.44921875 C1491.88330506 878.5348876 1525.75752719 821.34544184 1550 760 C1550.38591309 759.02482422 1550.77182617 758.04964844 1551.16943359 757.04492188 C1567.93937081 714.10523909 1578.25865168 668.55977079 1583.25 622.8125 C1583.33326538 622.05270844 1583.41653076 621.29291687 1583.50231934 620.51010132 C1585.39768771 602.96412643 1586.23748434 585.45851783 1586.25 567.8125 C1586.25067474 566.93826385 1586.25134949 566.06402771 1586.25204468 565.16329956 C1586.14009103 472.23654365 1560.18312054 381.76310946 1456 212 C1455.24203125 211.05898438 1454.4840625 210.11796875 1453.703125 209.1484375 C1445.48258051 199.03308666 1437.0928747 189.09062862 1428.2734375 179.4921875 C1426.26915157 177.29504932 1424.31386584 175.06719919 1422.375 172.8125 C1419.38924545 169.37117258 1416.20208771 166.18370013 1412.95703125 162.98828125 C1411.11269014 161.11448958 1409.39367934 159.18686529 1407.6875 157.1875 C1401.32042155 149.80285193 1394.30731415 143.00155729 1386.89453125 136.67578125 C1384.84198069 134.86022622 1382.92253994 132.95240464 1381 131 C1377.8288397 127.78565269 1374.54417247 124.78249037 1371.12109375 121.83984375 C1368.77508942 119.80491181 1366.4826355 117.71709033 1364.1875 115.625 C1359.94423992 111.79963675 1355.59140503 108.1490591 1351.1484375 104.55859375 C1348.82188546 102.67737591 1346.52033191 100.76870248 1344.2265625 98.84765625 C1343.58457413 98.31426636 1342.94258575 97.78087646 1342.28114319 97.23132324 C1340.85753001 96.04019605 1339.4435504 94.83740367 1338.04216003 93.62020874 C1334.1306406 90.29517319 1330.40306107 87.57588057 1325.78393555 85.31469727 C1319.76697155 82.1392712 1314.69777824 78.83727777 1311 73 C1307.87629266 61.75955494 1309.01410557 49.65633135 1309.62670898 38.13000488 C1309.83331036 33.82758232 1309.92305574 29.52277495 1310.0234375 25.21679688 C1310.23639189 16.80467945 1310.57645324 8.40413778 1311 0 C1318.47487386 4.21565008 1318.47487386 4.21565008 1321.734375 6.5234375 C1322.38108154 6.97984619 1323.02778809 7.43625488 1323.6940918 7.90649414 C1324.3725415 8.39110107 1325.05099121 8.87570801 1325.75 9.375 C1326.84211792 10.15121704 1326.84211792 10.15121704 1327.95629883 10.94311523 C1346.53624072 24.19645175 1364.50869073 38.07837846 1382.17822266 52.51464844 C1383.81669895 53.85054897 1385.46074048 55.17961684 1387.10546875 56.5078125 C1392.43698285 60.82415819 1397.60356608 65.27228152 1402.67578125 69.890625 C1404.72042335 71.74626657 1406.78784149 73.56756376 1408.875 75.375 C1413.77029984 79.64495215 1418.54894815 84.04139055 1423.31982422 88.44921875 C1424.45016425 89.49250847 1425.58202927 90.53414813 1426.71533203 91.57421875 C1434.46438231 98.68810098 1442.04883962 105.94911077 1449.5 113.375 C1450.24137207 114.11177979 1450.98274414 114.84855957 1451.74658203 115.60766602 C1455.75277761 119.62518365 1459.57702625 123.73761297 1463.28027344 128.03515625 C1466.21349337 131.3864558 1469.3054365 134.58661429 1472.375 137.8125 C1477.39390365 143.12677777 1482.20928748 148.51325947 1486.765625 154.234375 C1488.92012823 156.90113774 1491.13739 159.49619481 1493.3840332 162.08496094 C1499.07310145 168.64039837 1504.4909779 175.33917515 1509.70507812 182.27978516 C1511.06148111 184.08167344 1512.42862023 185.87506701 1513.796875 187.66796875 C1530.16805188 209.2025103 1545.37727803 231.62503166 1559 255 C1559.43602539 255.7420166 1559.87205078 256.4840332 1560.32128906 257.24853516 C1576.93919563 285.5821236 1591.55567458 314.91132983 1603.6875 345.4375 C1603.94000519 346.0678717 1604.19251038 346.69824341 1604.45266724 347.34771729 C1608.22335296 356.8023174 1611.5070133 366.39683955 1614.70629883 376.05883789 C1615.12066444 377.30627022 1615.53503006 378.55370255 1615.96195221 379.83893585 C1616.97595666 382.89218799 1617.98860483 385.94588275 1619 389 C1619.64314744 389.00059709 1620.28629488 389.00119418 1620.94893163 389.00180936 C1659.11995526 389.037752 1697.29089601 389.09446555 1735.46184638 389.17792095 C1740.05146823 389.18793766 1744.64109044 389.19778192 1749.23071289 389.20751953 C1750.60120208 389.21043159 1750.60120208 389.21043159 1751.99937791 389.21340248 C1766.76713591 389.24437084 1781.53487839 389.26138868 1796.30266272 389.27319422 C1811.47094535 389.2856326 1826.63914692 389.31319441 1841.80737835 389.35461307 C1851.1568592 389.37967177 1860.50620551 389.39312287 1869.85572041 389.39142957 C1876.27874431 389.39139967 1882.70163181 389.40614226 1889.12460249 389.43216428 C1892.82290553 389.44672184 1896.52092891 389.45509013 1900.21925545 389.44580269 C1925.07578887 389.39078779 1947.32407469 390.99011672 1966.06445312 408.93847656 C1979.45911269 422.30549928 1986.76705216 439.68553896 1987.25 458.5625 C1987.08401263 475.95428779 1979.96642386 490.39387744 1972.30078125 505.62890625 C1971.65898227 506.91130612 1971.01748423 508.19385665 1970.37626648 509.47654724 C1969.03823374 512.15106081 1967.6975604 514.82422684 1966.35473633 517.49633789 C1964.66468508 520.85958528 1962.97980317 524.22538724 1961.29679585 527.59216404 C1959.97266549 530.24014763 1958.64642134 532.88706821 1957.31954002 535.53367424 C1956.40518086 537.35781671 1955.49190904 539.1825041 1954.57868958 541.00721741 C1951.17208173 547.78320065 1947.68659619 554.51111728 1944.1394043 561.21459961 C1939.51938291 569.95330903 1935.05775183 578.76418405 1930.65531921 587.61419678 C1929.36001555 590.21793769 1928.06195725 592.82029071 1926.76330566 595.42236328 C1924.0065663 600.94709495 1921.25301927 606.47341384 1918.5 612 C1915.30170662 618.42045777 1912.10198854 624.84019789 1908.89884949 631.25823975 C1907.64005487 633.78215747 1906.3837345 636.30729529 1905.12756348 638.83251953 C1900.76597893 647.58307935 1896.30062393 656.26852869 1891.72509003 664.90910339 C1887.6464271 672.62945533 1883.72882101 680.4262162 1879.84051514 688.24380493 C1878.57882134 690.78033847 1877.31436429 693.31547952 1876.04931641 695.8503418 C1873.36390449 701.23241295 1870.68168698 706.61607209 1868 712 C1864.88431636 718.25524763 1861.76720303 724.50977497 1858.64666748 730.76260376 C1857.42110945 733.22004319 1856.19802771 735.67870319 1854.97509766 738.13745117 C1851.07470172 745.96339162 1847.10575094 753.74505208 1843.01367188 761.47265625 C1838.43271009 770.12404936 1834.01524737 778.84962887 1829.65531921 787.61419678 C1828.36001555 790.21793769 1827.06195725 792.82029071 1825.76330566 795.42236328 C1823.0065663 800.94709495 1820.25301927 806.47341384 1817.5 812 C1814.30170662 818.42045777 1811.10198854 824.84019789 1807.89884949 831.25823975 C1806.64005487 833.78215747 1805.3837345 836.30729529 1804.12756348 838.83251953 C1799.77087635 847.57325497 1795.3104295 856.24880596 1790.73985291 864.87957764 C1786.59178779 872.73177083 1782.61041813 880.6634389 1778.65531921 888.61419678 C1777.36001555 891.21793769 1776.06195725 893.82029071 1774.76330566 896.42236328 C1772.0065663 901.94709495 1769.25301927 907.47341384 1766.5 913 C1763.30170662 919.42045777 1760.10198854 925.84019789 1756.89884949 932.25823975 C1755.64005487 934.78215747 1754.3837345 937.30729529 1753.12756348 939.83251953 C1748.76597893 948.58307935 1744.30062393 957.26852869 1739.72509003 965.90910339 C1735.6464271 973.62945533 1731.72882101 981.4262162 1727.84051514 989.24380493 C1726.57882134 991.78033847 1725.31436429 994.31547952 1724.04931641 996.8503418 C1721.36390449 1002.23241295 1718.68168698 1007.61607209 1716 1013 C1712.88431636 1019.25524763 1709.76720303 1025.50977497 1706.64666748 1031.76260376 C1705.42110945 1034.22004319 1704.19802771 1036.67870319 1702.97509766 1039.13745117 C1699.07470172 1046.96339162 1695.10575094 1054.74505208 1691.01367188 1062.47265625 C1686.43271009 1071.12404936 1682.01524737 1079.84962887 1677.65531921 1088.61419678 C1676.36001555 1091.21793769 1675.06195725 1093.82029071 1673.76330566 1096.42236328 C1671.0065663 1101.94709495 1668.25301927 1107.47341384 1665.5 1113 C1662.30170662 1119.42045777 1659.10198854 1125.84019789 1655.89884949 1132.25823975 C1654.64005487 1134.78215747 1653.3837345 1137.30729529 1652.12756348 1139.83251953 C1647.76597893 1148.58307935 1643.30062393 1157.26852869 1638.72509003 1165.90910339 C1634.6464271 1173.62945533 1630.72882101 1181.4262162 1626.84051514 1189.24380493 C1625.57882134 1191.78033847 1624.31436429 1194.31547952 1623.04931641 1196.8503418 C1620.36390449 1202.23241295 1617.68168698 1207.61607209 1615 1213 C1611.88431636 1219.25524763 1608.76720303 1225.50977497 1605.64666748 1231.76260376 C1604.42110945 1234.22004319 1603.19802771 1236.67870319 1601.97509766 1239.13745117 C1598.07470172 1246.96339162 1594.10575094 1254.74505208 1590.01367188 1262.47265625 C1585.43271009 1271.12404936 1581.01524737 1279.84962887 1576.65531921 1288.61419678 C1575.36001555 1291.21793769 1574.06195725 1293.82029071 1572.76330566 1296.42236328 C1570.0065663 1301.94709495 1567.25301927 1307.47341384 1564.5 1313 C1561.30170662 1319.42045777 1558.10198854 1325.84019789 1554.89884949 1332.25823975 C1553.64005487 1334.78215747 1552.3837345 1337.30729529 1551.12756348 1339.83251953 C1546.77087635 1348.57325497 1542.3104295 1357.24880596 1537.73985291 1365.87957764 C1533.59178779 1373.73177083 1529.61041813 1381.6634389 1525.65531921 1389.61419678 C1524.36001555 1392.21793769 1523.06195725 1394.82029071 1521.76330566 1397.42236328 C1519.0065663 1402.94709495 1516.25301927 1408.47341384 1513.5 1414 C1510.30170662 1420.42045777 1507.10198854 1426.84019789 1503.89884949 1433.25823975 C1502.64005487 1435.78215747 1501.3837345 1438.30729529 1500.12756348 1440.83251953 C1495.76597893 1449.58307935 1491.30062393 1458.26852869 1486.72509003 1466.90910339 C1482.6464271 1474.62945533 1478.72882101 1482.4262162 1474.84051514 1490.24380493 C1473.57882134 1492.78033847 1472.31436429 1495.31547952 1471.04931641 1497.8503418 C1468.36390449 1503.23241295 1465.68168698 1508.61607209 1463 1514 C1459.88431636 1520.25524763 1456.76720303 1526.50977497 1453.64666748 1532.76260376 C1452.42110945 1535.22004319 1451.19802771 1537.67870319 1449.97509766 1540.13745117 C1446.07470172 1547.96339162 1442.10575094 1555.74505208 1438.01367188 1563.47265625 C1433.43271009 1572.12404936 1429.01524737 1580.84962887 1424.65531921 1589.61419678 C1423.36001555 1592.21793769 1422.06195725 1594.82029071 1420.76330566 1597.42236328 C1418.0065663 1602.94709495 1415.25301927 1608.47341384 1412.5 1614 C1409.30170662 1620.42045777 1406.10198854 1626.84019789 1402.89884949 1633.25823975 C1401.64005487 1635.78215747 1400.3837345 1638.30729529 1399.12756348 1640.83251953 C1394.67566442 1649.76412509 1390.11755369 1658.63022975 1385.44941902 1667.45079803 C1382.44086172 1673.14083477 1379.52796144 1678.86872826 1376.7109375 1684.65625 C1375.82338446 1686.45856377 1374.93535025 1688.26064066 1374.046875 1690.0625 C1372.70185697 1692.7958602 1371.36008174 1695.53063591 1370.02636719 1698.26953125 C1359.1220254 1720.6317347 1346.65101249 1739.4562846 1322.0234375 1748.2109375 C1310.09698476 1751.32352594 1298.57297188 1751.28163553 1286.3233223 1751.25447559 C1284.09116201 1751.25686654 1281.85900252 1751.26013243 1279.62684464 1751.26419219 C1273.48033182 1751.27282112 1267.33387997 1751.268982 1261.18736619 1751.26313647 C1255.19446467 1751.25940049 1249.2015765 1751.26508907 1243.20867806 1751.27048406 C1230.80347355 1751.28131088 1218.39828423 1751.28264235 1205.99307632 1751.27878571 C1193.42295822 1751.27490901 1180.85285144 1751.27536518 1168.28273392 1751.2810955 C1167.48856265 1751.28145433 1166.69439139 1751.28181316 1165.87615433 1751.28218286 C1162.64156945 1751.28365778 1159.40698458 1751.28516217 1156.17239972 1751.28670432 C1123.33932724 1751.30233954 1090.50626253 1751.30501825 1057.67318699 1751.30254826 C1053.13649255 1751.30220981 1048.59979811 1751.30188772 1044.06310368 1751.30158257 C1043.16200525 1751.30152153 1042.26090683 1751.30146049 1041.33250239 1751.30139759 C1021.36325362 1751.30012572 1001.39400592 1751.30272704 981.42475747 1751.30610864 C976.86512144 1751.30687938 972.3054854 1751.30762411 967.74584936 1751.30837366 C965.91588273 1751.30867535 964.0859161 1751.30897723 962.25594947 1751.3092793 C960.89532709 1751.30950382 960.89532709 1751.30950382 959.50721738 1751.30973287 C957.67244493 1751.3100364 955.83767248 1751.31034109 954.00290003 1751.31064692 C901.93935823 1751.31932047 849.87581737 1751.32396348 797.81227493 1751.31969929 C796.84815184 1751.31962123 795.88402874 1751.31954317 794.89068979 1751.31946275 C784.13966116 1751.31858995 773.38863253 1751.31766069 762.63760391 1751.31671212 C761.66694201 1751.31662661 760.69628012 1751.3165411 759.69620422 1751.316453 C751.63075683 1751.3157422 751.63075683 1751.3157422 747.91989887 1751.31541077 C685.83201006 1751.30987489 623.74413612 1751.31741721 561.65625 1751.33618164 C546.0119998 1751.34090384 530.36774959 1751.34558435 514.7234993 1751.3500185 C513.27858821 1751.35042848 513.27858821 1751.35042848 511.804487 1751.35084675 C482.11680331 1751.35921776 452.42912086 1751.36389768 422.741436 1751.36472607 C421.80939986 1751.36475243 420.87736372 1751.3647788 419.91708406 1751.36480596 C399.45693283 1751.36534674 378.9967817 1751.3649743 358.53663051 1751.36376625 C351.2156936 1751.36334062 343.89475669 1751.3629755 336.57381977 1751.36263681 C334.75255499 1751.36255151 332.93129021 1751.36246257 331.11002543 1751.36236999 C302.08883115 1751.36092118 273.06764698 1751.36804773 244.04645513 1751.37937395 C214.00512001 1751.39102239 183.96380294 1751.39158943 153.92246774 1751.37953053 C150.69593528 1751.3782787 147.46940282 1751.37707521 144.24287033 1751.37590981 C143.45102594 1751.37561951 142.65918154 1751.37532922 141.84334186 1751.37503013 C129.30919235 1751.37070607 116.7750685 1751.37643322 104.24092302 1751.38635 C91.91367394 1751.39589123 79.58646442 1751.39470673 67.25921764 1751.38214377 C60.6660786 1751.37571531 54.07301227 1751.37434193 47.47987285 1751.38600711 C41.47992889 1751.39652525 35.48015681 1751.39319585 29.48022211 1751.37890258 C27.32512961 1751.37617786 25.17002335 1751.37845721 23.01494381 1751.38640973 C8.45805593 1751.43645289 -6.25154465 1751.42916772 -19.375 1744.25 C-20.04072021 1743.90074463 -20.70644043 1743.55148926 -21.39233398 1743.19165039 C-26.71562121 1740.32456593 -31.50811025 1737.06231194 -36 1733 C-36.91458984 1732.20529297 -36.91458984 1732.20529297 -37.84765625 1731.39453125 C-46.34240211 1723.53455761 -51.3249518 1712.76152238 -56.3125 1702.5 C-59.97344109 1695.01914976 -63.71982078 1687.60428446 -67.6237793 1680.24804688 C-72.3221266 1671.35479306 -76.8651088 1662.39088575 -81.34468079 1653.38580322 C-82.63998445 1650.78206231 -83.93804275 1648.17970929 -85.23669434 1645.57763672 C-88.45745908 1639.12296013 -91.67377932 1632.66607167 -94.89019775 1626.20922852 C-97.62526876 1620.71911634 -100.36211297 1615.22989464 -103.10115051 1609.74176025 C-104.35994513 1607.21784253 -105.6162655 1604.69270471 -106.87243652 1602.16748047 C-111.23402107 1593.41692065 -115.69937607 1584.73147131 -120.27490997 1576.09089661 C-124.3535729 1568.37054467 -128.27117899 1560.5737838 -132.15948486 1552.75619507 C-133.42117866 1550.21966153 -134.68563571 1547.68452048 -135.95068359 1545.1496582 C-139.08797552 1538.86193442 -142.22081962 1532.57199739 -145.35375977 1526.28210449 C-148.01836742 1520.93291065 -150.68475312 1515.58460983 -153.35333252 1510.23739624 C-154.57889055 1507.77995681 -155.80197229 1505.32129681 -157.02490234 1502.86254883 C-160.92529828 1495.03660838 -164.89424906 1487.25494792 -168.98632812 1479.52734375 C-173.56728991 1470.87595064 -177.98475263 1462.15037113 -182.34468079 1453.38580322 C-183.63998445 1450.78206231 -184.93804275 1448.17970929 -186.23669434 1445.57763672 C-189.45745908 1439.12296013 -192.67377932 1432.66607167 -195.89019775 1426.20922852 C-198.62526876 1420.71911634 -201.36211297 1415.22989464 -204.10115051 1409.74176025 C-205.35994513 1407.21784253 -206.6162655 1404.69270471 -207.87243652 1402.16748047 C-212.23402107 1393.41692065 -216.69937607 1384.73147131 -221.27490997 1376.09089661 C-225.3535729 1368.37054467 -229.27117899 1360.5737838 -233.15948486 1352.75619507 C-234.42117866 1350.21966153 -235.68563571 1347.68452048 -236.95068359 1345.1496582 C-240.08797552 1338.86193442 -243.22081962 1332.57199739 -246.35375977 1326.28210449 C-249.01836742 1320.93291065 -251.68475312 1315.58460983 -254.35333252 1310.23739624 C-255.57889055 1307.77995681 -256.80197229 1305.32129681 -258.02490234 1302.86254883 C-261.92529828 1295.03660838 -265.89424906 1287.25494792 -269.98632812 1279.52734375 C-274.56728991 1270.87595064 -278.98475263 1262.15037113 -283.34468079 1253.38580322 C-284.63998445 1250.78206231 -285.93804275 1248.17970929 -287.23669434 1245.57763672 C-290.45745908 1239.12296013 -293.67377932 1232.66607167 -296.89019775 1226.20922852 C-299.62526876 1220.71911634 -302.36211297 1215.22989464 -305.10115051 1209.74176025 C-306.35994513 1207.21784253 -307.6162655 1204.69270471 -308.87243652 1202.16748047 C-312.82832872 1194.230852 -316.84980493 1186.33695127 -321 1178.5 C-325.57661608 1169.85782376 -329.98928557 1161.14125877 -334.34468079 1152.38580322 C-335.63998445 1149.78206231 -336.93804275 1147.17970929 -338.23669434 1144.57763672 C-341.45745908 1138.12296013 -344.67377932 1131.66607167 -347.89019775 1125.20922852 C-350.62526876 1119.71911634 -353.36211297 1114.22989464 -356.10115051 1108.74176025 C-357.35994513 1106.21784253 -358.6162655 1103.69270471 -359.87243652 1101.16748047 C-364.23402107 1092.41692065 -368.69937607 1083.73147131 -373.27490997 1075.09089661 C-377.3535729 1067.37054467 -381.27117899 1059.5737838 -385.15948486 1051.75619507 C-386.42117866 1049.21966153 -387.68563571 1046.68452048 -388.95068359 1044.1496582 C-392.08797552 1037.86193442 -395.22081962 1031.57199739 -398.35375977 1025.28210449 C-401.01836742 1019.93291065 -403.68475312 1014.58460983 -406.35333252 1009.23739624 C-407.57889055 1006.77995681 -408.80197229 1004.32129681 -410.02490234 1001.86254883 C-413.92529828 994.03660838 -417.89424906 986.25494792 -421.98632812 978.52734375 C-426.56728991 969.87595064 -430.98475263 961.15037113 -435.34468079 952.38580322 C-436.63998445 949.78206231 -437.93804275 947.17970929 -439.23669434 944.57763672 C-442.45745908 938.12296013 -445.67377932 931.66607167 -448.89019775 925.20922852 C-451.62526876 919.71911634 -454.36211297 914.22989464 -457.10115051 908.74176025 C-458.35994513 906.21784253 -459.6162655 903.69270471 -460.87243652 901.16748047 C-465.23402107 892.41692065 -469.69937607 883.73147131 -474.27490997 875.09089661 C-478.3535729 867.37054467 -482.27117899 859.5737838 -486.15948486 851.75619507 C-487.42117866 849.21966153 -488.68563571 846.68452048 -489.95068359 844.1496582 C-493.08797552 837.86193442 -496.22081962 831.57199739 -499.35375977 825.28210449 C-502.01836742 819.93291065 -504.68475312 814.58460983 -507.35333252 809.23739624 C-508.57889055 806.77995681 -509.80197229 804.32129681 -511.02490234 801.86254883 C-514.92529828 794.03660838 -518.89424906 786.25494792 -522.98632812 778.52734375 C-527.56728991 769.87595064 -531.98475263 761.15037113 -536.34468079 752.38580322 C-537.63998445 749.78206231 -538.93804275 747.17970929 -540.23669434 744.57763672 C-543.45745908 738.12296013 -546.67377932 731.66607167 -549.89019775 725.20922852 C-552.62526876 719.71911634 -555.36211297 714.22989464 -558.10115051 708.74176025 C-559.35994513 706.21784253 -560.6162655 703.69270471 -561.87243652 701.16748047 C-565.82832872 693.230852 -569.84980493 685.33695127 -574 677.5 C-578.57661608 668.85782376 -582.98928557 660.14125877 -587.34468079 651.38580322 C-588.63998445 648.78206231 -589.93804275 646.17970929 -591.23669434 643.57763672 C-594.45745908 637.12296013 -597.67377932 630.66607167 -600.89019775 624.20922852 C-603.62526876 618.71911634 -606.36211297 613.22989464 -609.10115051 607.74176025 C-610.35994513 605.21784253 -611.6162655 602.69270471 -612.87243652 600.16748047 C-617.2263208 591.4321492 -621.67997173 582.75897901 -626.24567604 574.13248158 C-633.73197362 559.96805846 -640.86254565 545.61820977 -648.05175781 531.30151367 C-649.93818142 527.54657786 -651.83139876 523.79518614 -653.73046875 520.04663086 C-656.05458577 515.45892558 -658.36661412 510.86531371 -660.67041397 506.26737404 C-661.53933995 504.53799706 -662.41232117 502.81065062 -663.28969955 501.08554649 C-670.23989608 487.40801644 -675.80001208 474.67465723 -675.5 459 C-675.48078491 457.44381958 -675.48078491 457.44381958 -675.46118164 455.85620117 C-674.96927223 437.16802277 -667.01467092 420.61254801 -653.5390625 407.62890625 C-638.33253487 394.40680818 -621.24953176 389.83075811 -601.50331116 389.87974548 C-600.24367961 389.87889106 -598.98404806 389.87803663 -597.68624586 389.87715632 C-594.20176657 389.87492631 -590.71731816 389.87891216 -587.2328428 389.88393438 C-583.47083119 389.88826017 -579.70882126 389.88679094 -575.94680786 389.8860321 C-569.43278149 389.88550822 -562.91876514 389.88864088 -556.40474129 389.89426994 C-546.98660211 389.90240327 -537.56846778 389.90500205 -528.15032547 389.90625793 C-512.86933858 389.90844557 -497.58835704 389.91509785 -482.30737305 389.92456055 C-467.4649254 389.93374212 -452.62247921 389.94081931 -437.7800293 389.94506836 C-436.40727643 389.94546244 -436.40727643 389.94546244 -435.00679118 389.94586449 C-430.41557576 389.94716955 -425.82436032 389.94843325 -421.23314488 389.94967639 C-383.15542618 389.96004003 -345.07771344 389.97765051 -307 390 C-306.85489487 388.91222763 -306.70978973 387.82445526 -306.56028748 386.70372009 C-306.00480579 383.03176813 -305.08310128 379.87548233 -303.84765625 376.37890625 C-303.63225693 375.7660376 -303.4168576 375.15316895 -303.19493103 374.52172852 C-302.49213246 372.53236235 -301.77837127 370.54719652 -301.0625 368.5625 C-300.69427124 367.53381302 -300.69427124 367.53381302 -300.31860352 366.48434448 C-286.67526441 328.42576641 -269.46543554 291.43896265 -248.65820312 256.77392578 C-247.10221516 254.17099067 -245.5704812 251.55557776 -244.046875 248.93359375 C-232.04731201 228.40473893 -218.33214291 208.95747484 -204 190 C-203.52981445 189.37673828 -203.05962891 188.75347656 -202.57519531 188.11132812 C-193.9103106 176.65435529 -184.74902028 165.62358382 -175.43701172 154.69140625 C-174.00600998 153.00707393 -172.58262965 151.3165372 -171.16015625 149.625 C-158.37200447 134.48008907 -144.5278523 120.36068805 -130.49975586 106.36938477 C-128.03706613 103.91212218 -125.57985798 101.44946683 -123.12304688 98.98632812 C-121.531571 97.39551213 -119.93978546 95.80500587 -118.34765625 94.21484375 C-117.26618065 93.1303318 -117.26618065 93.1303318 -116.16285706 92.02391052 C-112.14343228 88.02280147 -108.03001591 84.19055973 -103.7300415 80.4919281 C-101.33204585 78.42397939 -99.01326761 76.27353182 -96.6875 74.125 C-92.22126486 70.05140091 -87.63078621 66.19172297 -82.92578125 62.3984375 C-80.27768561 60.22763547 -77.68853577 58.00705377 -75.10766602 55.7578125 C-68.0927862 49.65327569 -60.83564736 43.95181798 -53.4140625 38.3515625 C-50.44405381 36.10858033 -47.5043485 33.83314766 -44.5859375 31.5234375 C-35.40730925 24.26512127 -26.03182129 17.46740045 -16.32421875 10.93359375 C-11.73435192 7.84122994 -7.27181236 4.60281384 -2.8359375 1.29296875 C-1 0 -1 0 0 0 Z " fill="#2E7D32" transform="translate(3611,3924)"/>
<path d="M0 0 C4.82408116 1.92963247 7.51614493 4.053529 11.125 7.5625 C15.13797211 11.3709605 19.17399791 15.0430042 23.5 18.5 C28.26108478 22.31994011 32.71273025 26.38938819 37.1640625 30.55859375 C40.51116869 33.67568554 43.93014141 36.63581113 47.5 39.5 C52.90436782 43.83927344 57.94955123 48.50396415 63.015625 53.2265625 C67.63353761 57.53105514 72.40761607 61.64312405 77.2109375 65.73828125 C78.41162041 66.76283092 79.61213621 67.78757646 80.8125 68.8125 C81.41868164 69.32981689 82.02486328 69.84713379 82.64941406 70.38012695 C86.3907082 73.58502229 90.06115383 76.85209278 93.6875 80.1875 C97.16136309 83.37736844 100.69910025 86.42048894 104.375 89.375 C109.1714071 93.24218863 113.6704146 97.34980716 118.16357422 101.55810547 C121.51081785 104.67539336 124.92995906 107.63566482 128.5 110.5 C133.26108478 114.31994011 137.71273025 118.38938819 142.1640625 122.55859375 C145.51116869 125.67568554 148.93014141 128.63581113 152.5 131.5 C157.90436782 135.83927344 162.94955123 140.50396415 168.015625 145.2265625 C172.63353761 149.53105514 177.40761607 153.64312405 182.2109375 157.73828125 C183.41162041 158.76283092 184.61213621 159.78757646 185.8125 160.8125 C186.41868164 161.32981689 187.02486328 161.84713379 187.64941406 162.38012695 C191.3907082 165.58502229 195.06115383 168.85209278 198.6875 172.1875 C202.16136309 175.37736844 205.69910025 178.42048894 209.375 181.375 C214.1714071 185.24218863 218.6704146 189.34980716 223.16357422 193.55810547 C226.51081785 196.67539336 229.92995906 199.63566482 233.5 202.5 C238.26108478 206.31994011 242.71273025 210.38938819 247.1640625 214.55859375 C250.51116869 217.67568554 253.93014141 220.63581113 257.5 223.5 C262.90436782 227.83927344 267.94955123 232.50396415 273.015625 237.2265625 C277.63353761 241.53105514 282.40761607 245.64312405 287.2109375 249.73828125 C288.41162041 250.76283092 289.61213621 251.78757646 290.8125 252.8125 C291.41868164 253.32981689 292.02486328 253.84713379 292.64941406 254.38012695 C296.3907082 257.58502229 300.06115383 260.85209278 303.6875 264.1875 C307.16136309 267.37736844 310.69910025 270.42048894 314.375 273.375 C319.1714071 277.24218863 323.6704146 281.34980716 328.16357422 285.55810547 C331.51081785 288.67539336 334.92995906 291.63566482 338.5 294.5 C343.90436782 298.83927344 348.94955123 303.50396415 354.015625 308.2265625 C358.63353761 312.53105514 363.40761607 316.64312405 368.2109375 320.73828125 C369.41162041 321.76283092 370.61213621 322.78757646 371.8125 323.8125 C372.41868164 324.32981689 373.02486328 324.84713379 373.64941406 325.38012695 C377.3907082 328.58502229 381.06115383 331.85209278 384.6875 335.1875 C388.16136309 338.37736844 391.69910025 341.42048894 395.375 344.375 C400.1714071 348.24218863 404.6704146 352.34980716 409.16357422 356.55810547 C412.51081785 359.67539336 415.92995906 362.63566482 419.5 365.5 C424.90436782 369.83927344 429.94955123 374.50396415 435.015625 379.2265625 C439.63353761 383.53105514 444.40761607 387.64312405 449.2109375 391.73828125 C450.41162041 392.76283092 451.61213621 393.78757646 452.8125 394.8125 C453.41868164 395.32981689 454.02486328 395.84713379 454.64941406 396.38012695 C458.3907082 399.58502229 462.06115383 402.85209278 465.6875 406.1875 C469.16136309 409.37736844 472.69910025 412.42048894 476.375 415.375 C481.1714071 419.24218863 485.6704146 423.34980716 490.16357422 427.55810547 C493.51081785 430.67539336 496.92995906 433.63566482 500.5 436.5 C505.26108478 440.31994011 509.71273025 444.38938819 514.1640625 448.55859375 C517.51116869 451.67568554 520.93014141 454.63581113 524.5 457.5 C529.26188842 461.3205849 533.71435594 465.39067803 538.16625977 469.56079102 C541.491548 472.65780084 544.88719939 475.59621684 548.4375 478.4375 C553.45841948 482.46446744 558.12421817 486.79214703 562.80615234 491.20068359 C567.12226878 495.24268587 571.60503631 498.99595417 576.22265625 502.69140625 C579.42442799 505.35279458 582.46234918 508.15462246 585.5 511 C589.39576281 514.64888449 593.33334284 518.15698438 597.5 521.5 C602.26108478 525.31994011 606.71273025 529.38938819 611.1640625 533.55859375 C614.51116869 536.67568554 617.93014141 539.63581113 621.5 542.5 C626.26188842 546.3205849 630.71435594 550.39067803 635.16625977 554.56079102 C638.491548 557.65780084 641.88719939 560.59621684 645.4375 563.4375 C650.45841948 567.46446744 655.12421817 571.79214703 659.80615234 576.20068359 C664.12226878 580.24268587 668.60503631 583.99595417 673.22265625 587.69140625 C676.42442799 590.35279458 679.46234918 593.15462246 682.5 596 C686.39576281 599.64888449 690.33334284 603.15698438 694.5 606.5 C699.26108478 610.31994011 703.71273025 614.38938819 708.1640625 618.55859375 C711.51116869 621.67568554 714.93014141 624.63581113 718.5 627.5 C723.26188842 631.3205849 727.71435594 635.39067803 732.16625977 639.56079102 C735.491548 642.65780084 738.88719939 645.59621684 742.4375 648.4375 C747.45841948 652.46446744 752.12421817 656.79214703 756.80615234 661.20068359 C761.12226878 665.24268587 765.60503631 668.99595417 770.22265625 672.69140625 C773.42442799 675.35279458 776.46234918 678.15462246 779.5 681 C783.39576281 684.64888449 787.33334284 688.15698438 791.5 691.5 C796.26108478 695.31994011 800.71273025 699.38938819 805.1640625 703.55859375 C808.51116869 706.67568554 811.93014141 709.63581113 815.5 712.5 C820.26188842 716.3205849 824.71435594 720.39067803 829.16625977 724.56079102 C832.491548 727.65780084 835.88719939 730.59621684 839.4375 733.4375 C846.21300342 738.99493539 852.57843172 745.03711517 859 751 C859.33 520.33 859.66 289.66 860 52 C971.21 52 1082.42 52 1197 52 C1197 529.51 1197 1007.02 1197 1499 C1192.919082 1496.959541 1189.83662429 1494.46942979 1186.4375 1491.5 C1185.81834717 1490.96463623 1185.19919434 1490.42927246 1184.5612793 1489.87768555 C1179.84496717 1485.78285117 1175.23714066 1481.57979778 1170.63671875 1477.35546875 C1168.0274059 1475.02448261 1165.3518718 1472.81672813 1162.625 1470.625 C1157.8285929 1466.75781137 1153.3295854 1462.65019284 1148.83642578 1458.44189453 C1145.48918215 1455.32460664 1142.07004094 1452.36433518 1138.5 1449.5 C1133.73811158 1445.6794151 1129.28564406 1441.60932197 1124.83374023 1437.43920898 C1121.508452 1434.34219916 1118.11280061 1431.40378316 1114.5625 1428.5625 C1109.54158052 1424.53553256 1104.87578183 1420.20785297 1100.19384766 1415.79931641 C1095.87773122 1411.75731413 1091.39496369 1408.00404583 1086.77734375 1404.30859375 C1083.57557201 1401.64720542 1080.53765082 1398.84537754 1077.5 1396 C1073.60423719 1392.35111551 1069.66665716 1388.84301562 1065.5 1385.5 C1060.73891522 1381.68005989 1056.28726975 1377.61061181 1051.8359375 1373.44140625 C1048.48883131 1370.32431446 1045.06985859 1367.36418887 1041.5 1364.5 C1036.73891522 1360.68005989 1032.28726975 1356.61061181 1027.8359375 1352.44140625 C1024.48883131 1349.32431446 1021.06985859 1346.36418887 1017.5 1343.5 C1012.09563218 1339.16072656 1007.05044877 1334.49603585 1001.984375 1329.7734375 C997.36646239 1325.46894486 992.59238393 1321.35687595 987.7890625 1317.26171875 C986.58837959 1316.23716908 985.38786379 1315.21242354 984.1875 1314.1875 C983.58131836 1313.67018311 982.97513672 1313.15286621 982.35058594 1312.61987305 C978.6092918 1309.41497771 974.93884617 1306.14790722 971.3125 1302.8125 C967.83863691 1299.62263156 964.30089975 1296.57951106 960.625 1293.625 C955.8285929 1289.75781137 951.3295854 1285.65019284 946.83642578 1281.44189453 C943.48918215 1278.32460664 940.07004094 1275.36433518 936.5 1272.5 C931.73811158 1268.6794151 927.28564406 1264.60932197 922.83374023 1260.43920898 C919.508452 1257.34219916 916.11280061 1254.40378316 912.5625 1251.5625 C907.54158052 1247.53553256 902.87578183 1243.20785297 898.19384766 1238.79931641 C893.87773122 1234.75731413 889.39496369 1231.00404583 884.77734375 1227.30859375 C881.57557201 1224.64720542 878.53765082 1221.84537754 875.5 1219 C871.60423719 1215.35111551 867.66665716 1211.84301562 863.5 1208.5 C858.73891522 1204.68005989 854.28726975 1200.61061181 849.8359375 1196.44140625 C846.48883131 1193.32431446 843.06985859 1190.36418887 839.5 1187.5 C834.73811158 1183.6794151 830.28564406 1179.60932197 825.83374023 1175.43920898 C822.508452 1172.34219916 819.11280061 1169.40378316 815.5625 1166.5625 C810.54158052 1162.53553256 805.87578183 1158.20785297 801.19384766 1153.79931641 C796.87773122 1149.75731413 792.39496369 1146.00404583 787.77734375 1142.30859375 C784.57557201 1139.64720542 781.53765082 1136.84537754 778.5 1134 C774.60423719 1130.35111551 770.66665716 1126.84301562 766.5 1123.5 C761.73891522 1119.68005989 757.28726975 1115.61061181 752.8359375 1111.44140625 C749.48883131 1108.32431446 746.06985859 1105.36418887 742.5 1102.5 C737.73811158 1098.6794151 733.28564406 1094.60932197 728.83374023 1090.43920898 C725.508452 1087.34219916 722.11280061 1084.40378316 718.5625 1081.5625 C713.54158052 1077.53553256 708.87578183 1073.20785297 704.19384766 1068.79931641 C699.87773122 1064.75731413 695.39496369 1061.00404583 690.77734375 1057.30859375 C687.57557201 1054.64720542 684.53765082 1051.84537754 681.5 1049 C677.60423719 1045.35111551 673.66665716 1041.84301562 669.5 1038.5 C664.73891522 1034.68005989 660.28726975 1030.61061181 655.8359375 1026.44140625 C652.48883131 1023.32431446 649.06985859 1020.36418887 645.5 1017.5 C640.73811158 1013.6794151 636.28564406 1009.60932197 631.83374023 1005.43920898 C628.508452 1002.34219916 625.11280061 999.40378316 621.5625 996.5625 C616.54158052 992.53553256 611.87578183 988.20785297 607.19384766 983.79931641 C602.87773122 979.75731413 598.39496369 976.00404583 593.77734375 972.30859375 C590.57557201 969.64720542 587.53765082 966.84537754 584.5 964 C580.60423719 960.35111551 576.66665716 956.84301562 572.5 953.5 C567.73891522 949.68005989 563.28726975 945.61061181 558.8359375 941.44140625 C555.48883131 938.32431446 552.06985859 935.36418887 548.5 932.5 C543.73811158 928.6794151 539.28564406 924.60932197 534.83374023 920.43920898 C531.508452 917.34219916 528.11280061 914.40378316 524.5625 911.5625 C519.54158052 907.53553256 514.87578183 903.20785297 510.19384766 898.79931641 C505.87773122 894.75731413 501.39496369 891.00404583 496.77734375 887.30859375 C493.57557201 884.64720542 490.53765082 881.84537754 487.5 879 C483.60423719 875.35111551 479.66665716 871.84301562 475.5 868.5 C470.73891522 864.68005989 466.28726975 860.61061181 461.8359375 856.44140625 C458.48883131 853.32431446 455.06985859 850.36418887 451.5 847.5 C446.73811158 843.6794151 442.28564406 839.60932197 437.83374023 835.43920898 C434.508452 832.34219916 431.11280061 829.40378316 427.5625 826.5625 C422.54158052 822.53553256 417.87578183 818.20785297 413.19384766 813.79931641 C408.87773122 809.75731413 404.39496369 806.00404583 399.77734375 802.30859375 C396.57557201 799.64720542 393.53765082 796.84537754 390.5 794 C386.60423719 790.35111551 382.66665716 786.84301562 378.5 783.5 C374.33333048 780.15697445 370.39586052 776.64879479 366.5 773 C361.6837565 768.49063219 356.73076809 764.24042593 351.58203125 760.109375 C348.21379818 757.35771712 344.99131946 754.46044305 341.77734375 751.53125 C340.06737572 749.93160961 340.06737572 749.93160961 338 749 C338 979.34 338 1209.68 338 1447 C226.46 1447 114.92 1447 0 1447 C0 969.49 0 491.98 0 0 Z " fill="#F7941D" transform="translate(3668,3464)"/>
<path d="M0 0 C0 0.99 0 1.98 0 3 C-0.52207031 3.23074219 -1.04414063 3.46148438 -1.58203125 3.69921875 C-13.20240077 8.84799894 -24.74405892 14.09041651 -36 20 C-36.63824707 20.33435059 -37.27649414 20.66870117 -37.93408203 21.01318359 C-66.45615502 36.11563198 -89.97864319 56.79459916 -112.68188477 79.44165039 C-115.05492311 81.80495419 -117.43845378 84.15733586 -119.82226562 86.50976562 C-128.5987306 95.2258928 -136.60286238 104.09325072 -144 114 C-145.11281783 115.3881854 -146.23260606 116.77085158 -147.36328125 118.14453125 C-179.83159343 158.26678489 -204.79856645 204.89836614 -229.8425293 249.83154297 C-234.47030318 258.11046086 -239.23518246 266.3042844 -244.03833008 274.48242188 C-247.38565007 280.19302591 -250.64224887 285.93966936 -253.8125 291.75 C-274.36760937 329.07151323 -298.19256076 365.46184842 -325.49560547 398.18701172 C-326.86927729 399.84246237 -328.22013189 401.51367673 -329.56640625 403.19140625 C-336.53411031 411.73374016 -344.29429761 419.5067582 -352.0625 427.3125 C-352.61731049 427.87257751 -353.17212097 428.43265503 -353.7437439 429.00970459 C-360.82547383 436.14332443 -368.07122917 442.79686181 -376 449 C-376.71841064 449.57242432 -377.43682129 450.14484863 -378.17700195 450.73461914 C-442.36995525 501.66501477 -521.94792918 521.69889363 -603 520 C-603.92844727 519.98211426 -604.85689453 519.96422852 -605.81347656 519.94580078 C-619.50136462 519.6474806 -633.11815009 518.86065845 -646.75 517.625 C-647.44661743 517.56217834 -648.14323486 517.49935669 -648.86096191 517.43463135 C-655.94307753 516.78636155 -662.99455367 516.04293331 -670.03125 514.99609375 C-671.62114746 514.76188721 -671.62114746 514.76188721 -673.24316406 514.52294922 C-675.18618701 514.22540608 -677.12615825 513.9068366 -679.06152344 513.56298828 C-679.91262695 513.43005371 -680.76373047 513.29711914 -681.640625 513.16015625 C-682.36797852 513.03261963 -683.09533203 512.90508301 -683.84472656 512.77368164 C-687.27533357 513.13391869 -688.62731678 514.53435895 -691 517 C-692.42632145 519.68331808 -693.38152482 522.47398471 -694.34375 525.3515625 C-694.78334045 526.60557358 -694.78334045 526.60557358 -695.23181152 527.88491821 C-696.17184765 530.58432774 -697.08724155 533.29125791 -698 536 C-698.6050857 537.76412883 -699.21055358 539.52812661 -699.81640625 541.29199219 C-701.75356401 546.97245995 -703.63508386 552.67045277 -705.5 558.375 C-705.84149078 559.418909 -706.18298157 560.46281799 -706.53482056 561.5383606 C-719.75977509 602.11866159 -730.6602275 643.38727661 -741.16992188 684.74084473 C-742.01951414 688.07661884 -742.87434861 691.41101284 -743.73046875 694.74511719 C-768.47576757 785.80084671 -768.47576757 785.80084671 -780.5 879.125 C-780.85699266 886.7110941 -782.37660435 892.68217609 -787.125 898.6875 C-788.07375 899.450625 -789.0225 900.21375 -790 901 C-790.64195313 901.51820313 -791.28390625 902.03640625 -791.9453125 902.5703125 C-812.40782108 918.0385817 -838.46076976 923.73850857 -863.69921875 920.46875 C-887.12558028 916.87323197 -887.12558028 916.87323197 -894 908 C-905.6663675 886.70337632 -892.91266393 853.25739155 -886.625 831.625 C-882.17369355 816.48540591 -877.27540122 801.4989024 -872.1875 786.5625 C-871.8794342 785.657276 -871.57136841 784.752052 -871.25396729 783.81939697 C-870.35615472 781.19133544 -869.45194965 778.56562486 -868.54296875 775.94140625 C-868.10902802 774.68831665 -868.10902802 774.68831665 -867.6663208 773.40991211 C-866.20357171 769.24216286 -864.66808585 765.12270584 -862.99462891 761.03466797 C-862.66908524 760.23359116 -862.34354156 759.43251434 -862.00813293 758.60716248 C-861.394314 757.1133678 -860.76710188 755.62496565 -860.12309265 754.14393616 C-857.63491303 748.10288401 -856.68821056 742.70775869 -858.91371155 736.41740417 C-860.21939745 733.50439429 -861.64015464 730.68151533 -863.1171875 727.8515625 C-863.64837189 726.79955658 -864.17955627 725.74755066 -864.72683716 724.66366577 C-866.42612932 721.3086069 -868.15014139 717.96697395 -869.875 714.625 C-870.99641545 712.41879337 -872.11622194 710.21176812 -873.234375 708.00390625 C-881.99950929 690.74159633 -891.02620264 673.61734003 -900.1875 656.5625 C-901.48069181 654.15376553 -902.77357131 651.74486352 -904.06640625 649.3359375 C-904.55394379 648.42780556 -904.55394379 648.42780556 -905.05133057 647.50132751 C-907.32272227 643.26843619 -909.58350656 639.02999429 -911.83984375 634.7890625 C-917.87098408 623.45908901 -923.94610299 612.15331713 -930.1875 600.9375 C-930.71617676 599.97352295 -931.24485352 599.0095459 -931.78955078 598.01635742 C-932.28567871 597.13310791 -932.78180664 596.2498584 -933.29296875 595.33984375 C-933.7211792 594.57019287 -934.14938965 593.80054199 -934.59057617 593.00756836 C-936.26550915 590.62181159 -937.41519266 589.38791213 -940 588 C-942.76505714 587.70878575 -945.31395888 587.582192 -948.078125 587.59375 C-949.71891415 587.57400875 -951.35970187 587.55414724 -953.00048828 587.53417969 C-954.28635834 587.52662659 -954.28635834 587.52662659 -955.59820557 587.5189209 C-1006.33701049 587.15689292 -1050.71910393 575.79987417 -1088 540 C-1088.5554248 539.47011475 -1089.11084961 538.94022949 -1089.68310547 538.39428711 C-1093.9987787 534.19469061 -1097.75232678 529.74260045 -1101.375 524.9375 C-1101.93952881 524.19145508 -1102.50405762 523.44541016 -1103.08569336 522.67675781 C-1108.08857711 515.99675075 -1112.69625709 509.14941674 -1117 502 C-1117.41475586 501.32243652 -1117.82951172 500.64487305 -1118.25683594 499.94677734 C-1131.93351078 477.46216312 -1142.78329523 453.26395119 -1153.75 429.375 C-1168.34587347 397.66435429 -1184.63155718 367.29570472 -1209 342 C-1210.06927734 340.83597656 -1210.06927734 340.83597656 -1211.16015625 339.6484375 C-1222.74328956 327.39413198 -1237.38502054 319.10469197 -1252 311 C-1249.2140887 308.71718871 -1246.86432196 307.44000987 -1243.40625 306.45703125 C-1242.0126123 306.05943604 -1242.0126123 306.05943604 -1240.59082031 305.65380859 C-1239.57084961 305.37617676 -1238.55087891 305.09854492 -1237.5 304.8125 C-1236.41557617 304.51424316 -1235.33115234 304.21598633 -1234.21386719 303.90869141 C-1209.16780242 297.17516662 -1183.65272491 291.79441194 -1158 288 C-1156.94151855 287.83628906 -1155.88303711 287.67257812 -1154.79248047 287.50390625 C-1137.32148058 284.90006824 -1119.88199068 284.69093553 -1102.25 284.625 C-1100.58179199 284.61308121 -1100.58179199 284.61308121 -1098.87988281 284.60092163 C-1041.40303239 284.28557487 -986.41954816 299.89733146 -944.75 340.8125 C-932.62953356 353.03851476 -923.11228327 366.85533645 -915 382 C-914.38560059 383.1446875 -914.38560059 383.1446875 -913.75878906 384.3125 C-891.06733656 427.39260342 -883.81014137 477.52625504 -883.81469727 525.70483398 C-883.81246435 528.35480787 -883.79408783 531.00439364 -883.77539062 533.65429688 C-883.77246382 535.34895693 -883.77047427 537.04361893 -883.76953125 538.73828125 C-883.75875298 539.91938225 -883.75875298 539.91938225 -883.74775696 541.12434387 C-883.76391513 544.95266633 -883.82479231 546.73718846 -886 550 C-886.31001953 549.42894531 -886.62003906 548.85789062 -886.93945312 548.26953125 C-898.07063857 527.88666184 -910.24470834 507.99067122 -925 490 C-925.43086914 489.47438477 -925.86173828 488.94876953 -926.30566406 488.40722656 C-939.03019482 472.95666406 -952.55400598 457.60001963 -968.2890625 445.15625 C-971.0704856 442.94393653 -973.74676854 440.63391538 -976.4375 438.3125 C-1009.95456784 410.4463149 -1050.56227606 390.84137445 -1091.27929688 376.01269531 C-1095.55190458 374.42235282 -1099.77812366 372.71981066 -1104 371 C-1104 371.66 -1104 372.32 -1104 373 C-1103.21109375 373.21011719 -1102.4221875 373.42023437 -1101.609375 373.63671875 C-1096.77059275 375.46435404 -1092.62115197 378.06998882 -1088.25 380.8125 C-1087.32695068 381.3885498 -1086.40390137 381.96459961 -1085.45288086 382.55810547 C-1062.59167637 396.98871401 -1041.48431695 414.0626905 -1021.69897461 432.44458008 C-1020.4047136 433.62948264 -1019.09864553 434.80150233 -1017.78735352 435.9675293 C-1011.41839569 441.63251342 -1005.32594824 447.52281125 -999.3125 453.5625 C-998.41466797 454.45646484 -997.51683594 455.35042969 -996.59179688 456.27148438 C-992.08513839 460.78474602 -987.71598279 465.35241435 -983.56225586 470.19262695 C-981.16021179 472.97155057 -978.63752728 475.63387966 -976.125 478.3125 C-971.6821212 483.08757602 -967.47677093 487.98819733 -963.39453125 493.078125 C-961.11898529 495.85481077 -958.77736394 498.55308168 -956.40429688 501.24584961 C-949.43955713 509.15724303 -943.01186241 517.38354062 -936.67236328 525.79980469 C-934.4018828 528.78689521 -932.08452082 531.73599542 -929.7668457 534.68652344 C-922.24361726 544.27118092 -915.04793518 554.0620007 -908 564 C-907.59775208 564.56447845 -907.19550415 565.12895691 -906.78106689 565.71054077 C-898.20778702 577.74375006 -889.87803895 589.93291437 -881.625 602.1875 C-880.66688919 603.60873672 -880.66688919 603.60873672 -879.68942261 605.0586853 C-871.12209438 617.77374899 -862.6476846 630.5261342 -854.5390625 643.54003906 C-851.57678818 648.27479098 -848.56511361 652.97827098 -845.5625 657.6875 C-844.45944931 659.42045447 -843.35657767 661.15352293 -842.25390625 662.88671875 C-841.72684082 663.71220215 -841.19977539 664.53768555 -840.65673828 665.38818359 C-839.46288745 667.27026674 -838.28032526 669.15952748 -837.10498047 671.05322266 C-836.48123535 672.05272949 -835.85749023 673.05223633 -835.21484375 674.08203125 C-834.64757568 674.99831299 -834.08030762 675.91459473 -833.49584961 676.85864258 C-832.17596654 679.11082422 -832.17596654 679.11082422 -830 680 C-829.86102295 679.47462646 -829.7220459 678.94925293 -829.57885742 678.40795898 C-827.13334174 669.71449854 -823.7140139 661.41357489 -820.3125 653.0625 C-819.98597443 652.25820557 -819.65944885 651.45391113 -819.32302856 650.62524414 C-812.08329341 632.83436861 -804.19486272 615.36860548 -796 598 C-795.69106812 597.3443103 -795.38213623 596.68862061 -795.06384277 596.01306152 C-783.72129556 571.96036191 -771.76356307 548.34335389 -758.2109375 525.453125 C-755.51943199 520.90600478 -752.92663341 516.31402353 -750.375 511.6875 C-745.29481527 502.55490001 -739.66520658 493.77772428 -734 485 C-733.09725342 483.59959473 -733.09725342 483.59959473 -732.17626953 482.17089844 C-717.56469277 459.54238374 -702.3102538 437.44223239 -686 416 C-684.85337891 414.48599609 -684.85337891 414.48599609 -683.68359375 412.94140625 C-677.45712723 404.75765364 -670.9979321 396.77180738 -664.48388672 388.81591797 C-663.19366805 387.23700279 -661.91064412 385.65221373 -660.62890625 384.06640625 C-651.45032289 372.73211891 -641.79543741 361.80244499 -632 351 C-630.98099609 349.85917969 -630.98099609 349.85917969 -629.94140625 348.6953125 C-618.02537853 335.35810716 -605.66499911 322.50058184 -593.00244141 309.87207031 C-590.6033127 307.47836169 -588.2096573 305.07927119 -585.81640625 302.6796875 C-584.26594595 301.12988718 -582.71517591 299.58039665 -581.1640625 298.03125 C-580.46181549 297.32697876 -579.75956848 296.62270752 -579.03604126 295.89709473 C-575.08224236 291.96176077 -571.03287853 288.19727932 -566.80058289 284.56246948 C-563.84992805 282.00201632 -561.02873493 279.30540257 -558.1875 276.625 C-553.16311299 271.91846726 -548.01016609 267.47141936 -542.6328125 263.16796875 C-539.89030846 260.90967537 -537.2906241 258.54218666 -534.6875 256.125 C-530.05572066 251.86270733 -525.23685427 247.95749507 -520.26464844 244.1081543 C-516.41802092 241.1275957 -512.6582742 238.0741421 -508.9375 234.9375 C-502.76852794 229.7627348 -496.42073946 224.85427128 -490 220 C-489.39172363 219.53867676 -488.78344727 219.07735352 -488.15673828 218.60205078 C-471.37738414 205.88728743 -454.29982922 193.69172563 -436.75 182.0625 C-435.4710788 181.21318405 -435.4710788 181.21318405 -434.1663208 180.34671021 C-393.30460079 153.21389056 -351.17229124 128.94427012 -307.44384766 106.74853516 C-305.25850532 105.63897739 -303.07558246 104.52463097 -300.89599609 103.40380859 C-299.99574707 102.94441895 -299.09549805 102.4850293 -298.16796875 102.01171875 C-297.40121826 101.61815186 -296.63446777 101.22458496 -295.84448242 100.8190918 C-294 100 -294 100 -292 100 C-292 99.34 -292 98.68 -292 98 C-322.36244142 105.26851238 -352.35246677 113.1938493 -382 123 C-382.79390137 123.2621228 -383.58780273 123.52424561 -384.40576172 123.79431152 C-417.4084406 134.72454099 -449.70490644 147.6354383 -481.08398438 162.61181641 C-484.02281092 164.01085925 -486.97109277 165.38809554 -489.921875 166.76171875 C-517.90456142 179.85716805 -545.78270757 195.03286386 -571.16552734 212.72949219 C-573.28165504 214.19506692 -575.41528895 215.6331063 -577.55078125 217.0703125 C-613.58902102 241.39095321 -646.59908539 269.38064747 -677.2734375 300.14306641 C-679.52228794 302.39734171 -681.77652448 304.64613376 -684.03125 306.89453125 C-685.48990452 308.3538457 -686.94824927 309.81346985 -688.40625 311.2734375 C-689.06677368 311.93193695 -689.72729736 312.5904364 -690.40783691 313.26889038 C-694.80247292 317.68545333 -698.94447544 322.27140261 -703 327 C-703.95002546 328.0941803 -704.90045921 329.18800645 -705.8515625 330.28125 C-718.88766257 345.37568166 -731.15904357 360.95154855 -743 377 C-743.556875 377.75007324 -744.11375 378.50014648 -744.6875 379.27294922 C-752.07141186 389.23279908 -759.00754875 399.42919943 -765.71289062 409.85864258 C-767.46347359 412.58035711 -769.22613584 415.29340437 -771 418 C-771.61391602 418.93714844 -772.22783203 419.87429688 -772.86035156 420.83984375 C-773.46588867 421.73832031 -774.07142578 422.63679688 -774.6953125 423.5625 C-775.23430176 424.36816406 -775.77329102 425.17382812 -776.32861328 426.00390625 C-778.08490006 428.10139394 -779.48542764 428.98677727 -782 430 C-782.38691093 418.21115835 -781.26468059 406.4889135 -780.3125 394.75 C-780.17953522 393.09845413 -780.17953522 393.09845413 -780.04388428 391.4135437 C-773.61962667 312.3943191 -758.91210828 232.97859843 -727 160 C-726.52594727 158.9157373 -726.05189453 157.83147461 -725.56347656 156.71435547 C-712.35345116 126.78663258 -696.70305354 97.56813054 -676.41308594 71.79833984 C-674.98183198 69.97687878 -673.5713783 68.1407811 -672.1640625 66.30078125 C-667.19350747 59.83836744 -662.04715747 53.66091715 -656.484375 47.6953125 C-654.51140123 45.55482209 -652.59998608 43.38704303 -650.69921875 41.18359375 C-646.98783096 36.92714901 -643.06611815 32.91795354 -639.0625 28.9375 C-638.39798828 28.26912109 -637.73347656 27.60074219 -637.04882812 26.91210938 C-577.71459695 -32.30702145 -496.49553788 -62.28582583 -414.625 -72.25 C-413.94257233 -72.33317474 -413.26014465 -72.41634949 -412.55703735 -72.50204468 C-325.95121129 -82.92986579 -237.50407225 -70.09888984 0 0 Z " fill="#2F7E33" transform="translate(5061,2934)"/>
<path d="M0 0 C0.66 0.33 1.32 0.66 2 1 C-2.29 5.29 -6.58 9.58 -11 14 C-11.66 13.67 -12.32 13.34 -13 13 C-4.738041 3.40546697 -4.738041 3.40546697 0 0 Z " fill="#75A978" transform="translate(2963,4327)"/>
<path d="M0 0 C-1.28913487 0.67154933 -2.58140204 1.33708859 -3.875 2 C-4.59429687 2.37125 -5.31359375 2.7425 -6.0546875 3.125 C-8 4 -8 4 -10 4 C-9.3125 2.0625 -9.3125 2.0625 -8 0 C-4.70572419 -1.09809194 -3.33588828 -1.11196276 0 0 Z " fill="#D4E4D5" transform="translate(4779,3030)"/>
</svg>