<svg viewBox="469.676032 813.740032 1126.4 421.888" version="1.1" xmlns:xlink="http://www.w3.org/1999/xlink" xmlns="http://www.w3.org/2000/svg" style="max-height: 500px" width="1126.4" height="421.888">
<defs>
<clipPath id="clip_1">
<path d="M0 2048H2048V0H0Z" transform="matrix(1,0,0,-1,0,2048)"/>
</clipPath>
</defs>
<g>
<path fill="#ffffff" d="M0 0H2048V2048H0Z" transform="matrix(1,0,0,-1,0,2048)"/>
<g clip-path="url(#clip_1)">
<path fill="#f7941d" d="M0 0C-.198 4.717-2.679 8.229-7.443 10.539-12.21 12.846-19.506 15.229-29.331 17.687-37.29 19.651-43.752 21.542-48.712 23.361-53.675 25.179-57.95 27.831-61.535 31.32-65.124 34.808-67.063 39.303-67.357 44.807-67.652 50.799-65.688 56.229-61.461 61.093-57.238 65.957-50.064 68.389-39.943 68.389H7.812V57.188H-40.09C-44.316 57.188-47.953 56.204-50.997 54.239-54.044 52.272-55.37 49.178-54.977 44.954-54.682 40.924-52.349 37.953-47.976 36.037-43.604 34.121-36.898 32.131-27.857 30.067-19.407 28.101-12.554 26.185-7.296 24.319-2.041 22.452 2.505 19.578 6.337 15.697 10.169 11.814 12.183 6.633 12.38 .147 12.477-5.847 10.464-11.275 6.337-16.139 2.21-21.003-4.915-23.435-15.034-23.435H-65.883V-12.233H-15.918C-11.4-12.233-7.542-11.326-4.348-9.507-1.156-7.689 .294-4.521 0 0" transform="matrix(1,0,0,-1,961.6108,1180.9902)"/>
<path fill="#f7941d" d="M0 0V-42.153H-11.791V49.67H0V11.201H53.06V49.67H64.998V-42.153H53.06V0Z" transform="matrix(1,0,0,-1,991.6748,1162.2715)"/>
<path fill="#f7941d" d="M0 0C-6.289 0-12.086-1.548-17.392-4.643-22.698-7.738-26.898-11.938-29.994-17.245-33.089-22.551-34.637-28.35-34.637-34.637-34.637-40.926-33.089-46.699-29.994-51.955-26.898-57.213-22.698-61.388-17.392-64.483-12.086-67.578-6.289-69.126 0-69.126 6.19-69.126 11.938-67.578 17.244-64.483 22.551-61.388 26.751-57.213 29.847-51.955 32.941-46.699 34.489-40.926 34.489-34.637 34.489-28.35 32.941-22.551 29.847-17.245 26.751-11.938 22.551-7.738 17.244-4.643 11.938-1.548 6.19 0 0 0M0 0C-6.289 0-12.086-1.548-17.392-4.643-22.698-7.738-26.898-11.938-29.994-17.245-33.089-22.551-34.637-28.35-34.637-34.637-34.637-40.926-33.089-46.699-29.994-51.955-26.898-57.213-22.698-61.388-17.392-64.483-12.086-67.578-6.289-69.126 0-69.126 6.19-69.126 11.938-67.578 17.244-64.483 22.551-61.388 26.751-57.213 29.847-51.955 32.941-46.699 34.489-40.926 34.489-34.637 34.489-28.35 32.941-22.551 29.847-17.245 26.751-11.938 22.551-7.738 17.244-4.643 11.938-1.548 6.19 0 0 0M0 12.381C8.449 12.381 16.261 10.267 23.435 6.043 30.606 1.816 36.306-3.883 40.532-11.055 44.756-18.229 46.87-26.088 46.87-34.637 46.87-43.089 44.756-50.923 40.532-58.146 36.306-65.367 30.606-71.093 23.435-75.316 16.261-79.542 8.449-81.654 0-81.654-8.549-81.654-16.434-79.542-23.656-75.316-30.878-71.093-36.604-65.367-40.827-58.146-45.053-50.923-47.165-43.089-47.165-34.637-47.165-26.088-45.053-18.229-40.827-11.055-36.604-3.883-30.878 1.816-23.656 6.043-16.434 10.267-8.549 12.381 0 12.381M0 12.381C8.449 12.381 16.261 10.267 23.435 6.043 30.606 1.816 36.306-3.883 40.532-11.055 44.756-18.229 46.87-26.088 46.87-34.637 46.87-43.089 44.756-50.923 40.532-58.146 36.306-65.367 30.606-71.093 23.435-75.316 16.261-79.542 8.449-81.654 0-81.654-8.549-81.654-16.434-79.542-23.656-75.316-30.878-71.093-36.604-65.367-40.827-58.146-45.053-50.923-47.165-43.089-47.165-34.637-47.165-26.088-45.053-18.229-40.827-11.055-36.604-3.883-30.878 1.816-23.656 6.043-16.434 10.267-8.549 12.381 0 12.381" transform="matrix(1,0,0,-1,1109.877,1123.8027)"/>
<path fill="#f7941d" d="M0 0H39.205C43.429 0 47.213 1.816 50.554 5.453 53.894 9.087 55.565 13.707 55.565 19.308 55.565 24.81 53.894 29.33 50.554 32.867 47.213 36.405 43.528 38.174 39.5 38.174H0ZM67.799 19.455C67.799 12.871 66.398 7.271 63.599 2.652 60.798-1.967 57.235-5.431 52.912-7.738 48.588-10.048 44.166-11.202 39.647-11.202H0V-42.448H-11.791V49.375H40.385C45.492 49.375 50.135 48.023 54.313 45.322 58.488 42.618 61.779 38.984 64.188 34.415 66.595 29.846 67.799 24.858 67.799 19.455" transform="matrix(1,0,0,-1,1174.2832,1161.9766)"/>
<path fill="#2e7d32" d="M0 0-79.123 115.438V0H-98.362V149.828H-79.123L0 34.392V149.828H19.24V0Z" transform="matrix(1,0,0,-1,992.5869,1080.2041)"/>
<path fill="#2e7d32" d="M0 0-.721-60.605H-19.961V-24.29ZM30.303 31.745C24.851 31.422 19.962 29.377 15.633 25.612 11.304 21.843 4.487 14.347-4.81 3.126-5.613 2.164-6.974 .639-8.897-1.443-19.16-14.11-27.416-23.73-33.669-30.302V-60.605H-52.908V-47.137C-55.475-49.704-60.206-52.951-67.098-56.877-73.993-60.808-81.929-62.608-90.906-62.289-102.773-61.965-112.431-58.962-119.886-53.27-127.341-47.581-131.23-39.524-131.55-29.1-131.873-17.398-127.784-8.098-119.285-1.203-110.788 5.689-99.004 9.139-83.932 9.139H-53.148C-53.148 17.154-55.517 22.644-60.243 25.612-64.975 28.577-71.75 30.062-80.565 30.062H-117.12V48.339H-81.527C-65.497 48.339-53.75 45.292-46.295 39.2-38.84 33.105-34.714 23.328-33.909 9.86V6.252L-52.908-15.151V-9.139H-83.932C-92.432-9.139-99.046-10.665-103.772-13.708-108.504-16.755-110.95-21.005-111.107-26.455-111.27-31.587-109.706-35.634-106.418-38.599-103.134-41.568-98.603-43.29-92.83-43.77-86.739-44.413-80.167-42.849-73.109-39.081-66.057-35.315-59.322-30.145-52.908-23.569-43.77-14.272-33.35-2.165-21.645 12.746-20.682 14.027-20.122 14.749-19.961 14.911V48.339H-.721V34.631C3.766 39.441 8.177 43.127 12.506 45.694 16.835 48.256 22.126 49.699 28.379 50.022 46.495 50.984 59 44.57 65.896 30.783 77.278 42.966 88.821 49.38 100.527 50.022 114.634 50.823 125.336 47.054 132.633 38.719 139.927 30.381 143.575 18.356 143.575 2.645V-60.605H124.096V1.443C124.096 21.802 116.881 31.903 102.451 31.745 94.274 31.745 87.06 28.337 80.807 21.524 74.554 14.708 71.427 7.854 71.427 .962V-60.605H52.188V.481C52.188 10.42 50.542 18.236 47.258 23.929 43.97 29.618 38.318 32.226 30.303 31.745" transform="matrix(1,0,0,-1,1187.3789,1019.5991)"/>
<path fill="#2e7d32" d="M0 0-.721-60.604H-19.961V-24.29ZM68.301-6.253C68.301 5.291 65.896 14.67 61.086 21.885 56.276 29.1 47.697 32.384 35.354 31.745 25.892 31.103 16.192 25.812 6.253 15.873 3.687 13.306-1.845 6.975-10.341-3.126-20.765-15.793-28.539-24.854-33.669-30.302V-60.604H-52.908V-47.137C-55.475-49.865-60.206-53.149-67.098-56.997-73.993-60.845-81.929-62.607-90.906-62.288-102.773-61.965-112.431-58.962-119.886-53.27-127.341-47.58-131.23-39.523-131.55-29.1-131.873-17.398-127.784-8.098-119.285-1.203-110.788 5.689-99.004 9.139-83.932 9.139H-53.148C-53.148 17.154-55.517 22.644-60.243 25.613-64.975 28.578-71.75 30.062-80.565 30.062H-117.12V48.339H-81.527C-65.497 48.339-53.75 45.292-46.295 39.201-38.84 33.105-34.714 23.328-33.909 9.86V6.253L-52.908-15.392V-9.139H-83.932C-92.432-9.139-99.046-10.702-103.772-13.828-108.504-16.954-110.95-21.163-111.107-26.454-111.27-31.587-109.706-35.635-106.418-38.6-103.134-41.568-98.603-43.289-92.83-43.77-86.739-44.412-80.167-42.85-73.109-39.08-66.057-35.315-59.322-30.224-52.908-23.809-43.77-14.512-33.35-2.326-21.645 12.746-20.682 14.028-20.122 14.749-19.961 14.911V89.223H-.721V34.631C9.699 44.409 21.724 49.542 35.354 50.023 53.308 50.662 66.497 45.694 74.914 35.112 83.332 24.53 87.54 10.74 87.54-6.253V-60.604H68.301Z" transform="matrix(1,0,0,-1,1472.1182,1019.83987)"/>
<path fill="#2e7d32" d="M1026.732 967.796H1045.972V1076.7361H1026.732Z" transform="matrix(1,0,0,-1,0,2048)"/>
<path fill="#f7941d" d="M0 0-18-31.177H18Z" transform="matrix(1,0,0,-1,1036.4736,931.3794)"/>
<path fill="#f7941d" d="M0 0V-13.886L-2.921-11.332-8.963-6.034C-5.843-4.141-2.853-2.124 0 0" transform="matrix(1,0,0,-1,751.5156,1119.2774)"/>
<path fill="#f7941d" d="M0 0V-92.832L-21.868-73.67-29.873-66.654-61.51-38.936-68.871-32.48-113.841 6.924V-184.743H-69.27V-91.912L44.572-191.667V0Z" transform="matrix(1,0,0,-1,699.2764,924.58108)"/>
<path fill="#2e7d32" d="M0 0C-4.674-.928-9.203-2.187-13.664-3.679-21.647-6.349-29.306-9.724-36.48-14.161-48.468-21.576-58.031-31.399-65.502-43.309-65.75-43.704-65.999-44.097-66.469-44.422-66.353-42.721-66.259-41.018-66.117-39.319-65.333-29.931-63.696-20.718-60.352-11.868-57.605-4.603-53.82 2.036-48.384 7.647-40.586 15.696-30.943 20.042-19.979 21.685-9.969 23.185-.046 22.367 9.824 20.455 18.871 18.701 27.639 15.981 36.249 12.725 36.506 12.628 36.751 12.498 37.141 12.319 35.232 11.472 33.449 10.693 31.753 9.737 25.314 6.108 20.308 .954 16.027-4.979 11.668-11.02 8.182-17.587 4.508-24.042 1.084-30.058-2.483-35.974-7.035-41.241-15.373-50.891-26.002-55.647-38.641-56.186-43.587-56.396-48.502-56.087-53.389-55.341-54.157-55.224-54.451-55.436-54.703-56.13-57.391-63.544-59.469-71.14-61.402-78.776-63.287-86.226-65.082-93.698-66.196-101.313-66.331-102.229-66.448-103.159-66.451-104.083-66.455-105.313-66.921-106.307-67.891-106.974-71.457-109.428-75.358-110.07-79.496-108.792-81.146-108.282-81.747-107.249-81.72-105.498-81.676-102.581-80.818-99.818-80.018-97.051-79.003-93.543-77.771-90.107-76.463-86.7-76.237-86.11-76.255-85.634-76.537-85.069-79.748-78.619-83.147-72.269-86.612-65.953-86.951-65.333-87.329-65.128-88.038-65.16-92.531-65.361-96.935-64.947-101.095-63.055-105.307-61.139-108.309-57.934-110.683-54.058-112.879-50.47-114.483-46.585-116.315-42.815-117.971-39.408-119.79-36.104-122.374-33.287-124.119-31.383-126.153-29.855-128.646-28.605-127.005-27.997-125.5-27.651-124.003-27.286-118.791-26.012-113.52-25.171-108.135-25.253-103.676-25.32-99.333-25.999-95.23-27.846-88.439-30.902-84.362-36.291-82.125-43.216-80.401-48.552-79.978-54.063-80.096-59.634-80.098-59.749-80.139-59.862-80.222-60.271-86.564-47.732-96.901-40.492-109.735-36.351-109.863-36.563-109.697-36.61-109.62-36.652-102.795-40.357-97.18-45.516-92.06-51.266-85.584-58.539-80.168-66.583-74.982-74.794-74.47-75.606-73.961-76.422-73.44-77.229-73.327-77.404-73.278-77.709-72.999-77.664-72.747-77.623-72.735-77.327-72.659-77.133-71.553-74.333-70.417-71.547-69.176-68.805-58.954-46.212-43.594-27.877-23.384-13.566-16.285-8.539-8.777-4.206-.92-.475-.608-.327-.306-.159 0 0" transform="matrix(1,0,0,-1,732.7769,859.9546)"/>
<path fill="#2e7d32" d="M0 0H-39.664C-45.169 17.689-56.916 33.921-74.091 47.125-74.359 47.339-74.635 47.546-74.912 47.753-76.683 49.096-78.5 50.391-80.355 51.641V42.233C-78.186 40.623-76.1 38.951-74.091 37.226-61.792 26.652-52.652 13.962-47.776 0-45.169-7.461-43.781-15.289-43.781-23.349-43.781-24.146-43.794-24.942-43.822-25.736-43.831-25.998-43.85-26.258-43.862-26.519-43.886-27.05-43.907-27.58-43.943-28.108-43.965-28.433-43.999-28.755-44.025-29.078-44.063-29.541-44.097-30.005-44.144-30.466-44.18-30.821-44.229-31.174-44.271-31.528-44.32-31.954-44.365-32.382-44.423-32.806-44.473-33.166-44.534-33.523-44.588-33.883-44.652-34.3-44.71-34.717-44.781-35.132-44.842-35.489-44.915-35.844-44.981-36.2-45.058-36.613-45.13-37.026-45.214-37.438-45.289-37.801-45.375-38.16-45.455-38.521-45.544-38.923-45.628-39.326-45.724-39.726-45.811-40.087-45.908-40.444-46-40.805-46.103-41.201-46.199-41.6-46.308-41.995-46.405-42.348-46.513-42.697-46.615-43.048-46.731-43.447-46.843-43.849-46.966-44.246-47.071-44.584-47.187-44.919-47.296-45.256-47.429-45.663-47.558-46.072-47.698-46.478-47.81-46.801-47.932-47.121-48.048-47.443-48.198-47.858-48.344-48.274-48.501-48.687-48.62-48.997-48.748-49.306-48.871-49.614-49.038-50.035-49.201-50.457-49.376-50.875-49.499-51.168-49.63-51.459-49.757-51.751-49.943-52.182-50.126-52.614-50.321-53.042-50.446-53.316-50.58-53.588-50.708-53.861-50.915-54.303-51.12-54.746-51.335-55.185-51.461-55.44-51.595-55.692-51.724-55.947-51.953-56.401-52.181-56.855-52.419-57.306-52.542-57.539-52.673-57.769-52.799-58-53.053-58.468-53.306-58.937-53.569-59.4-53.691-59.615-53.821-59.828-53.945-60.042-54.223-60.52-54.5-60.998-54.787-61.472-54.903-61.661-55.024-61.85-55.142-62.039-55.448-62.533-55.754-63.027-56.072-63.518-56.177-63.681-56.289-63.842-56.396-64.005-56.733-64.518-57.072-65.03-57.421-65.537-57.517-65.676-57.616-65.812-57.712-65.949-58.081-66.478-58.452-67.005-58.833-67.527-58.919-67.646-59.01-67.762-59.097-67.879-59.495-68.419-59.897-68.957-60.31-69.49-60.381-69.583-60.456-69.675-60.528-69.767-60.962-70.323-61.401-70.878-61.85-71.427-61.902-71.491-61.957-71.554-62.009-71.618-62.482-72.193-62.961-72.765-63.45-73.332-63.485-73.372-63.521-73.412-63.557-73.453-64.067-74.042-64.584-74.627-65.112-75.207-65.125-75.222-65.139-75.235-65.152-75.25-69.631-80.167-74.726-84.745-80.355-88.922-81.061-89.446-81.774-89.965-82.496-90.477-82.544-90.51-82.593-90.543-82.641-90.577-83.3-91.043-83.965-91.503-84.638-91.957-84.78-92.053-84.925-92.146-85.068-92.242-85.695-92.661-86.325-93.078-86.963-93.486-87.007-93.515-87.052-93.543-87.096-93.571-87.83-94.039-88.57-94.502-89.319-94.956-93.295-97.385-97.478-99.633-101.841-101.682-101.867-101.693-101.893-101.706-101.919-101.718-105.52-103.406-109.245-104.958-113.082-106.366-113.124-106.382-113.165-106.397-113.207-106.413-113.843-106.646-114.485-106.873-115.128-107.098-115.33-107.168-115.53-107.239-115.731-107.309-116.32-107.512-116.912-107.711-117.506-107.907-117.763-107.992-118.021-108.077-118.278-108.16-118.849-108.346-119.421-108.528-119.996-108.707-120.278-108.795-120.563-108.881-120.846-108.968-121.411-109.14-121.977-109.311-122.545-109.477-122.834-109.561-123.125-109.642-123.414-109.725-123.99-109.889-124.565-110.054-125.146-110.211-125.327-110.261-125.511-110.307-125.693-110.356-126.856-110.668-128.028-110.966-129.207-111.252-129.554-111.337-129.899-111.424-130.248-111.506-130.732-111.62-131.22-111.729-131.707-111.838-132.133-111.934-132.558-112.03-132.986-112.123-133.454-112.225-133.924-112.321-134.395-112.419-134.847-112.513-135.301-112.605-135.756-112.695-136.214-112.786-136.673-112.874-137.133-112.961-137.611-113.051-138.089-113.138-138.568-113.224-139.013-113.303-139.458-113.382-139.904-113.458-140.418-113.545-140.934-113.628-141.45-113.71-141.868-113.777-142.285-113.846-142.704-113.909-143.315-114.001-143.93-114.088-144.544-114.174-144.872-114.219-145.198-114.269-145.527-114.313-146.456-114.437-147.389-114.552-148.325-114.66-148.632-114.695-148.941-114.726-149.249-114.76-149.903-114.832-150.559-114.902-151.217-114.967-151.597-115.004-151.979-115.036-152.359-115.07-152.952-115.124-153.545-115.176-154.141-115.224-154.539-115.255-154.938-115.284-155.338-115.313-155.924-115.354-156.511-115.394-157.1-115.43-157.5-115.454-157.901-115.478-158.303-115.499-158.906-115.532-159.51-115.56-160.116-115.586-160.499-115.603-160.882-115.619-161.266-115.633-161.932-115.657-162.6-115.675-163.269-115.69-163.593-115.698-163.916-115.709-164.241-115.715-165.234-115.732-166.23-115.743-167.229-115.743-235.295-115.743-290.678-74.292-290.678-23.349-290.678-15.289-289.29-7.461-286.683 0-281.807 13.962-272.667 26.652-260.368 37.218-258.359 38.943-256.273 40.615-254.104 42.218V51.633C-255.959 50.391-257.769 49.096-259.54 47.753-259.816 47.546-260.092 47.332-260.368 47.117-277.536 33.914-289.29 17.689-294.795 0H-334.459C-341.209 0-345.588-7.117-342.545-13.143L-260.718-175.176C-259.177-178.227-256.05-180.15-252.632-180.15H-81.827C-78.409-180.15-75.282-178.227-73.741-175.176L8.086-13.143C11.129-7.117 6.75 0 0 0" transform="matrix(1,0,0,-1,831.8711,1030.3555)"/>
<path fill="#f7941d" d="M0 0V-92H-94.39C-79.04-80.45-64.75-65.53-49.73-45.439-39.75-32.1-30.57-17.24-21.66 0Z" transform="matrix(1,0,0,-1,1559,1111)"/>
<path fill="#2e7d32" d="M0 0C-1.149-3.529-1.918-6.701-3.192-9.656-7.328-19.241-11.329-28.885-16.13-38.18-23.838-53.102-32.438-67.469-42.495-80.916-55.168-97.861-69.134-113.596-86.526-125.936-96.688-133.145-107.758-138.631-119.654-142.27-139.146-148.23-158.777-148.525-178.466-143.061-188.91-140.161-197.576-134.019-206.335-128.016-214.017-122.751-221.964-117.857-230.685-114.579-240.475-110.899-250.71-110.57-260.957-112.447-273.422-114.729-284.462-120.425-295.14-126.997-303.414-132.09-310.841-138.34-319.042-143.81-317.47-139.025-316.884-134.103-313.481-129.79-310.875-126.485-308.466-123.093-305.182-120.456-298.919-115.428-291.938-111.893-284.321-109.133-269.633-103.811-254.814-103.755-239.91-106.967-230.223-109.055-220.711-111.981-211.247-115.023-201.854-118.043-192.104-119.476-182.231-119.736-158.026-120.377-135.869-113.478-114.972-101.63-105.254-96.121-96.028-89.899-86.773-83.694-83.896-81.766-80.876-80.051-77.941-78.206-77.231-77.759-75.854-77.414-76.616-76.274-77.324-75.216-77.981-76.493-78.613-76.84-94.703-85.661-110.279-95.435-127.387-102.345-142.999-108.652-159.035-112.943-175.938-113.286-191.979-113.61-207.457-110.588-222.395-104.751-223.793-104.205-224.564-103.594-224.182-101.809-221.513-89.367-217.213-77.599-209.999-67.03-199.031-50.963-184.181-39.987-165.681-34.167-153.737-30.41-141.515-29.732-128.896-30.183-108.282-30.918-87.606-31.998-66.959-29.932-50.584-28.292-35.029-24.06-20.462-16.367-13.517-12.7-7.503-7.842-2.465-1.798-2.073-1.328-1.651-.881-1.213-.455-1.082-.328-.847-.31 0 0" transform="matrix(1,0,0,-1,1535.749,1063.5469)"/>
</g>
</g>
</svg>