<svg width="184" height="184" viewBox="0 0 184 184" fill="none" xmlns="http://www.w3.org/2000/svg">
<g filter="url(#filter0_d_373_617)">
<path d="M135.2 15H48.8C32.8942 15 20 27.8942 20 43.8V130.2C20 146.106 32.8942 159 48.8 159H135.2C151.106 159 164 146.106 164 130.2V43.8C164 27.8942 151.106 15 135.2 15Z" fill="url(#paint0_linear_373_617)"/>
<path d="M46.8096 126.98C44.416 131.767 47.8972 137.4 53.2495 137.4H101.95C107.302 137.4 110.783 131.767 108.39 126.98L84.0395 78.2799C81.3863 72.9731 73.8133 72.9731 71.1596 78.2799L46.8096 126.98Z" fill="white"/>
<path d="M90.0097 126.98C87.6161 131.767 91.0973 137.4 96.4496 137.4H130.75C136.102 137.4 139.583 131.767 137.19 126.98L120.04 92.6799C117.386 87.373 109.813 87.373 107.16 92.6799L90.0097 126.98Z" fill="white" fill-opacity="0.6"/>
<path d="M128.001 65.4C135.954 65.4 142.401 58.9527 142.401 50.9998C142.401 43.0469 135.954 36.5998 128.001 36.5998C120.048 36.5998 113.601 43.0469 113.601 50.9998C113.601 58.9527 120.048 65.4 128.001 65.4Z" fill="white"/>
</g>
<defs>
<filter id="filter0_d_373_617" x="0" y="0" width="184" height="184" filterUnits="userSpaceOnUse" color-interpolation-filters="sRGB">
<feFlood flood-opacity="0" result="BackgroundImageFix"/>
<feColorMatrix in="SourceAlpha" type="matrix" values="0 0 0 0 0 0 0 0 0 0 0 0 0 0 0 0 0 0 127 0" result="hardAlpha"/>
<feOffset dy="5"/>
<feGaussianBlur stdDeviation="10"/>
<feComposite in2="hardAlpha" operator="out"/>
<feColorMatrix type="matrix" values="0 0 0 0 0 0 0 0 0 0 0 0 0 0 0 0 0 0 0.05 0"/>
<feBlend mode="normal" in2="BackgroundImageFix" result="effect1_dropShadow_373_617"/>
<feBlend mode="normal" in="SourceGraphic" in2="effect1_dropShadow_373_617" result="shape"/>
</filter>
<linearGradient id="paint0_linear_373_617" x1="92" y1="15" x2="92" y2="159" gradientUnits="userSpaceOnUse">
<stop stop-color="#EDEDED"/>
<stop offset="1" stop-color="#D6D6D6"/>
</linearGradient>
</defs>
</svg>
